%TF.GenerationSoftware,KiCad,Pcbnew,7.0.7*%
%TF.CreationDate,2023-09-14T01:49:04+09:00*%
%TF.ProjectId,STM32F103_dev_board,53544d33-3246-4313-9033-5f6465765f62,1.0*%
%TF.SameCoordinates,Original*%
%TF.FileFunction,Copper,L4,Bot*%
%TF.FilePolarity,Positive*%
%FSLAX46Y46*%
G04 Gerber Fmt 4.6, Leading zero omitted, Abs format (unit mm)*
G04 Created by KiCad (PCBNEW 7.0.7) date 2023-09-14 01:49:04*
%MOMM*%
%LPD*%
G01*
G04 APERTURE LIST*
G04 Aperture macros list*
%AMRoundRect*
0 Rectangle with rounded corners*
0 $1 Rounding radius*
0 $2 $3 $4 $5 $6 $7 $8 $9 X,Y pos of 4 corners*
0 Add a 4 corners polygon primitive as box body*
4,1,4,$2,$3,$4,$5,$6,$7,$8,$9,$2,$3,0*
0 Add four circle primitives for the rounded corners*
1,1,$1+$1,$2,$3*
1,1,$1+$1,$4,$5*
1,1,$1+$1,$6,$7*
1,1,$1+$1,$8,$9*
0 Add four rect primitives between the rounded corners*
20,1,$1+$1,$2,$3,$4,$5,0*
20,1,$1+$1,$4,$5,$6,$7,0*
20,1,$1+$1,$6,$7,$8,$9,0*
20,1,$1+$1,$8,$9,$2,$3,0*%
G04 Aperture macros list end*
%TA.AperFunction,ComponentPad*%
%ADD10C,3.500000*%
%TD*%
%TA.AperFunction,ComponentPad*%
%ADD11C,0.650000*%
%TD*%
%TA.AperFunction,ComponentPad*%
%ADD12O,0.950000X2.280000*%
%TD*%
%TA.AperFunction,ComponentPad*%
%ADD13O,1.330000X1.980000*%
%TD*%
%TA.AperFunction,ComponentPad*%
%ADD14O,0.950000X1.800000*%
%TD*%
%TA.AperFunction,ComponentPad*%
%ADD15R,1.700000X1.700000*%
%TD*%
%TA.AperFunction,ComponentPad*%
%ADD16O,1.700000X1.700000*%
%TD*%
%TA.AperFunction,ComponentPad*%
%ADD17RoundRect,0.250000X0.600000X-0.600000X0.600000X0.600000X-0.600000X0.600000X-0.600000X-0.600000X0*%
%TD*%
%TA.AperFunction,ComponentPad*%
%ADD18C,1.700000*%
%TD*%
%TA.AperFunction,ComponentPad*%
%ADD19C,1.500000*%
%TD*%
%TA.AperFunction,SMDPad,CuDef*%
%ADD20R,0.450000X1.500000*%
%TD*%
%TA.AperFunction,SMDPad,CuDef*%
%ADD21RoundRect,0.100000X-0.130000X-0.100000X0.130000X-0.100000X0.130000X0.100000X-0.130000X0.100000X0*%
%TD*%
%TA.AperFunction,SMDPad,CuDef*%
%ADD22RoundRect,0.100000X0.130000X0.100000X-0.130000X0.100000X-0.130000X-0.100000X0.130000X-0.100000X0*%
%TD*%
%TA.AperFunction,SMDPad,CuDef*%
%ADD23R,1.430000X2.850000*%
%TD*%
%TA.AperFunction,ViaPad*%
%ADD24C,0.800000*%
%TD*%
%TA.AperFunction,Conductor*%
%ADD25C,0.250000*%
%TD*%
G04 APERTURE END LIST*
D10*
%TO.P,REF\u002A\u002A,1*%
%TO.N,/GND*%
X162560000Y-60270000D03*
%TD*%
D11*
%TO.P,J5,B1,GND*%
%TO.N,/GND*%
X148850000Y-134270000D03*
%TO.P,J5,B2,TX2+*%
%TO.N,unconnected-(J5-TX2+-PadB2)*%
X148450000Y-135170000D03*
%TO.P,J5,B3,TX2-*%
%TO.N,unconnected-(J5-TX2--PadB3)*%
X147650000Y-135170000D03*
%TO.P,J5,B4,VBUS*%
%TO.N,/5V*%
X147250000Y-134270000D03*
%TO.P,J5,B5,CC2*%
%TO.N,Net-(J5-CC2)*%
X146850000Y-135170000D03*
%TO.P,J5,B6,D+*%
%TO.N,Net-(J5-D+-PadA6)*%
X146450000Y-134270000D03*
%TO.P,J5,B7,D-*%
%TO.N,Net-(J5-D--PadA7)*%
X145650000Y-134270000D03*
%TO.P,J5,B8,SBU2*%
%TO.N,unconnected-(J5-SBU2-PadB8)*%
X145250000Y-135170000D03*
%TO.P,J5,B9,VBUS*%
%TO.N,/5V*%
X144850000Y-134270000D03*
%TO.P,J5,B10,RX1-*%
%TO.N,unconnected-(J5-RX1--PadB10)*%
X144450000Y-135170000D03*
%TO.P,J5,B11,RX1+*%
%TO.N,unconnected-(J5-RX1+-PadB11)*%
X143650000Y-135170000D03*
%TO.P,J5,B12,GND*%
%TO.N,/GND*%
X143250000Y-134270000D03*
D12*
%TO.P,J5,S1,SHIELD*%
X141475000Y-138330000D03*
D13*
X141660000Y-135420000D03*
D14*
X141755000Y-133440000D03*
X150345000Y-133440000D03*
D13*
X150440000Y-135420000D03*
D12*
X150625000Y-138330000D03*
%TD*%
D10*
%TO.P,REF\u002A\u002A,1*%
%TO.N,/GND*%
X128285913Y-139053348D03*
%TD*%
%TO.P,REF\u002A\u002A,1*%
%TO.N,/GND*%
X128270000Y-60270000D03*
%TD*%
D15*
%TO.P,J4,1,Pin_1*%
%TO.N,/VCC3V3*%
X137155000Y-123785000D03*
D16*
%TO.P,J4,2,Pin_2*%
X139695000Y-123785000D03*
%TO.P,J4,3,Pin_3*%
%TO.N,Net-(J4-Pin_3)*%
X137155000Y-126325000D03*
%TO.P,J4,4,Pin_4*%
%TO.N,Net-(J4-Pin_4)*%
X139695000Y-126325000D03*
%TO.P,J4,5,Pin_5*%
%TO.N,/GND*%
X137155000Y-128865000D03*
%TO.P,J4,6,Pin_6*%
X139695000Y-128865000D03*
%TD*%
D17*
%TO.P,J1,1,VTREF*%
%TO.N,/VCC3V3*%
X133350000Y-69160000D03*
D18*
%TO.P,J1,2,VCC/NC*%
X133350000Y-66620000D03*
%TO.P,J1,3,~{TRST}*%
%TO.N,/JNTRST*%
X135890000Y-69160000D03*
%TO.P,J1,4,GND*%
%TO.N,/GND*%
X135890000Y-66620000D03*
%TO.P,J1,5,TDI*%
%TO.N,/JTDI*%
X138430000Y-69160000D03*
%TO.P,J1,6,GND*%
%TO.N,/GND*%
X138430000Y-66620000D03*
%TO.P,J1,7,TMS/SWDIO*%
%TO.N,/JTMS{slash}SWDIO*%
X140970000Y-69160000D03*
%TO.P,J1,8,GND*%
%TO.N,/GND*%
X140970000Y-66620000D03*
%TO.P,J1,9,TCK/SWDCLK*%
%TO.N,/JTCK{slash}SWCLK*%
X143510000Y-69160000D03*
%TO.P,J1,10,GND*%
%TO.N,/GND*%
X143510000Y-66620000D03*
%TO.P,J1,11,RTCK*%
%TO.N,Net-(J1-RTCK)*%
X146050000Y-69160000D03*
%TO.P,J1,12,GND*%
%TO.N,/GND*%
X146050000Y-66620000D03*
%TO.P,J1,13,TDO/SWO*%
%TO.N,/JTDO*%
X148590000Y-69160000D03*
%TO.P,J1,14,GND*%
%TO.N,/GND*%
X148590000Y-66620000D03*
%TO.P,J1,15,~{SRST}*%
%TO.N,/RESET*%
X151130000Y-69160000D03*
%TO.P,J1,16,GND*%
%TO.N,/GND*%
X151130000Y-66620000D03*
%TO.P,J1,17,DBGRQ/NC*%
%TO.N,Net-(J1-DBGRQ{slash}NC)*%
X153670000Y-69160000D03*
%TO.P,J1,18,GND*%
%TO.N,/GND*%
X153670000Y-66620000D03*
%TO.P,J1,19,DBGACK/NC*%
%TO.N,Net-(J1-DBGACK{slash}NC)*%
X156210000Y-69160000D03*
%TO.P,J1,20,GND*%
%TO.N,/GND*%
X156210000Y-66620000D03*
%TD*%
D15*
%TO.P,J3,1,Pin_1*%
%TO.N,/VCC3V3*%
X161290000Y-80590000D03*
D16*
%TO.P,J3,2,Pin_2*%
%TO.N,/GND*%
X161290000Y-83130000D03*
%TO.P,J3,3,Pin_3*%
%TO.N,/5V*%
X161290000Y-85670000D03*
%TO.P,J3,4,Pin_4*%
%TO.N,/PC12*%
X161290000Y-88210000D03*
%TO.P,J3,5,Pin_5*%
%TO.N,/PC11*%
X161290000Y-90750000D03*
%TO.P,J3,6,Pin_6*%
%TO.N,/PC10*%
X161290000Y-93290000D03*
%TO.P,J3,7,Pin_7*%
%TO.N,/PA10{slash}USART1_RX*%
X161290000Y-95830000D03*
%TO.P,J3,8,Pin_8*%
%TO.N,/PA9{slash}USART1_TX*%
X161290000Y-98370000D03*
%TO.P,J3,9,Pin_9*%
%TO.N,/PA8*%
X161290000Y-100910000D03*
%TO.P,J3,10,Pin_10*%
%TO.N,/PC9*%
X161290000Y-103450000D03*
%TO.P,J3,11,Pin_11*%
%TO.N,/PC8*%
X161290000Y-105990000D03*
%TO.P,J3,12,Pin_12*%
%TO.N,/PC7*%
X161290000Y-108530000D03*
%TO.P,J3,13,Pin_13*%
%TO.N,/PC6*%
X161290000Y-111070000D03*
%TO.P,J3,14,Pin_14*%
%TO.N,/PB15*%
X161290000Y-113610000D03*
%TO.P,J3,15,Pin_15*%
%TO.N,/PB14*%
X161290000Y-116150000D03*
%TO.P,J3,16,Pin_16*%
%TO.N,/PB13*%
X161290000Y-118690000D03*
%TO.P,J3,17,Pin_17*%
%TO.N,/PB12*%
X161290000Y-121230000D03*
%TO.P,J3,18,Pin_18*%
%TO.N,/PB11*%
X161290000Y-123770000D03*
%TO.P,J3,19,Pin_19*%
%TO.N,/PB10*%
X161290000Y-126310000D03*
%TO.P,J3,20,Pin_20*%
%TO.N,/PB1*%
X161290000Y-128850000D03*
%TD*%
D10*
%TO.P,REF\u002A\u002A,1*%
%TO.N,/GND*%
X162560000Y-139010000D03*
%TD*%
D19*
%TO.P,Y1,1,1*%
%TO.N,/OSC_OUT*%
X148550000Y-89480000D03*
%TO.P,Y1,2,2*%
%TO.N,/OSC_IN*%
X143670000Y-89480000D03*
%TD*%
D15*
%TO.P,J2,1,Pin_1*%
%TO.N,/VBAT*%
X129540000Y-80590000D03*
D16*
%TO.P,J2,2,Pin_2*%
%TO.N,/PB6*%
X129540000Y-83130000D03*
%TO.P,J2,3,Pin_3*%
%TO.N,/PB7*%
X129540000Y-85670000D03*
%TO.P,J2,4,Pin_4*%
%TO.N,/PB8*%
X129540000Y-88210000D03*
%TO.P,J2,5,Pin_5*%
%TO.N,/PB9*%
X129540000Y-90750000D03*
%TO.P,J2,6,Pin_6*%
%TO.N,/PC13*%
X129540000Y-93290000D03*
%TO.P,J2,7,Pin_7*%
%TO.N,/PA5*%
X129540000Y-95830000D03*
%TO.P,J2,8,Pin_8*%
%TO.N,/PA6*%
X129540000Y-98370000D03*
%TO.P,J2,9,Pin_9*%
%TO.N,/PC0*%
X129540000Y-100910000D03*
%TO.P,J2,10,Pin_10*%
%TO.N,/PC1*%
X129540000Y-103450000D03*
%TO.P,J2,11,Pin_11*%
%TO.N,/PC2*%
X129540000Y-105990000D03*
%TO.P,J2,12,Pin_12*%
%TO.N,/PC3*%
X129540000Y-108530000D03*
%TO.P,J2,13,Pin_13*%
%TO.N,/PA0*%
X129540000Y-111070000D03*
%TO.P,J2,14,Pin_14*%
%TO.N,/PA1*%
X129540000Y-113610000D03*
%TO.P,J2,15,Pin_15*%
%TO.N,/PA2*%
X129540000Y-116150000D03*
%TO.P,J2,16,Pin_16*%
%TO.N,/PA3*%
X129540000Y-118690000D03*
%TO.P,J2,17,Pin_17*%
%TO.N,/RESET*%
X129540000Y-121230000D03*
%TO.P,J2,18,Pin_18*%
%TO.N,/VCC3V3*%
X129540000Y-123770000D03*
%TO.P,J2,19,Pin_19*%
%TO.N,/GND*%
X129540000Y-126310000D03*
%TO.P,J2,20,Pin_20*%
X129540000Y-128850000D03*
%TD*%
D20*
%TO.P,U3,1,TXD*%
%TO.N,/PA9{slash}USART1_TX*%
X149445000Y-120885000D03*
%TO.P,U3,2,DTR*%
%TO.N,/RESET*%
X150095000Y-120885000D03*
%TO.P,U3,3,RTS*%
%TO.N,/PA12*%
X150745000Y-120885000D03*
%TO.P,U3,4,VCCIO*%
%TO.N,/5V*%
X151395000Y-120885000D03*
%TO.P,U3,5,RXD*%
%TO.N,/PA10{slash}USART1_RX*%
X152045000Y-120885000D03*
%TO.P,U3,6,RI*%
%TO.N,unconnected-(U3-RI-Pad6)*%
X152695000Y-120885000D03*
%TO.P,U3,7,GND*%
%TO.N,/GND*%
X153345000Y-120885000D03*
%TO.P,U3,8,GPIO5*%
%TO.N,unconnected-(U3-GPIO5-Pad8)*%
X153995000Y-120885000D03*
%TO.P,U3,9,DSR*%
%TO.N,unconnected-(U3-DSR-Pad9)*%
X154645000Y-120885000D03*
%TO.P,U3,10,DCD*%
%TO.N,unconnected-(U3-DCD-Pad10)*%
X155295000Y-120885000D03*
%TO.P,U3,11,CTS*%
%TO.N,/PA11*%
X155945000Y-120885000D03*
%TO.P,U3,12,GPIO4*%
%TO.N,unconnected-(U3-GPIO4-Pad12)*%
X156595000Y-120885000D03*
%TO.P,U3,13,GPIO2*%
%TO.N,unconnected-(U3-GPIO2-Pad13)*%
X157245000Y-120885000D03*
%TO.P,U3,14,GPIO3*%
%TO.N,unconnected-(U3-GPIO3-Pad14)*%
X157895000Y-120885000D03*
%TO.P,U3,15,USBDP*%
%TO.N,/USBDP*%
X157895000Y-128035000D03*
%TO.P,U3,16,USBDM*%
%TO.N,/USBDM*%
X157245000Y-128035000D03*
%TO.P,U3,17,VCCD*%
%TO.N,Net-(U3-VCCD)*%
X156595000Y-128035000D03*
%TO.P,U3,18,GND*%
%TO.N,/GND*%
X155945000Y-128035000D03*
%TO.P,U3,19,RESET*%
%TO.N,/5V*%
X155295000Y-128035000D03*
%TO.P,U3,20,VCC*%
X154645000Y-128035000D03*
%TO.P,U3,21,GND*%
%TO.N,/GND*%
X153995000Y-128035000D03*
%TO.P,U3,22,GPIO1*%
%TO.N,unconnected-(U3-GPIO1-Pad22)*%
X153345000Y-128035000D03*
%TO.P,U3,23,GPIO0*%
%TO.N,unconnected-(U3-GPIO0-Pad23)*%
X152695000Y-128035000D03*
%TO.P,U3,24,NC*%
%TO.N,unconnected-(U3-NC-Pad24)*%
X152045000Y-128035000D03*
%TO.P,U3,25,NC*%
%TO.N,unconnected-(U3-NC-Pad25)*%
X151395000Y-128035000D03*
%TO.P,U3,26,DNU*%
%TO.N,unconnected-(U3-DNU-Pad26)*%
X150745000Y-128035000D03*
%TO.P,U3,27,GPIO6*%
%TO.N,unconnected-(U3-GPIO6-Pad27)*%
X150095000Y-128035000D03*
%TO.P,U3,28,GPIO7*%
%TO.N,unconnected-(U3-GPIO7-Pad28)*%
X149445000Y-128035000D03*
%TD*%
D21*
%TO.P,C9,1*%
%TO.N,/GND*%
X155545000Y-132080000D03*
%TO.P,C9,2*%
%TO.N,Net-(U3-VCCD)*%
X156185000Y-132080000D03*
%TD*%
D22*
%TO.P,C8,1*%
%TO.N,/GND*%
X153645000Y-118110000D03*
%TO.P,C8,2*%
%TO.N,/5V*%
X153005000Y-118110000D03*
%TD*%
%TO.P,C12,1*%
%TO.N,/GND*%
X153990000Y-106680000D03*
%TO.P,C12,2*%
%TO.N,/OSC32_OUT*%
X153350000Y-106680000D03*
%TD*%
D23*
%TO.P,Y2,1,1*%
%TO.N,/OSC32_IN*%
X148315000Y-99525000D03*
%TO.P,Y2,2,2*%
%TO.N,/GND*%
X153945000Y-99525000D03*
%TO.P,Y2,3,3*%
X153945000Y-103675000D03*
%TO.P,Y2,4,4*%
%TO.N,/OSC32_OUT*%
X148315000Y-103675000D03*
%TD*%
D22*
%TO.P,C11,1*%
%TO.N,/GND*%
X153990000Y-96520000D03*
%TO.P,C11,2*%
%TO.N,/OSC32_IN*%
X153350000Y-96520000D03*
%TD*%
D24*
%TO.N,/GND*%
X142240000Y-116150000D03*
X147320000Y-111070000D03*
X142218369Y-113562009D03*
X154940000Y-118690000D03*
X153670000Y-132080000D03*
X152400000Y-109220000D03*
X135722701Y-97957299D03*
X138430000Y-83820000D03*
%TO.N,/OSC_IN*%
X139700000Y-105990000D03*
X140970000Y-100910000D03*
%TO.N,/OSC_OUT*%
X142240000Y-102180000D03*
X142240000Y-111070000D03*
%TO.N,/5V*%
X151130000Y-119380000D03*
X156210000Y-118690000D03*
X156210000Y-125040000D03*
X147320000Y-113030000D03*
X157480000Y-130810000D03*
X154940000Y-129540000D03*
%TO.N,/VCC3V3*%
X148590000Y-116150000D03*
X143510000Y-111070000D03*
X147320000Y-117420000D03*
X132080000Y-79320000D03*
%TO.N,/JNTRST*%
X144780000Y-103450000D03*
%TO.N,/JTDI*%
X139700000Y-76780000D03*
X149860000Y-105990000D03*
%TO.N,/JTMS{slash}SWDIO*%
X148590000Y-93980000D03*
X152400000Y-105990000D03*
X152400000Y-94560000D03*
%TO.N,/JTCK{slash}SWCLK*%
X151130000Y-105990000D03*
%TO.N,/JTDO*%
X143510000Y-84400000D03*
X146050000Y-79320000D03*
X146050000Y-103450000D03*
X147320000Y-81860000D03*
%TO.N,/VBAT*%
X137160000Y-86940000D03*
X138430000Y-107260000D03*
%TO.N,/PB10*%
X148590000Y-125040000D03*
%TO.N,/PB11*%
X148590000Y-123770000D03*
%TO.N,/RESET*%
X143510000Y-103450000D03*
X144780000Y-115570000D03*
X134620000Y-119380000D03*
X137160000Y-112340000D03*
X144824341Y-111791705D03*
X154940000Y-85670000D03*
%TO.N,/PA4*%
X142240000Y-123190000D03*
X146050000Y-123190000D03*
%TO.N,/PA5*%
X143510000Y-121920000D03*
%TO.N,/PA6*%
X144780000Y-121920000D03*
%TO.N,/PA10{slash}USART1_RX*%
X148590000Y-113030000D03*
%TO.N,/PB1*%
X146050000Y-121230000D03*
%TO.N,Net-(J5-CC1)*%
X144780000Y-128850000D03*
X147320000Y-128850000D03*
%TO.N,Net-(J5-CC2)*%
X147320000Y-130120000D03*
%TO.N,/BOOT0*%
X143510000Y-109800000D03*
X132080000Y-126310000D03*
%TO.N,/USBDM*%
X146050000Y-125730000D03*
%TO.N,/USBDP*%
X144780000Y-125730000D03*
%TO.N,/OSC32_IN*%
X147320000Y-95250000D03*
X142240000Y-82550000D03*
X139700000Y-83820000D03*
X152400000Y-92710000D03*
X134345500Y-102870000D03*
%TO.N,/OSC32_OUT*%
X149860000Y-101600000D03*
X139700000Y-91440000D03*
X142240000Y-97790000D03*
X133350000Y-101600000D03*
X144780000Y-100330000D03*
%TO.N,/PA9{slash}USART1_TX*%
X148590000Y-114300000D03*
%TO.N,/PA11*%
X157480000Y-97790000D03*
%TO.N,/PA12*%
X157480000Y-96520000D03*
%TD*%
D25*
%TO.N,/GND*%
X155760000Y-116600000D02*
X154940000Y-117420000D01*
X153670000Y-132080000D02*
X155545000Y-132080000D01*
X153990000Y-107630000D02*
X153990000Y-106680000D01*
X136435000Y-97245000D02*
X136435000Y-85815000D01*
X142218369Y-113562009D02*
X142218369Y-116128369D01*
X155945000Y-129805000D02*
X153670000Y-132080000D01*
X148345305Y-111070000D02*
X154695305Y-117420000D01*
X153895000Y-128135000D02*
X153895000Y-131855000D01*
X153945000Y-96565000D02*
X153945000Y-99525000D01*
X152400000Y-109220000D02*
X153990000Y-107630000D01*
X150625000Y-138470000D02*
X141475000Y-138470000D01*
X153645000Y-118110000D02*
X154360000Y-118110000D01*
X161290000Y-83130000D02*
X155760000Y-88660000D01*
X153945000Y-106635000D02*
X153990000Y-106680000D01*
X154695305Y-117420000D02*
X154940000Y-117420000D01*
X155760000Y-88660000D02*
X155760000Y-116600000D01*
X153345000Y-120885000D02*
X153345000Y-119910000D01*
X153995000Y-128035000D02*
X153895000Y-128135000D01*
X142218369Y-116128369D02*
X142240000Y-116150000D01*
X136435000Y-85815000D02*
X138430000Y-83820000D01*
X153945000Y-103675000D02*
X153945000Y-99525000D01*
X153990000Y-96520000D02*
X153945000Y-96565000D01*
X153445000Y-119810000D02*
X154940000Y-119810000D01*
X147320000Y-111070000D02*
X148345305Y-111070000D01*
X154360000Y-118110000D02*
X154940000Y-118690000D01*
X153895000Y-131855000D02*
X153670000Y-132080000D01*
X154940000Y-117420000D02*
X154940000Y-118690000D01*
X135722701Y-97957299D02*
X136435000Y-97245000D01*
X155945000Y-128035000D02*
X155945000Y-129805000D01*
X154940000Y-119810000D02*
X154940000Y-118690000D01*
X153945000Y-103675000D02*
X153945000Y-106635000D01*
X153345000Y-119910000D02*
X153445000Y-119810000D01*
X147320000Y-111070000D02*
X142240000Y-116150000D01*
%TO.N,/OSC_IN*%
X139700000Y-102180000D02*
X139700000Y-105990000D01*
X140970000Y-100910000D02*
X139700000Y-102180000D01*
%TO.N,/OSC_OUT*%
X140970000Y-103450000D02*
X140970000Y-109800000D01*
X140970000Y-109800000D02*
X142240000Y-111070000D01*
X142240000Y-102180000D02*
X140970000Y-103450000D01*
%TO.N,/5V*%
X158750000Y-127000000D02*
X156790000Y-125040000D01*
X156790000Y-125040000D02*
X156210000Y-125040000D01*
X157480000Y-130810000D02*
X157480000Y-130075000D01*
X151130000Y-119380000D02*
X151395000Y-119645000D01*
X154645000Y-128035000D02*
X155295000Y-128035000D01*
X153005000Y-116419695D02*
X148890305Y-112305000D01*
X156210000Y-90750000D02*
X156210000Y-118690000D01*
X154940000Y-129540000D02*
X154940000Y-128390000D01*
X151395000Y-119645000D02*
X151395000Y-120885000D01*
X157480000Y-130075000D02*
X158750000Y-128805000D01*
X158750000Y-128805000D02*
X158750000Y-127000000D01*
X154940000Y-128390000D02*
X155295000Y-128035000D01*
X153005000Y-118110000D02*
X153005000Y-116419695D01*
X161290000Y-85670000D02*
X156210000Y-90750000D01*
X148890305Y-112305000D02*
X148045000Y-112305000D01*
X148045000Y-112305000D02*
X147320000Y-113030000D01*
%TO.N,/VCC3V3*%
X143510000Y-111070000D02*
X142785000Y-111795000D01*
X141695000Y-111795000D02*
X132080000Y-102180000D01*
X142785000Y-111795000D02*
X141695000Y-111795000D01*
X132080000Y-102180000D02*
X132080000Y-79320000D01*
X147320000Y-117420000D02*
X148590000Y-116150000D01*
%TO.N,/JNTRST*%
X144780000Y-103450000D02*
X140970000Y-99640000D01*
X140970000Y-99640000D02*
X140970000Y-80590000D01*
X140970000Y-80590000D02*
X137160000Y-76780000D01*
X137160000Y-70430000D02*
X135890000Y-69160000D01*
X137160000Y-76780000D02*
X137160000Y-70430000D01*
%TO.N,/JTDI*%
X150680000Y-87760000D02*
X150680000Y-105170000D01*
X139700000Y-76780000D02*
X150680000Y-87760000D01*
X150680000Y-105170000D02*
X149860000Y-105990000D01*
%TO.N,/JTMS{slash}SWDIO*%
X148590000Y-93980000D02*
X147320000Y-92710000D01*
X147320000Y-85425305D02*
X138975000Y-77080305D01*
X147320000Y-92710000D02*
X147320000Y-85425305D01*
X138975000Y-77080305D02*
X138975000Y-71155000D01*
X152400000Y-94560000D02*
X152400000Y-105990000D01*
X138975000Y-71155000D02*
X140970000Y-69160000D01*
%TO.N,/JTCK{slash}SWCLK*%
X143510000Y-75510000D02*
X151130000Y-83130000D01*
X143510000Y-69160000D02*
X143510000Y-75510000D01*
X151130000Y-83130000D02*
X151130000Y-105990000D01*
%TO.N,/JTDO*%
X147320000Y-81860000D02*
X147320000Y-80590000D01*
X147320000Y-80590000D02*
X146050000Y-79320000D01*
X146050000Y-86940000D02*
X146050000Y-103450000D01*
X143510000Y-84400000D02*
X146050000Y-86940000D01*
%TO.N,/VBAT*%
X137160000Y-86940000D02*
X138430000Y-88210000D01*
X138430000Y-88210000D02*
X138430000Y-107260000D01*
%TO.N,/PB10*%
X148590000Y-125040000D02*
X149315000Y-124315000D01*
X149315000Y-124315000D02*
X159295000Y-124315000D01*
X159295000Y-124315000D02*
X161290000Y-126310000D01*
%TO.N,/PB11*%
X148590000Y-123770000D02*
X161290000Y-123770000D01*
%TO.N,/RESET*%
X148895000Y-121960000D02*
X150020000Y-121960000D01*
X150095000Y-121885000D02*
X150095000Y-120885000D01*
X134593198Y-118083198D02*
X132805000Y-119871396D01*
X154940000Y-85670000D02*
X151130000Y-81860000D01*
X132380305Y-127035000D02*
X131779695Y-127035000D01*
X134620000Y-118110000D02*
X134620000Y-119380000D01*
X132805000Y-126610305D02*
X132380305Y-127035000D01*
X144780000Y-115570000D02*
X144780000Y-117845000D01*
X144811705Y-111791705D02*
X144824341Y-111791705D01*
X137160000Y-113610000D02*
X129540000Y-121230000D01*
X144780000Y-117845000D02*
X148895000Y-121960000D01*
X151130000Y-81860000D02*
X151130000Y-69160000D01*
X143510000Y-103450000D02*
X144780000Y-104720000D01*
X131355000Y-126610305D02*
X131355000Y-118145000D01*
X139981396Y-112695000D02*
X134593198Y-118083198D01*
X134593198Y-118083198D02*
X134620000Y-118110000D01*
X144780000Y-111760000D02*
X143845000Y-112695000D01*
X131355000Y-118145000D02*
X137160000Y-112340000D01*
X137160000Y-112340000D02*
X137160000Y-113610000D01*
X144780000Y-111760000D02*
X144811705Y-111791705D01*
X150020000Y-121960000D02*
X150095000Y-121885000D01*
X143845000Y-112695000D02*
X139981396Y-112695000D01*
X144780000Y-104720000D02*
X144780000Y-111760000D01*
X131779695Y-127035000D02*
X131355000Y-126610305D01*
X132805000Y-119871396D02*
X132805000Y-126610305D01*
%TO.N,/PA4*%
X146050000Y-123190000D02*
X142240000Y-123190000D01*
%TO.N,/PA5*%
X130810000Y-119323604D02*
X130810000Y-97100000D01*
X135117208Y-121920000D02*
X135117208Y-124934493D01*
X135117208Y-124934493D02*
X132566701Y-127485000D01*
X129053299Y-120055000D02*
X130078604Y-120055000D01*
X129053299Y-122405000D02*
X128365000Y-121716701D01*
X130078604Y-120055000D02*
X130810000Y-119323604D01*
X128365000Y-121716701D02*
X128365000Y-120743299D01*
X130715000Y-126606701D02*
X130715000Y-123093299D01*
X130715000Y-123093299D02*
X130026701Y-122405000D01*
X132566701Y-127485000D02*
X131593299Y-127485000D01*
X130810000Y-97100000D02*
X129540000Y-95830000D01*
X131593299Y-127485000D02*
X130715000Y-126606701D01*
X143510000Y-121920000D02*
X135117208Y-121920000D01*
X128365000Y-120743299D02*
X129053299Y-120055000D01*
X130026701Y-122405000D02*
X129053299Y-122405000D01*
%TO.N,/PA6*%
X135567208Y-122370000D02*
X135567208Y-125120889D01*
X135567208Y-125120889D02*
X132753097Y-127935000D01*
X132753097Y-127935000D02*
X130476701Y-127935000D01*
X130476701Y-127935000D02*
X130026701Y-127485000D01*
X127915000Y-99995000D02*
X129540000Y-98370000D01*
X144055000Y-122645000D02*
X143209695Y-122645000D01*
X143209695Y-122645000D02*
X142934695Y-122370000D01*
X142934695Y-122370000D02*
X135567208Y-122370000D01*
X130026701Y-127485000D02*
X129053299Y-127485000D01*
X144780000Y-121920000D02*
X144055000Y-122645000D01*
X127915000Y-126346701D02*
X127915000Y-99995000D01*
X129053299Y-127485000D02*
X127915000Y-126346701D01*
%TO.N,/PA10{slash}USART1_RX*%
X149895000Y-117119695D02*
X149895000Y-114335000D01*
X152045000Y-119269695D02*
X149895000Y-117119695D01*
X149895000Y-114335000D02*
X148590000Y-113030000D01*
X152045000Y-120885000D02*
X152045000Y-119269695D01*
%TO.N,/PB1*%
X148144695Y-123190000D02*
X148289695Y-123045000D01*
X161776701Y-122595000D02*
X162465000Y-123283299D01*
X160803299Y-122595000D02*
X161776701Y-122595000D01*
X149035305Y-123190000D02*
X160208299Y-123190000D01*
X148289695Y-123045000D02*
X148890305Y-123045000D01*
X148890305Y-123045000D02*
X149035305Y-123190000D01*
X160208299Y-123190000D02*
X160803299Y-122595000D01*
X146050000Y-121230000D02*
X148010000Y-123190000D01*
X162465000Y-127675000D02*
X161290000Y-128850000D01*
X148010000Y-123190000D02*
X148144695Y-123190000D01*
X162465000Y-123283299D02*
X162465000Y-127675000D01*
%TO.N,Net-(J5-CC1)*%
X147320000Y-128850000D02*
X144780000Y-128850000D01*
%TO.N,Net-(J5-CC2)*%
X143000000Y-134939239D02*
X143000000Y-135439239D01*
X147320000Y-130120000D02*
X146480761Y-130120000D01*
X143380761Y-135820000D02*
X146200000Y-135820000D01*
X146200000Y-135820000D02*
X146850000Y-135170000D01*
X142600000Y-134000761D02*
X142600000Y-134539239D01*
X146480761Y-130120000D02*
X142600000Y-134000761D01*
X143000000Y-135439239D02*
X143380761Y-135820000D01*
X142600000Y-134539239D02*
X143000000Y-134939239D01*
%TO.N,/BOOT0*%
X143360305Y-112245000D02*
X139795000Y-112245000D01*
X139795000Y-112245000D02*
X132080000Y-119960000D01*
X132080000Y-119960000D02*
X132080000Y-126310000D01*
X144235000Y-111370305D02*
X143360305Y-112245000D01*
X144235000Y-110525000D02*
X144235000Y-111370305D01*
X143510000Y-109800000D02*
X144235000Y-110525000D01*
%TO.N,/USBDM*%
X157245000Y-127035000D02*
X157170000Y-126960000D01*
X157170000Y-126960000D02*
X147280000Y-126960000D01*
X147280000Y-126960000D02*
X146050000Y-125730000D01*
X157245000Y-128035000D02*
X157245000Y-127035000D01*
%TO.N,/USBDP*%
X148100000Y-126510000D02*
X157356396Y-126510000D01*
X157356396Y-126510000D02*
X157895000Y-127048604D01*
X144780000Y-125730000D02*
X145505000Y-125005000D01*
X146595000Y-125005000D02*
X148100000Y-126510000D01*
X145505000Y-125005000D02*
X146595000Y-125005000D01*
X157895000Y-127048604D02*
X157895000Y-128035000D01*
%TO.N,/OSC32_IN*%
X146870000Y-85910000D02*
X143510000Y-82550000D01*
X147320000Y-95250000D02*
X148315000Y-96245000D01*
X138975000Y-83095000D02*
X137885000Y-83095000D01*
X153350000Y-96520000D02*
X153350000Y-93660000D01*
X153350000Y-93660000D02*
X152400000Y-92710000D01*
X143510000Y-82550000D02*
X142240000Y-82550000D01*
X148315000Y-96245000D02*
X148315000Y-99525000D01*
X137885000Y-83095000D02*
X134345500Y-86634500D01*
X147320000Y-95250000D02*
X146870000Y-94800000D01*
X134345500Y-86634500D02*
X134345500Y-102870000D01*
X139700000Y-83820000D02*
X138975000Y-83095000D01*
X146870000Y-94800000D02*
X146870000Y-85910000D01*
%TO.N,/OSC32_OUT*%
X149860000Y-102130000D02*
X149860000Y-101600000D01*
X139455305Y-82550000D02*
X140520000Y-83614695D01*
X148315000Y-103675000D02*
X149860000Y-102130000D01*
X153315000Y-106715000D02*
X153350000Y-106680000D01*
X148315000Y-106405000D02*
X148625000Y-106715000D01*
X137793604Y-82550000D02*
X139455305Y-82550000D01*
X140520000Y-90620000D02*
X139700000Y-91440000D01*
X133350000Y-86993604D02*
X137793604Y-82550000D01*
X142240000Y-97790000D02*
X144780000Y-100330000D01*
X148315000Y-103675000D02*
X148315000Y-106405000D01*
X133350000Y-101600000D02*
X133350000Y-86993604D01*
X140520000Y-83614695D02*
X140520000Y-90620000D01*
X148625000Y-106715000D02*
X153315000Y-106715000D01*
%TO.N,/PA9{slash}USART1_TX*%
X149445000Y-115155000D02*
X149445000Y-120885000D01*
X148590000Y-114300000D02*
X149445000Y-115155000D01*
%TO.N,/PA11*%
X157480000Y-118445305D02*
X157480000Y-97790000D01*
X155945000Y-120885000D02*
X155945000Y-119980305D01*
X155945000Y-119980305D02*
X157480000Y-118445305D01*
%TO.N,/PA12*%
X151600000Y-122740000D02*
X159200000Y-122740000D01*
X160020000Y-96520000D02*
X157480000Y-96520000D01*
X160020000Y-121920000D02*
X160020000Y-96520000D01*
X159200000Y-122740000D02*
X160020000Y-121920000D01*
X150745000Y-120885000D02*
X150745000Y-121885000D01*
X150745000Y-121885000D02*
X151600000Y-122740000D01*
%TO.N,Net-(U3-VCCD)*%
X156595000Y-131670000D02*
X156595000Y-128035000D01*
X156185000Y-132080000D02*
X156595000Y-131670000D01*
%TD*%
M02*
