%TF.GenerationSoftware,KiCad,Pcbnew,7.0.7*%
%TF.CreationDate,2023-09-14T01:49:04+09:00*%
%TF.ProjectId,STM32F103_dev_board,53544d33-3246-4313-9033-5f6465765f62,1.0*%
%TF.SameCoordinates,Original*%
%TF.FileFunction,Paste,Top*%
%TF.FilePolarity,Positive*%
%FSLAX46Y46*%
G04 Gerber Fmt 4.6, Leading zero omitted, Abs format (unit mm)*
G04 Created by KiCad (PCBNEW 7.0.7) date 2023-09-14 01:49:04*
%MOMM*%
%LPD*%
G01*
G04 APERTURE LIST*
G04 Aperture macros list*
%AMRoundRect*
0 Rectangle with rounded corners*
0 $1 Rounding radius*
0 $2 $3 $4 $5 $6 $7 $8 $9 X,Y pos of 4 corners*
0 Add a 4 corners polygon primitive as box body*
4,1,4,$2,$3,$4,$5,$6,$7,$8,$9,$2,$3,0*
0 Add four circle primitives for the rounded corners*
1,1,$1+$1,$2,$3*
1,1,$1+$1,$4,$5*
1,1,$1+$1,$6,$7*
1,1,$1+$1,$8,$9*
0 Add four rect primitives between the rounded corners*
20,1,$1+$1,$2,$3,$4,$5,0*
20,1,$1+$1,$4,$5,$6,$7,0*
20,1,$1+$1,$6,$7,$8,$9,0*
20,1,$1+$1,$8,$9,$2,$3,0*%
G04 Aperture macros list end*
%ADD10RoundRect,0.079500X0.079500X0.100500X-0.079500X0.100500X-0.079500X-0.100500X0.079500X-0.100500X0*%
%ADD11RoundRect,0.079500X-0.100500X0.079500X-0.100500X-0.079500X0.100500X-0.079500X0.100500X0.079500X0*%
%ADD12R,1.700000X0.800000*%
%ADD13RoundRect,0.079500X-0.079500X-0.100500X0.079500X-0.100500X0.079500X0.100500X-0.079500X0.100500X0*%
%ADD14R,0.300000X0.700000*%
%ADD15C,0.650000*%
%ADD16O,0.950000X2.280000*%
%ADD17O,1.330000X1.980000*%
%ADD18O,0.950000X1.800000*%
%ADD19R,0.700000X0.350000*%
%ADD20RoundRect,0.150000X0.150000X-0.512500X0.150000X0.512500X-0.150000X0.512500X-0.150000X-0.512500X0*%
%ADD21RoundRect,0.075000X-0.700000X-0.075000X0.700000X-0.075000X0.700000X0.075000X-0.700000X0.075000X0*%
%ADD22RoundRect,0.075000X-0.075000X-0.700000X0.075000X-0.700000X0.075000X0.700000X-0.075000X0.700000X0*%
G04 APERTURE END LIST*
D10*
%TO.C,C4*%
X153065000Y-130120000D03*
X152375000Y-130120000D03*
%TD*%
D11*
%TO.C,R6*%
X151130000Y-121895000D03*
X151130000Y-122585000D03*
%TD*%
%TO.C,R7*%
X147320000Y-126890000D03*
X147320000Y-127580000D03*
%TD*%
D12*
%TO.C,S1*%
X134620000Y-132920000D03*
X134620000Y-136320000D03*
%TD*%
D13*
%TO.C,C1*%
X154275000Y-122500000D03*
X154965000Y-122500000D03*
%TD*%
%TO.C,R2*%
X149170000Y-128850000D03*
X149860000Y-128850000D03*
%TD*%
D10*
%TO.C,C3*%
X151795000Y-85670000D03*
X151105000Y-85670000D03*
%TD*%
D11*
%TO.C,R12*%
X149908867Y-121908198D03*
X149908867Y-122598198D03*
%TD*%
%TO.C,R8*%
X146050000Y-126890000D03*
X146050000Y-127580000D03*
%TD*%
%TO.C,D1*%
X151130000Y-124435000D03*
X151130000Y-125125000D03*
%TD*%
D14*
%TO.C,J5*%
X143300000Y-133160000D03*
X143800000Y-133160000D03*
X144300000Y-133160000D03*
X144800000Y-133160000D03*
X145300000Y-133160000D03*
X145800000Y-133160000D03*
X146300000Y-133160000D03*
X146800000Y-133160000D03*
X147300000Y-133160000D03*
X147800000Y-133160000D03*
X148300000Y-133160000D03*
X148800000Y-133160000D03*
D15*
X148850000Y-134270000D03*
X148450000Y-135170000D03*
X147650000Y-135170000D03*
X147250000Y-134270000D03*
X146850000Y-135170000D03*
X146450000Y-134270000D03*
X145650000Y-134270000D03*
X145250000Y-135170000D03*
X144850000Y-134270000D03*
X144450000Y-135170000D03*
X143650000Y-135170000D03*
X143250000Y-134270000D03*
D16*
X141475000Y-138330000D03*
D17*
X141660000Y-135420000D03*
D18*
X141755000Y-133440000D03*
D19*
X142675000Y-132375000D03*
X149425000Y-132375000D03*
D18*
X150345000Y-133440000D03*
D17*
X150440000Y-135420000D03*
D16*
X150625000Y-138330000D03*
%TD*%
D10*
%TO.C,R5*%
X142940000Y-126310000D03*
X142250000Y-126310000D03*
%TD*%
D13*
%TO.C,C10*%
X137740000Y-119380000D03*
X138430000Y-119380000D03*
%TD*%
D11*
%TO.C,D2*%
X149908845Y-124444661D03*
X149908845Y-125134661D03*
%TD*%
D10*
%TO.C,C7*%
X153090000Y-122500000D03*
X152400000Y-122500000D03*
%TD*%
D20*
%TO.C,U2*%
X152400000Y-127315000D03*
X153350000Y-127315000D03*
X154300000Y-127315000D03*
X154300000Y-125040000D03*
X152400000Y-125040000D03*
%TD*%
D10*
%TO.C,R4*%
X134040000Y-126310000D03*
X133350000Y-126310000D03*
%TD*%
D21*
%TO.C,U1*%
X139780000Y-109920000D03*
X139780000Y-110420000D03*
X139780000Y-110920000D03*
X139780000Y-111420000D03*
X139780000Y-111920000D03*
X139780000Y-112420000D03*
X139780000Y-112920000D03*
X139780000Y-113420000D03*
X139780000Y-113920000D03*
X139780000Y-114420000D03*
X139780000Y-114920000D03*
X139780000Y-115420000D03*
X139780000Y-115920000D03*
X139780000Y-116420000D03*
X139780000Y-116920000D03*
X139780000Y-117420000D03*
D22*
X141705000Y-119345000D03*
X142205000Y-119345000D03*
X142705000Y-119345000D03*
X143205000Y-119345000D03*
X143705000Y-119345000D03*
X144205000Y-119345000D03*
X144705000Y-119345000D03*
X145205000Y-119345000D03*
X145705000Y-119345000D03*
X146205000Y-119345000D03*
X146705000Y-119345000D03*
X147205000Y-119345000D03*
X147705000Y-119345000D03*
X148205000Y-119345000D03*
X148705000Y-119345000D03*
X149205000Y-119345000D03*
D21*
X151130000Y-117420000D03*
X151130000Y-116920000D03*
X151130000Y-116420000D03*
X151130000Y-115920000D03*
X151130000Y-115420000D03*
X151130000Y-114920000D03*
X151130000Y-114420000D03*
X151130000Y-113920000D03*
X151130000Y-113420000D03*
X151130000Y-112920000D03*
X151130000Y-112420000D03*
X151130000Y-111920000D03*
X151130000Y-111420000D03*
X151130000Y-110920000D03*
X151130000Y-110420000D03*
X151130000Y-109920000D03*
D22*
X149205000Y-107995000D03*
X148705000Y-107995000D03*
X148205000Y-107995000D03*
X147705000Y-107995000D03*
X147205000Y-107995000D03*
X146705000Y-107995000D03*
X146205000Y-107995000D03*
X145705000Y-107995000D03*
X145205000Y-107995000D03*
X144705000Y-107995000D03*
X144205000Y-107995000D03*
X143705000Y-107995000D03*
X143205000Y-107995000D03*
X142705000Y-107995000D03*
X142205000Y-107995000D03*
X141705000Y-107995000D03*
%TD*%
D10*
%TO.C,C6*%
X153065000Y-121230000D03*
X152375000Y-121230000D03*
%TD*%
%TO.C,C2*%
X149885000Y-84400000D03*
X149195000Y-84400000D03*
%TD*%
D11*
%TO.C,R10*%
X151130000Y-78050000D03*
X151130000Y-78740000D03*
%TD*%
%TO.C,R9*%
X156210000Y-78050000D03*
X156210000Y-78740000D03*
%TD*%
D13*
%TO.C,R3*%
X149170000Y-127580000D03*
X149860000Y-127580000D03*
%TD*%
D11*
%TO.C,R11*%
X153670000Y-78050000D03*
X153670000Y-78740000D03*
%TD*%
D10*
%TO.C,C5*%
X153065000Y-128850000D03*
X152375000Y-128850000D03*
%TD*%
M02*
