%TF.GenerationSoftware,KiCad,Pcbnew,7.0.7*%
%TF.CreationDate,2023-09-21T18:51:57+09:00*%
%TF.ProjectId,STM32F103_dev_board,53544d33-3246-4313-9033-5f6465765f62,1.0*%
%TF.SameCoordinates,Original*%
%TF.FileFunction,Paste,Bot*%
%TF.FilePolarity,Positive*%
%FSLAX46Y46*%
G04 Gerber Fmt 4.6, Leading zero omitted, Abs format (unit mm)*
G04 Created by KiCad (PCBNEW 7.0.7) date 2023-09-21 18:51:57*
%MOMM*%
%LPD*%
G01*
G04 APERTURE LIST*
G04 Aperture macros list*
%AMRoundRect*
0 Rectangle with rounded corners*
0 $1 Rounding radius*
0 $2 $3 $4 $5 $6 $7 $8 $9 X,Y pos of 4 corners*
0 Add a 4 corners polygon primitive as box body*
4,1,4,$2,$3,$4,$5,$6,$7,$8,$9,$2,$3,0*
0 Add four circle primitives for the rounded corners*
1,1,$1+$1,$2,$3*
1,1,$1+$1,$4,$5*
1,1,$1+$1,$6,$7*
1,1,$1+$1,$8,$9*
0 Add four rect primitives between the rounded corners*
20,1,$1+$1,$2,$3,$4,$5,0*
20,1,$1+$1,$4,$5,$6,$7,0*
20,1,$1+$1,$6,$7,$8,$9,0*
20,1,$1+$1,$8,$9,$2,$3,0*%
G04 Aperture macros list end*
%ADD10RoundRect,0.079500X0.079500X0.100500X-0.079500X0.100500X-0.079500X-0.100500X0.079500X-0.100500X0*%
%ADD11RoundRect,0.079500X-0.079500X-0.100500X0.079500X-0.100500X0.079500X0.100500X-0.079500X0.100500X0*%
%ADD12R,0.450000X1.750000*%
%ADD13R,1.430000X2.850000*%
G04 APERTURE END LIST*
D10*
%TO.C,C8*%
X153670000Y-118110000D03*
X152980000Y-118110000D03*
%TD*%
D11*
%TO.C,C9*%
X155484000Y-132080000D03*
X156174000Y-132080000D03*
%TD*%
D12*
%TO.C,U4*%
X149445000Y-120860000D03*
X150095000Y-120860000D03*
X150745000Y-120860000D03*
X151395000Y-120860000D03*
X152045000Y-120860000D03*
X152695000Y-120860000D03*
X153345000Y-120860000D03*
X153995000Y-120860000D03*
X154645000Y-120860000D03*
X155295000Y-120860000D03*
X155945000Y-120860000D03*
X156595000Y-120860000D03*
X157245000Y-120860000D03*
X157895000Y-120860000D03*
X157895000Y-128060000D03*
X157245000Y-128060000D03*
X156595000Y-128060000D03*
X155945000Y-128060000D03*
X155295000Y-128060000D03*
X154645000Y-128060000D03*
X153995000Y-128060000D03*
X153345000Y-128060000D03*
X152695000Y-128060000D03*
X152045000Y-128060000D03*
X151395000Y-128060000D03*
X150745000Y-128060000D03*
X150095000Y-128060000D03*
X149445000Y-128060000D03*
%TD*%
D10*
%TO.C,C12*%
X154015000Y-106680000D03*
X153325000Y-106680000D03*
%TD*%
D13*
%TO.C,Y2*%
X148315000Y-99525000D03*
X153945000Y-99525000D03*
X153945000Y-103675000D03*
X148315000Y-103675000D03*
%TD*%
D10*
%TO.C,C11*%
X154015000Y-96520000D03*
X153325000Y-96520000D03*
%TD*%
M02*
