%TF.GenerationSoftware,KiCad,Pcbnew,7.0.7*%
%TF.CreationDate,2023-10-13T22:35:00+09:00*%
%TF.ProjectId,STM32F103_dev_board,53544d33-3246-4313-9033-5f6465765f62,1.1.1*%
%TF.SameCoordinates,Original*%
%TF.FileFunction,Paste,Top*%
%TF.FilePolarity,Positive*%
%FSLAX46Y46*%
G04 Gerber Fmt 4.6, Leading zero omitted, Abs format (unit mm)*
G04 Created by KiCad (PCBNEW 7.0.7) date 2023-10-13 22:35:00*
%MOMM*%
%LPD*%
G01*
G04 APERTURE LIST*
G04 Aperture macros list*
%AMRoundRect*
0 Rectangle with rounded corners*
0 $1 Rounding radius*
0 $2 $3 $4 $5 $6 $7 $8 $9 X,Y pos of 4 corners*
0 Add a 4 corners polygon primitive as box body*
4,1,4,$2,$3,$4,$5,$6,$7,$8,$9,$2,$3,0*
0 Add four circle primitives for the rounded corners*
1,1,$1+$1,$2,$3*
1,1,$1+$1,$4,$5*
1,1,$1+$1,$6,$7*
1,1,$1+$1,$8,$9*
0 Add four rect primitives between the rounded corners*
20,1,$1+$1,$2,$3,$4,$5,0*
20,1,$1+$1,$4,$5,$6,$7,0*
20,1,$1+$1,$6,$7,$8,$9,0*
20,1,$1+$1,$8,$9,$2,$3,0*%
G04 Aperture macros list end*
%ADD10RoundRect,0.237500X0.300000X0.237500X-0.300000X0.237500X-0.300000X-0.237500X0.300000X-0.237500X0*%
%ADD11RoundRect,0.237500X-0.237500X0.250000X-0.237500X-0.250000X0.237500X-0.250000X0.237500X0.250000X0*%
%ADD12R,1.700000X0.800000*%
%ADD13RoundRect,0.237500X0.237500X-0.250000X0.237500X0.250000X-0.237500X0.250000X-0.237500X-0.250000X0*%
%ADD14RoundRect,0.237500X-0.237500X0.287500X-0.237500X-0.287500X0.237500X-0.287500X0.237500X0.287500X0*%
%ADD15RoundRect,0.237500X0.237500X-0.300000X0.237500X0.300000X-0.237500X0.300000X-0.237500X-0.300000X0*%
%ADD16R,0.600000X1.250000*%
%ADD17R,0.300000X1.250000*%
%ADD18RoundRect,0.237500X-0.250000X-0.237500X0.250000X-0.237500X0.250000X0.237500X-0.250000X0.237500X0*%
%ADD19RoundRect,0.237500X0.250000X0.237500X-0.250000X0.237500X-0.250000X-0.237500X0.250000X-0.237500X0*%
%ADD20RoundRect,0.075000X-0.700000X-0.075000X0.700000X-0.075000X0.700000X0.075000X-0.700000X0.075000X0*%
%ADD21RoundRect,0.075000X-0.075000X-0.700000X0.075000X-0.700000X0.075000X0.700000X-0.075000X0.700000X0*%
%ADD22R,0.600000X1.200000*%
G04 APERTURE END LIST*
D10*
%TO.C,C4*%
X153582500Y-130120000D03*
X151857500Y-130120000D03*
%TD*%
D11*
%TO.C,R6*%
X150622000Y-121261500D03*
X150622000Y-123086500D03*
%TD*%
D12*
%TO.C,S1*%
X134620000Y-132920000D03*
X134620000Y-136320000D03*
%TD*%
D13*
%TO.C,R13*%
X143764000Y-128166500D03*
X143764000Y-126341500D03*
%TD*%
D10*
%TO.C,C3*%
X152312500Y-85670000D03*
X150587500Y-85670000D03*
%TD*%
D11*
%TO.C,R12*%
X149098000Y-121261500D03*
X149098000Y-123086500D03*
%TD*%
D14*
%TO.C,D1*%
X150622000Y-124601000D03*
X150622000Y-126351000D03*
%TD*%
D11*
%TO.C,R5*%
X142240000Y-124563500D03*
X142240000Y-126388500D03*
%TD*%
D15*
%TO.C,C10*%
X130810000Y-135482500D03*
X130810000Y-133757500D03*
%TD*%
D16*
%TO.C,J6*%
X142558000Y-133482000D03*
X143358000Y-133482000D03*
D17*
X144508000Y-133482000D03*
X145508000Y-133482000D03*
X146008000Y-133482000D03*
X147008000Y-133482000D03*
D16*
X148158000Y-133482000D03*
X148958000Y-133482000D03*
D17*
X147508000Y-133482000D03*
X146508000Y-133482000D03*
X145008000Y-133482000D03*
X144008000Y-133482000D03*
%TD*%
D18*
%TO.C,R14*%
X153900500Y-133858000D03*
X155725500Y-133858000D03*
%TD*%
D19*
%TO.C,R1*%
X150264500Y-129540000D03*
X148439500Y-129540000D03*
%TD*%
D14*
%TO.C,D2*%
X149098000Y-124601000D03*
X149098000Y-126351000D03*
%TD*%
D19*
%TO.C,R4*%
X134607500Y-126310000D03*
X132782500Y-126310000D03*
%TD*%
D13*
%TO.C,R8*%
X128905000Y-135429000D03*
X128905000Y-133604000D03*
%TD*%
D20*
%TO.C,U1*%
X139780000Y-109920000D03*
X139780000Y-110420000D03*
X139780000Y-110920000D03*
X139780000Y-111420000D03*
X139780000Y-111920000D03*
X139780000Y-112420000D03*
X139780000Y-112920000D03*
X139780000Y-113420000D03*
X139780000Y-113920000D03*
X139780000Y-114420000D03*
X139780000Y-114920000D03*
X139780000Y-115420000D03*
X139780000Y-115920000D03*
X139780000Y-116420000D03*
X139780000Y-116920000D03*
X139780000Y-117420000D03*
D21*
X141705000Y-119345000D03*
X142205000Y-119345000D03*
X142705000Y-119345000D03*
X143205000Y-119345000D03*
X143705000Y-119345000D03*
X144205000Y-119345000D03*
X144705000Y-119345000D03*
X145205000Y-119345000D03*
X145705000Y-119345000D03*
X146205000Y-119345000D03*
X146705000Y-119345000D03*
X147205000Y-119345000D03*
X147705000Y-119345000D03*
X148205000Y-119345000D03*
X148705000Y-119345000D03*
X149205000Y-119345000D03*
D20*
X151130000Y-117420000D03*
X151130000Y-116920000D03*
X151130000Y-116420000D03*
X151130000Y-115920000D03*
X151130000Y-115420000D03*
X151130000Y-114920000D03*
X151130000Y-114420000D03*
X151130000Y-113920000D03*
X151130000Y-113420000D03*
X151130000Y-112920000D03*
X151130000Y-112420000D03*
X151130000Y-111920000D03*
X151130000Y-111420000D03*
X151130000Y-110920000D03*
X151130000Y-110420000D03*
X151130000Y-109920000D03*
D21*
X149205000Y-107995000D03*
X148705000Y-107995000D03*
X148205000Y-107995000D03*
X147705000Y-107995000D03*
X147205000Y-107995000D03*
X146705000Y-107995000D03*
X146205000Y-107995000D03*
X145705000Y-107995000D03*
X145205000Y-107995000D03*
X144705000Y-107995000D03*
X144205000Y-107995000D03*
X143705000Y-107995000D03*
X143205000Y-107995000D03*
X142705000Y-107995000D03*
X142205000Y-107995000D03*
X141705000Y-107995000D03*
%TD*%
D13*
%TO.C,R7*%
X146812000Y-128166500D03*
X146812000Y-126341500D03*
%TD*%
D10*
%TO.C,C6*%
X154532500Y-121230000D03*
X152807500Y-121230000D03*
%TD*%
%TO.C,C2*%
X150402500Y-83820000D03*
X148677500Y-83820000D03*
%TD*%
D11*
%TO.C,R10*%
X151130000Y-77482500D03*
X151130000Y-79307500D03*
%TD*%
%TO.C,R9*%
X156210000Y-77482500D03*
X156210000Y-79307500D03*
%TD*%
D22*
%TO.C,IC1*%
X152405000Y-127341000D03*
X153355000Y-127341000D03*
X154305000Y-127341000D03*
X154305000Y-124841000D03*
X152405000Y-124841000D03*
%TD*%
D11*
%TO.C,R11*%
X153670000Y-77482500D03*
X153670000Y-79307500D03*
%TD*%
D13*
%TO.C,R3*%
X145288000Y-128166500D03*
X145288000Y-126341500D03*
%TD*%
D19*
%TO.C,R2*%
X150264500Y-128016000D03*
X148439500Y-128016000D03*
%TD*%
M02*
