%TF.GenerationSoftware,KiCad,Pcbnew,7.0.7*%
%TF.CreationDate,2023-09-14T01:49:04+09:00*%
%TF.ProjectId,STM32F103_dev_board,53544d33-3246-4313-9033-5f6465765f62,1.0*%
%TF.SameCoordinates,Original*%
%TF.FileFunction,Legend,Top*%
%TF.FilePolarity,Positive*%
%FSLAX46Y46*%
G04 Gerber Fmt 4.6, Leading zero omitted, Abs format (unit mm)*
G04 Created by KiCad (PCBNEW 7.0.7) date 2023-09-14 01:49:04*
%MOMM*%
%LPD*%
G01*
G04 APERTURE LIST*
%ADD10C,0.150000*%
%ADD11C,0.100000*%
%ADD12C,0.120000*%
G04 APERTURE END LIST*
D10*
X140036779Y-107724580D02*
X140084398Y-107772200D01*
X140084398Y-107772200D02*
X140036779Y-107819819D01*
X140036779Y-107819819D02*
X139989160Y-107772200D01*
X139989160Y-107772200D02*
X140036779Y-107724580D01*
X140036779Y-107724580D02*
X140036779Y-107819819D01*
X132988207Y-138299819D02*
X132654874Y-137823628D01*
X132416779Y-138299819D02*
X132416779Y-137299819D01*
X132416779Y-137299819D02*
X132797731Y-137299819D01*
X132797731Y-137299819D02*
X132892969Y-137347438D01*
X132892969Y-137347438D02*
X132940588Y-137395057D01*
X132940588Y-137395057D02*
X132988207Y-137490295D01*
X132988207Y-137490295D02*
X132988207Y-137633152D01*
X132988207Y-137633152D02*
X132940588Y-137728390D01*
X132940588Y-137728390D02*
X132892969Y-137776009D01*
X132892969Y-137776009D02*
X132797731Y-137823628D01*
X132797731Y-137823628D02*
X132416779Y-137823628D01*
X133416779Y-137776009D02*
X133750112Y-137776009D01*
X133892969Y-138299819D02*
X133416779Y-138299819D01*
X133416779Y-138299819D02*
X133416779Y-137299819D01*
X133416779Y-137299819D02*
X133892969Y-137299819D01*
X134273922Y-138252200D02*
X134416779Y-138299819D01*
X134416779Y-138299819D02*
X134654874Y-138299819D01*
X134654874Y-138299819D02*
X134750112Y-138252200D01*
X134750112Y-138252200D02*
X134797731Y-138204580D01*
X134797731Y-138204580D02*
X134845350Y-138109342D01*
X134845350Y-138109342D02*
X134845350Y-138014104D01*
X134845350Y-138014104D02*
X134797731Y-137918866D01*
X134797731Y-137918866D02*
X134750112Y-137871247D01*
X134750112Y-137871247D02*
X134654874Y-137823628D01*
X134654874Y-137823628D02*
X134464398Y-137776009D01*
X134464398Y-137776009D02*
X134369160Y-137728390D01*
X134369160Y-137728390D02*
X134321541Y-137680771D01*
X134321541Y-137680771D02*
X134273922Y-137585533D01*
X134273922Y-137585533D02*
X134273922Y-137490295D01*
X134273922Y-137490295D02*
X134321541Y-137395057D01*
X134321541Y-137395057D02*
X134369160Y-137347438D01*
X134369160Y-137347438D02*
X134464398Y-137299819D01*
X134464398Y-137299819D02*
X134702493Y-137299819D01*
X134702493Y-137299819D02*
X134845350Y-137347438D01*
X135273922Y-137776009D02*
X135607255Y-137776009D01*
X135750112Y-138299819D02*
X135273922Y-138299819D01*
X135273922Y-138299819D02*
X135273922Y-137299819D01*
X135273922Y-137299819D02*
X135750112Y-137299819D01*
X136035827Y-137299819D02*
X136607255Y-137299819D01*
X136321541Y-138299819D02*
X136321541Y-137299819D01*
X142862493Y-74379819D02*
X142862493Y-75094104D01*
X142862493Y-75094104D02*
X142814874Y-75236961D01*
X142814874Y-75236961D02*
X142719636Y-75332200D01*
X142719636Y-75332200D02*
X142576779Y-75379819D01*
X142576779Y-75379819D02*
X142481541Y-75379819D01*
X143195827Y-74379819D02*
X143767255Y-74379819D01*
X143481541Y-75379819D02*
X143481541Y-74379819D01*
X144052970Y-75094104D02*
X144529160Y-75094104D01*
X143957732Y-75379819D02*
X144291065Y-74379819D01*
X144291065Y-74379819D02*
X144624398Y-75379819D01*
X145481541Y-74427438D02*
X145386303Y-74379819D01*
X145386303Y-74379819D02*
X145243446Y-74379819D01*
X145243446Y-74379819D02*
X145100589Y-74427438D01*
X145100589Y-74427438D02*
X145005351Y-74522676D01*
X145005351Y-74522676D02*
X144957732Y-74617914D01*
X144957732Y-74617914D02*
X144910113Y-74808390D01*
X144910113Y-74808390D02*
X144910113Y-74951247D01*
X144910113Y-74951247D02*
X144957732Y-75141723D01*
X144957732Y-75141723D02*
X145005351Y-75236961D01*
X145005351Y-75236961D02*
X145100589Y-75332200D01*
X145100589Y-75332200D02*
X145243446Y-75379819D01*
X145243446Y-75379819D02*
X145338684Y-75379819D01*
X145338684Y-75379819D02*
X145481541Y-75332200D01*
X145481541Y-75332200D02*
X145529160Y-75284580D01*
X145529160Y-75284580D02*
X145529160Y-74951247D01*
X145529160Y-74951247D02*
X145338684Y-74951247D01*
X146672017Y-74332200D02*
X145814875Y-75617914D01*
X146957732Y-75332200D02*
X147100589Y-75379819D01*
X147100589Y-75379819D02*
X147338684Y-75379819D01*
X147338684Y-75379819D02*
X147433922Y-75332200D01*
X147433922Y-75332200D02*
X147481541Y-75284580D01*
X147481541Y-75284580D02*
X147529160Y-75189342D01*
X147529160Y-75189342D02*
X147529160Y-75094104D01*
X147529160Y-75094104D02*
X147481541Y-74998866D01*
X147481541Y-74998866D02*
X147433922Y-74951247D01*
X147433922Y-74951247D02*
X147338684Y-74903628D01*
X147338684Y-74903628D02*
X147148208Y-74856009D01*
X147148208Y-74856009D02*
X147052970Y-74808390D01*
X147052970Y-74808390D02*
X147005351Y-74760771D01*
X147005351Y-74760771D02*
X146957732Y-74665533D01*
X146957732Y-74665533D02*
X146957732Y-74570295D01*
X146957732Y-74570295D02*
X147005351Y-74475057D01*
X147005351Y-74475057D02*
X147052970Y-74427438D01*
X147052970Y-74427438D02*
X147148208Y-74379819D01*
X147148208Y-74379819D02*
X147386303Y-74379819D01*
X147386303Y-74379819D02*
X147529160Y-74427438D01*
X147862494Y-74379819D02*
X148100589Y-75379819D01*
X148100589Y-75379819D02*
X148291065Y-74665533D01*
X148291065Y-74665533D02*
X148481541Y-75379819D01*
X148481541Y-75379819D02*
X148719637Y-74379819D01*
X149100589Y-75379819D02*
X149100589Y-74379819D01*
X149100589Y-74379819D02*
X149338684Y-74379819D01*
X149338684Y-74379819D02*
X149481541Y-74427438D01*
X149481541Y-74427438D02*
X149576779Y-74522676D01*
X149576779Y-74522676D02*
X149624398Y-74617914D01*
X149624398Y-74617914D02*
X149672017Y-74808390D01*
X149672017Y-74808390D02*
X149672017Y-74951247D01*
X149672017Y-74951247D02*
X149624398Y-75141723D01*
X149624398Y-75141723D02*
X149576779Y-75236961D01*
X149576779Y-75236961D02*
X149481541Y-75332200D01*
X149481541Y-75332200D02*
X149338684Y-75379819D01*
X149338684Y-75379819D02*
X149100589Y-75379819D01*
X133639160Y-59752200D02*
X133782017Y-59799819D01*
X133782017Y-59799819D02*
X134020112Y-59799819D01*
X134020112Y-59799819D02*
X134115350Y-59752200D01*
X134115350Y-59752200D02*
X134162969Y-59704580D01*
X134162969Y-59704580D02*
X134210588Y-59609342D01*
X134210588Y-59609342D02*
X134210588Y-59514104D01*
X134210588Y-59514104D02*
X134162969Y-59418866D01*
X134162969Y-59418866D02*
X134115350Y-59371247D01*
X134115350Y-59371247D02*
X134020112Y-59323628D01*
X134020112Y-59323628D02*
X133829636Y-59276009D01*
X133829636Y-59276009D02*
X133734398Y-59228390D01*
X133734398Y-59228390D02*
X133686779Y-59180771D01*
X133686779Y-59180771D02*
X133639160Y-59085533D01*
X133639160Y-59085533D02*
X133639160Y-58990295D01*
X133639160Y-58990295D02*
X133686779Y-58895057D01*
X133686779Y-58895057D02*
X133734398Y-58847438D01*
X133734398Y-58847438D02*
X133829636Y-58799819D01*
X133829636Y-58799819D02*
X134067731Y-58799819D01*
X134067731Y-58799819D02*
X134210588Y-58847438D01*
X134496303Y-58799819D02*
X135067731Y-58799819D01*
X134782017Y-59799819D02*
X134782017Y-58799819D01*
X135401065Y-59799819D02*
X135401065Y-58799819D01*
X135401065Y-58799819D02*
X135734398Y-59514104D01*
X135734398Y-59514104D02*
X136067731Y-58799819D01*
X136067731Y-58799819D02*
X136067731Y-59799819D01*
X136448684Y-58799819D02*
X137067731Y-58799819D01*
X137067731Y-58799819D02*
X136734398Y-59180771D01*
X136734398Y-59180771D02*
X136877255Y-59180771D01*
X136877255Y-59180771D02*
X136972493Y-59228390D01*
X136972493Y-59228390D02*
X137020112Y-59276009D01*
X137020112Y-59276009D02*
X137067731Y-59371247D01*
X137067731Y-59371247D02*
X137067731Y-59609342D01*
X137067731Y-59609342D02*
X137020112Y-59704580D01*
X137020112Y-59704580D02*
X136972493Y-59752200D01*
X136972493Y-59752200D02*
X136877255Y-59799819D01*
X136877255Y-59799819D02*
X136591541Y-59799819D01*
X136591541Y-59799819D02*
X136496303Y-59752200D01*
X136496303Y-59752200D02*
X136448684Y-59704580D01*
X137448684Y-58895057D02*
X137496303Y-58847438D01*
X137496303Y-58847438D02*
X137591541Y-58799819D01*
X137591541Y-58799819D02*
X137829636Y-58799819D01*
X137829636Y-58799819D02*
X137924874Y-58847438D01*
X137924874Y-58847438D02*
X137972493Y-58895057D01*
X137972493Y-58895057D02*
X138020112Y-58990295D01*
X138020112Y-58990295D02*
X138020112Y-59085533D01*
X138020112Y-59085533D02*
X137972493Y-59228390D01*
X137972493Y-59228390D02*
X137401065Y-59799819D01*
X137401065Y-59799819D02*
X138020112Y-59799819D01*
X138782017Y-59276009D02*
X138448684Y-59276009D01*
X138448684Y-59799819D02*
X138448684Y-58799819D01*
X138448684Y-58799819D02*
X138924874Y-58799819D01*
X139829636Y-59799819D02*
X139258208Y-59799819D01*
X139543922Y-59799819D02*
X139543922Y-58799819D01*
X139543922Y-58799819D02*
X139448684Y-58942676D01*
X139448684Y-58942676D02*
X139353446Y-59037914D01*
X139353446Y-59037914D02*
X139258208Y-59085533D01*
X140448684Y-58799819D02*
X140543922Y-58799819D01*
X140543922Y-58799819D02*
X140639160Y-58847438D01*
X140639160Y-58847438D02*
X140686779Y-58895057D01*
X140686779Y-58895057D02*
X140734398Y-58990295D01*
X140734398Y-58990295D02*
X140782017Y-59180771D01*
X140782017Y-59180771D02*
X140782017Y-59418866D01*
X140782017Y-59418866D02*
X140734398Y-59609342D01*
X140734398Y-59609342D02*
X140686779Y-59704580D01*
X140686779Y-59704580D02*
X140639160Y-59752200D01*
X140639160Y-59752200D02*
X140543922Y-59799819D01*
X140543922Y-59799819D02*
X140448684Y-59799819D01*
X140448684Y-59799819D02*
X140353446Y-59752200D01*
X140353446Y-59752200D02*
X140305827Y-59704580D01*
X140305827Y-59704580D02*
X140258208Y-59609342D01*
X140258208Y-59609342D02*
X140210589Y-59418866D01*
X140210589Y-59418866D02*
X140210589Y-59180771D01*
X140210589Y-59180771D02*
X140258208Y-58990295D01*
X140258208Y-58990295D02*
X140305827Y-58895057D01*
X140305827Y-58895057D02*
X140353446Y-58847438D01*
X140353446Y-58847438D02*
X140448684Y-58799819D01*
X141115351Y-58799819D02*
X141734398Y-58799819D01*
X141734398Y-58799819D02*
X141401065Y-59180771D01*
X141401065Y-59180771D02*
X141543922Y-59180771D01*
X141543922Y-59180771D02*
X141639160Y-59228390D01*
X141639160Y-59228390D02*
X141686779Y-59276009D01*
X141686779Y-59276009D02*
X141734398Y-59371247D01*
X141734398Y-59371247D02*
X141734398Y-59609342D01*
X141734398Y-59609342D02*
X141686779Y-59704580D01*
X141686779Y-59704580D02*
X141639160Y-59752200D01*
X141639160Y-59752200D02*
X141543922Y-59799819D01*
X141543922Y-59799819D02*
X141258208Y-59799819D01*
X141258208Y-59799819D02*
X141162970Y-59752200D01*
X141162970Y-59752200D02*
X141115351Y-59704580D01*
X142924875Y-59799819D02*
X142924875Y-58799819D01*
X142924875Y-58799819D02*
X143162970Y-58799819D01*
X143162970Y-58799819D02*
X143305827Y-58847438D01*
X143305827Y-58847438D02*
X143401065Y-58942676D01*
X143401065Y-58942676D02*
X143448684Y-59037914D01*
X143448684Y-59037914D02*
X143496303Y-59228390D01*
X143496303Y-59228390D02*
X143496303Y-59371247D01*
X143496303Y-59371247D02*
X143448684Y-59561723D01*
X143448684Y-59561723D02*
X143401065Y-59656961D01*
X143401065Y-59656961D02*
X143305827Y-59752200D01*
X143305827Y-59752200D02*
X143162970Y-59799819D01*
X143162970Y-59799819D02*
X142924875Y-59799819D01*
X144305827Y-59752200D02*
X144210589Y-59799819D01*
X144210589Y-59799819D02*
X144020113Y-59799819D01*
X144020113Y-59799819D02*
X143924875Y-59752200D01*
X143924875Y-59752200D02*
X143877256Y-59656961D01*
X143877256Y-59656961D02*
X143877256Y-59276009D01*
X143877256Y-59276009D02*
X143924875Y-59180771D01*
X143924875Y-59180771D02*
X144020113Y-59133152D01*
X144020113Y-59133152D02*
X144210589Y-59133152D01*
X144210589Y-59133152D02*
X144305827Y-59180771D01*
X144305827Y-59180771D02*
X144353446Y-59276009D01*
X144353446Y-59276009D02*
X144353446Y-59371247D01*
X144353446Y-59371247D02*
X143877256Y-59466485D01*
X144686780Y-59133152D02*
X144924875Y-59799819D01*
X144924875Y-59799819D02*
X145162970Y-59133152D01*
X145924875Y-59752200D02*
X145829637Y-59799819D01*
X145829637Y-59799819D02*
X145639161Y-59799819D01*
X145639161Y-59799819D02*
X145543923Y-59752200D01*
X145543923Y-59752200D02*
X145496304Y-59656961D01*
X145496304Y-59656961D02*
X145496304Y-59276009D01*
X145496304Y-59276009D02*
X145543923Y-59180771D01*
X145543923Y-59180771D02*
X145639161Y-59133152D01*
X145639161Y-59133152D02*
X145829637Y-59133152D01*
X145829637Y-59133152D02*
X145924875Y-59180771D01*
X145924875Y-59180771D02*
X145972494Y-59276009D01*
X145972494Y-59276009D02*
X145972494Y-59371247D01*
X145972494Y-59371247D02*
X145496304Y-59466485D01*
X146543923Y-59799819D02*
X146448685Y-59752200D01*
X146448685Y-59752200D02*
X146401066Y-59656961D01*
X146401066Y-59656961D02*
X146401066Y-58799819D01*
X147067733Y-59799819D02*
X146972495Y-59752200D01*
X146972495Y-59752200D02*
X146924876Y-59704580D01*
X146924876Y-59704580D02*
X146877257Y-59609342D01*
X146877257Y-59609342D02*
X146877257Y-59323628D01*
X146877257Y-59323628D02*
X146924876Y-59228390D01*
X146924876Y-59228390D02*
X146972495Y-59180771D01*
X146972495Y-59180771D02*
X147067733Y-59133152D01*
X147067733Y-59133152D02*
X147210590Y-59133152D01*
X147210590Y-59133152D02*
X147305828Y-59180771D01*
X147305828Y-59180771D02*
X147353447Y-59228390D01*
X147353447Y-59228390D02*
X147401066Y-59323628D01*
X147401066Y-59323628D02*
X147401066Y-59609342D01*
X147401066Y-59609342D02*
X147353447Y-59704580D01*
X147353447Y-59704580D02*
X147305828Y-59752200D01*
X147305828Y-59752200D02*
X147210590Y-59799819D01*
X147210590Y-59799819D02*
X147067733Y-59799819D01*
X147829638Y-59133152D02*
X147829638Y-60133152D01*
X147829638Y-59180771D02*
X147924876Y-59133152D01*
X147924876Y-59133152D02*
X148115352Y-59133152D01*
X148115352Y-59133152D02*
X148210590Y-59180771D01*
X148210590Y-59180771D02*
X148258209Y-59228390D01*
X148258209Y-59228390D02*
X148305828Y-59323628D01*
X148305828Y-59323628D02*
X148305828Y-59609342D01*
X148305828Y-59609342D02*
X148258209Y-59704580D01*
X148258209Y-59704580D02*
X148210590Y-59752200D01*
X148210590Y-59752200D02*
X148115352Y-59799819D01*
X148115352Y-59799819D02*
X147924876Y-59799819D01*
X147924876Y-59799819D02*
X147829638Y-59752200D01*
X148734400Y-59799819D02*
X148734400Y-59133152D01*
X148734400Y-59228390D02*
X148782019Y-59180771D01*
X148782019Y-59180771D02*
X148877257Y-59133152D01*
X148877257Y-59133152D02*
X149020114Y-59133152D01*
X149020114Y-59133152D02*
X149115352Y-59180771D01*
X149115352Y-59180771D02*
X149162971Y-59276009D01*
X149162971Y-59276009D02*
X149162971Y-59799819D01*
X149162971Y-59276009D02*
X149210590Y-59180771D01*
X149210590Y-59180771D02*
X149305828Y-59133152D01*
X149305828Y-59133152D02*
X149448685Y-59133152D01*
X149448685Y-59133152D02*
X149543924Y-59180771D01*
X149543924Y-59180771D02*
X149591543Y-59276009D01*
X149591543Y-59276009D02*
X149591543Y-59799819D01*
X150448685Y-59752200D02*
X150353447Y-59799819D01*
X150353447Y-59799819D02*
X150162971Y-59799819D01*
X150162971Y-59799819D02*
X150067733Y-59752200D01*
X150067733Y-59752200D02*
X150020114Y-59656961D01*
X150020114Y-59656961D02*
X150020114Y-59276009D01*
X150020114Y-59276009D02*
X150067733Y-59180771D01*
X150067733Y-59180771D02*
X150162971Y-59133152D01*
X150162971Y-59133152D02*
X150353447Y-59133152D01*
X150353447Y-59133152D02*
X150448685Y-59180771D01*
X150448685Y-59180771D02*
X150496304Y-59276009D01*
X150496304Y-59276009D02*
X150496304Y-59371247D01*
X150496304Y-59371247D02*
X150020114Y-59466485D01*
X150924876Y-59133152D02*
X150924876Y-59799819D01*
X150924876Y-59228390D02*
X150972495Y-59180771D01*
X150972495Y-59180771D02*
X151067733Y-59133152D01*
X151067733Y-59133152D02*
X151210590Y-59133152D01*
X151210590Y-59133152D02*
X151305828Y-59180771D01*
X151305828Y-59180771D02*
X151353447Y-59276009D01*
X151353447Y-59276009D02*
X151353447Y-59799819D01*
X151686781Y-59133152D02*
X152067733Y-59133152D01*
X151829638Y-58799819D02*
X151829638Y-59656961D01*
X151829638Y-59656961D02*
X151877257Y-59752200D01*
X151877257Y-59752200D02*
X151972495Y-59799819D01*
X151972495Y-59799819D02*
X152067733Y-59799819D01*
X153496305Y-59276009D02*
X153639162Y-59323628D01*
X153639162Y-59323628D02*
X153686781Y-59371247D01*
X153686781Y-59371247D02*
X153734400Y-59466485D01*
X153734400Y-59466485D02*
X153734400Y-59609342D01*
X153734400Y-59609342D02*
X153686781Y-59704580D01*
X153686781Y-59704580D02*
X153639162Y-59752200D01*
X153639162Y-59752200D02*
X153543924Y-59799819D01*
X153543924Y-59799819D02*
X153162972Y-59799819D01*
X153162972Y-59799819D02*
X153162972Y-58799819D01*
X153162972Y-58799819D02*
X153496305Y-58799819D01*
X153496305Y-58799819D02*
X153591543Y-58847438D01*
X153591543Y-58847438D02*
X153639162Y-58895057D01*
X153639162Y-58895057D02*
X153686781Y-58990295D01*
X153686781Y-58990295D02*
X153686781Y-59085533D01*
X153686781Y-59085533D02*
X153639162Y-59180771D01*
X153639162Y-59180771D02*
X153591543Y-59228390D01*
X153591543Y-59228390D02*
X153496305Y-59276009D01*
X153496305Y-59276009D02*
X153162972Y-59276009D01*
X154305829Y-59799819D02*
X154210591Y-59752200D01*
X154210591Y-59752200D02*
X154162972Y-59704580D01*
X154162972Y-59704580D02*
X154115353Y-59609342D01*
X154115353Y-59609342D02*
X154115353Y-59323628D01*
X154115353Y-59323628D02*
X154162972Y-59228390D01*
X154162972Y-59228390D02*
X154210591Y-59180771D01*
X154210591Y-59180771D02*
X154305829Y-59133152D01*
X154305829Y-59133152D02*
X154448686Y-59133152D01*
X154448686Y-59133152D02*
X154543924Y-59180771D01*
X154543924Y-59180771D02*
X154591543Y-59228390D01*
X154591543Y-59228390D02*
X154639162Y-59323628D01*
X154639162Y-59323628D02*
X154639162Y-59609342D01*
X154639162Y-59609342D02*
X154591543Y-59704580D01*
X154591543Y-59704580D02*
X154543924Y-59752200D01*
X154543924Y-59752200D02*
X154448686Y-59799819D01*
X154448686Y-59799819D02*
X154305829Y-59799819D01*
X155496305Y-59799819D02*
X155496305Y-59276009D01*
X155496305Y-59276009D02*
X155448686Y-59180771D01*
X155448686Y-59180771D02*
X155353448Y-59133152D01*
X155353448Y-59133152D02*
X155162972Y-59133152D01*
X155162972Y-59133152D02*
X155067734Y-59180771D01*
X155496305Y-59752200D02*
X155401067Y-59799819D01*
X155401067Y-59799819D02*
X155162972Y-59799819D01*
X155162972Y-59799819D02*
X155067734Y-59752200D01*
X155067734Y-59752200D02*
X155020115Y-59656961D01*
X155020115Y-59656961D02*
X155020115Y-59561723D01*
X155020115Y-59561723D02*
X155067734Y-59466485D01*
X155067734Y-59466485D02*
X155162972Y-59418866D01*
X155162972Y-59418866D02*
X155401067Y-59418866D01*
X155401067Y-59418866D02*
X155496305Y-59371247D01*
X155972496Y-59799819D02*
X155972496Y-59133152D01*
X155972496Y-59323628D02*
X156020115Y-59228390D01*
X156020115Y-59228390D02*
X156067734Y-59180771D01*
X156067734Y-59180771D02*
X156162972Y-59133152D01*
X156162972Y-59133152D02*
X156258210Y-59133152D01*
X157020115Y-59799819D02*
X157020115Y-58799819D01*
X157020115Y-59752200D02*
X156924877Y-59799819D01*
X156924877Y-59799819D02*
X156734401Y-59799819D01*
X156734401Y-59799819D02*
X156639163Y-59752200D01*
X156639163Y-59752200D02*
X156591544Y-59704580D01*
X156591544Y-59704580D02*
X156543925Y-59609342D01*
X156543925Y-59609342D02*
X156543925Y-59323628D01*
X156543925Y-59323628D02*
X156591544Y-59228390D01*
X156591544Y-59228390D02*
X156639163Y-59180771D01*
X156639163Y-59180771D02*
X156734401Y-59133152D01*
X156734401Y-59133152D02*
X156924877Y-59133152D01*
X156924877Y-59133152D02*
X157020115Y-59180771D01*
X133686779Y-61409819D02*
X133686779Y-60409819D01*
X133686779Y-60409819D02*
X134020112Y-61124104D01*
X134020112Y-61124104D02*
X134353445Y-60409819D01*
X134353445Y-60409819D02*
X134353445Y-61409819D01*
X135258207Y-61409819D02*
X135258207Y-60886009D01*
X135258207Y-60886009D02*
X135210588Y-60790771D01*
X135210588Y-60790771D02*
X135115350Y-60743152D01*
X135115350Y-60743152D02*
X134924874Y-60743152D01*
X134924874Y-60743152D02*
X134829636Y-60790771D01*
X135258207Y-61362200D02*
X135162969Y-61409819D01*
X135162969Y-61409819D02*
X134924874Y-61409819D01*
X134924874Y-61409819D02*
X134829636Y-61362200D01*
X134829636Y-61362200D02*
X134782017Y-61266961D01*
X134782017Y-61266961D02*
X134782017Y-61171723D01*
X134782017Y-61171723D02*
X134829636Y-61076485D01*
X134829636Y-61076485D02*
X134924874Y-61028866D01*
X134924874Y-61028866D02*
X135162969Y-61028866D01*
X135162969Y-61028866D02*
X135258207Y-60981247D01*
X136162969Y-61409819D02*
X136162969Y-60409819D01*
X136162969Y-61362200D02*
X136067731Y-61409819D01*
X136067731Y-61409819D02*
X135877255Y-61409819D01*
X135877255Y-61409819D02*
X135782017Y-61362200D01*
X135782017Y-61362200D02*
X135734398Y-61314580D01*
X135734398Y-61314580D02*
X135686779Y-61219342D01*
X135686779Y-61219342D02*
X135686779Y-60933628D01*
X135686779Y-60933628D02*
X135734398Y-60838390D01*
X135734398Y-60838390D02*
X135782017Y-60790771D01*
X135782017Y-60790771D02*
X135877255Y-60743152D01*
X135877255Y-60743152D02*
X136067731Y-60743152D01*
X136067731Y-60743152D02*
X136162969Y-60790771D01*
X137020112Y-61362200D02*
X136924874Y-61409819D01*
X136924874Y-61409819D02*
X136734398Y-61409819D01*
X136734398Y-61409819D02*
X136639160Y-61362200D01*
X136639160Y-61362200D02*
X136591541Y-61266961D01*
X136591541Y-61266961D02*
X136591541Y-60886009D01*
X136591541Y-60886009D02*
X136639160Y-60790771D01*
X136639160Y-60790771D02*
X136734398Y-60743152D01*
X136734398Y-60743152D02*
X136924874Y-60743152D01*
X136924874Y-60743152D02*
X137020112Y-60790771D01*
X137020112Y-60790771D02*
X137067731Y-60886009D01*
X137067731Y-60886009D02*
X137067731Y-60981247D01*
X137067731Y-60981247D02*
X136591541Y-61076485D01*
X138258208Y-61409819D02*
X138258208Y-60409819D01*
X138258208Y-60790771D02*
X138353446Y-60743152D01*
X138353446Y-60743152D02*
X138543922Y-60743152D01*
X138543922Y-60743152D02*
X138639160Y-60790771D01*
X138639160Y-60790771D02*
X138686779Y-60838390D01*
X138686779Y-60838390D02*
X138734398Y-60933628D01*
X138734398Y-60933628D02*
X138734398Y-61219342D01*
X138734398Y-61219342D02*
X138686779Y-61314580D01*
X138686779Y-61314580D02*
X138639160Y-61362200D01*
X138639160Y-61362200D02*
X138543922Y-61409819D01*
X138543922Y-61409819D02*
X138353446Y-61409819D01*
X138353446Y-61409819D02*
X138258208Y-61362200D01*
X139067732Y-60743152D02*
X139305827Y-61409819D01*
X139543922Y-60743152D02*
X139305827Y-61409819D01*
X139305827Y-61409819D02*
X139210589Y-61647914D01*
X139210589Y-61647914D02*
X139162970Y-61695533D01*
X139162970Y-61695533D02*
X139067732Y-61743152D01*
X140972494Y-60409819D02*
X140972494Y-61124104D01*
X140972494Y-61124104D02*
X140924875Y-61266961D01*
X140924875Y-61266961D02*
X140829637Y-61362200D01*
X140829637Y-61362200D02*
X140686780Y-61409819D01*
X140686780Y-61409819D02*
X140591542Y-61409819D01*
X141591542Y-61409819D02*
X141496304Y-61362200D01*
X141496304Y-61362200D02*
X141448685Y-61314580D01*
X141448685Y-61314580D02*
X141401066Y-61219342D01*
X141401066Y-61219342D02*
X141401066Y-60933628D01*
X141401066Y-60933628D02*
X141448685Y-60838390D01*
X141448685Y-60838390D02*
X141496304Y-60790771D01*
X141496304Y-60790771D02*
X141591542Y-60743152D01*
X141591542Y-60743152D02*
X141734399Y-60743152D01*
X141734399Y-60743152D02*
X141829637Y-60790771D01*
X141829637Y-60790771D02*
X141877256Y-60838390D01*
X141877256Y-60838390D02*
X141924875Y-60933628D01*
X141924875Y-60933628D02*
X141924875Y-61219342D01*
X141924875Y-61219342D02*
X141877256Y-61314580D01*
X141877256Y-61314580D02*
X141829637Y-61362200D01*
X141829637Y-61362200D02*
X141734399Y-61409819D01*
X141734399Y-61409819D02*
X141591542Y-61409819D01*
X142353447Y-60743152D02*
X142353447Y-61409819D01*
X142353447Y-60838390D02*
X142401066Y-60790771D01*
X142401066Y-60790771D02*
X142496304Y-60743152D01*
X142496304Y-60743152D02*
X142639161Y-60743152D01*
X142639161Y-60743152D02*
X142734399Y-60790771D01*
X142734399Y-60790771D02*
X142782018Y-60886009D01*
X142782018Y-60886009D02*
X142782018Y-61409819D01*
X143686780Y-60743152D02*
X143686780Y-61552676D01*
X143686780Y-61552676D02*
X143639161Y-61647914D01*
X143639161Y-61647914D02*
X143591542Y-61695533D01*
X143591542Y-61695533D02*
X143496304Y-61743152D01*
X143496304Y-61743152D02*
X143353447Y-61743152D01*
X143353447Y-61743152D02*
X143258209Y-61695533D01*
X143686780Y-61362200D02*
X143591542Y-61409819D01*
X143591542Y-61409819D02*
X143401066Y-61409819D01*
X143401066Y-61409819D02*
X143305828Y-61362200D01*
X143305828Y-61362200D02*
X143258209Y-61314580D01*
X143258209Y-61314580D02*
X143210590Y-61219342D01*
X143210590Y-61219342D02*
X143210590Y-60933628D01*
X143210590Y-60933628D02*
X143258209Y-60838390D01*
X143258209Y-60838390D02*
X143305828Y-60790771D01*
X143305828Y-60790771D02*
X143401066Y-60743152D01*
X143401066Y-60743152D02*
X143591542Y-60743152D01*
X143591542Y-60743152D02*
X143686780Y-60790771D01*
X144162971Y-61409819D02*
X144162971Y-60409819D01*
X144591542Y-61409819D02*
X144591542Y-60886009D01*
X144591542Y-60886009D02*
X144543923Y-60790771D01*
X144543923Y-60790771D02*
X144448685Y-60743152D01*
X144448685Y-60743152D02*
X144305828Y-60743152D01*
X144305828Y-60743152D02*
X144210590Y-60790771D01*
X144210590Y-60790771D02*
X144162971Y-60838390D01*
X145448685Y-61362200D02*
X145353447Y-61409819D01*
X145353447Y-61409819D02*
X145162971Y-61409819D01*
X145162971Y-61409819D02*
X145067733Y-61362200D01*
X145067733Y-61362200D02*
X145020114Y-61266961D01*
X145020114Y-61266961D02*
X145020114Y-60886009D01*
X145020114Y-60886009D02*
X145067733Y-60790771D01*
X145067733Y-60790771D02*
X145162971Y-60743152D01*
X145162971Y-60743152D02*
X145353447Y-60743152D01*
X145353447Y-60743152D02*
X145448685Y-60790771D01*
X145448685Y-60790771D02*
X145496304Y-60886009D01*
X145496304Y-60886009D02*
X145496304Y-60981247D01*
X145496304Y-60981247D02*
X145020114Y-61076485D01*
X146305828Y-61362200D02*
X146210590Y-61409819D01*
X146210590Y-61409819D02*
X146020114Y-61409819D01*
X146020114Y-61409819D02*
X145924876Y-61362200D01*
X145924876Y-61362200D02*
X145877257Y-61266961D01*
X145877257Y-61266961D02*
X145877257Y-60886009D01*
X145877257Y-60886009D02*
X145924876Y-60790771D01*
X145924876Y-60790771D02*
X146020114Y-60743152D01*
X146020114Y-60743152D02*
X146210590Y-60743152D01*
X146210590Y-60743152D02*
X146305828Y-60790771D01*
X146305828Y-60790771D02*
X146353447Y-60886009D01*
X146353447Y-60886009D02*
X146353447Y-60981247D01*
X146353447Y-60981247D02*
X145877257Y-61076485D01*
X147496305Y-61362200D02*
X147639162Y-61409819D01*
X147639162Y-61409819D02*
X147877257Y-61409819D01*
X147877257Y-61409819D02*
X147972495Y-61362200D01*
X147972495Y-61362200D02*
X148020114Y-61314580D01*
X148020114Y-61314580D02*
X148067733Y-61219342D01*
X148067733Y-61219342D02*
X148067733Y-61124104D01*
X148067733Y-61124104D02*
X148020114Y-61028866D01*
X148020114Y-61028866D02*
X147972495Y-60981247D01*
X147972495Y-60981247D02*
X147877257Y-60933628D01*
X147877257Y-60933628D02*
X147686781Y-60886009D01*
X147686781Y-60886009D02*
X147591543Y-60838390D01*
X147591543Y-60838390D02*
X147543924Y-60790771D01*
X147543924Y-60790771D02*
X147496305Y-60695533D01*
X147496305Y-60695533D02*
X147496305Y-60600295D01*
X147496305Y-60600295D02*
X147543924Y-60505057D01*
X147543924Y-60505057D02*
X147591543Y-60457438D01*
X147591543Y-60457438D02*
X147686781Y-60409819D01*
X147686781Y-60409819D02*
X147924876Y-60409819D01*
X147924876Y-60409819D02*
X148067733Y-60457438D01*
X148639162Y-61409819D02*
X148543924Y-61362200D01*
X148543924Y-61362200D02*
X148496305Y-61314580D01*
X148496305Y-61314580D02*
X148448686Y-61219342D01*
X148448686Y-61219342D02*
X148448686Y-60933628D01*
X148448686Y-60933628D02*
X148496305Y-60838390D01*
X148496305Y-60838390D02*
X148543924Y-60790771D01*
X148543924Y-60790771D02*
X148639162Y-60743152D01*
X148639162Y-60743152D02*
X148782019Y-60743152D01*
X148782019Y-60743152D02*
X148877257Y-60790771D01*
X148877257Y-60790771D02*
X148924876Y-60838390D01*
X148924876Y-60838390D02*
X148972495Y-60933628D01*
X148972495Y-60933628D02*
X148972495Y-61219342D01*
X148972495Y-61219342D02*
X148924876Y-61314580D01*
X148924876Y-61314580D02*
X148877257Y-61362200D01*
X148877257Y-61362200D02*
X148782019Y-61409819D01*
X148782019Y-61409819D02*
X148639162Y-61409819D01*
X149401067Y-60743152D02*
X149401067Y-61409819D01*
X149401067Y-60838390D02*
X149448686Y-60790771D01*
X149448686Y-60790771D02*
X149543924Y-60743152D01*
X149543924Y-60743152D02*
X149686781Y-60743152D01*
X149686781Y-60743152D02*
X149782019Y-60790771D01*
X149782019Y-60790771D02*
X149829638Y-60886009D01*
X149829638Y-60886009D02*
X149829638Y-61409819D01*
X152553333Y-131529580D02*
X152505714Y-131577200D01*
X152505714Y-131577200D02*
X152362857Y-131624819D01*
X152362857Y-131624819D02*
X152267619Y-131624819D01*
X152267619Y-131624819D02*
X152124762Y-131577200D01*
X152124762Y-131577200D02*
X152029524Y-131481961D01*
X152029524Y-131481961D02*
X151981905Y-131386723D01*
X151981905Y-131386723D02*
X151934286Y-131196247D01*
X151934286Y-131196247D02*
X151934286Y-131053390D01*
X151934286Y-131053390D02*
X151981905Y-130862914D01*
X151981905Y-130862914D02*
X152029524Y-130767676D01*
X152029524Y-130767676D02*
X152124762Y-130672438D01*
X152124762Y-130672438D02*
X152267619Y-130624819D01*
X152267619Y-130624819D02*
X152362857Y-130624819D01*
X152362857Y-130624819D02*
X152505714Y-130672438D01*
X152505714Y-130672438D02*
X152553333Y-130720057D01*
X153410476Y-130958152D02*
X153410476Y-131624819D01*
X153172381Y-130577200D02*
X152934286Y-131291485D01*
X152934286Y-131291485D02*
X153553333Y-131291485D01*
X151584819Y-120816666D02*
X151108628Y-121149999D01*
X151584819Y-121388094D02*
X150584819Y-121388094D01*
X150584819Y-121388094D02*
X150584819Y-121007142D01*
X150584819Y-121007142D02*
X150632438Y-120911904D01*
X150632438Y-120911904D02*
X150680057Y-120864285D01*
X150680057Y-120864285D02*
X150775295Y-120816666D01*
X150775295Y-120816666D02*
X150918152Y-120816666D01*
X150918152Y-120816666D02*
X151013390Y-120864285D01*
X151013390Y-120864285D02*
X151061009Y-120911904D01*
X151061009Y-120911904D02*
X151108628Y-121007142D01*
X151108628Y-121007142D02*
X151108628Y-121388094D01*
X150584819Y-119959523D02*
X150584819Y-120149999D01*
X150584819Y-120149999D02*
X150632438Y-120245237D01*
X150632438Y-120245237D02*
X150680057Y-120292856D01*
X150680057Y-120292856D02*
X150822914Y-120388094D01*
X150822914Y-120388094D02*
X151013390Y-120435713D01*
X151013390Y-120435713D02*
X151394342Y-120435713D01*
X151394342Y-120435713D02*
X151489580Y-120388094D01*
X151489580Y-120388094D02*
X151537200Y-120340475D01*
X151537200Y-120340475D02*
X151584819Y-120245237D01*
X151584819Y-120245237D02*
X151584819Y-120054761D01*
X151584819Y-120054761D02*
X151537200Y-119959523D01*
X151537200Y-119959523D02*
X151489580Y-119911904D01*
X151489580Y-119911904D02*
X151394342Y-119864285D01*
X151394342Y-119864285D02*
X151156247Y-119864285D01*
X151156247Y-119864285D02*
X151061009Y-119911904D01*
X151061009Y-119911904D02*
X151013390Y-119959523D01*
X151013390Y-119959523D02*
X150965771Y-120054761D01*
X150965771Y-120054761D02*
X150965771Y-120245237D01*
X150965771Y-120245237D02*
X151013390Y-120340475D01*
X151013390Y-120340475D02*
X151061009Y-120388094D01*
X151061009Y-120388094D02*
X151156247Y-120435713D01*
X147774819Y-129706666D02*
X147298628Y-130039999D01*
X147774819Y-130278094D02*
X146774819Y-130278094D01*
X146774819Y-130278094D02*
X146774819Y-129897142D01*
X146774819Y-129897142D02*
X146822438Y-129801904D01*
X146822438Y-129801904D02*
X146870057Y-129754285D01*
X146870057Y-129754285D02*
X146965295Y-129706666D01*
X146965295Y-129706666D02*
X147108152Y-129706666D01*
X147108152Y-129706666D02*
X147203390Y-129754285D01*
X147203390Y-129754285D02*
X147251009Y-129801904D01*
X147251009Y-129801904D02*
X147298628Y-129897142D01*
X147298628Y-129897142D02*
X147298628Y-130278094D01*
X146774819Y-129373332D02*
X146774819Y-128706666D01*
X146774819Y-128706666D02*
X147774819Y-129135237D01*
X137727200Y-135381904D02*
X137774819Y-135239047D01*
X137774819Y-135239047D02*
X137774819Y-135000952D01*
X137774819Y-135000952D02*
X137727200Y-134905714D01*
X137727200Y-134905714D02*
X137679580Y-134858095D01*
X137679580Y-134858095D02*
X137584342Y-134810476D01*
X137584342Y-134810476D02*
X137489104Y-134810476D01*
X137489104Y-134810476D02*
X137393866Y-134858095D01*
X137393866Y-134858095D02*
X137346247Y-134905714D01*
X137346247Y-134905714D02*
X137298628Y-135000952D01*
X137298628Y-135000952D02*
X137251009Y-135191428D01*
X137251009Y-135191428D02*
X137203390Y-135286666D01*
X137203390Y-135286666D02*
X137155771Y-135334285D01*
X137155771Y-135334285D02*
X137060533Y-135381904D01*
X137060533Y-135381904D02*
X136965295Y-135381904D01*
X136965295Y-135381904D02*
X136870057Y-135334285D01*
X136870057Y-135334285D02*
X136822438Y-135286666D01*
X136822438Y-135286666D02*
X136774819Y-135191428D01*
X136774819Y-135191428D02*
X136774819Y-134953333D01*
X136774819Y-134953333D02*
X136822438Y-134810476D01*
X137774819Y-133858095D02*
X137774819Y-134429523D01*
X137774819Y-134143809D02*
X136774819Y-134143809D01*
X136774819Y-134143809D02*
X136917676Y-134239047D01*
X136917676Y-134239047D02*
X137012914Y-134334285D01*
X137012914Y-134334285D02*
X137060533Y-134429523D01*
X154453333Y-121809580D02*
X154405714Y-121857200D01*
X154405714Y-121857200D02*
X154262857Y-121904819D01*
X154262857Y-121904819D02*
X154167619Y-121904819D01*
X154167619Y-121904819D02*
X154024762Y-121857200D01*
X154024762Y-121857200D02*
X153929524Y-121761961D01*
X153929524Y-121761961D02*
X153881905Y-121666723D01*
X153881905Y-121666723D02*
X153834286Y-121476247D01*
X153834286Y-121476247D02*
X153834286Y-121333390D01*
X153834286Y-121333390D02*
X153881905Y-121142914D01*
X153881905Y-121142914D02*
X153929524Y-121047676D01*
X153929524Y-121047676D02*
X154024762Y-120952438D01*
X154024762Y-120952438D02*
X154167619Y-120904819D01*
X154167619Y-120904819D02*
X154262857Y-120904819D01*
X154262857Y-120904819D02*
X154405714Y-120952438D01*
X154405714Y-120952438D02*
X154453333Y-121000057D01*
X155405714Y-121904819D02*
X154834286Y-121904819D01*
X155120000Y-121904819D02*
X155120000Y-120904819D01*
X155120000Y-120904819D02*
X155024762Y-121047676D01*
X155024762Y-121047676D02*
X154929524Y-121142914D01*
X154929524Y-121142914D02*
X154834286Y-121190533D01*
X149348333Y-130574819D02*
X149015000Y-130098628D01*
X148776905Y-130574819D02*
X148776905Y-129574819D01*
X148776905Y-129574819D02*
X149157857Y-129574819D01*
X149157857Y-129574819D02*
X149253095Y-129622438D01*
X149253095Y-129622438D02*
X149300714Y-129670057D01*
X149300714Y-129670057D02*
X149348333Y-129765295D01*
X149348333Y-129765295D02*
X149348333Y-129908152D01*
X149348333Y-129908152D02*
X149300714Y-130003390D01*
X149300714Y-130003390D02*
X149253095Y-130051009D01*
X149253095Y-130051009D02*
X149157857Y-130098628D01*
X149157857Y-130098628D02*
X148776905Y-130098628D01*
X149729286Y-129670057D02*
X149776905Y-129622438D01*
X149776905Y-129622438D02*
X149872143Y-129574819D01*
X149872143Y-129574819D02*
X150110238Y-129574819D01*
X150110238Y-129574819D02*
X150205476Y-129622438D01*
X150205476Y-129622438D02*
X150253095Y-129670057D01*
X150253095Y-129670057D02*
X150300714Y-129765295D01*
X150300714Y-129765295D02*
X150300714Y-129860533D01*
X150300714Y-129860533D02*
X150253095Y-130003390D01*
X150253095Y-130003390D02*
X149681667Y-130574819D01*
X149681667Y-130574819D02*
X150300714Y-130574819D01*
X151283333Y-87079580D02*
X151235714Y-87127200D01*
X151235714Y-87127200D02*
X151092857Y-87174819D01*
X151092857Y-87174819D02*
X150997619Y-87174819D01*
X150997619Y-87174819D02*
X150854762Y-87127200D01*
X150854762Y-87127200D02*
X150759524Y-87031961D01*
X150759524Y-87031961D02*
X150711905Y-86936723D01*
X150711905Y-86936723D02*
X150664286Y-86746247D01*
X150664286Y-86746247D02*
X150664286Y-86603390D01*
X150664286Y-86603390D02*
X150711905Y-86412914D01*
X150711905Y-86412914D02*
X150759524Y-86317676D01*
X150759524Y-86317676D02*
X150854762Y-86222438D01*
X150854762Y-86222438D02*
X150997619Y-86174819D01*
X150997619Y-86174819D02*
X151092857Y-86174819D01*
X151092857Y-86174819D02*
X151235714Y-86222438D01*
X151235714Y-86222438D02*
X151283333Y-86270057D01*
X151616667Y-86174819D02*
X152235714Y-86174819D01*
X152235714Y-86174819D02*
X151902381Y-86555771D01*
X151902381Y-86555771D02*
X152045238Y-86555771D01*
X152045238Y-86555771D02*
X152140476Y-86603390D01*
X152140476Y-86603390D02*
X152188095Y-86651009D01*
X152188095Y-86651009D02*
X152235714Y-86746247D01*
X152235714Y-86746247D02*
X152235714Y-86984342D01*
X152235714Y-86984342D02*
X152188095Y-87079580D01*
X152188095Y-87079580D02*
X152140476Y-87127200D01*
X152140476Y-87127200D02*
X152045238Y-87174819D01*
X152045238Y-87174819D02*
X151759524Y-87174819D01*
X151759524Y-87174819D02*
X151664286Y-87127200D01*
X151664286Y-87127200D02*
X151616667Y-87079580D01*
X149044819Y-122896055D02*
X148568628Y-123229388D01*
X149044819Y-123467483D02*
X148044819Y-123467483D01*
X148044819Y-123467483D02*
X148044819Y-123086531D01*
X148044819Y-123086531D02*
X148092438Y-122991293D01*
X148092438Y-122991293D02*
X148140057Y-122943674D01*
X148140057Y-122943674D02*
X148235295Y-122896055D01*
X148235295Y-122896055D02*
X148378152Y-122896055D01*
X148378152Y-122896055D02*
X148473390Y-122943674D01*
X148473390Y-122943674D02*
X148521009Y-122991293D01*
X148521009Y-122991293D02*
X148568628Y-123086531D01*
X148568628Y-123086531D02*
X148568628Y-123467483D01*
X149044819Y-121943674D02*
X149044819Y-122515102D01*
X149044819Y-122229388D02*
X148044819Y-122229388D01*
X148044819Y-122229388D02*
X148187676Y-122324626D01*
X148187676Y-122324626D02*
X148282914Y-122419864D01*
X148282914Y-122419864D02*
X148330533Y-122515102D01*
X148140057Y-121562721D02*
X148092438Y-121515102D01*
X148092438Y-121515102D02*
X148044819Y-121419864D01*
X148044819Y-121419864D02*
X148044819Y-121181769D01*
X148044819Y-121181769D02*
X148092438Y-121086531D01*
X148092438Y-121086531D02*
X148140057Y-121038912D01*
X148140057Y-121038912D02*
X148235295Y-120991293D01*
X148235295Y-120991293D02*
X148330533Y-120991293D01*
X148330533Y-120991293D02*
X148473390Y-121038912D01*
X148473390Y-121038912D02*
X149044819Y-121610340D01*
X149044819Y-121610340D02*
X149044819Y-120991293D01*
X145234819Y-127401666D02*
X144758628Y-127734999D01*
X145234819Y-127973094D02*
X144234819Y-127973094D01*
X144234819Y-127973094D02*
X144234819Y-127592142D01*
X144234819Y-127592142D02*
X144282438Y-127496904D01*
X144282438Y-127496904D02*
X144330057Y-127449285D01*
X144330057Y-127449285D02*
X144425295Y-127401666D01*
X144425295Y-127401666D02*
X144568152Y-127401666D01*
X144568152Y-127401666D02*
X144663390Y-127449285D01*
X144663390Y-127449285D02*
X144711009Y-127496904D01*
X144711009Y-127496904D02*
X144758628Y-127592142D01*
X144758628Y-127592142D02*
X144758628Y-127973094D01*
X144663390Y-126830237D02*
X144615771Y-126925475D01*
X144615771Y-126925475D02*
X144568152Y-126973094D01*
X144568152Y-126973094D02*
X144472914Y-127020713D01*
X144472914Y-127020713D02*
X144425295Y-127020713D01*
X144425295Y-127020713D02*
X144330057Y-126973094D01*
X144330057Y-126973094D02*
X144282438Y-126925475D01*
X144282438Y-126925475D02*
X144234819Y-126830237D01*
X144234819Y-126830237D02*
X144234819Y-126639761D01*
X144234819Y-126639761D02*
X144282438Y-126544523D01*
X144282438Y-126544523D02*
X144330057Y-126496904D01*
X144330057Y-126496904D02*
X144425295Y-126449285D01*
X144425295Y-126449285D02*
X144472914Y-126449285D01*
X144472914Y-126449285D02*
X144568152Y-126496904D01*
X144568152Y-126496904D02*
X144615771Y-126544523D01*
X144615771Y-126544523D02*
X144663390Y-126639761D01*
X144663390Y-126639761D02*
X144663390Y-126830237D01*
X144663390Y-126830237D02*
X144711009Y-126925475D01*
X144711009Y-126925475D02*
X144758628Y-126973094D01*
X144758628Y-126973094D02*
X144853866Y-127020713D01*
X144853866Y-127020713D02*
X145044342Y-127020713D01*
X145044342Y-127020713D02*
X145139580Y-126973094D01*
X145139580Y-126973094D02*
X145187200Y-126925475D01*
X145187200Y-126925475D02*
X145234819Y-126830237D01*
X145234819Y-126830237D02*
X145234819Y-126639761D01*
X145234819Y-126639761D02*
X145187200Y-126544523D01*
X145187200Y-126544523D02*
X145139580Y-126496904D01*
X145139580Y-126496904D02*
X145044342Y-126449285D01*
X145044342Y-126449285D02*
X144853866Y-126449285D01*
X144853866Y-126449285D02*
X144758628Y-126496904D01*
X144758628Y-126496904D02*
X144711009Y-126544523D01*
X144711009Y-126544523D02*
X144663390Y-126639761D01*
X151584819Y-127738094D02*
X150584819Y-127738094D01*
X150584819Y-127738094D02*
X150584819Y-127499999D01*
X150584819Y-127499999D02*
X150632438Y-127357142D01*
X150632438Y-127357142D02*
X150727676Y-127261904D01*
X150727676Y-127261904D02*
X150822914Y-127214285D01*
X150822914Y-127214285D02*
X151013390Y-127166666D01*
X151013390Y-127166666D02*
X151156247Y-127166666D01*
X151156247Y-127166666D02*
X151346723Y-127214285D01*
X151346723Y-127214285D02*
X151441961Y-127261904D01*
X151441961Y-127261904D02*
X151537200Y-127357142D01*
X151537200Y-127357142D02*
X151584819Y-127499999D01*
X151584819Y-127499999D02*
X151584819Y-127738094D01*
X151584819Y-126214285D02*
X151584819Y-126785713D01*
X151584819Y-126499999D02*
X150584819Y-126499999D01*
X150584819Y-126499999D02*
X150727676Y-126595237D01*
X150727676Y-126595237D02*
X150822914Y-126690475D01*
X150822914Y-126690475D02*
X150870533Y-126785713D01*
X145716666Y-130424819D02*
X145716666Y-131139104D01*
X145716666Y-131139104D02*
X145669047Y-131281961D01*
X145669047Y-131281961D02*
X145573809Y-131377200D01*
X145573809Y-131377200D02*
X145430952Y-131424819D01*
X145430952Y-131424819D02*
X145335714Y-131424819D01*
X146669047Y-130424819D02*
X146192857Y-130424819D01*
X146192857Y-130424819D02*
X146145238Y-130901009D01*
X146145238Y-130901009D02*
X146192857Y-130853390D01*
X146192857Y-130853390D02*
X146288095Y-130805771D01*
X146288095Y-130805771D02*
X146526190Y-130805771D01*
X146526190Y-130805771D02*
X146621428Y-130853390D01*
X146621428Y-130853390D02*
X146669047Y-130901009D01*
X146669047Y-130901009D02*
X146716666Y-130996247D01*
X146716666Y-130996247D02*
X146716666Y-131234342D01*
X146716666Y-131234342D02*
X146669047Y-131329580D01*
X146669047Y-131329580D02*
X146621428Y-131377200D01*
X146621428Y-131377200D02*
X146526190Y-131424819D01*
X146526190Y-131424819D02*
X146288095Y-131424819D01*
X146288095Y-131424819D02*
X146192857Y-131377200D01*
X146192857Y-131377200D02*
X146145238Y-131329580D01*
X142428333Y-127814819D02*
X142095000Y-127338628D01*
X141856905Y-127814819D02*
X141856905Y-126814819D01*
X141856905Y-126814819D02*
X142237857Y-126814819D01*
X142237857Y-126814819D02*
X142333095Y-126862438D01*
X142333095Y-126862438D02*
X142380714Y-126910057D01*
X142380714Y-126910057D02*
X142428333Y-127005295D01*
X142428333Y-127005295D02*
X142428333Y-127148152D01*
X142428333Y-127148152D02*
X142380714Y-127243390D01*
X142380714Y-127243390D02*
X142333095Y-127291009D01*
X142333095Y-127291009D02*
X142237857Y-127338628D01*
X142237857Y-127338628D02*
X141856905Y-127338628D01*
X143333095Y-126814819D02*
X142856905Y-126814819D01*
X142856905Y-126814819D02*
X142809286Y-127291009D01*
X142809286Y-127291009D02*
X142856905Y-127243390D01*
X142856905Y-127243390D02*
X142952143Y-127195771D01*
X142952143Y-127195771D02*
X143190238Y-127195771D01*
X143190238Y-127195771D02*
X143285476Y-127243390D01*
X143285476Y-127243390D02*
X143333095Y-127291009D01*
X143333095Y-127291009D02*
X143380714Y-127386247D01*
X143380714Y-127386247D02*
X143380714Y-127624342D01*
X143380714Y-127624342D02*
X143333095Y-127719580D01*
X143333095Y-127719580D02*
X143285476Y-127767200D01*
X143285476Y-127767200D02*
X143190238Y-127814819D01*
X143190238Y-127814819D02*
X142952143Y-127814819D01*
X142952143Y-127814819D02*
X142856905Y-127767200D01*
X142856905Y-127767200D02*
X142809286Y-127719580D01*
X137442142Y-118689580D02*
X137394523Y-118737200D01*
X137394523Y-118737200D02*
X137251666Y-118784819D01*
X137251666Y-118784819D02*
X137156428Y-118784819D01*
X137156428Y-118784819D02*
X137013571Y-118737200D01*
X137013571Y-118737200D02*
X136918333Y-118641961D01*
X136918333Y-118641961D02*
X136870714Y-118546723D01*
X136870714Y-118546723D02*
X136823095Y-118356247D01*
X136823095Y-118356247D02*
X136823095Y-118213390D01*
X136823095Y-118213390D02*
X136870714Y-118022914D01*
X136870714Y-118022914D02*
X136918333Y-117927676D01*
X136918333Y-117927676D02*
X137013571Y-117832438D01*
X137013571Y-117832438D02*
X137156428Y-117784819D01*
X137156428Y-117784819D02*
X137251666Y-117784819D01*
X137251666Y-117784819D02*
X137394523Y-117832438D01*
X137394523Y-117832438D02*
X137442142Y-117880057D01*
X138394523Y-118784819D02*
X137823095Y-118784819D01*
X138108809Y-118784819D02*
X138108809Y-117784819D01*
X138108809Y-117784819D02*
X138013571Y-117927676D01*
X138013571Y-117927676D02*
X137918333Y-118022914D01*
X137918333Y-118022914D02*
X137823095Y-118070533D01*
X139013571Y-117784819D02*
X139108809Y-117784819D01*
X139108809Y-117784819D02*
X139204047Y-117832438D01*
X139204047Y-117832438D02*
X139251666Y-117880057D01*
X139251666Y-117880057D02*
X139299285Y-117975295D01*
X139299285Y-117975295D02*
X139346904Y-118165771D01*
X139346904Y-118165771D02*
X139346904Y-118403866D01*
X139346904Y-118403866D02*
X139299285Y-118594342D01*
X139299285Y-118594342D02*
X139251666Y-118689580D01*
X139251666Y-118689580D02*
X139204047Y-118737200D01*
X139204047Y-118737200D02*
X139108809Y-118784819D01*
X139108809Y-118784819D02*
X139013571Y-118784819D01*
X139013571Y-118784819D02*
X138918333Y-118737200D01*
X138918333Y-118737200D02*
X138870714Y-118689580D01*
X138870714Y-118689580D02*
X138823095Y-118594342D01*
X138823095Y-118594342D02*
X138775476Y-118403866D01*
X138775476Y-118403866D02*
X138775476Y-118165771D01*
X138775476Y-118165771D02*
X138823095Y-117975295D01*
X138823095Y-117975295D02*
X138870714Y-117880057D01*
X138870714Y-117880057D02*
X138918333Y-117832438D01*
X138918333Y-117832438D02*
X139013571Y-117784819D01*
X149044819Y-125527755D02*
X148044819Y-125527755D01*
X148044819Y-125527755D02*
X148044819Y-125289660D01*
X148044819Y-125289660D02*
X148092438Y-125146803D01*
X148092438Y-125146803D02*
X148187676Y-125051565D01*
X148187676Y-125051565D02*
X148282914Y-125003946D01*
X148282914Y-125003946D02*
X148473390Y-124956327D01*
X148473390Y-124956327D02*
X148616247Y-124956327D01*
X148616247Y-124956327D02*
X148806723Y-125003946D01*
X148806723Y-125003946D02*
X148901961Y-125051565D01*
X148901961Y-125051565D02*
X148997200Y-125146803D01*
X148997200Y-125146803D02*
X149044819Y-125289660D01*
X149044819Y-125289660D02*
X149044819Y-125527755D01*
X148140057Y-124575374D02*
X148092438Y-124527755D01*
X148092438Y-124527755D02*
X148044819Y-124432517D01*
X148044819Y-124432517D02*
X148044819Y-124194422D01*
X148044819Y-124194422D02*
X148092438Y-124099184D01*
X148092438Y-124099184D02*
X148140057Y-124051565D01*
X148140057Y-124051565D02*
X148235295Y-124003946D01*
X148235295Y-124003946D02*
X148330533Y-124003946D01*
X148330533Y-124003946D02*
X148473390Y-124051565D01*
X148473390Y-124051565D02*
X149044819Y-124622993D01*
X149044819Y-124622993D02*
X149044819Y-124003946D01*
X152578333Y-123909580D02*
X152530714Y-123957200D01*
X152530714Y-123957200D02*
X152387857Y-124004819D01*
X152387857Y-124004819D02*
X152292619Y-124004819D01*
X152292619Y-124004819D02*
X152149762Y-123957200D01*
X152149762Y-123957200D02*
X152054524Y-123861961D01*
X152054524Y-123861961D02*
X152006905Y-123766723D01*
X152006905Y-123766723D02*
X151959286Y-123576247D01*
X151959286Y-123576247D02*
X151959286Y-123433390D01*
X151959286Y-123433390D02*
X152006905Y-123242914D01*
X152006905Y-123242914D02*
X152054524Y-123147676D01*
X152054524Y-123147676D02*
X152149762Y-123052438D01*
X152149762Y-123052438D02*
X152292619Y-123004819D01*
X152292619Y-123004819D02*
X152387857Y-123004819D01*
X152387857Y-123004819D02*
X152530714Y-123052438D01*
X152530714Y-123052438D02*
X152578333Y-123100057D01*
X152911667Y-123004819D02*
X153578333Y-123004819D01*
X153578333Y-123004819D02*
X153149762Y-124004819D01*
X155664819Y-126939404D02*
X156474342Y-126939404D01*
X156474342Y-126939404D02*
X156569580Y-126891785D01*
X156569580Y-126891785D02*
X156617200Y-126844166D01*
X156617200Y-126844166D02*
X156664819Y-126748928D01*
X156664819Y-126748928D02*
X156664819Y-126558452D01*
X156664819Y-126558452D02*
X156617200Y-126463214D01*
X156617200Y-126463214D02*
X156569580Y-126415595D01*
X156569580Y-126415595D02*
X156474342Y-126367976D01*
X156474342Y-126367976D02*
X155664819Y-126367976D01*
X155760057Y-125939404D02*
X155712438Y-125891785D01*
X155712438Y-125891785D02*
X155664819Y-125796547D01*
X155664819Y-125796547D02*
X155664819Y-125558452D01*
X155664819Y-125558452D02*
X155712438Y-125463214D01*
X155712438Y-125463214D02*
X155760057Y-125415595D01*
X155760057Y-125415595D02*
X155855295Y-125367976D01*
X155855295Y-125367976D02*
X155950533Y-125367976D01*
X155950533Y-125367976D02*
X156093390Y-125415595D01*
X156093390Y-125415595D02*
X156664819Y-125987023D01*
X156664819Y-125987023D02*
X156664819Y-125367976D01*
X138091666Y-120909819D02*
X138091666Y-121624104D01*
X138091666Y-121624104D02*
X138044047Y-121766961D01*
X138044047Y-121766961D02*
X137948809Y-121862200D01*
X137948809Y-121862200D02*
X137805952Y-121909819D01*
X137805952Y-121909819D02*
X137710714Y-121909819D01*
X138996428Y-121243152D02*
X138996428Y-121909819D01*
X138758333Y-120862200D02*
X138520238Y-121576485D01*
X138520238Y-121576485D02*
X139139285Y-121576485D01*
X133528333Y-127814819D02*
X133195000Y-127338628D01*
X132956905Y-127814819D02*
X132956905Y-126814819D01*
X132956905Y-126814819D02*
X133337857Y-126814819D01*
X133337857Y-126814819D02*
X133433095Y-126862438D01*
X133433095Y-126862438D02*
X133480714Y-126910057D01*
X133480714Y-126910057D02*
X133528333Y-127005295D01*
X133528333Y-127005295D02*
X133528333Y-127148152D01*
X133528333Y-127148152D02*
X133480714Y-127243390D01*
X133480714Y-127243390D02*
X133433095Y-127291009D01*
X133433095Y-127291009D02*
X133337857Y-127338628D01*
X133337857Y-127338628D02*
X132956905Y-127338628D01*
X134385476Y-127148152D02*
X134385476Y-127814819D01*
X134147381Y-126767200D02*
X133909286Y-127481485D01*
X133909286Y-127481485D02*
X134528333Y-127481485D01*
X144693095Y-105724819D02*
X144693095Y-106534342D01*
X144693095Y-106534342D02*
X144740714Y-106629580D01*
X144740714Y-106629580D02*
X144788333Y-106677200D01*
X144788333Y-106677200D02*
X144883571Y-106724819D01*
X144883571Y-106724819D02*
X145074047Y-106724819D01*
X145074047Y-106724819D02*
X145169285Y-106677200D01*
X145169285Y-106677200D02*
X145216904Y-106629580D01*
X145216904Y-106629580D02*
X145264523Y-106534342D01*
X145264523Y-106534342D02*
X145264523Y-105724819D01*
X146264523Y-106724819D02*
X145693095Y-106724819D01*
X145978809Y-106724819D02*
X145978809Y-105724819D01*
X145978809Y-105724819D02*
X145883571Y-105867676D01*
X145883571Y-105867676D02*
X145788333Y-105962914D01*
X145788333Y-105962914D02*
X145693095Y-106010533D01*
X126704819Y-68223333D02*
X127419104Y-68223333D01*
X127419104Y-68223333D02*
X127561961Y-68270952D01*
X127561961Y-68270952D02*
X127657200Y-68366190D01*
X127657200Y-68366190D02*
X127704819Y-68509047D01*
X127704819Y-68509047D02*
X127704819Y-68604285D01*
X127704819Y-67223333D02*
X127704819Y-67794761D01*
X127704819Y-67509047D02*
X126704819Y-67509047D01*
X126704819Y-67509047D02*
X126847676Y-67604285D01*
X126847676Y-67604285D02*
X126942914Y-67699523D01*
X126942914Y-67699523D02*
X126990533Y-67794761D01*
X152553333Y-120319580D02*
X152505714Y-120367200D01*
X152505714Y-120367200D02*
X152362857Y-120414819D01*
X152362857Y-120414819D02*
X152267619Y-120414819D01*
X152267619Y-120414819D02*
X152124762Y-120367200D01*
X152124762Y-120367200D02*
X152029524Y-120271961D01*
X152029524Y-120271961D02*
X151981905Y-120176723D01*
X151981905Y-120176723D02*
X151934286Y-119986247D01*
X151934286Y-119986247D02*
X151934286Y-119843390D01*
X151934286Y-119843390D02*
X151981905Y-119652914D01*
X151981905Y-119652914D02*
X152029524Y-119557676D01*
X152029524Y-119557676D02*
X152124762Y-119462438D01*
X152124762Y-119462438D02*
X152267619Y-119414819D01*
X152267619Y-119414819D02*
X152362857Y-119414819D01*
X152362857Y-119414819D02*
X152505714Y-119462438D01*
X152505714Y-119462438D02*
X152553333Y-119510057D01*
X153410476Y-119414819D02*
X153220000Y-119414819D01*
X153220000Y-119414819D02*
X153124762Y-119462438D01*
X153124762Y-119462438D02*
X153077143Y-119510057D01*
X153077143Y-119510057D02*
X152981905Y-119652914D01*
X152981905Y-119652914D02*
X152934286Y-119843390D01*
X152934286Y-119843390D02*
X152934286Y-120224342D01*
X152934286Y-120224342D02*
X152981905Y-120319580D01*
X152981905Y-120319580D02*
X153029524Y-120367200D01*
X153029524Y-120367200D02*
X153124762Y-120414819D01*
X153124762Y-120414819D02*
X153315238Y-120414819D01*
X153315238Y-120414819D02*
X153410476Y-120367200D01*
X153410476Y-120367200D02*
X153458095Y-120319580D01*
X153458095Y-120319580D02*
X153505714Y-120224342D01*
X153505714Y-120224342D02*
X153505714Y-119986247D01*
X153505714Y-119986247D02*
X153458095Y-119891009D01*
X153458095Y-119891009D02*
X153410476Y-119843390D01*
X153410476Y-119843390D02*
X153315238Y-119795771D01*
X153315238Y-119795771D02*
X153124762Y-119795771D01*
X153124762Y-119795771D02*
X153029524Y-119843390D01*
X153029524Y-119843390D02*
X152981905Y-119891009D01*
X152981905Y-119891009D02*
X152934286Y-119986247D01*
X149373333Y-85809580D02*
X149325714Y-85857200D01*
X149325714Y-85857200D02*
X149182857Y-85904819D01*
X149182857Y-85904819D02*
X149087619Y-85904819D01*
X149087619Y-85904819D02*
X148944762Y-85857200D01*
X148944762Y-85857200D02*
X148849524Y-85761961D01*
X148849524Y-85761961D02*
X148801905Y-85666723D01*
X148801905Y-85666723D02*
X148754286Y-85476247D01*
X148754286Y-85476247D02*
X148754286Y-85333390D01*
X148754286Y-85333390D02*
X148801905Y-85142914D01*
X148801905Y-85142914D02*
X148849524Y-85047676D01*
X148849524Y-85047676D02*
X148944762Y-84952438D01*
X148944762Y-84952438D02*
X149087619Y-84904819D01*
X149087619Y-84904819D02*
X149182857Y-84904819D01*
X149182857Y-84904819D02*
X149325714Y-84952438D01*
X149325714Y-84952438D02*
X149373333Y-85000057D01*
X149754286Y-85000057D02*
X149801905Y-84952438D01*
X149801905Y-84952438D02*
X149897143Y-84904819D01*
X149897143Y-84904819D02*
X150135238Y-84904819D01*
X150135238Y-84904819D02*
X150230476Y-84952438D01*
X150230476Y-84952438D02*
X150278095Y-85000057D01*
X150278095Y-85000057D02*
X150325714Y-85095295D01*
X150325714Y-85095295D02*
X150325714Y-85190533D01*
X150325714Y-85190533D02*
X150278095Y-85333390D01*
X150278095Y-85333390D02*
X149706667Y-85904819D01*
X149706667Y-85904819D02*
X150325714Y-85904819D01*
X152634819Y-79037857D02*
X152158628Y-79371190D01*
X152634819Y-79609285D02*
X151634819Y-79609285D01*
X151634819Y-79609285D02*
X151634819Y-79228333D01*
X151634819Y-79228333D02*
X151682438Y-79133095D01*
X151682438Y-79133095D02*
X151730057Y-79085476D01*
X151730057Y-79085476D02*
X151825295Y-79037857D01*
X151825295Y-79037857D02*
X151968152Y-79037857D01*
X151968152Y-79037857D02*
X152063390Y-79085476D01*
X152063390Y-79085476D02*
X152111009Y-79133095D01*
X152111009Y-79133095D02*
X152158628Y-79228333D01*
X152158628Y-79228333D02*
X152158628Y-79609285D01*
X152634819Y-78085476D02*
X152634819Y-78656904D01*
X152634819Y-78371190D02*
X151634819Y-78371190D01*
X151634819Y-78371190D02*
X151777676Y-78466428D01*
X151777676Y-78466428D02*
X151872914Y-78561666D01*
X151872914Y-78561666D02*
X151920533Y-78656904D01*
X151634819Y-77466428D02*
X151634819Y-77371190D01*
X151634819Y-77371190D02*
X151682438Y-77275952D01*
X151682438Y-77275952D02*
X151730057Y-77228333D01*
X151730057Y-77228333D02*
X151825295Y-77180714D01*
X151825295Y-77180714D02*
X152015771Y-77133095D01*
X152015771Y-77133095D02*
X152253866Y-77133095D01*
X152253866Y-77133095D02*
X152444342Y-77180714D01*
X152444342Y-77180714D02*
X152539580Y-77228333D01*
X152539580Y-77228333D02*
X152587200Y-77275952D01*
X152587200Y-77275952D02*
X152634819Y-77371190D01*
X152634819Y-77371190D02*
X152634819Y-77466428D01*
X152634819Y-77466428D02*
X152587200Y-77561666D01*
X152587200Y-77561666D02*
X152539580Y-77609285D01*
X152539580Y-77609285D02*
X152444342Y-77656904D01*
X152444342Y-77656904D02*
X152253866Y-77704523D01*
X152253866Y-77704523D02*
X152015771Y-77704523D01*
X152015771Y-77704523D02*
X151825295Y-77656904D01*
X151825295Y-77656904D02*
X151730057Y-77609285D01*
X151730057Y-77609285D02*
X151682438Y-77561666D01*
X151682438Y-77561666D02*
X151634819Y-77466428D01*
X160956666Y-77714819D02*
X160956666Y-78429104D01*
X160956666Y-78429104D02*
X160909047Y-78571961D01*
X160909047Y-78571961D02*
X160813809Y-78667200D01*
X160813809Y-78667200D02*
X160670952Y-78714819D01*
X160670952Y-78714819D02*
X160575714Y-78714819D01*
X161337619Y-77714819D02*
X161956666Y-77714819D01*
X161956666Y-77714819D02*
X161623333Y-78095771D01*
X161623333Y-78095771D02*
X161766190Y-78095771D01*
X161766190Y-78095771D02*
X161861428Y-78143390D01*
X161861428Y-78143390D02*
X161909047Y-78191009D01*
X161909047Y-78191009D02*
X161956666Y-78286247D01*
X161956666Y-78286247D02*
X161956666Y-78524342D01*
X161956666Y-78524342D02*
X161909047Y-78619580D01*
X161909047Y-78619580D02*
X161861428Y-78667200D01*
X161861428Y-78667200D02*
X161766190Y-78714819D01*
X161766190Y-78714819D02*
X161480476Y-78714819D01*
X161480476Y-78714819D02*
X161385238Y-78667200D01*
X161385238Y-78667200D02*
X161337619Y-78619580D01*
X157714819Y-78561666D02*
X157238628Y-78894999D01*
X157714819Y-79133094D02*
X156714819Y-79133094D01*
X156714819Y-79133094D02*
X156714819Y-78752142D01*
X156714819Y-78752142D02*
X156762438Y-78656904D01*
X156762438Y-78656904D02*
X156810057Y-78609285D01*
X156810057Y-78609285D02*
X156905295Y-78561666D01*
X156905295Y-78561666D02*
X157048152Y-78561666D01*
X157048152Y-78561666D02*
X157143390Y-78609285D01*
X157143390Y-78609285D02*
X157191009Y-78656904D01*
X157191009Y-78656904D02*
X157238628Y-78752142D01*
X157238628Y-78752142D02*
X157238628Y-79133094D01*
X157714819Y-78085475D02*
X157714819Y-77894999D01*
X157714819Y-77894999D02*
X157667200Y-77799761D01*
X157667200Y-77799761D02*
X157619580Y-77752142D01*
X157619580Y-77752142D02*
X157476723Y-77656904D01*
X157476723Y-77656904D02*
X157286247Y-77609285D01*
X157286247Y-77609285D02*
X156905295Y-77609285D01*
X156905295Y-77609285D02*
X156810057Y-77656904D01*
X156810057Y-77656904D02*
X156762438Y-77704523D01*
X156762438Y-77704523D02*
X156714819Y-77799761D01*
X156714819Y-77799761D02*
X156714819Y-77990237D01*
X156714819Y-77990237D02*
X156762438Y-78085475D01*
X156762438Y-78085475D02*
X156810057Y-78133094D01*
X156810057Y-78133094D02*
X156905295Y-78180713D01*
X156905295Y-78180713D02*
X157143390Y-78180713D01*
X157143390Y-78180713D02*
X157238628Y-78133094D01*
X157238628Y-78133094D02*
X157286247Y-78085475D01*
X157286247Y-78085475D02*
X157333866Y-77990237D01*
X157333866Y-77990237D02*
X157333866Y-77799761D01*
X157333866Y-77799761D02*
X157286247Y-77704523D01*
X157286247Y-77704523D02*
X157238628Y-77656904D01*
X157238628Y-77656904D02*
X157143390Y-77609285D01*
X148423333Y-126984819D02*
X148090000Y-126508628D01*
X147851905Y-126984819D02*
X147851905Y-125984819D01*
X147851905Y-125984819D02*
X148232857Y-125984819D01*
X148232857Y-125984819D02*
X148328095Y-126032438D01*
X148328095Y-126032438D02*
X148375714Y-126080057D01*
X148375714Y-126080057D02*
X148423333Y-126175295D01*
X148423333Y-126175295D02*
X148423333Y-126318152D01*
X148423333Y-126318152D02*
X148375714Y-126413390D01*
X148375714Y-126413390D02*
X148328095Y-126461009D01*
X148328095Y-126461009D02*
X148232857Y-126508628D01*
X148232857Y-126508628D02*
X147851905Y-126508628D01*
X148756667Y-125984819D02*
X149375714Y-125984819D01*
X149375714Y-125984819D02*
X149042381Y-126365771D01*
X149042381Y-126365771D02*
X149185238Y-126365771D01*
X149185238Y-126365771D02*
X149280476Y-126413390D01*
X149280476Y-126413390D02*
X149328095Y-126461009D01*
X149328095Y-126461009D02*
X149375714Y-126556247D01*
X149375714Y-126556247D02*
X149375714Y-126794342D01*
X149375714Y-126794342D02*
X149328095Y-126889580D01*
X149328095Y-126889580D02*
X149280476Y-126937200D01*
X149280476Y-126937200D02*
X149185238Y-126984819D01*
X149185238Y-126984819D02*
X148899524Y-126984819D01*
X148899524Y-126984819D02*
X148804286Y-126937200D01*
X148804286Y-126937200D02*
X148756667Y-126889580D01*
X155174819Y-79037857D02*
X154698628Y-79371190D01*
X155174819Y-79609285D02*
X154174819Y-79609285D01*
X154174819Y-79609285D02*
X154174819Y-79228333D01*
X154174819Y-79228333D02*
X154222438Y-79133095D01*
X154222438Y-79133095D02*
X154270057Y-79085476D01*
X154270057Y-79085476D02*
X154365295Y-79037857D01*
X154365295Y-79037857D02*
X154508152Y-79037857D01*
X154508152Y-79037857D02*
X154603390Y-79085476D01*
X154603390Y-79085476D02*
X154651009Y-79133095D01*
X154651009Y-79133095D02*
X154698628Y-79228333D01*
X154698628Y-79228333D02*
X154698628Y-79609285D01*
X155174819Y-78085476D02*
X155174819Y-78656904D01*
X155174819Y-78371190D02*
X154174819Y-78371190D01*
X154174819Y-78371190D02*
X154317676Y-78466428D01*
X154317676Y-78466428D02*
X154412914Y-78561666D01*
X154412914Y-78561666D02*
X154460533Y-78656904D01*
X155174819Y-77133095D02*
X155174819Y-77704523D01*
X155174819Y-77418809D02*
X154174819Y-77418809D01*
X154174819Y-77418809D02*
X154317676Y-77514047D01*
X154317676Y-77514047D02*
X154412914Y-77609285D01*
X154412914Y-77609285D02*
X154460533Y-77704523D01*
X145633809Y-92983628D02*
X145633809Y-93459819D01*
X145300476Y-92459819D02*
X145633809Y-92983628D01*
X145633809Y-92983628D02*
X145967142Y-92459819D01*
X146824285Y-93459819D02*
X146252857Y-93459819D01*
X146538571Y-93459819D02*
X146538571Y-92459819D01*
X146538571Y-92459819D02*
X146443333Y-92602676D01*
X146443333Y-92602676D02*
X146348095Y-92697914D01*
X146348095Y-92697914D02*
X146252857Y-92745533D01*
X154773333Y-129209580D02*
X154725714Y-129257200D01*
X154725714Y-129257200D02*
X154582857Y-129304819D01*
X154582857Y-129304819D02*
X154487619Y-129304819D01*
X154487619Y-129304819D02*
X154344762Y-129257200D01*
X154344762Y-129257200D02*
X154249524Y-129161961D01*
X154249524Y-129161961D02*
X154201905Y-129066723D01*
X154201905Y-129066723D02*
X154154286Y-128876247D01*
X154154286Y-128876247D02*
X154154286Y-128733390D01*
X154154286Y-128733390D02*
X154201905Y-128542914D01*
X154201905Y-128542914D02*
X154249524Y-128447676D01*
X154249524Y-128447676D02*
X154344762Y-128352438D01*
X154344762Y-128352438D02*
X154487619Y-128304819D01*
X154487619Y-128304819D02*
X154582857Y-128304819D01*
X154582857Y-128304819D02*
X154725714Y-128352438D01*
X154725714Y-128352438D02*
X154773333Y-128400057D01*
X155678095Y-128304819D02*
X155201905Y-128304819D01*
X155201905Y-128304819D02*
X155154286Y-128781009D01*
X155154286Y-128781009D02*
X155201905Y-128733390D01*
X155201905Y-128733390D02*
X155297143Y-128685771D01*
X155297143Y-128685771D02*
X155535238Y-128685771D01*
X155535238Y-128685771D02*
X155630476Y-128733390D01*
X155630476Y-128733390D02*
X155678095Y-128781009D01*
X155678095Y-128781009D02*
X155725714Y-128876247D01*
X155725714Y-128876247D02*
X155725714Y-129114342D01*
X155725714Y-129114342D02*
X155678095Y-129209580D01*
X155678095Y-129209580D02*
X155630476Y-129257200D01*
X155630476Y-129257200D02*
X155535238Y-129304819D01*
X155535238Y-129304819D02*
X155297143Y-129304819D01*
X155297143Y-129304819D02*
X155201905Y-129257200D01*
X155201905Y-129257200D02*
X155154286Y-129209580D01*
X129206666Y-77714819D02*
X129206666Y-78429104D01*
X129206666Y-78429104D02*
X129159047Y-78571961D01*
X129159047Y-78571961D02*
X129063809Y-78667200D01*
X129063809Y-78667200D02*
X128920952Y-78714819D01*
X128920952Y-78714819D02*
X128825714Y-78714819D01*
X129635238Y-77810057D02*
X129682857Y-77762438D01*
X129682857Y-77762438D02*
X129778095Y-77714819D01*
X129778095Y-77714819D02*
X130016190Y-77714819D01*
X130016190Y-77714819D02*
X130111428Y-77762438D01*
X130111428Y-77762438D02*
X130159047Y-77810057D01*
X130159047Y-77810057D02*
X130206666Y-77905295D01*
X130206666Y-77905295D02*
X130206666Y-78000533D01*
X130206666Y-78000533D02*
X130159047Y-78143390D01*
X130159047Y-78143390D02*
X129587619Y-78714819D01*
X129587619Y-78714819D02*
X130206666Y-78714819D01*
D11*
%TO.C,S1*%
X136220000Y-133020000D02*
X135720000Y-133020000D01*
X136220000Y-133020000D02*
X136220000Y-133520000D01*
X135720000Y-133020000D02*
X135720000Y-132620000D01*
X133020000Y-133020000D02*
X133520000Y-133020000D01*
X133020000Y-133020000D02*
X133020000Y-133520000D01*
X136220000Y-136220000D02*
X136220000Y-135720000D01*
X136220000Y-136220000D02*
X135720000Y-136220000D01*
X133020000Y-136220000D02*
X133020000Y-135820000D01*
X133020000Y-136220000D02*
X133520000Y-136220000D01*
%TO.C,D1*%
X151180000Y-123920000D02*
G75*
G03*
X151180000Y-123920000I-50000J0D01*
G01*
D12*
%TO.C,J5*%
X141350000Y-140020000D02*
X141350000Y-140970000D01*
X143050000Y-131670000D02*
X143300000Y-132020000D01*
X143300000Y-132020000D02*
X143550000Y-131670000D01*
X143400000Y-132250000D02*
X148700000Y-132250000D01*
X150750000Y-140970000D02*
X150750000Y-140020000D01*
D11*
%TO.C,D2*%
X149958845Y-123929661D02*
G75*
G03*
X149958845Y-123929661I-50000J0D01*
G01*
D12*
%TO.C,U2*%
X151790000Y-126177500D02*
X151790000Y-127977500D01*
X151790000Y-126177500D02*
X151790000Y-125377500D01*
X154910000Y-126177500D02*
X154910000Y-126977500D01*
X154910000Y-126177500D02*
X154910000Y-125377500D01*
%TO.C,J4*%
X135825000Y-122455000D02*
X137155000Y-122455000D01*
X135825000Y-123785000D02*
X135825000Y-122455000D01*
X135825000Y-125055000D02*
X135825000Y-130195000D01*
X135825000Y-125055000D02*
X138425000Y-125055000D01*
X135825000Y-130195000D02*
X141025000Y-130195000D01*
X138425000Y-122455000D02*
X141025000Y-122455000D01*
X138425000Y-125055000D02*
X138425000Y-122455000D01*
X141025000Y-122455000D02*
X141025000Y-130195000D01*
%TO.C,U1*%
X140345000Y-108560000D02*
X140345000Y-109510000D01*
X140345000Y-109510000D02*
X139005000Y-109510000D01*
X140345000Y-118780000D02*
X140345000Y-117830000D01*
X141295000Y-108560000D02*
X140345000Y-108560000D01*
X141295000Y-118780000D02*
X140345000Y-118780000D01*
X149615000Y-108560000D02*
X150565000Y-108560000D01*
X149615000Y-118780000D02*
X150565000Y-118780000D01*
X150565000Y-108560000D02*
X150565000Y-109510000D01*
X150565000Y-118780000D02*
X150565000Y-117830000D01*
%TO.C,J1*%
X132850000Y-73840000D02*
X133850000Y-73840000D01*
X133850000Y-73840000D02*
X133350000Y-72840000D01*
X133350000Y-72840000D02*
X132850000Y-73840000D01*
X128140000Y-72450000D02*
X128140000Y-63330000D01*
X142730000Y-72450000D02*
X142730000Y-71140000D01*
X161420000Y-72450000D02*
X128140000Y-72450000D01*
X129440000Y-71140000D02*
X129440000Y-64640000D01*
X142730000Y-71140000D02*
X129440000Y-71140000D01*
X146830000Y-71140000D02*
X146830000Y-72450000D01*
X146830000Y-71140000D02*
X146830000Y-71140000D01*
X160120000Y-71140000D02*
X146830000Y-71140000D01*
X129440000Y-64640000D02*
X160120000Y-64640000D01*
X160120000Y-64640000D02*
X160120000Y-71140000D01*
X128140000Y-63330000D02*
X161420000Y-63330000D01*
X161420000Y-63330000D02*
X161420000Y-72450000D01*
%TO.C,J3*%
X159960000Y-79260000D02*
X161290000Y-79260000D01*
X159960000Y-80590000D02*
X159960000Y-79260000D01*
X159960000Y-81860000D02*
X159960000Y-130180000D01*
X159960000Y-81860000D02*
X162620000Y-81860000D01*
X159960000Y-130180000D02*
X162620000Y-130180000D01*
X162620000Y-81860000D02*
X162620000Y-130180000D01*
%TO.C,Y1*%
X149310000Y-92005000D02*
X142910000Y-92005000D01*
X149310000Y-86955000D02*
X142910000Y-86955000D01*
X149310000Y-92005000D02*
G75*
G03*
X149310000Y-86955000I0J2525000D01*
G01*
X142910000Y-86955000D02*
G75*
G03*
X142910000Y-92005000I0J-2525000D01*
G01*
%TO.C,J2*%
X128210000Y-79260000D02*
X129540000Y-79260000D01*
X128210000Y-80590000D02*
X128210000Y-79260000D01*
X128210000Y-81860000D02*
X128210000Y-130180000D01*
X128210000Y-81860000D02*
X130870000Y-81860000D01*
X128210000Y-130180000D02*
X130870000Y-130180000D01*
X130870000Y-81860000D02*
X130870000Y-130180000D01*
%TD*%
M02*
