%TF.GenerationSoftware,KiCad,Pcbnew,7.0.7*%
%TF.CreationDate,2023-10-15T12:26:55+09:00*%
%TF.ProjectId,STM32F103_dev_board,53544d33-3246-4313-9033-5f6465765f62,1.1.2*%
%TF.SameCoordinates,Original*%
%TF.FileFunction,Copper,L4,Bot*%
%TF.FilePolarity,Positive*%
%FSLAX46Y46*%
G04 Gerber Fmt 4.6, Leading zero omitted, Abs format (unit mm)*
G04 Created by KiCad (PCBNEW 7.0.7) date 2023-10-15 12:26:55*
%MOMM*%
%LPD*%
G01*
G04 APERTURE LIST*
G04 Aperture macros list*
%AMRoundRect*
0 Rectangle with rounded corners*
0 $1 Rounding radius*
0 $2 $3 $4 $5 $6 $7 $8 $9 X,Y pos of 4 corners*
0 Add a 4 corners polygon primitive as box body*
4,1,4,$2,$3,$4,$5,$6,$7,$8,$9,$2,$3,0*
0 Add four circle primitives for the rounded corners*
1,1,$1+$1,$2,$3*
1,1,$1+$1,$4,$5*
1,1,$1+$1,$6,$7*
1,1,$1+$1,$8,$9*
0 Add four rect primitives between the rounded corners*
20,1,$1+$1,$2,$3,$4,$5,0*
20,1,$1+$1,$4,$5,$6,$7,0*
20,1,$1+$1,$6,$7,$8,$9,0*
20,1,$1+$1,$8,$9,$2,$3,0*%
G04 Aperture macros list end*
%TA.AperFunction,SMDPad,CuDef*%
%ADD10R,0.450000X1.725000*%
%TD*%
%TA.AperFunction,ComponentPad*%
%ADD11C,3.500000*%
%TD*%
%TA.AperFunction,ComponentPad*%
%ADD12C,2.000000*%
%TD*%
%TA.AperFunction,ComponentPad*%
%ADD13C,2.565000*%
%TD*%
%TA.AperFunction,ComponentPad*%
%ADD14R,1.700000X1.700000*%
%TD*%
%TA.AperFunction,ComponentPad*%
%ADD15O,1.700000X1.700000*%
%TD*%
%TA.AperFunction,ComponentPad*%
%ADD16RoundRect,0.250000X0.600000X-0.600000X0.600000X0.600000X-0.600000X0.600000X-0.600000X-0.600000X0*%
%TD*%
%TA.AperFunction,ComponentPad*%
%ADD17C,1.700000*%
%TD*%
%TA.AperFunction,ComponentPad*%
%ADD18C,1.500000*%
%TD*%
%TA.AperFunction,SMDPad,CuDef*%
%ADD19RoundRect,0.237500X0.300000X0.237500X-0.300000X0.237500X-0.300000X-0.237500X0.300000X-0.237500X0*%
%TD*%
%TA.AperFunction,SMDPad,CuDef*%
%ADD20RoundRect,0.237500X-0.300000X-0.237500X0.300000X-0.237500X0.300000X0.237500X-0.300000X0.237500X0*%
%TD*%
%TA.AperFunction,SMDPad,CuDef*%
%ADD21R,1.430000X2.850000*%
%TD*%
%TA.AperFunction,ViaPad*%
%ADD22C,0.800000*%
%TD*%
%TA.AperFunction,Conductor*%
%ADD23C,0.250000*%
%TD*%
G04 APERTURE END LIST*
D10*
%TO.P,IC2,1,TXD*%
%TO.N,PA10{slash}USART1_RX*%
X149478250Y-120865000D03*
%TO.P,IC2,2,DTR#*%
%TO.N,unconnected-(IC2-DTR#-Pad2)*%
X150128250Y-120865000D03*
%TO.P,IC2,3,RTS#*%
%TO.N,PA12*%
X150778250Y-120865000D03*
%TO.P,IC2,4,VCCIO*%
%TO.N,VCC3V3*%
X151428250Y-120865000D03*
%TO.P,IC2,5,RXD*%
%TO.N,PA9{slash}USART1_TX*%
X152078250Y-120865000D03*
%TO.P,IC2,6,RI#*%
%TO.N,unconnected-(IC2-RI#-Pad6)*%
X152728250Y-120865000D03*
%TO.P,IC2,7,GND_1*%
%TO.N,GND*%
X153378250Y-120865000D03*
%TO.P,IC2,8,NC_1*%
%TO.N,unconnected-(IC2-NC_1-Pad8)*%
X154028250Y-120865000D03*
%TO.P,IC2,9,DSR#*%
%TO.N,unconnected-(IC2-DSR#-Pad9)*%
X154678250Y-120865000D03*
%TO.P,IC2,10,DCD#*%
%TO.N,unconnected-(IC2-DCD#-Pad10)*%
X155328250Y-120865000D03*
%TO.P,IC2,11,CTS#*%
%TO.N,PA11*%
X155978250Y-120865000D03*
%TO.P,IC2,12,CBUS4*%
%TO.N,unconnected-(IC2-CBUS4-Pad12)*%
X156628250Y-120865000D03*
%TO.P,IC2,13,CBUS2*%
%TO.N,unconnected-(IC2-CBUS2-Pad13)*%
X157278250Y-120865000D03*
%TO.P,IC2,14,CBUS3*%
%TO.N,unconnected-(IC2-CBUS3-Pad14)*%
X157928250Y-120865000D03*
%TO.P,IC2,15,USBDP*%
%TO.N,USBDP*%
X157928250Y-127889000D03*
%TO.P,IC2,16,USBDM*%
%TO.N,USBDM*%
X157278250Y-127889000D03*
%TO.P,IC2,17,3V3OUT*%
%TO.N,Net-(IC2-3V3OUT)*%
X156628250Y-127889000D03*
%TO.P,IC2,18,GND_2*%
%TO.N,GND*%
X155978250Y-127889000D03*
%TO.P,IC2,19,RESET#*%
%TO.N,5V*%
X155328250Y-127889000D03*
%TO.P,IC2,20,VCC*%
X154678250Y-127889000D03*
%TO.P,IC2,21,GND_3*%
%TO.N,GND*%
X154028250Y-127889000D03*
%TO.P,IC2,22,CBUS1*%
%TO.N,unconnected-(IC2-CBUS1-Pad22)*%
X153378250Y-127889000D03*
%TO.P,IC2,23,CBUS0*%
%TO.N,unconnected-(IC2-CBUS0-Pad23)*%
X152728250Y-127889000D03*
%TO.P,IC2,24,NC_2*%
%TO.N,unconnected-(IC2-NC_2-Pad24)*%
X152078250Y-127889000D03*
%TO.P,IC2,25,AGND*%
%TO.N,GND*%
X151428250Y-127889000D03*
%TO.P,IC2,26,TEST*%
%TO.N,unconnected-(IC2-TEST-Pad26)*%
X150778250Y-127889000D03*
%TO.P,IC2,27,OSCI*%
%TO.N,unconnected-(IC2-OSCI-Pad27)*%
X150128250Y-127889000D03*
%TO.P,IC2,28,OSCO*%
%TO.N,unconnected-(IC2-OSCO-Pad28)*%
X149478250Y-127889000D03*
%TD*%
D11*
%TO.P,REF\u002A\u002A,1*%
%TO.N,GND*%
X162560000Y-60270000D03*
%TD*%
D12*
%TO.P,J6,MH3,MH3*%
%TO.N,GND*%
X141148000Y-134057000D03*
%TO.P,J6,MH4,MH4*%
X150368000Y-134057000D03*
D13*
%TO.P,J6,MH5,MH5*%
X141148000Y-138557000D03*
%TO.P,J6,MH6,MH6*%
X150368000Y-138557000D03*
%TD*%
D11*
%TO.P,REF\u002A\u002A,1*%
%TO.N,GND*%
X128285913Y-139053348D03*
%TD*%
%TO.P,REF\u002A\u002A,1*%
%TO.N,GND*%
X128270000Y-60270000D03*
%TD*%
D14*
%TO.P,J4,1,Pin_1*%
%TO.N,VCC3V3*%
X137155000Y-123785000D03*
D15*
%TO.P,J4,2,Pin_2*%
X139695000Y-123785000D03*
%TO.P,J4,3,Pin_3*%
%TO.N,Net-(J4-Pin_3)*%
X137155000Y-126325000D03*
%TO.P,J4,4,Pin_4*%
%TO.N,Net-(J4-Pin_4)*%
X139695000Y-126325000D03*
%TO.P,J4,5,Pin_5*%
%TO.N,GND*%
X137155000Y-128865000D03*
%TO.P,J4,6,Pin_6*%
X139695000Y-128865000D03*
%TD*%
D16*
%TO.P,J1,1,VTREF*%
%TO.N,VCC3V3*%
X133350000Y-69160000D03*
D17*
%TO.P,J1,2,VCC/NC*%
X133350000Y-66620000D03*
%TO.P,J1,3,~{TRST}*%
%TO.N,JNTRST*%
X135890000Y-69160000D03*
%TO.P,J1,4,GND*%
%TO.N,GND*%
X135890000Y-66620000D03*
%TO.P,J1,5,TDI*%
%TO.N,JTDI*%
X138430000Y-69160000D03*
%TO.P,J1,6,GND*%
%TO.N,GND*%
X138430000Y-66620000D03*
%TO.P,J1,7,TMS/SWDIO*%
%TO.N,JTMS{slash}SWDIO*%
X140970000Y-69160000D03*
%TO.P,J1,8,GND*%
%TO.N,GND*%
X140970000Y-66620000D03*
%TO.P,J1,9,TCK/SWDCLK*%
%TO.N,JTCK{slash}SWCLK*%
X143510000Y-69160000D03*
%TO.P,J1,10,GND*%
%TO.N,GND*%
X143510000Y-66620000D03*
%TO.P,J1,11,RTCK*%
%TO.N,Net-(J1-RTCK)*%
X146050000Y-69160000D03*
%TO.P,J1,12,GND*%
%TO.N,GND*%
X146050000Y-66620000D03*
%TO.P,J1,13,TDO/SWO*%
%TO.N,JTDO*%
X148590000Y-69160000D03*
%TO.P,J1,14,GND*%
%TO.N,GND*%
X148590000Y-66620000D03*
%TO.P,J1,15,~{SRST}*%
%TO.N,RESET*%
X151130000Y-69160000D03*
%TO.P,J1,16,GND*%
%TO.N,GND*%
X151130000Y-66620000D03*
%TO.P,J1,17,DBGRQ/NC*%
%TO.N,Net-(J1-DBGRQ{slash}NC)*%
X153670000Y-69160000D03*
%TO.P,J1,18,GND*%
%TO.N,GND*%
X153670000Y-66620000D03*
%TO.P,J1,19,DBGACK/NC*%
%TO.N,Net-(J1-DBGACK{slash}NC)*%
X156210000Y-69160000D03*
%TO.P,J1,20,GND*%
%TO.N,GND*%
X156210000Y-66620000D03*
%TD*%
D14*
%TO.P,J3,1,Pin_1*%
%TO.N,VCC3V3*%
X161290000Y-80590000D03*
D15*
%TO.P,J3,2,Pin_2*%
%TO.N,GND*%
X161290000Y-83130000D03*
%TO.P,J3,3,Pin_3*%
%TO.N,5V*%
X161290000Y-85670000D03*
%TO.P,J3,4,Pin_4*%
%TO.N,PC12*%
X161290000Y-88210000D03*
%TO.P,J3,5,Pin_5*%
%TO.N,PC11*%
X161290000Y-90750000D03*
%TO.P,J3,6,Pin_6*%
%TO.N,PC10*%
X161290000Y-93290000D03*
%TO.P,J3,7,Pin_7*%
%TO.N,PA10{slash}USART1_RX*%
X161290000Y-95830000D03*
%TO.P,J3,8,Pin_8*%
%TO.N,PA9{slash}USART1_TX*%
X161290000Y-98370000D03*
%TO.P,J3,9,Pin_9*%
%TO.N,PA8*%
X161290000Y-100910000D03*
%TO.P,J3,10,Pin_10*%
%TO.N,PC9*%
X161290000Y-103450000D03*
%TO.P,J3,11,Pin_11*%
%TO.N,PC8*%
X161290000Y-105990000D03*
%TO.P,J3,12,Pin_12*%
%TO.N,PC7*%
X161290000Y-108530000D03*
%TO.P,J3,13,Pin_13*%
%TO.N,PC6*%
X161290000Y-111070000D03*
%TO.P,J3,14,Pin_14*%
%TO.N,PB15*%
X161290000Y-113610000D03*
%TO.P,J3,15,Pin_15*%
%TO.N,PB14*%
X161290000Y-116150000D03*
%TO.P,J3,16,Pin_16*%
%TO.N,PB13*%
X161290000Y-118690000D03*
%TO.P,J3,17,Pin_17*%
%TO.N,PB12*%
X161290000Y-121230000D03*
%TO.P,J3,18,Pin_18*%
%TO.N,PB11*%
X161290000Y-123770000D03*
%TO.P,J3,19,Pin_19*%
%TO.N,PB10*%
X161290000Y-126310000D03*
%TO.P,J3,20,Pin_20*%
%TO.N,PB1*%
X161290000Y-128850000D03*
%TD*%
D11*
%TO.P,REF\u002A\u002A,1*%
%TO.N,GND*%
X162560000Y-139010000D03*
%TD*%
D18*
%TO.P,Y1,1,1*%
%TO.N,OSC_OUT*%
X148550000Y-89480000D03*
%TO.P,Y1,2,2*%
%TO.N,OSC_IN*%
X143670000Y-89480000D03*
%TD*%
D14*
%TO.P,J2,1,Pin_1*%
%TO.N,VBAT*%
X129540000Y-80590000D03*
D15*
%TO.P,J2,2,Pin_2*%
%TO.N,PB6*%
X129540000Y-83130000D03*
%TO.P,J2,3,Pin_3*%
%TO.N,PB7*%
X129540000Y-85670000D03*
%TO.P,J2,4,Pin_4*%
%TO.N,PB8*%
X129540000Y-88210000D03*
%TO.P,J2,5,Pin_5*%
%TO.N,PB9*%
X129540000Y-90750000D03*
%TO.P,J2,6,Pin_6*%
%TO.N,PC13*%
X129540000Y-93290000D03*
%TO.P,J2,7,Pin_7*%
%TO.N,PA5*%
X129540000Y-95830000D03*
%TO.P,J2,8,Pin_8*%
%TO.N,PA6*%
X129540000Y-98370000D03*
%TO.P,J2,9,Pin_9*%
%TO.N,PC0*%
X129540000Y-100910000D03*
%TO.P,J2,10,Pin_10*%
%TO.N,PC1*%
X129540000Y-103450000D03*
%TO.P,J2,11,Pin_11*%
%TO.N,PC2*%
X129540000Y-105990000D03*
%TO.P,J2,12,Pin_12*%
%TO.N,PC3*%
X129540000Y-108530000D03*
%TO.P,J2,13,Pin_13*%
%TO.N,PA0*%
X129540000Y-111070000D03*
%TO.P,J2,14,Pin_14*%
%TO.N,PA1*%
X129540000Y-113610000D03*
%TO.P,J2,15,Pin_15*%
%TO.N,PA2*%
X129540000Y-116150000D03*
%TO.P,J2,16,Pin_16*%
%TO.N,PA3*%
X129540000Y-118690000D03*
%TO.P,J2,17,Pin_17*%
%TO.N,RESET*%
X129540000Y-121230000D03*
%TO.P,J2,18,Pin_18*%
%TO.N,VCC3V3*%
X129540000Y-123770000D03*
%TO.P,J2,19,Pin_19*%
%TO.N,GND*%
X129540000Y-126310000D03*
%TO.P,J2,20,Pin_20*%
X129540000Y-128850000D03*
%TD*%
D19*
%TO.P,C12,1*%
%TO.N,GND*%
X154532500Y-106680000D03*
%TO.P,C12,2*%
%TO.N,OSC32_OUT*%
X152807500Y-106680000D03*
%TD*%
D20*
%TO.P,C5,1*%
%TO.N,GND*%
X155347500Y-132080000D03*
%TO.P,C5,2*%
%TO.N,Net-(IC2-3V3OUT)*%
X157072500Y-132080000D03*
%TD*%
D19*
%TO.P,C1,1*%
%TO.N,GND*%
X154151500Y-116840000D03*
%TO.P,C1,2*%
%TO.N,5V*%
X152426500Y-116840000D03*
%TD*%
D21*
%TO.P,Y2,1,1*%
%TO.N,OSC32_IN*%
X148315000Y-99525000D03*
%TO.P,Y2,2,2*%
%TO.N,GND*%
X153945000Y-99525000D03*
%TO.P,Y2,3,3*%
X153945000Y-103675000D03*
%TO.P,Y2,4,4*%
%TO.N,OSC32_OUT*%
X148315000Y-103675000D03*
%TD*%
D19*
%TO.P,C11,1*%
%TO.N,GND*%
X154532500Y-96520000D03*
%TO.P,C11,2*%
%TO.N,OSC32_IN*%
X152807500Y-96520000D03*
%TD*%
D22*
%TO.N,OSC_IN*%
X139700000Y-105990000D03*
X140970000Y-100910000D03*
%TO.N,OSC_OUT*%
X142240000Y-102180000D03*
X142240000Y-111070000D03*
%TO.N,OSC32_IN*%
X147320000Y-95250000D03*
X142240000Y-82550000D03*
X139700000Y-83820000D03*
X152400000Y-92710000D03*
X134345500Y-102870000D03*
%TO.N,OSC32_OUT*%
X149860000Y-101600000D03*
X139700000Y-91440000D03*
X142240000Y-97790000D03*
X133350000Y-101600000D03*
X144780000Y-100330000D03*
%TO.N,PA4*%
X142240000Y-123190000D03*
X146050000Y-123190000D03*
%TO.N,PA12*%
X157480000Y-96520000D03*
%TO.N,PA11*%
X157480000Y-97790000D03*
%TO.N,JNTRST*%
X144780000Y-103450000D03*
%TO.N,JTDI*%
X139700000Y-76780000D03*
X149860000Y-105990000D03*
%TO.N,JTMS{slash}SWDIO*%
X148590000Y-93980000D03*
X152400000Y-105410000D03*
X151854500Y-93980000D03*
%TO.N,JTCK{slash}SWCLK*%
X151130000Y-105990000D03*
%TO.N,JTDO*%
X143510000Y-84400000D03*
X146050000Y-79320000D03*
X146050000Y-103450000D03*
X147320000Y-81860000D03*
%TO.N,PA5*%
X143510000Y-121920000D03*
%TO.N,PA6*%
X144780000Y-121920000D03*
%TO.N,PB11*%
X147574000Y-122428000D03*
%TO.N,PB10*%
X147574000Y-123698000D03*
%TO.N,PB1*%
X146050000Y-121230000D03*
%TO.N,BOOT0*%
X143510000Y-109800000D03*
X132080000Y-124509500D03*
%TO.N,RESET*%
X143510000Y-103450000D03*
X137160000Y-112340000D03*
X154940000Y-85670000D03*
X132842000Y-122555000D03*
%TO.N,GND*%
X142240000Y-131445000D03*
X142240000Y-116150000D03*
X147320000Y-111070000D03*
X142218369Y-113562009D03*
X154940000Y-118690000D03*
X150241000Y-132080000D03*
X153670000Y-132080000D03*
X152400000Y-109220000D03*
X135722701Y-97957299D03*
X138430000Y-83820000D03*
%TO.N,5V*%
X143510000Y-131953000D03*
X156210000Y-118690000D03*
X156210000Y-125040000D03*
X147320000Y-113030000D03*
X158025500Y-130048000D03*
X154935701Y-129789701D03*
X148590000Y-131699000D03*
%TO.N,VCC3V3*%
X148590000Y-116150000D03*
X147320000Y-117348000D03*
X151257000Y-118999000D03*
X132080000Y-79320000D03*
X143510000Y-110998000D03*
%TO.N,VBAT*%
X137160000Y-86940000D03*
X138430000Y-107260000D03*
%TO.N,USBDP*%
X157861000Y-133604000D03*
X144526000Y-123952000D03*
%TO.N,USBDM*%
X145288000Y-124968000D03*
%TO.N,PA10{slash}USART1_RX*%
X148590000Y-113030000D03*
%TO.N,PA9{slash}USART1_TX*%
X148590000Y-114300000D03*
%TD*%
D23*
%TO.N,OSC_IN*%
X139700000Y-102180000D02*
X139700000Y-105990000D01*
X140970000Y-100910000D02*
X139700000Y-102180000D01*
%TO.N,OSC_OUT*%
X140970000Y-103450000D02*
X140970000Y-109800000D01*
X140970000Y-109800000D02*
X142240000Y-111070000D01*
X142240000Y-102180000D02*
X140970000Y-103450000D01*
%TO.N,OSC32_IN*%
X146870000Y-85910000D02*
X143510000Y-82550000D01*
X147320000Y-95250000D02*
X148315000Y-96245000D01*
X138975000Y-83095000D02*
X137885000Y-83095000D01*
X152400000Y-92710000D02*
X152807500Y-93117500D01*
X143510000Y-82550000D02*
X142240000Y-82550000D01*
X148315000Y-96245000D02*
X148315000Y-99525000D01*
X137885000Y-83095000D02*
X134345500Y-86634500D01*
X152807500Y-93117500D02*
X152807500Y-96520000D01*
X147320000Y-95250000D02*
X146870000Y-94800000D01*
X134345500Y-86634500D02*
X134345500Y-102870000D01*
X139700000Y-83820000D02*
X138975000Y-83095000D01*
X146870000Y-94800000D02*
X146870000Y-85910000D01*
%TO.N,OSC32_OUT*%
X149860000Y-102130000D02*
X149860000Y-101600000D01*
X148625000Y-106715000D02*
X148315000Y-106405000D01*
X139455305Y-82550000D02*
X140520000Y-83614695D01*
X148315000Y-103675000D02*
X149860000Y-102130000D01*
X137793604Y-82550000D02*
X139455305Y-82550000D01*
X140520000Y-90620000D02*
X139700000Y-91440000D01*
X133350000Y-86993604D02*
X137793604Y-82550000D01*
X142240000Y-97790000D02*
X144780000Y-100330000D01*
X152807500Y-106680000D02*
X152772500Y-106715000D01*
X133350000Y-101600000D02*
X133350000Y-86993604D01*
X140520000Y-83614695D02*
X140520000Y-90620000D01*
X152772500Y-106715000D02*
X148625000Y-106715000D01*
X148315000Y-106405000D02*
X148315000Y-103675000D01*
%TO.N,PA4*%
X146050000Y-123190000D02*
X142240000Y-123190000D01*
%TO.N,PA12*%
X151600000Y-122740000D02*
X159200000Y-122740000D01*
X160020000Y-96520000D02*
X157480000Y-96520000D01*
X160020000Y-121920000D02*
X160020000Y-96520000D01*
X159200000Y-122740000D02*
X160020000Y-121920000D01*
X150745000Y-120885000D02*
X150745000Y-121885000D01*
X150745000Y-121885000D02*
X151600000Y-122740000D01*
%TO.N,PA11*%
X157480000Y-118445305D02*
X157480000Y-97790000D01*
X156175000Y-119415000D02*
X156510305Y-119415000D01*
X155945000Y-120885000D02*
X155945000Y-119645000D01*
X156510305Y-119415000D02*
X157480000Y-118445305D01*
X155945000Y-119645000D02*
X156175000Y-119415000D01*
%TO.N,JNTRST*%
X144780000Y-103450000D02*
X140970000Y-99640000D01*
X140970000Y-99640000D02*
X140970000Y-80590000D01*
X140970000Y-80590000D02*
X137160000Y-76780000D01*
X137160000Y-70430000D02*
X135890000Y-69160000D01*
X137160000Y-76780000D02*
X137160000Y-70430000D01*
%TO.N,JTDI*%
X150680000Y-87760000D02*
X150680000Y-105170000D01*
X139700000Y-76780000D02*
X150680000Y-87760000D01*
X150680000Y-105170000D02*
X149860000Y-105990000D01*
%TO.N,JTMS{slash}SWDIO*%
X148590000Y-93980000D02*
X147320000Y-92710000D01*
X147320000Y-85425305D02*
X138975000Y-77080305D01*
X151854500Y-93980000D02*
X151580000Y-94254500D01*
X147320000Y-92710000D02*
X147320000Y-85425305D01*
X138975000Y-77080305D02*
X138975000Y-71155000D01*
X138975000Y-71155000D02*
X140970000Y-69160000D01*
X151580000Y-104590000D02*
X152400000Y-105410000D01*
X151580000Y-94254500D02*
X151580000Y-104590000D01*
%TO.N,JTCK{slash}SWCLK*%
X143510000Y-75510000D02*
X151130000Y-83130000D01*
X143510000Y-69160000D02*
X143510000Y-75510000D01*
X151130000Y-83130000D02*
X151130000Y-105990000D01*
%TO.N,JTDO*%
X147320000Y-81860000D02*
X147320000Y-80590000D01*
X147320000Y-80590000D02*
X146050000Y-79320000D01*
X146050000Y-86940000D02*
X146050000Y-103450000D01*
X143510000Y-84400000D02*
X146050000Y-86940000D01*
%TO.N,PA5*%
X130810000Y-119323604D02*
X130810000Y-97100000D01*
X135117208Y-121920000D02*
X135117208Y-124934493D01*
X135117208Y-124934493D02*
X132566701Y-127485000D01*
X129053299Y-120055000D02*
X130078604Y-120055000D01*
X129053299Y-122405000D02*
X128365000Y-121716701D01*
X130078604Y-120055000D02*
X130810000Y-119323604D01*
X128365000Y-121716701D02*
X128365000Y-120743299D01*
X130715000Y-126606701D02*
X130715000Y-123093299D01*
X130715000Y-123093299D02*
X130026701Y-122405000D01*
X132566701Y-127485000D02*
X131593299Y-127485000D01*
X130810000Y-97100000D02*
X129540000Y-95830000D01*
X131593299Y-127485000D02*
X130715000Y-126606701D01*
X143510000Y-121920000D02*
X135117208Y-121920000D01*
X128365000Y-120743299D02*
X129053299Y-120055000D01*
X130026701Y-122405000D02*
X129053299Y-122405000D01*
%TO.N,PA6*%
X135567208Y-122370000D02*
X135567208Y-125120889D01*
X135567208Y-125120889D02*
X132753097Y-127935000D01*
X132753097Y-127935000D02*
X130476701Y-127935000D01*
X130476701Y-127935000D02*
X130026701Y-127485000D01*
X127915000Y-99995000D02*
X129540000Y-98370000D01*
X144055000Y-122645000D02*
X143209695Y-122645000D01*
X143209695Y-122645000D02*
X142934695Y-122370000D01*
X142934695Y-122370000D02*
X135567208Y-122370000D01*
X130026701Y-127485000D02*
X129053299Y-127485000D01*
X144780000Y-121920000D02*
X144055000Y-122645000D01*
X127915000Y-126346701D02*
X127915000Y-99995000D01*
X129053299Y-127485000D02*
X127915000Y-126346701D01*
%TO.N,PB11*%
X161290000Y-123770000D02*
X148916000Y-123770000D01*
X147574000Y-122174000D02*
X147574000Y-122174000D01*
X148916000Y-123770000D02*
X147574000Y-122428000D01*
X147574000Y-122428000D02*
X147574000Y-122174000D01*
%TO.N,PB10*%
X161290000Y-126310000D02*
X159295000Y-124315000D01*
X159295000Y-124315000D02*
X148191000Y-124315000D01*
X148191000Y-124315000D02*
X147574000Y-123698000D01*
%TO.N,PB1*%
X162465000Y-127675000D02*
X161290000Y-128850000D01*
X149860000Y-123190000D02*
X160208299Y-123190000D01*
X146486000Y-121666000D02*
X148336000Y-121666000D01*
X146050000Y-121230000D02*
X146486000Y-121666000D01*
X162465000Y-123283299D02*
X162465000Y-127675000D01*
X160208299Y-123190000D02*
X160803299Y-122595000D01*
X148336000Y-121666000D02*
X149860000Y-123190000D01*
X161776701Y-122595000D02*
X162465000Y-123283299D01*
X160803299Y-122595000D02*
X161776701Y-122595000D01*
%TO.N,BOOT0*%
X143360305Y-112245000D02*
X144235000Y-111370305D01*
X132080000Y-119960000D02*
X139795000Y-112245000D01*
X139795000Y-112245000D02*
X143360305Y-112245000D01*
X144235000Y-110525000D02*
X143510000Y-109800000D01*
X144235000Y-111370305D02*
X144235000Y-110525000D01*
X132080000Y-124509500D02*
X132080000Y-119960000D01*
%TO.N,Net-(IC2-3V3OUT)*%
X156628250Y-131635750D02*
X157072500Y-132080000D01*
X156628250Y-127889000D02*
X156628250Y-131635750D01*
%TO.N,RESET*%
X134593198Y-118083198D02*
X132805000Y-119871396D01*
X154940000Y-85670000D02*
X151130000Y-81860000D01*
X132380305Y-127035000D02*
X131779695Y-127035000D01*
X132805000Y-126610305D02*
X132380305Y-127035000D01*
X151130000Y-81860000D02*
X151130000Y-69160000D01*
X143510000Y-103450000D02*
X144780000Y-104720000D01*
X131355000Y-126610305D02*
X131355000Y-118145000D01*
X139981396Y-112695000D02*
X134593198Y-118083198D01*
X144780000Y-111760000D02*
X143845000Y-112695000D01*
X131355000Y-118145000D02*
X137160000Y-112340000D01*
X143845000Y-112695000D02*
X139981396Y-112695000D01*
X144780000Y-104720000D02*
X144780000Y-111760000D01*
X131779695Y-127035000D02*
X131355000Y-126610305D01*
X132805000Y-119871396D02*
X132805000Y-126610305D01*
%TO.N,GND*%
X148381500Y-111070000D02*
X147320000Y-111070000D01*
X155760000Y-116600000D02*
X154940000Y-117420000D01*
X151395000Y-129805000D02*
X153670000Y-132080000D01*
X153345000Y-120885000D02*
X153345000Y-119705000D01*
X136435000Y-97245000D02*
X136435000Y-85815000D01*
X155347500Y-132080000D02*
X153670000Y-132080000D01*
X142218369Y-113562009D02*
X142218369Y-116128369D01*
X155945000Y-129805000D02*
X153670000Y-132080000D01*
X154532500Y-107087500D02*
X152400000Y-109220000D01*
X154532500Y-106680000D02*
X154532500Y-107087500D01*
X154940000Y-117420000D02*
X154731500Y-117420000D01*
X153895000Y-129076500D02*
X153895000Y-131855000D01*
X151395000Y-128060000D02*
X151395000Y-129805000D01*
X153995000Y-128035000D02*
X153995000Y-128976500D01*
X150241000Y-132080000D02*
X148902000Y-130741000D01*
X154151500Y-116840000D02*
X148381500Y-111070000D01*
X161290000Y-83130000D02*
X155760000Y-88660000D01*
X153945000Y-97107500D02*
X153945000Y-99525000D01*
X153995000Y-128976500D02*
X153895000Y-129076500D01*
X155760000Y-88660000D02*
X155760000Y-116600000D01*
X148902000Y-130741000D02*
X142944000Y-130741000D01*
X142218369Y-116128369D02*
X142240000Y-116150000D01*
X136435000Y-85815000D02*
X138430000Y-83820000D01*
X153945000Y-103675000D02*
X153945000Y-99525000D01*
X154731500Y-117420000D02*
X154151500Y-116840000D01*
X142944000Y-130741000D02*
X142240000Y-131445000D01*
X153945000Y-106092500D02*
X154532500Y-106680000D01*
X154532500Y-96520000D02*
X153945000Y-97107500D01*
X154940000Y-117420000D02*
X154940000Y-118690000D01*
X135722701Y-97957299D02*
X136435000Y-97245000D01*
X155945000Y-128035000D02*
X155945000Y-129805000D01*
X154360000Y-118690000D02*
X154940000Y-118690000D01*
X153895000Y-131855000D02*
X153670000Y-132080000D01*
X147320000Y-111070000D02*
X142240000Y-116150000D01*
X153345000Y-119705000D02*
X154360000Y-118690000D01*
X153945000Y-103675000D02*
X153945000Y-106092500D01*
%TO.N,5V*%
X148082000Y-131191000D02*
X148590000Y-131699000D01*
X144272000Y-131191000D02*
X148082000Y-131191000D01*
X143510000Y-131953000D02*
X144272000Y-131191000D01*
X154645000Y-129499000D02*
X154645000Y-128060000D01*
X154935701Y-129789701D02*
X154645000Y-129499000D01*
X156210000Y-90750000D02*
X156210000Y-118690000D01*
X154645000Y-128060000D02*
X155295000Y-128060000D01*
X156790000Y-125040000D02*
X156210000Y-125040000D01*
X158025500Y-130048000D02*
X158025500Y-129529500D01*
X161290000Y-85670000D02*
X156210000Y-90750000D01*
X148890305Y-112305000D02*
X148045000Y-112305000D01*
X152426500Y-115841195D02*
X148890305Y-112305000D01*
X158025500Y-129529500D02*
X158750000Y-128805000D01*
X158750000Y-127000000D02*
X156790000Y-125040000D01*
X152426500Y-116840000D02*
X152426500Y-115841195D01*
X158750000Y-128805000D02*
X158750000Y-127000000D01*
X148045000Y-112305000D02*
X147320000Y-113030000D01*
%TO.N,VCC3V3*%
X148590000Y-116150000D02*
X148518000Y-116150000D01*
X147320000Y-117420000D02*
X147320000Y-117348000D01*
X147320000Y-117348000D02*
X147392000Y-117348000D01*
X141695000Y-111795000D02*
X132080000Y-102180000D01*
X142785000Y-111723000D02*
X143510000Y-110998000D01*
X142785000Y-111795000D02*
X141695000Y-111795000D01*
X132080000Y-102180000D02*
X132080000Y-79320000D01*
X147320000Y-117420000D02*
X147320000Y-117420000D01*
X151257000Y-118999000D02*
X151428250Y-119170250D01*
X148518000Y-116150000D02*
X147320000Y-117348000D01*
X151428250Y-119170250D02*
X151428250Y-120865000D01*
X142785000Y-111795000D02*
X142785000Y-111723000D01*
%TO.N,VBAT*%
X137160000Y-86940000D02*
X138430000Y-88210000D01*
X138430000Y-88210000D02*
X138430000Y-107260000D01*
%TO.N,USBDP*%
X157928250Y-128990354D02*
X157226000Y-129692604D01*
X146439695Y-123915000D02*
X148289695Y-125765000D01*
X156735000Y-125765000D02*
X157895000Y-126925000D01*
X145505000Y-123915000D02*
X146439695Y-123915000D01*
X157226000Y-130900505D02*
X158242000Y-131916505D01*
X148289695Y-125765000D02*
X156735000Y-125765000D01*
X157895000Y-126925000D02*
X157895000Y-128035000D01*
X157928250Y-127889000D02*
X157928250Y-128990354D01*
X158242000Y-133223000D02*
X157861000Y-133604000D01*
X157226000Y-129692604D02*
X157226000Y-130900505D01*
X144526000Y-123952000D02*
X145468000Y-123952000D01*
X145468000Y-123952000D02*
X145505000Y-123915000D01*
X158242000Y-131916505D02*
X158242000Y-133223000D01*
%TO.N,USBDM*%
X148103299Y-126215000D02*
X146798299Y-124910000D01*
X146798299Y-124910000D02*
X145346000Y-124910000D01*
X145346000Y-124910000D02*
X145288000Y-124968000D01*
X157278250Y-126944646D02*
X156548604Y-126215000D01*
X157278250Y-127889000D02*
X157278250Y-126944646D01*
X156548604Y-126215000D02*
X148103299Y-126215000D01*
%TO.N,PA10{slash}USART1_RX*%
X146595000Y-118010000D02*
X146595000Y-115025000D01*
X146595000Y-115025000D02*
X148590000Y-113030000D01*
X149445000Y-120860000D02*
X146595000Y-118010000D01*
%TO.N,PA9{slash}USART1_TX*%
X152078250Y-118794945D02*
X151564000Y-118280695D01*
X152078250Y-120865000D02*
X152078250Y-118794945D01*
X151564000Y-117274000D02*
X148590000Y-114300000D01*
X151564000Y-118280695D02*
X151564000Y-117274000D01*
%TD*%
M02*
