%TF.GenerationSoftware,KiCad,Pcbnew,7.0.7*%
%TF.CreationDate,2023-10-13T22:32:12+09:00*%
%TF.ProjectId,STM32F103_dev_board,53544d33-3246-4313-9033-5f6465765f62,1.1.1*%
%TF.SameCoordinates,Original*%
%TF.FileFunction,Legend,Bot*%
%TF.FilePolarity,Positive*%
%FSLAX46Y46*%
G04 Gerber Fmt 4.6, Leading zero omitted, Abs format (unit mm)*
G04 Created by KiCad (PCBNEW 7.0.7) date 2023-10-13 22:32:12*
%MOMM*%
%LPD*%
G01*
G04 APERTURE LIST*
G04 Aperture macros list*
%AMRoundRect*
0 Rectangle with rounded corners*
0 $1 Rounding radius*
0 $2 $3 $4 $5 $6 $7 $8 $9 X,Y pos of 4 corners*
0 Add a 4 corners polygon primitive as box body*
4,1,4,$2,$3,$4,$5,$6,$7,$8,$9,$2,$3,0*
0 Add four circle primitives for the rounded corners*
1,1,$1+$1,$2,$3*
1,1,$1+$1,$4,$5*
1,1,$1+$1,$6,$7*
1,1,$1+$1,$8,$9*
0 Add four rect primitives between the rounded corners*
20,1,$1+$1,$2,$3,$4,$5,0*
20,1,$1+$1,$4,$5,$6,$7,0*
20,1,$1+$1,$6,$7,$8,$9,0*
20,1,$1+$1,$8,$9,$2,$3,0*%
G04 Aperture macros list end*
%ADD10C,0.150000*%
%ADD11C,0.254000*%
%ADD12C,0.200000*%
%ADD13C,0.120000*%
%ADD14C,3.500000*%
%ADD15C,0.800000*%
%ADD16C,2.000000*%
%ADD17C,2.565000*%
%ADD18R,1.700000X1.700000*%
%ADD19O,1.700000X1.700000*%
%ADD20RoundRect,0.250000X0.600000X-0.600000X0.600000X0.600000X-0.600000X0.600000X-0.600000X-0.600000X0*%
%ADD21C,1.700000*%
%ADD22C,1.500000*%
%ADD23R,0.450000X1.725000*%
%ADD24RoundRect,0.237500X0.300000X0.237500X-0.300000X0.237500X-0.300000X-0.237500X0.300000X-0.237500X0*%
%ADD25RoundRect,0.237500X-0.300000X-0.237500X0.300000X-0.237500X0.300000X0.237500X-0.300000X0.237500X0*%
%ADD26R,1.430000X2.850000*%
G04 APERTURE END LIST*
D10*
X154603220Y-59559819D02*
X154603220Y-58559819D01*
X154174649Y-59559819D02*
X154174649Y-59036009D01*
X154174649Y-59036009D02*
X154222268Y-58940771D01*
X154222268Y-58940771D02*
X154317506Y-58893152D01*
X154317506Y-58893152D02*
X154460363Y-58893152D01*
X154460363Y-58893152D02*
X154555601Y-58940771D01*
X154555601Y-58940771D02*
X154603220Y-58988390D01*
X153841315Y-58893152D02*
X153460363Y-58893152D01*
X153698458Y-58559819D02*
X153698458Y-59416961D01*
X153698458Y-59416961D02*
X153650839Y-59512200D01*
X153650839Y-59512200D02*
X153555601Y-59559819D01*
X153555601Y-59559819D02*
X153460363Y-59559819D01*
X153269886Y-58893152D02*
X152888934Y-58893152D01*
X153127029Y-58559819D02*
X153127029Y-59416961D01*
X153127029Y-59416961D02*
X153079410Y-59512200D01*
X153079410Y-59512200D02*
X152984172Y-59559819D01*
X152984172Y-59559819D02*
X152888934Y-59559819D01*
X152555600Y-58893152D02*
X152555600Y-59893152D01*
X152555600Y-58940771D02*
X152460362Y-58893152D01*
X152460362Y-58893152D02*
X152269886Y-58893152D01*
X152269886Y-58893152D02*
X152174648Y-58940771D01*
X152174648Y-58940771D02*
X152127029Y-58988390D01*
X152127029Y-58988390D02*
X152079410Y-59083628D01*
X152079410Y-59083628D02*
X152079410Y-59369342D01*
X152079410Y-59369342D02*
X152127029Y-59464580D01*
X152127029Y-59464580D02*
X152174648Y-59512200D01*
X152174648Y-59512200D02*
X152269886Y-59559819D01*
X152269886Y-59559819D02*
X152460362Y-59559819D01*
X152460362Y-59559819D02*
X152555600Y-59512200D01*
X151698457Y-59512200D02*
X151603219Y-59559819D01*
X151603219Y-59559819D02*
X151412743Y-59559819D01*
X151412743Y-59559819D02*
X151317505Y-59512200D01*
X151317505Y-59512200D02*
X151269886Y-59416961D01*
X151269886Y-59416961D02*
X151269886Y-59369342D01*
X151269886Y-59369342D02*
X151317505Y-59274104D01*
X151317505Y-59274104D02*
X151412743Y-59226485D01*
X151412743Y-59226485D02*
X151555600Y-59226485D01*
X151555600Y-59226485D02*
X151650838Y-59178866D01*
X151650838Y-59178866D02*
X151698457Y-59083628D01*
X151698457Y-59083628D02*
X151698457Y-59036009D01*
X151698457Y-59036009D02*
X151650838Y-58940771D01*
X151650838Y-58940771D02*
X151555600Y-58893152D01*
X151555600Y-58893152D02*
X151412743Y-58893152D01*
X151412743Y-58893152D02*
X151317505Y-58940771D01*
X150841314Y-59464580D02*
X150793695Y-59512200D01*
X150793695Y-59512200D02*
X150841314Y-59559819D01*
X150841314Y-59559819D02*
X150888933Y-59512200D01*
X150888933Y-59512200D02*
X150841314Y-59464580D01*
X150841314Y-59464580D02*
X150841314Y-59559819D01*
X150841314Y-58940771D02*
X150793695Y-58988390D01*
X150793695Y-58988390D02*
X150841314Y-59036009D01*
X150841314Y-59036009D02*
X150888933Y-58988390D01*
X150888933Y-58988390D02*
X150841314Y-58940771D01*
X150841314Y-58940771D02*
X150841314Y-59036009D01*
X149650839Y-58512200D02*
X150507981Y-59797914D01*
X148603220Y-58512200D02*
X149460362Y-59797914D01*
X148269886Y-58893152D02*
X148269886Y-59893152D01*
X148269886Y-58940771D02*
X148174648Y-58893152D01*
X148174648Y-58893152D02*
X147984172Y-58893152D01*
X147984172Y-58893152D02*
X147888934Y-58940771D01*
X147888934Y-58940771D02*
X147841315Y-58988390D01*
X147841315Y-58988390D02*
X147793696Y-59083628D01*
X147793696Y-59083628D02*
X147793696Y-59369342D01*
X147793696Y-59369342D02*
X147841315Y-59464580D01*
X147841315Y-59464580D02*
X147888934Y-59512200D01*
X147888934Y-59512200D02*
X147984172Y-59559819D01*
X147984172Y-59559819D02*
X148174648Y-59559819D01*
X148174648Y-59559819D02*
X148269886Y-59512200D01*
X146936553Y-59559819D02*
X146936553Y-59036009D01*
X146936553Y-59036009D02*
X146984172Y-58940771D01*
X146984172Y-58940771D02*
X147079410Y-58893152D01*
X147079410Y-58893152D02*
X147269886Y-58893152D01*
X147269886Y-58893152D02*
X147365124Y-58940771D01*
X146936553Y-59512200D02*
X147031791Y-59559819D01*
X147031791Y-59559819D02*
X147269886Y-59559819D01*
X147269886Y-59559819D02*
X147365124Y-59512200D01*
X147365124Y-59512200D02*
X147412743Y-59416961D01*
X147412743Y-59416961D02*
X147412743Y-59321723D01*
X147412743Y-59321723D02*
X147365124Y-59226485D01*
X147365124Y-59226485D02*
X147269886Y-59178866D01*
X147269886Y-59178866D02*
X147031791Y-59178866D01*
X147031791Y-59178866D02*
X146936553Y-59131247D01*
X146460362Y-58893152D02*
X146460362Y-59893152D01*
X146460362Y-58940771D02*
X146365124Y-58893152D01*
X146365124Y-58893152D02*
X146174648Y-58893152D01*
X146174648Y-58893152D02*
X146079410Y-58940771D01*
X146079410Y-58940771D02*
X146031791Y-58988390D01*
X146031791Y-58988390D02*
X145984172Y-59083628D01*
X145984172Y-59083628D02*
X145984172Y-59369342D01*
X145984172Y-59369342D02*
X146031791Y-59464580D01*
X146031791Y-59464580D02*
X146079410Y-59512200D01*
X146079410Y-59512200D02*
X146174648Y-59559819D01*
X146174648Y-59559819D02*
X146365124Y-59559819D01*
X146365124Y-59559819D02*
X146460362Y-59512200D01*
X145174648Y-59512200D02*
X145269886Y-59559819D01*
X145269886Y-59559819D02*
X145460362Y-59559819D01*
X145460362Y-59559819D02*
X145555600Y-59512200D01*
X145555600Y-59512200D02*
X145603219Y-59416961D01*
X145603219Y-59416961D02*
X145603219Y-59036009D01*
X145603219Y-59036009D02*
X145555600Y-58940771D01*
X145555600Y-58940771D02*
X145460362Y-58893152D01*
X145460362Y-58893152D02*
X145269886Y-58893152D01*
X145269886Y-58893152D02*
X145174648Y-58940771D01*
X145174648Y-58940771D02*
X145127029Y-59036009D01*
X145127029Y-59036009D02*
X145127029Y-59131247D01*
X145127029Y-59131247D02*
X145603219Y-59226485D01*
X144698457Y-59559819D02*
X144698457Y-58893152D01*
X144698457Y-59083628D02*
X144650838Y-58988390D01*
X144650838Y-58988390D02*
X144603219Y-58940771D01*
X144603219Y-58940771D02*
X144507981Y-58893152D01*
X144507981Y-58893152D02*
X144412743Y-58893152D01*
X143698457Y-59512200D02*
X143793695Y-59559819D01*
X143793695Y-59559819D02*
X143984171Y-59559819D01*
X143984171Y-59559819D02*
X144079409Y-59512200D01*
X144079409Y-59512200D02*
X144127028Y-59416961D01*
X144127028Y-59416961D02*
X144127028Y-59036009D01*
X144127028Y-59036009D02*
X144079409Y-58940771D01*
X144079409Y-58940771D02*
X143984171Y-58893152D01*
X143984171Y-58893152D02*
X143793695Y-58893152D01*
X143793695Y-58893152D02*
X143698457Y-58940771D01*
X143698457Y-58940771D02*
X143650838Y-59036009D01*
X143650838Y-59036009D02*
X143650838Y-59131247D01*
X143650838Y-59131247D02*
X144127028Y-59226485D01*
X142793695Y-59512200D02*
X142888933Y-59559819D01*
X142888933Y-59559819D02*
X143079409Y-59559819D01*
X143079409Y-59559819D02*
X143174647Y-59512200D01*
X143174647Y-59512200D02*
X143222266Y-59464580D01*
X143222266Y-59464580D02*
X143269885Y-59369342D01*
X143269885Y-59369342D02*
X143269885Y-59083628D01*
X143269885Y-59083628D02*
X143222266Y-58988390D01*
X143222266Y-58988390D02*
X143174647Y-58940771D01*
X143174647Y-58940771D02*
X143079409Y-58893152D01*
X143079409Y-58893152D02*
X142888933Y-58893152D01*
X142888933Y-58893152D02*
X142793695Y-58940771D01*
X142222266Y-59559819D02*
X142317504Y-59512200D01*
X142317504Y-59512200D02*
X142365123Y-59464580D01*
X142365123Y-59464580D02*
X142412742Y-59369342D01*
X142412742Y-59369342D02*
X142412742Y-59083628D01*
X142412742Y-59083628D02*
X142365123Y-58988390D01*
X142365123Y-58988390D02*
X142317504Y-58940771D01*
X142317504Y-58940771D02*
X142222266Y-58893152D01*
X142222266Y-58893152D02*
X142079409Y-58893152D01*
X142079409Y-58893152D02*
X141984171Y-58940771D01*
X141984171Y-58940771D02*
X141936552Y-58988390D01*
X141936552Y-58988390D02*
X141888933Y-59083628D01*
X141888933Y-59083628D02*
X141888933Y-59369342D01*
X141888933Y-59369342D02*
X141936552Y-59464580D01*
X141936552Y-59464580D02*
X141984171Y-59512200D01*
X141984171Y-59512200D02*
X142079409Y-59559819D01*
X142079409Y-59559819D02*
X142222266Y-59559819D01*
X141460361Y-59559819D02*
X141460361Y-58893152D01*
X141460361Y-59083628D02*
X141412742Y-58988390D01*
X141412742Y-58988390D02*
X141365123Y-58940771D01*
X141365123Y-58940771D02*
X141269885Y-58893152D01*
X141269885Y-58893152D02*
X141174647Y-58893152D01*
X140412742Y-59559819D02*
X140412742Y-58559819D01*
X140412742Y-59512200D02*
X140507980Y-59559819D01*
X140507980Y-59559819D02*
X140698456Y-59559819D01*
X140698456Y-59559819D02*
X140793694Y-59512200D01*
X140793694Y-59512200D02*
X140841313Y-59464580D01*
X140841313Y-59464580D02*
X140888932Y-59369342D01*
X140888932Y-59369342D02*
X140888932Y-59083628D01*
X140888932Y-59083628D02*
X140841313Y-58988390D01*
X140841313Y-58988390D02*
X140793694Y-58940771D01*
X140793694Y-58940771D02*
X140698456Y-58893152D01*
X140698456Y-58893152D02*
X140507980Y-58893152D01*
X140507980Y-58893152D02*
X140412742Y-58940771D01*
X139936551Y-59464580D02*
X139888932Y-59512200D01*
X139888932Y-59512200D02*
X139936551Y-59559819D01*
X139936551Y-59559819D02*
X139984170Y-59512200D01*
X139984170Y-59512200D02*
X139936551Y-59464580D01*
X139936551Y-59464580D02*
X139936551Y-59559819D01*
X139031790Y-59512200D02*
X139127028Y-59559819D01*
X139127028Y-59559819D02*
X139317504Y-59559819D01*
X139317504Y-59559819D02*
X139412742Y-59512200D01*
X139412742Y-59512200D02*
X139460361Y-59464580D01*
X139460361Y-59464580D02*
X139507980Y-59369342D01*
X139507980Y-59369342D02*
X139507980Y-59083628D01*
X139507980Y-59083628D02*
X139460361Y-58988390D01*
X139460361Y-58988390D02*
X139412742Y-58940771D01*
X139412742Y-58940771D02*
X139317504Y-58893152D01*
X139317504Y-58893152D02*
X139127028Y-58893152D01*
X139127028Y-58893152D02*
X139031790Y-58940771D01*
X138460361Y-59559819D02*
X138555599Y-59512200D01*
X138555599Y-59512200D02*
X138603218Y-59464580D01*
X138603218Y-59464580D02*
X138650837Y-59369342D01*
X138650837Y-59369342D02*
X138650837Y-59083628D01*
X138650837Y-59083628D02*
X138603218Y-58988390D01*
X138603218Y-58988390D02*
X138555599Y-58940771D01*
X138555599Y-58940771D02*
X138460361Y-58893152D01*
X138460361Y-58893152D02*
X138317504Y-58893152D01*
X138317504Y-58893152D02*
X138222266Y-58940771D01*
X138222266Y-58940771D02*
X138174647Y-58988390D01*
X138174647Y-58988390D02*
X138127028Y-59083628D01*
X138127028Y-59083628D02*
X138127028Y-59369342D01*
X138127028Y-59369342D02*
X138174647Y-59464580D01*
X138174647Y-59464580D02*
X138222266Y-59512200D01*
X138222266Y-59512200D02*
X138317504Y-59559819D01*
X138317504Y-59559819D02*
X138460361Y-59559819D01*
X137698456Y-59559819D02*
X137698456Y-58893152D01*
X137698456Y-58988390D02*
X137650837Y-58940771D01*
X137650837Y-58940771D02*
X137555599Y-58893152D01*
X137555599Y-58893152D02*
X137412742Y-58893152D01*
X137412742Y-58893152D02*
X137317504Y-58940771D01*
X137317504Y-58940771D02*
X137269885Y-59036009D01*
X137269885Y-59036009D02*
X137269885Y-59559819D01*
X137269885Y-59036009D02*
X137222266Y-58940771D01*
X137222266Y-58940771D02*
X137127028Y-58893152D01*
X137127028Y-58893152D02*
X136984171Y-58893152D01*
X136984171Y-58893152D02*
X136888932Y-58940771D01*
X136888932Y-58940771D02*
X136841313Y-59036009D01*
X136841313Y-59036009D02*
X136841313Y-59559819D01*
D11*
X154277568Y-123137237D02*
X153007568Y-123137237D01*
X154156615Y-124467714D02*
X154217092Y-124407238D01*
X154217092Y-124407238D02*
X154277568Y-124225809D01*
X154277568Y-124225809D02*
X154277568Y-124104857D01*
X154277568Y-124104857D02*
X154217092Y-123923428D01*
X154217092Y-123923428D02*
X154096139Y-123802476D01*
X154096139Y-123802476D02*
X153975187Y-123741999D01*
X153975187Y-123741999D02*
X153733282Y-123681523D01*
X153733282Y-123681523D02*
X153551853Y-123681523D01*
X153551853Y-123681523D02*
X153309949Y-123741999D01*
X153309949Y-123741999D02*
X153188996Y-123802476D01*
X153188996Y-123802476D02*
X153068044Y-123923428D01*
X153068044Y-123923428D02*
X153007568Y-124104857D01*
X153007568Y-124104857D02*
X153007568Y-124225809D01*
X153007568Y-124225809D02*
X153068044Y-124407238D01*
X153068044Y-124407238D02*
X153128520Y-124467714D01*
X153128520Y-124951523D02*
X153068044Y-125011999D01*
X153068044Y-125011999D02*
X153007568Y-125132952D01*
X153007568Y-125132952D02*
X153007568Y-125435333D01*
X153007568Y-125435333D02*
X153068044Y-125556285D01*
X153068044Y-125556285D02*
X153128520Y-125616761D01*
X153128520Y-125616761D02*
X153249472Y-125677238D01*
X153249472Y-125677238D02*
X153370425Y-125677238D01*
X153370425Y-125677238D02*
X153551853Y-125616761D01*
X153551853Y-125616761D02*
X154277568Y-124891047D01*
X154277568Y-124891047D02*
X154277568Y-125677238D01*
D10*
X154312857Y-108563580D02*
X154360476Y-108611200D01*
X154360476Y-108611200D02*
X154503333Y-108658819D01*
X154503333Y-108658819D02*
X154598571Y-108658819D01*
X154598571Y-108658819D02*
X154741428Y-108611200D01*
X154741428Y-108611200D02*
X154836666Y-108515961D01*
X154836666Y-108515961D02*
X154884285Y-108420723D01*
X154884285Y-108420723D02*
X154931904Y-108230247D01*
X154931904Y-108230247D02*
X154931904Y-108087390D01*
X154931904Y-108087390D02*
X154884285Y-107896914D01*
X154884285Y-107896914D02*
X154836666Y-107801676D01*
X154836666Y-107801676D02*
X154741428Y-107706438D01*
X154741428Y-107706438D02*
X154598571Y-107658819D01*
X154598571Y-107658819D02*
X154503333Y-107658819D01*
X154503333Y-107658819D02*
X154360476Y-107706438D01*
X154360476Y-107706438D02*
X154312857Y-107754057D01*
X153360476Y-108658819D02*
X153931904Y-108658819D01*
X153646190Y-108658819D02*
X153646190Y-107658819D01*
X153646190Y-107658819D02*
X153741428Y-107801676D01*
X153741428Y-107801676D02*
X153836666Y-107896914D01*
X153836666Y-107896914D02*
X153931904Y-107944533D01*
X152979523Y-107754057D02*
X152931904Y-107706438D01*
X152931904Y-107706438D02*
X152836666Y-107658819D01*
X152836666Y-107658819D02*
X152598571Y-107658819D01*
X152598571Y-107658819D02*
X152503333Y-107706438D01*
X152503333Y-107706438D02*
X152455714Y-107754057D01*
X152455714Y-107754057D02*
X152408095Y-107849295D01*
X152408095Y-107849295D02*
X152408095Y-107944533D01*
X152408095Y-107944533D02*
X152455714Y-108087390D01*
X152455714Y-108087390D02*
X153027142Y-108658819D01*
X153027142Y-108658819D02*
X152408095Y-108658819D01*
X156376666Y-133869580D02*
X156424285Y-133917200D01*
X156424285Y-133917200D02*
X156567142Y-133964819D01*
X156567142Y-133964819D02*
X156662380Y-133964819D01*
X156662380Y-133964819D02*
X156805237Y-133917200D01*
X156805237Y-133917200D02*
X156900475Y-133821961D01*
X156900475Y-133821961D02*
X156948094Y-133726723D01*
X156948094Y-133726723D02*
X156995713Y-133536247D01*
X156995713Y-133536247D02*
X156995713Y-133393390D01*
X156995713Y-133393390D02*
X156948094Y-133202914D01*
X156948094Y-133202914D02*
X156900475Y-133107676D01*
X156900475Y-133107676D02*
X156805237Y-133012438D01*
X156805237Y-133012438D02*
X156662380Y-132964819D01*
X156662380Y-132964819D02*
X156567142Y-132964819D01*
X156567142Y-132964819D02*
X156424285Y-133012438D01*
X156424285Y-133012438D02*
X156376666Y-133060057D01*
X155471904Y-132964819D02*
X155948094Y-132964819D01*
X155948094Y-132964819D02*
X155995713Y-133441009D01*
X155995713Y-133441009D02*
X155948094Y-133393390D01*
X155948094Y-133393390D02*
X155852856Y-133345771D01*
X155852856Y-133345771D02*
X155614761Y-133345771D01*
X155614761Y-133345771D02*
X155519523Y-133393390D01*
X155519523Y-133393390D02*
X155471904Y-133441009D01*
X155471904Y-133441009D02*
X155424285Y-133536247D01*
X155424285Y-133536247D02*
X155424285Y-133774342D01*
X155424285Y-133774342D02*
X155471904Y-133869580D01*
X155471904Y-133869580D02*
X155519523Y-133917200D01*
X155519523Y-133917200D02*
X155614761Y-133964819D01*
X155614761Y-133964819D02*
X155852856Y-133964819D01*
X155852856Y-133964819D02*
X155948094Y-133917200D01*
X155948094Y-133917200D02*
X155995713Y-133869580D01*
X153455666Y-115769580D02*
X153503285Y-115817200D01*
X153503285Y-115817200D02*
X153646142Y-115864819D01*
X153646142Y-115864819D02*
X153741380Y-115864819D01*
X153741380Y-115864819D02*
X153884237Y-115817200D01*
X153884237Y-115817200D02*
X153979475Y-115721961D01*
X153979475Y-115721961D02*
X154027094Y-115626723D01*
X154027094Y-115626723D02*
X154074713Y-115436247D01*
X154074713Y-115436247D02*
X154074713Y-115293390D01*
X154074713Y-115293390D02*
X154027094Y-115102914D01*
X154027094Y-115102914D02*
X153979475Y-115007676D01*
X153979475Y-115007676D02*
X153884237Y-114912438D01*
X153884237Y-114912438D02*
X153741380Y-114864819D01*
X153741380Y-114864819D02*
X153646142Y-114864819D01*
X153646142Y-114864819D02*
X153503285Y-114912438D01*
X153503285Y-114912438D02*
X153455666Y-114960057D01*
X152503285Y-115864819D02*
X153074713Y-115864819D01*
X152788999Y-115864819D02*
X152788999Y-114864819D01*
X152788999Y-114864819D02*
X152884237Y-115007676D01*
X152884237Y-115007676D02*
X152979475Y-115102914D01*
X152979475Y-115102914D02*
X153074713Y-115150533D01*
X151606190Y-106078628D02*
X151606190Y-106554819D01*
X151939523Y-105554819D02*
X151606190Y-106078628D01*
X151606190Y-106078628D02*
X151272857Y-105554819D01*
X150987142Y-105650057D02*
X150939523Y-105602438D01*
X150939523Y-105602438D02*
X150844285Y-105554819D01*
X150844285Y-105554819D02*
X150606190Y-105554819D01*
X150606190Y-105554819D02*
X150510952Y-105602438D01*
X150510952Y-105602438D02*
X150463333Y-105650057D01*
X150463333Y-105650057D02*
X150415714Y-105745295D01*
X150415714Y-105745295D02*
X150415714Y-105840533D01*
X150415714Y-105840533D02*
X150463333Y-105983390D01*
X150463333Y-105983390D02*
X151034761Y-106554819D01*
X151034761Y-106554819D02*
X150415714Y-106554819D01*
X154312857Y-95449580D02*
X154360476Y-95497200D01*
X154360476Y-95497200D02*
X154503333Y-95544819D01*
X154503333Y-95544819D02*
X154598571Y-95544819D01*
X154598571Y-95544819D02*
X154741428Y-95497200D01*
X154741428Y-95497200D02*
X154836666Y-95401961D01*
X154836666Y-95401961D02*
X154884285Y-95306723D01*
X154884285Y-95306723D02*
X154931904Y-95116247D01*
X154931904Y-95116247D02*
X154931904Y-94973390D01*
X154931904Y-94973390D02*
X154884285Y-94782914D01*
X154884285Y-94782914D02*
X154836666Y-94687676D01*
X154836666Y-94687676D02*
X154741428Y-94592438D01*
X154741428Y-94592438D02*
X154598571Y-94544819D01*
X154598571Y-94544819D02*
X154503333Y-94544819D01*
X154503333Y-94544819D02*
X154360476Y-94592438D01*
X154360476Y-94592438D02*
X154312857Y-94640057D01*
X153360476Y-95544819D02*
X153931904Y-95544819D01*
X153646190Y-95544819D02*
X153646190Y-94544819D01*
X153646190Y-94544819D02*
X153741428Y-94687676D01*
X153741428Y-94687676D02*
X153836666Y-94782914D01*
X153836666Y-94782914D02*
X153931904Y-94830533D01*
X152408095Y-95544819D02*
X152979523Y-95544819D01*
X152693809Y-95544819D02*
X152693809Y-94544819D01*
X152693809Y-94544819D02*
X152789047Y-94687676D01*
X152789047Y-94687676D02*
X152884285Y-94782914D01*
X152884285Y-94782914D02*
X152979523Y-94830533D01*
D12*
%TO.C,IC2*%
X148903250Y-120002000D02*
X148903250Y-121727000D01*
X158803250Y-122077000D02*
X148603250Y-122077000D01*
X148603250Y-122077000D02*
X148603250Y-126677000D01*
X158803250Y-126677000D02*
X158803250Y-122077000D01*
X148603250Y-126677000D02*
X158803250Y-126677000D01*
D13*
%TO.C,C12*%
X153816267Y-107190000D02*
X153523733Y-107190000D01*
X153816267Y-106170000D02*
X153523733Y-106170000D01*
%TO.C,C5*%
X156063733Y-131570000D02*
X156356267Y-131570000D01*
X156063733Y-132590000D02*
X156356267Y-132590000D01*
%TO.C,C1*%
X153435267Y-117350000D02*
X153142733Y-117350000D01*
X153435267Y-116330000D02*
X153142733Y-116330000D01*
%TO.C,Y2*%
X146930000Y-99800000D02*
X146930000Y-101100000D01*
X146930000Y-99800000D02*
X147400000Y-99800000D01*
X146930000Y-102100000D02*
X146930000Y-103400000D01*
X146930000Y-103400000D02*
X147400000Y-103400000D01*
X149230000Y-103400000D02*
X153030000Y-103400000D01*
X153030000Y-99800000D02*
X149230000Y-99800000D01*
X154860000Y-103400000D02*
X155330000Y-103400000D01*
X155330000Y-99800000D02*
X154860000Y-99800000D01*
X155330000Y-103400000D02*
X155330000Y-99800000D01*
X146930000Y-102100000D02*
G75*
G03*
X146930000Y-101100000I0J500000D01*
G01*
%TO.C,C11*%
X153816267Y-97030000D02*
X153523733Y-97030000D01*
X153816267Y-96010000D02*
X153523733Y-96010000D01*
%TD*%
%LPC*%
D14*
%TO.C,REF\u002A\u002A*%
X162560000Y-60270000D03*
%TD*%
D15*
%TO.C,J6*%
X142458000Y-134617000D03*
X149058000Y-134617000D03*
D16*
X141148000Y-134057000D03*
X150368000Y-134057000D03*
D17*
X141148000Y-138557000D03*
X150368000Y-138557000D03*
%TD*%
D14*
%TO.C,REF\u002A\u002A*%
X128285913Y-139053348D03*
%TD*%
%TO.C,REF\u002A\u002A*%
X128270000Y-60270000D03*
%TD*%
D18*
%TO.C,J4*%
X137155000Y-123785000D03*
D19*
X139695000Y-123785000D03*
X137155000Y-126325000D03*
X139695000Y-126325000D03*
X137155000Y-128865000D03*
X139695000Y-128865000D03*
%TD*%
D20*
%TO.C,J1*%
X133350000Y-69160000D03*
D21*
X133350000Y-66620000D03*
X135890000Y-69160000D03*
X135890000Y-66620000D03*
X138430000Y-69160000D03*
X138430000Y-66620000D03*
X140970000Y-69160000D03*
X140970000Y-66620000D03*
X143510000Y-69160000D03*
X143510000Y-66620000D03*
X146050000Y-69160000D03*
X146050000Y-66620000D03*
X148590000Y-69160000D03*
X148590000Y-66620000D03*
X151130000Y-69160000D03*
X151130000Y-66620000D03*
X153670000Y-69160000D03*
X153670000Y-66620000D03*
X156210000Y-69160000D03*
X156210000Y-66620000D03*
%TD*%
D18*
%TO.C,J3*%
X161290000Y-80590000D03*
D19*
X161290000Y-83130000D03*
X161290000Y-85670000D03*
X161290000Y-88210000D03*
X161290000Y-90750000D03*
X161290000Y-93290000D03*
X161290000Y-95830000D03*
X161290000Y-98370000D03*
X161290000Y-100910000D03*
X161290000Y-103450000D03*
X161290000Y-105990000D03*
X161290000Y-108530000D03*
X161290000Y-111070000D03*
X161290000Y-113610000D03*
X161290000Y-116150000D03*
X161290000Y-118690000D03*
X161290000Y-121230000D03*
X161290000Y-123770000D03*
X161290000Y-126310000D03*
X161290000Y-128850000D03*
%TD*%
D14*
%TO.C,REF\u002A\u002A*%
X162560000Y-139010000D03*
%TD*%
D22*
%TO.C,Y1*%
X148550000Y-89480000D03*
X143670000Y-89480000D03*
%TD*%
D18*
%TO.C,J2*%
X129540000Y-80590000D03*
D19*
X129540000Y-83130000D03*
X129540000Y-85670000D03*
X129540000Y-88210000D03*
X129540000Y-90750000D03*
X129540000Y-93290000D03*
X129540000Y-95830000D03*
X129540000Y-98370000D03*
X129540000Y-100910000D03*
X129540000Y-103450000D03*
X129540000Y-105990000D03*
X129540000Y-108530000D03*
X129540000Y-111070000D03*
X129540000Y-113610000D03*
X129540000Y-116150000D03*
X129540000Y-118690000D03*
X129540000Y-121230000D03*
X129540000Y-123770000D03*
X129540000Y-126310000D03*
X129540000Y-128850000D03*
%TD*%
D23*
%TO.C,IC2*%
X149478250Y-120865000D03*
X150128250Y-120865000D03*
X150778250Y-120865000D03*
X151428250Y-120865000D03*
X152078250Y-120865000D03*
X152728250Y-120865000D03*
X153378250Y-120865000D03*
X154028250Y-120865000D03*
X154678250Y-120865000D03*
X155328250Y-120865000D03*
X155978250Y-120865000D03*
X156628250Y-120865000D03*
X157278250Y-120865000D03*
X157928250Y-120865000D03*
X157928250Y-127889000D03*
X157278250Y-127889000D03*
X156628250Y-127889000D03*
X155978250Y-127889000D03*
X155328250Y-127889000D03*
X154678250Y-127889000D03*
X154028250Y-127889000D03*
X153378250Y-127889000D03*
X152728250Y-127889000D03*
X152078250Y-127889000D03*
X151428250Y-127889000D03*
X150778250Y-127889000D03*
X150128250Y-127889000D03*
X149478250Y-127889000D03*
%TD*%
D24*
%TO.C,C12*%
X154532500Y-106680000D03*
X152807500Y-106680000D03*
%TD*%
D25*
%TO.C,C5*%
X155347500Y-132080000D03*
X157072500Y-132080000D03*
%TD*%
D24*
%TO.C,C1*%
X154151500Y-116840000D03*
X152426500Y-116840000D03*
%TD*%
D26*
%TO.C,Y2*%
X148315000Y-99525000D03*
X153945000Y-99525000D03*
X153945000Y-103675000D03*
X148315000Y-103675000D03*
%TD*%
D24*
%TO.C,C11*%
X154532500Y-96520000D03*
X152807500Y-96520000D03*
%TD*%
%LPD*%
M02*
