%TF.GenerationSoftware,KiCad,Pcbnew,7.0.7*%
%TF.CreationDate,2023-09-21T18:55:03+09:00*%
%TF.ProjectId,STM32F103_dev_board,53544d33-3246-4313-9033-5f6465765f62,1.0*%
%TF.SameCoordinates,Original*%
%TF.FileFunction,Soldermask,Bot*%
%TF.FilePolarity,Negative*%
%FSLAX46Y46*%
G04 Gerber Fmt 4.6, Leading zero omitted, Abs format (unit mm)*
G04 Created by KiCad (PCBNEW 7.0.7) date 2023-09-21 18:55:03*
%MOMM*%
%LPD*%
G01*
G04 APERTURE LIST*
G04 Aperture macros list*
%AMRoundRect*
0 Rectangle with rounded corners*
0 $1 Rounding radius*
0 $2 $3 $4 $5 $6 $7 $8 $9 X,Y pos of 4 corners*
0 Add a 4 corners polygon primitive as box body*
4,1,4,$2,$3,$4,$5,$6,$7,$8,$9,$2,$3,0*
0 Add four circle primitives for the rounded corners*
1,1,$1+$1,$2,$3*
1,1,$1+$1,$4,$5*
1,1,$1+$1,$6,$7*
1,1,$1+$1,$8,$9*
0 Add four rect primitives between the rounded corners*
20,1,$1+$1,$2,$3,$4,$5,0*
20,1,$1+$1,$4,$5,$6,$7,0*
20,1,$1+$1,$6,$7,$8,$9,0*
20,1,$1+$1,$8,$9,$2,$3,0*%
G04 Aperture macros list end*
%ADD10C,0.800000*%
%ADD11C,2.000000*%
%ADD12C,2.565000*%
%ADD13C,3.500000*%
%ADD14R,1.700000X1.700000*%
%ADD15O,1.700000X1.700000*%
%ADD16RoundRect,0.250000X0.600000X-0.600000X0.600000X0.600000X-0.600000X0.600000X-0.600000X-0.600000X0*%
%ADD17C,1.700000*%
%ADD18C,1.500000*%
%ADD19RoundRect,0.100000X0.130000X0.100000X-0.130000X0.100000X-0.130000X-0.100000X0.130000X-0.100000X0*%
%ADD20RoundRect,0.100000X-0.130000X-0.100000X0.130000X-0.100000X0.130000X0.100000X-0.130000X0.100000X0*%
%ADD21R,0.450000X1.750000*%
%ADD22R,1.430000X2.850000*%
G04 APERTURE END LIST*
D10*
%TO.C,J6*%
X142458000Y-134617000D03*
X149058000Y-134617000D03*
D11*
X141148000Y-134057000D03*
X150368000Y-134057000D03*
D12*
X141148000Y-138557000D03*
X150368000Y-138557000D03*
%TD*%
D13*
%TO.C,REF\u002A\u002A*%
X162560000Y-60270000D03*
%TD*%
%TO.C,REF\u002A\u002A*%
X128285913Y-139053348D03*
%TD*%
%TO.C,REF\u002A\u002A*%
X128270000Y-60270000D03*
%TD*%
D14*
%TO.C,J4*%
X137155000Y-123785000D03*
D15*
X139695000Y-123785000D03*
X137155000Y-126325000D03*
X139695000Y-126325000D03*
X137155000Y-128865000D03*
X139695000Y-128865000D03*
%TD*%
D16*
%TO.C,J1*%
X133350000Y-69160000D03*
D17*
X133350000Y-66620000D03*
X135890000Y-69160000D03*
X135890000Y-66620000D03*
X138430000Y-69160000D03*
X138430000Y-66620000D03*
X140970000Y-69160000D03*
X140970000Y-66620000D03*
X143510000Y-69160000D03*
X143510000Y-66620000D03*
X146050000Y-69160000D03*
X146050000Y-66620000D03*
X148590000Y-69160000D03*
X148590000Y-66620000D03*
X151130000Y-69160000D03*
X151130000Y-66620000D03*
X153670000Y-69160000D03*
X153670000Y-66620000D03*
X156210000Y-69160000D03*
X156210000Y-66620000D03*
%TD*%
D14*
%TO.C,J3*%
X161290000Y-80590000D03*
D15*
X161290000Y-83130000D03*
X161290000Y-85670000D03*
X161290000Y-88210000D03*
X161290000Y-90750000D03*
X161290000Y-93290000D03*
X161290000Y-95830000D03*
X161290000Y-98370000D03*
X161290000Y-100910000D03*
X161290000Y-103450000D03*
X161290000Y-105990000D03*
X161290000Y-108530000D03*
X161290000Y-111070000D03*
X161290000Y-113610000D03*
X161290000Y-116150000D03*
X161290000Y-118690000D03*
X161290000Y-121230000D03*
X161290000Y-123770000D03*
X161290000Y-126310000D03*
X161290000Y-128850000D03*
%TD*%
D13*
%TO.C,REF\u002A\u002A*%
X162560000Y-139010000D03*
%TD*%
D18*
%TO.C,Y1*%
X148550000Y-89480000D03*
X143670000Y-89480000D03*
%TD*%
D14*
%TO.C,J2*%
X129540000Y-80590000D03*
D15*
X129540000Y-83130000D03*
X129540000Y-85670000D03*
X129540000Y-88210000D03*
X129540000Y-90750000D03*
X129540000Y-93290000D03*
X129540000Y-95830000D03*
X129540000Y-98370000D03*
X129540000Y-100910000D03*
X129540000Y-103450000D03*
X129540000Y-105990000D03*
X129540000Y-108530000D03*
X129540000Y-111070000D03*
X129540000Y-113610000D03*
X129540000Y-116150000D03*
X129540000Y-118690000D03*
X129540000Y-121230000D03*
X129540000Y-123770000D03*
X129540000Y-126310000D03*
X129540000Y-128850000D03*
%TD*%
D19*
%TO.C,C8*%
X153645000Y-118110000D03*
X153005000Y-118110000D03*
%TD*%
D20*
%TO.C,C9*%
X155509000Y-132080000D03*
X156149000Y-132080000D03*
%TD*%
D21*
%TO.C,U4*%
X149445000Y-120860000D03*
X150095000Y-120860000D03*
X150745000Y-120860000D03*
X151395000Y-120860000D03*
X152045000Y-120860000D03*
X152695000Y-120860000D03*
X153345000Y-120860000D03*
X153995000Y-120860000D03*
X154645000Y-120860000D03*
X155295000Y-120860000D03*
X155945000Y-120860000D03*
X156595000Y-120860000D03*
X157245000Y-120860000D03*
X157895000Y-120860000D03*
X157895000Y-128060000D03*
X157245000Y-128060000D03*
X156595000Y-128060000D03*
X155945000Y-128060000D03*
X155295000Y-128060000D03*
X154645000Y-128060000D03*
X153995000Y-128060000D03*
X153345000Y-128060000D03*
X152695000Y-128060000D03*
X152045000Y-128060000D03*
X151395000Y-128060000D03*
X150745000Y-128060000D03*
X150095000Y-128060000D03*
X149445000Y-128060000D03*
%TD*%
D19*
%TO.C,C12*%
X153990000Y-106680000D03*
X153350000Y-106680000D03*
%TD*%
D22*
%TO.C,Y2*%
X148315000Y-99525000D03*
X153945000Y-99525000D03*
X153945000Y-103675000D03*
X148315000Y-103675000D03*
%TD*%
D19*
%TO.C,C11*%
X153990000Y-96520000D03*
X153350000Y-96520000D03*
%TD*%
M02*
