%TF.GenerationSoftware,KiCad,Pcbnew,7.0.7*%
%TF.CreationDate,2023-09-14T15:29:13+09:00*%
%TF.ProjectId,STM32F103_dev_board,53544d33-3246-4313-9033-5f6465765f62,1.0*%
%TF.SameCoordinates,Original*%
%TF.FileFunction,Soldermask,Top*%
%TF.FilePolarity,Negative*%
%FSLAX46Y46*%
G04 Gerber Fmt 4.6, Leading zero omitted, Abs format (unit mm)*
G04 Created by KiCad (PCBNEW 7.0.7) date 2023-09-14 15:29:13*
%MOMM*%
%LPD*%
G01*
G04 APERTURE LIST*
G04 Aperture macros list*
%AMRoundRect*
0 Rectangle with rounded corners*
0 $1 Rounding radius*
0 $2 $3 $4 $5 $6 $7 $8 $9 X,Y pos of 4 corners*
0 Add a 4 corners polygon primitive as box body*
4,1,4,$2,$3,$4,$5,$6,$7,$8,$9,$2,$3,0*
0 Add four circle primitives for the rounded corners*
1,1,$1+$1,$2,$3*
1,1,$1+$1,$4,$5*
1,1,$1+$1,$6,$7*
1,1,$1+$1,$8,$9*
0 Add four rect primitives between the rounded corners*
20,1,$1+$1,$2,$3,$4,$5,0*
20,1,$1+$1,$4,$5,$6,$7,0*
20,1,$1+$1,$6,$7,$8,$9,0*
20,1,$1+$1,$8,$9,$2,$3,0*%
G04 Aperture macros list end*
%ADD10R,0.600000X1.200000*%
%ADD11R,0.300000X0.700000*%
%ADD12R,1.000000X0.700000*%
%ADD13O,1.100000X2.600000*%
%ADD14O,1.100000X2.100000*%
%ADD15RoundRect,0.100000X0.130000X0.100000X-0.130000X0.100000X-0.130000X-0.100000X0.130000X-0.100000X0*%
%ADD16RoundRect,0.100000X-0.100000X0.130000X-0.100000X-0.130000X0.100000X-0.130000X0.100000X0.130000X0*%
%ADD17R,1.700000X0.800000*%
%ADD18RoundRect,0.100000X-0.130000X-0.100000X0.130000X-0.100000X0.130000X0.100000X-0.130000X0.100000X0*%
%ADD19C,3.500000*%
%ADD20R,1.700000X1.700000*%
%ADD21O,1.700000X1.700000*%
%ADD22RoundRect,0.075000X-0.700000X-0.075000X0.700000X-0.075000X0.700000X0.075000X-0.700000X0.075000X0*%
%ADD23RoundRect,0.075000X-0.075000X-0.700000X0.075000X-0.700000X0.075000X0.700000X-0.075000X0.700000X0*%
%ADD24RoundRect,0.250000X0.600000X-0.600000X0.600000X0.600000X-0.600000X0.600000X-0.600000X-0.600000X0*%
%ADD25C,1.700000*%
%ADD26C,1.500000*%
G04 APERTURE END LIST*
D10*
%TO.C,IC1*%
X152405000Y-127341000D03*
X153355000Y-127341000D03*
X154305000Y-127341000D03*
X154305000Y-124841000D03*
X152405000Y-124841000D03*
%TD*%
D11*
%TO.C,J5*%
X142542000Y-133929000D03*
X143042000Y-133929000D03*
X143542000Y-133929000D03*
X144042000Y-133929000D03*
X144542000Y-133929000D03*
X145042000Y-133929000D03*
X146042000Y-133929000D03*
X146542000Y-133929000D03*
X147042000Y-133929000D03*
X147542000Y-133929000D03*
X148042000Y-133929000D03*
X148542000Y-133929000D03*
D12*
X148642000Y-135229000D03*
D11*
X147792000Y-135229000D03*
X147292000Y-135229000D03*
X146792000Y-135229000D03*
X146292000Y-135229000D03*
X145792000Y-135229000D03*
X145292000Y-135229000D03*
X144792000Y-135229000D03*
X144292000Y-135229000D03*
X143792000Y-135229000D03*
X143292000Y-135229000D03*
D12*
X142442000Y-135229000D03*
D13*
X141222000Y-139699000D03*
X149862000Y-139699000D03*
D14*
X141222000Y-134339000D03*
X149862000Y-134339000D03*
%TD*%
D15*
%TO.C,C4*%
X153040000Y-130120000D03*
X152400000Y-130120000D03*
%TD*%
D16*
%TO.C,R6*%
X151130000Y-121920000D03*
X151130000Y-122560000D03*
%TD*%
%TO.C,R7*%
X147320000Y-126915000D03*
X147320000Y-127555000D03*
%TD*%
D17*
%TO.C,S1*%
X134620000Y-132920000D03*
X134620000Y-136320000D03*
%TD*%
D18*
%TO.C,R2*%
X149195000Y-128850000D03*
X149835000Y-128850000D03*
%TD*%
D15*
%TO.C,C3*%
X151770000Y-85670000D03*
X151130000Y-85670000D03*
%TD*%
D16*
%TO.C,R12*%
X149908867Y-121933198D03*
X149908867Y-122573198D03*
%TD*%
%TO.C,R8*%
X146050000Y-126915000D03*
X146050000Y-127555000D03*
%TD*%
%TO.C,D1*%
X151130000Y-124460000D03*
X151130000Y-125100000D03*
%TD*%
D19*
%TO.C,REF\u002A\u002A*%
X162560000Y-60270000D03*
%TD*%
D15*
%TO.C,R5*%
X142915000Y-126310000D03*
X142275000Y-126310000D03*
%TD*%
D18*
%TO.C,C10*%
X137765000Y-119380000D03*
X138405000Y-119380000D03*
%TD*%
D19*
%TO.C,REF\u002A\u002A*%
X128285913Y-139053348D03*
%TD*%
%TO.C,REF\u002A\u002A*%
X128270000Y-60270000D03*
%TD*%
D16*
%TO.C,D2*%
X149908845Y-124469661D03*
X149908845Y-125109661D03*
%TD*%
D20*
%TO.C,J4*%
X137155000Y-123785000D03*
D21*
X139695000Y-123785000D03*
X137155000Y-126325000D03*
X139695000Y-126325000D03*
X137155000Y-128865000D03*
X139695000Y-128865000D03*
%TD*%
D15*
%TO.C,R4*%
X134015000Y-126310000D03*
X133375000Y-126310000D03*
%TD*%
D22*
%TO.C,U1*%
X139780000Y-109920000D03*
X139780000Y-110420000D03*
X139780000Y-110920000D03*
X139780000Y-111420000D03*
X139780000Y-111920000D03*
X139780000Y-112420000D03*
X139780000Y-112920000D03*
X139780000Y-113420000D03*
X139780000Y-113920000D03*
X139780000Y-114420000D03*
X139780000Y-114920000D03*
X139780000Y-115420000D03*
X139780000Y-115920000D03*
X139780000Y-116420000D03*
X139780000Y-116920000D03*
X139780000Y-117420000D03*
D23*
X141705000Y-119345000D03*
X142205000Y-119345000D03*
X142705000Y-119345000D03*
X143205000Y-119345000D03*
X143705000Y-119345000D03*
X144205000Y-119345000D03*
X144705000Y-119345000D03*
X145205000Y-119345000D03*
X145705000Y-119345000D03*
X146205000Y-119345000D03*
X146705000Y-119345000D03*
X147205000Y-119345000D03*
X147705000Y-119345000D03*
X148205000Y-119345000D03*
X148705000Y-119345000D03*
X149205000Y-119345000D03*
D22*
X151130000Y-117420000D03*
X151130000Y-116920000D03*
X151130000Y-116420000D03*
X151130000Y-115920000D03*
X151130000Y-115420000D03*
X151130000Y-114920000D03*
X151130000Y-114420000D03*
X151130000Y-113920000D03*
X151130000Y-113420000D03*
X151130000Y-112920000D03*
X151130000Y-112420000D03*
X151130000Y-111920000D03*
X151130000Y-111420000D03*
X151130000Y-110920000D03*
X151130000Y-110420000D03*
X151130000Y-109920000D03*
D23*
X149205000Y-107995000D03*
X148705000Y-107995000D03*
X148205000Y-107995000D03*
X147705000Y-107995000D03*
X147205000Y-107995000D03*
X146705000Y-107995000D03*
X146205000Y-107995000D03*
X145705000Y-107995000D03*
X145205000Y-107995000D03*
X144705000Y-107995000D03*
X144205000Y-107995000D03*
X143705000Y-107995000D03*
X143205000Y-107995000D03*
X142705000Y-107995000D03*
X142205000Y-107995000D03*
X141705000Y-107995000D03*
%TD*%
D24*
%TO.C,J1*%
X133350000Y-69160000D03*
D25*
X133350000Y-66620000D03*
X135890000Y-69160000D03*
X135890000Y-66620000D03*
X138430000Y-69160000D03*
X138430000Y-66620000D03*
X140970000Y-69160000D03*
X140970000Y-66620000D03*
X143510000Y-69160000D03*
X143510000Y-66620000D03*
X146050000Y-69160000D03*
X146050000Y-66620000D03*
X148590000Y-69160000D03*
X148590000Y-66620000D03*
X151130000Y-69160000D03*
X151130000Y-66620000D03*
X153670000Y-69160000D03*
X153670000Y-66620000D03*
X156210000Y-69160000D03*
X156210000Y-66620000D03*
%TD*%
D15*
%TO.C,C6*%
X153040000Y-121230000D03*
X152400000Y-121230000D03*
%TD*%
%TO.C,C2*%
X149860000Y-84400000D03*
X149220000Y-84400000D03*
%TD*%
D16*
%TO.C,R10*%
X151130000Y-78075000D03*
X151130000Y-78715000D03*
%TD*%
D20*
%TO.C,J3*%
X161290000Y-80590000D03*
D21*
X161290000Y-83130000D03*
X161290000Y-85670000D03*
X161290000Y-88210000D03*
X161290000Y-90750000D03*
X161290000Y-93290000D03*
X161290000Y-95830000D03*
X161290000Y-98370000D03*
X161290000Y-100910000D03*
X161290000Y-103450000D03*
X161290000Y-105990000D03*
X161290000Y-108530000D03*
X161290000Y-111070000D03*
X161290000Y-113610000D03*
X161290000Y-116150000D03*
X161290000Y-118690000D03*
X161290000Y-121230000D03*
X161290000Y-123770000D03*
X161290000Y-126310000D03*
X161290000Y-128850000D03*
%TD*%
D19*
%TO.C,REF\u002A\u002A*%
X162560000Y-139010000D03*
%TD*%
D16*
%TO.C,R9*%
X156210000Y-78075000D03*
X156210000Y-78715000D03*
%TD*%
D18*
%TO.C,R3*%
X149195000Y-127580000D03*
X149835000Y-127580000D03*
%TD*%
D16*
%TO.C,R11*%
X153670000Y-78075000D03*
X153670000Y-78715000D03*
%TD*%
D26*
%TO.C,Y1*%
X148550000Y-89480000D03*
X143670000Y-89480000D03*
%TD*%
D20*
%TO.C,J2*%
X129540000Y-80590000D03*
D21*
X129540000Y-83130000D03*
X129540000Y-85670000D03*
X129540000Y-88210000D03*
X129540000Y-90750000D03*
X129540000Y-93290000D03*
X129540000Y-95830000D03*
X129540000Y-98370000D03*
X129540000Y-100910000D03*
X129540000Y-103450000D03*
X129540000Y-105990000D03*
X129540000Y-108530000D03*
X129540000Y-111070000D03*
X129540000Y-113610000D03*
X129540000Y-116150000D03*
X129540000Y-118690000D03*
X129540000Y-121230000D03*
X129540000Y-123770000D03*
X129540000Y-126310000D03*
X129540000Y-128850000D03*
%TD*%
M02*
