%TF.GenerationSoftware,KiCad,Pcbnew,7.0.7*%
%TF.CreationDate,2023-10-14T22:05:47+09:00*%
%TF.ProjectId,STM32F103_dev_board,53544d33-3246-4313-9033-5f6465765f62,1.1.2*%
%TF.SameCoordinates,Original*%
%TF.FileFunction,Copper,L2,Inr*%
%TF.FilePolarity,Positive*%
%FSLAX46Y46*%
G04 Gerber Fmt 4.6, Leading zero omitted, Abs format (unit mm)*
G04 Created by KiCad (PCBNEW 7.0.7) date 2023-10-14 22:05:47*
%MOMM*%
%LPD*%
G01*
G04 APERTURE LIST*
G04 Aperture macros list*
%AMRoundRect*
0 Rectangle with rounded corners*
0 $1 Rounding radius*
0 $2 $3 $4 $5 $6 $7 $8 $9 X,Y pos of 4 corners*
0 Add a 4 corners polygon primitive as box body*
4,1,4,$2,$3,$4,$5,$6,$7,$8,$9,$2,$3,0*
0 Add four circle primitives for the rounded corners*
1,1,$1+$1,$2,$3*
1,1,$1+$1,$4,$5*
1,1,$1+$1,$6,$7*
1,1,$1+$1,$8,$9*
0 Add four rect primitives between the rounded corners*
20,1,$1+$1,$2,$3,$4,$5,0*
20,1,$1+$1,$4,$5,$6,$7,0*
20,1,$1+$1,$6,$7,$8,$9,0*
20,1,$1+$1,$8,$9,$2,$3,0*%
G04 Aperture macros list end*
%TA.AperFunction,ComponentPad*%
%ADD10C,3.500000*%
%TD*%
%TA.AperFunction,ComponentPad*%
%ADD11C,2.000000*%
%TD*%
%TA.AperFunction,ComponentPad*%
%ADD12C,2.565000*%
%TD*%
%TA.AperFunction,ComponentPad*%
%ADD13R,1.700000X1.700000*%
%TD*%
%TA.AperFunction,ComponentPad*%
%ADD14O,1.700000X1.700000*%
%TD*%
%TA.AperFunction,ComponentPad*%
%ADD15RoundRect,0.250000X0.600000X-0.600000X0.600000X0.600000X-0.600000X0.600000X-0.600000X-0.600000X0*%
%TD*%
%TA.AperFunction,ComponentPad*%
%ADD16C,1.700000*%
%TD*%
%TA.AperFunction,ComponentPad*%
%ADD17C,1.500000*%
%TD*%
%TA.AperFunction,ViaPad*%
%ADD18C,0.800000*%
%TD*%
G04 APERTURE END LIST*
D10*
%TO.N,GND*%
%TO.C,REF\u002A\u002A*%
X162560000Y-60270000D03*
%TD*%
D11*
%TO.N,GND*%
%TO.C,J6*%
X141148000Y-134057000D03*
X150368000Y-134057000D03*
D12*
X141148000Y-138557000D03*
X150368000Y-138557000D03*
%TD*%
D10*
%TO.N,GND*%
%TO.C,REF\u002A\u002A*%
X128285913Y-139053348D03*
%TD*%
%TO.N,GND*%
%TO.C,REF\u002A\u002A*%
X128270000Y-60270000D03*
%TD*%
D13*
%TO.N,VCC3V3*%
%TO.C,J4*%
X137155000Y-123785000D03*
D14*
X139695000Y-123785000D03*
%TO.N,Net-(J4-Pin_3)*%
X137155000Y-126325000D03*
%TO.N,Net-(J4-Pin_4)*%
X139695000Y-126325000D03*
%TO.N,GND*%
X137155000Y-128865000D03*
X139695000Y-128865000D03*
%TD*%
D15*
%TO.N,VCC3V3*%
%TO.C,J1*%
X133350000Y-69160000D03*
D16*
X133350000Y-66620000D03*
%TO.N,/JNTRST*%
X135890000Y-69160000D03*
%TO.N,GND*%
X135890000Y-66620000D03*
%TO.N,/JTDI*%
X138430000Y-69160000D03*
%TO.N,GND*%
X138430000Y-66620000D03*
%TO.N,/JTMS{slash}SWDIO*%
X140970000Y-69160000D03*
%TO.N,GND*%
X140970000Y-66620000D03*
%TO.N,/JTCK{slash}SWCLK*%
X143510000Y-69160000D03*
%TO.N,GND*%
X143510000Y-66620000D03*
%TO.N,Net-(J1-RTCK)*%
X146050000Y-69160000D03*
%TO.N,GND*%
X146050000Y-66620000D03*
%TO.N,/JTDO*%
X148590000Y-69160000D03*
%TO.N,GND*%
X148590000Y-66620000D03*
%TO.N,RESET*%
X151130000Y-69160000D03*
%TO.N,GND*%
X151130000Y-66620000D03*
%TO.N,Net-(J1-DBGRQ{slash}NC)*%
X153670000Y-69160000D03*
%TO.N,GND*%
X153670000Y-66620000D03*
%TO.N,Net-(J1-DBGACK{slash}NC)*%
X156210000Y-69160000D03*
%TO.N,GND*%
X156210000Y-66620000D03*
%TD*%
D13*
%TO.N,VCC3V3*%
%TO.C,J3*%
X161290000Y-80590000D03*
D14*
%TO.N,GND*%
X161290000Y-83130000D03*
%TO.N,5V*%
X161290000Y-85670000D03*
%TO.N,/PC12*%
X161290000Y-88210000D03*
%TO.N,/PC11*%
X161290000Y-90750000D03*
%TO.N,/PC10*%
X161290000Y-93290000D03*
%TO.N,PA10{slash}USART1_RX*%
X161290000Y-95830000D03*
%TO.N,PA9{slash}USART1_TX*%
X161290000Y-98370000D03*
%TO.N,/PA8*%
X161290000Y-100910000D03*
%TO.N,/PC9*%
X161290000Y-103450000D03*
%TO.N,/PC8*%
X161290000Y-105990000D03*
%TO.N,/PC7*%
X161290000Y-108530000D03*
%TO.N,/PC6*%
X161290000Y-111070000D03*
%TO.N,/PB15*%
X161290000Y-113610000D03*
%TO.N,/PB14*%
X161290000Y-116150000D03*
%TO.N,/PB13*%
X161290000Y-118690000D03*
%TO.N,/PB12*%
X161290000Y-121230000D03*
%TO.N,/PB11*%
X161290000Y-123770000D03*
%TO.N,/PB10*%
X161290000Y-126310000D03*
%TO.N,/PB1*%
X161290000Y-128850000D03*
%TD*%
D10*
%TO.N,GND*%
%TO.C,REF\u002A\u002A*%
X162560000Y-139010000D03*
%TD*%
D17*
%TO.N,/OSC_OUT*%
%TO.C,Y1*%
X148550000Y-89480000D03*
%TO.N,/OSC_IN*%
X143670000Y-89480000D03*
%TD*%
D13*
%TO.N,VBAT*%
%TO.C,J2*%
X129540000Y-80590000D03*
D14*
%TO.N,/PB6*%
X129540000Y-83130000D03*
%TO.N,/PB7*%
X129540000Y-85670000D03*
%TO.N,/PB8*%
X129540000Y-88210000D03*
%TO.N,/PB9*%
X129540000Y-90750000D03*
%TO.N,/PC13*%
X129540000Y-93290000D03*
%TO.N,/PA5*%
X129540000Y-95830000D03*
%TO.N,/PA6*%
X129540000Y-98370000D03*
%TO.N,/PC0*%
X129540000Y-100910000D03*
%TO.N,/PC1*%
X129540000Y-103450000D03*
%TO.N,/PC2*%
X129540000Y-105990000D03*
%TO.N,/PC3*%
X129540000Y-108530000D03*
%TO.N,/PA0*%
X129540000Y-111070000D03*
%TO.N,/PA1*%
X129540000Y-113610000D03*
%TO.N,/PA2*%
X129540000Y-116150000D03*
%TO.N,/PA3*%
X129540000Y-118690000D03*
%TO.N,RESET*%
X129540000Y-121230000D03*
%TO.N,VCC3V3*%
X129540000Y-123770000D03*
%TO.N,GND*%
X129540000Y-126310000D03*
X129540000Y-128850000D03*
%TD*%
D18*
%TO.N,/OSC_IN*%
X139700000Y-105990000D03*
X140970000Y-100910000D03*
%TO.N,/OSC_OUT*%
X142240000Y-102180000D03*
X142240000Y-111070000D03*
%TO.N,/JNTRST*%
X144780000Y-103450000D03*
%TO.N,/JTDI*%
X139700000Y-76780000D03*
X149860000Y-105990000D03*
%TO.N,/JTMS{slash}SWDIO*%
X148590000Y-93980000D03*
X152400000Y-105410000D03*
X151854500Y-93980000D03*
%TO.N,/JTCK{slash}SWCLK*%
X151130000Y-105990000D03*
%TO.N,/JTDO*%
X143510000Y-84400000D03*
X146050000Y-79320000D03*
X146050000Y-103450000D03*
X147320000Y-81860000D03*
%TO.N,/PB10*%
X147574000Y-123698000D03*
%TO.N,/PB11*%
X147574000Y-122428000D03*
%TO.N,/PA4*%
X142240000Y-123190000D03*
X146050000Y-123190000D03*
%TO.N,/PA5*%
X143510000Y-121920000D03*
%TO.N,/PA6*%
X144780000Y-121920000D03*
%TO.N,/PB1*%
X146050000Y-121230000D03*
%TO.N,/BOOT0*%
X143510000Y-109800000D03*
X132080000Y-124509500D03*
%TO.N,/OSC32_IN*%
X147320000Y-95250000D03*
X142240000Y-82550000D03*
X139700000Y-83820000D03*
X152400000Y-92710000D03*
X134345500Y-102870000D03*
%TO.N,/OSC32_OUT*%
X149860000Y-101600000D03*
X139700000Y-91440000D03*
X142240000Y-97790000D03*
X133350000Y-101600000D03*
X144780000Y-100330000D03*
%TO.N,/PA11*%
X157480000Y-97790000D03*
%TO.N,/PA12*%
X157480000Y-96520000D03*
%TO.N,RESET*%
X143510000Y-103450000D03*
X137160000Y-112340000D03*
X154940000Y-85670000D03*
X132842000Y-122555000D03*
%TO.N,GND*%
X142240000Y-131445000D03*
X142240000Y-116150000D03*
X147320000Y-111070000D03*
X142218369Y-113562009D03*
X154940000Y-118690000D03*
X150241000Y-132080000D03*
X153670000Y-132080000D03*
X152400000Y-109220000D03*
X135722701Y-97957299D03*
X138430000Y-83820000D03*
%TO.N,5V*%
X143510000Y-131953000D03*
X156210000Y-118690000D03*
X156210000Y-125040000D03*
X147320000Y-113030000D03*
X158025500Y-130048000D03*
X154935701Y-129789701D03*
X148590000Y-131699000D03*
%TO.N,VCC3V3*%
X148590000Y-116150000D03*
X147320000Y-117348000D03*
X151257000Y-118999000D03*
X132080000Y-79320000D03*
X143510000Y-110998000D03*
%TO.N,VBAT*%
X137160000Y-86940000D03*
X138430000Y-107260000D03*
%TO.N,USBDP*%
X157861000Y-133604000D03*
X144526000Y-123952000D03*
%TO.N,USBDM*%
X145288000Y-124968000D03*
%TO.N,PA10{slash}USART1_RX*%
X148590000Y-113030000D03*
%TO.N,PA9{slash}USART1_TX*%
X148590000Y-114300000D03*
%TD*%
%TA.AperFunction,Conductor*%
%TO.N,VCC3V3*%
G36*
X139148692Y-123554685D02*
G01*
X139194447Y-123607489D01*
X139204391Y-123676647D01*
X139200631Y-123693933D01*
X139195000Y-123713111D01*
X139195000Y-123856889D01*
X139198856Y-123870022D01*
X139200631Y-123876067D01*
X139200630Y-123945936D01*
X139162855Y-124004714D01*
X139099299Y-124033738D01*
X139081653Y-124035000D01*
X137768347Y-124035000D01*
X137701308Y-124015315D01*
X137655553Y-123962511D01*
X137645609Y-123893353D01*
X137649369Y-123876067D01*
X137651143Y-123870022D01*
X137655000Y-123856889D01*
X137655000Y-123713111D01*
X137649368Y-123693933D01*
X137649370Y-123624064D01*
X137687145Y-123565286D01*
X137750701Y-123536262D01*
X137768347Y-123535000D01*
X139081653Y-123535000D01*
X139148692Y-123554685D01*
G37*
%TD.AperFunction*%
%TA.AperFunction,Conductor*%
G36*
X133952470Y-66869363D02*
G01*
X133958949Y-66875396D01*
X134464925Y-67381373D01*
X134518119Y-67305405D01*
X134572696Y-67261781D01*
X134642195Y-67254588D01*
X134704549Y-67286110D01*
X134721269Y-67305405D01*
X134851505Y-67491401D01*
X134851506Y-67491402D01*
X135018597Y-67658493D01*
X135018603Y-67658498D01*
X135204158Y-67788425D01*
X135247783Y-67843002D01*
X135254977Y-67912500D01*
X135223454Y-67974855D01*
X135204158Y-67991575D01*
X135018597Y-68121505D01*
X134851505Y-68288597D01*
X134849977Y-68290419D01*
X134849101Y-68291001D01*
X134847676Y-68292427D01*
X134847389Y-68292140D01*
X134791804Y-68329119D01*
X134721943Y-68330224D01*
X134662575Y-68293384D01*
X134637285Y-68249712D01*
X134634359Y-68240882D01*
X134634356Y-68240875D01*
X134542315Y-68091654D01*
X134418345Y-67967684D01*
X134269124Y-67875643D01*
X134269119Y-67875641D01*
X134196922Y-67851718D01*
X134139477Y-67811946D01*
X134112654Y-67747430D01*
X134112534Y-67736086D01*
X133609116Y-67232669D01*
X133575631Y-67171346D01*
X133580615Y-67101655D01*
X133617640Y-67052193D01*
X133616398Y-67050759D01*
X133623100Y-67044952D01*
X133731761Y-66950798D01*
X133766954Y-66896037D01*
X133819755Y-66850283D01*
X133888914Y-66840339D01*
X133952470Y-66869363D01*
G37*
%TD.AperFunction*%
%TA.AperFunction,Conductor*%
G36*
X163102019Y-57730633D02*
G01*
X163137198Y-57732938D01*
X163183708Y-57735986D01*
X163365459Y-57748985D01*
X163373100Y-57750015D01*
X163466738Y-57768641D01*
X163489420Y-57773153D01*
X163515023Y-57778722D01*
X163633666Y-57804531D01*
X163640383Y-57806395D01*
X163759437Y-57846809D01*
X163856671Y-57883076D01*
X163891741Y-57896157D01*
X163897499Y-57898643D01*
X164012952Y-57955578D01*
X164134906Y-58022170D01*
X164139634Y-58025032D01*
X164239139Y-58091519D01*
X164246649Y-58096537D01*
X164249358Y-58098454D01*
X164358652Y-58180271D01*
X164362345Y-58183265D01*
X164459502Y-58268469D01*
X164462448Y-58271228D01*
X164558769Y-58367549D01*
X164561526Y-58370492D01*
X164646729Y-58467648D01*
X164649732Y-58471353D01*
X164656751Y-58480728D01*
X164731543Y-58580639D01*
X164733461Y-58583349D01*
X164804962Y-58690357D01*
X164807828Y-58695091D01*
X164874421Y-58817047D01*
X164931355Y-58932499D01*
X164933841Y-58938257D01*
X164970212Y-59035768D01*
X164983196Y-59070578D01*
X165012831Y-59157881D01*
X165023597Y-59189596D01*
X165025472Y-59196352D01*
X165056846Y-59340579D01*
X165079980Y-59456880D01*
X165081015Y-59464560D01*
X165094017Y-59646350D01*
X165099367Y-59727966D01*
X165099500Y-59732023D01*
X165099500Y-139547975D01*
X165099367Y-139552032D01*
X165094017Y-139633648D01*
X165081015Y-139815438D01*
X165079980Y-139823118D01*
X165056846Y-139939420D01*
X165025472Y-140083646D01*
X165023597Y-140090401D01*
X165007554Y-140137665D01*
X164983208Y-140209388D01*
X164983195Y-140209425D01*
X164933841Y-140341741D01*
X164931355Y-140347499D01*
X164874421Y-140462952D01*
X164807828Y-140584907D01*
X164804961Y-140589641D01*
X164733461Y-140696649D01*
X164731543Y-140699359D01*
X164649744Y-140808631D01*
X164646723Y-140812357D01*
X164561529Y-140909502D01*
X164558755Y-140912464D01*
X164462464Y-141008755D01*
X164459502Y-141011529D01*
X164362357Y-141096723D01*
X164358631Y-141099744D01*
X164249359Y-141181543D01*
X164246649Y-141183461D01*
X164139641Y-141254961D01*
X164134907Y-141257828D01*
X164012952Y-141324421D01*
X163897499Y-141381355D01*
X163891741Y-141383841D01*
X163770956Y-141428893D01*
X163759418Y-141433197D01*
X163640401Y-141473597D01*
X163633646Y-141475472D01*
X163489420Y-141506846D01*
X163373118Y-141529980D01*
X163365438Y-141531015D01*
X163183648Y-141544017D01*
X163132582Y-141547364D01*
X163102025Y-141549367D01*
X163097976Y-141549500D01*
X128399470Y-141549500D01*
X128332431Y-141529815D01*
X128286676Y-141477011D01*
X128285215Y-141466854D01*
X128260557Y-141512658D01*
X128199434Y-141546507D01*
X128172356Y-141549500D01*
X127732024Y-141549500D01*
X127727974Y-141549367D01*
X127684336Y-141546507D01*
X127646350Y-141544017D01*
X127464560Y-141531015D01*
X127456880Y-141529980D01*
X127340579Y-141506846D01*
X127196352Y-141475472D01*
X127189596Y-141473597D01*
X127157881Y-141462831D01*
X127070578Y-141433196D01*
X127035768Y-141420212D01*
X126938257Y-141383841D01*
X126932499Y-141381355D01*
X126817047Y-141324421D01*
X126695091Y-141257828D01*
X126690357Y-141254962D01*
X126583349Y-141183461D01*
X126580639Y-141181543D01*
X126521133Y-141136998D01*
X126471353Y-141099732D01*
X126467648Y-141096729D01*
X126370492Y-141011526D01*
X126367549Y-141008769D01*
X126271228Y-140912448D01*
X126268469Y-140909502D01*
X126209817Y-140842622D01*
X126183265Y-140812345D01*
X126180271Y-140808652D01*
X126098454Y-140699358D01*
X126096537Y-140696649D01*
X126074590Y-140663803D01*
X126025032Y-140589634D01*
X126022170Y-140584906D01*
X125955578Y-140462952D01*
X125898643Y-140347499D01*
X125896157Y-140341741D01*
X125880651Y-140300170D01*
X125846805Y-140209425D01*
X125806395Y-140090383D01*
X125804531Y-140083666D01*
X125773153Y-139939420D01*
X125768579Y-139916425D01*
X125750015Y-139823100D01*
X125748985Y-139815459D01*
X125735988Y-139633743D01*
X125730631Y-139552007D01*
X125730500Y-139547994D01*
X125730500Y-139053355D01*
X126030584Y-139053355D01*
X126049877Y-139347711D01*
X126049878Y-139347721D01*
X126049879Y-139347728D01*
X126106751Y-139633648D01*
X126107431Y-139637064D01*
X126107434Y-139637078D01*
X126202262Y-139916428D01*
X126332738Y-140181008D01*
X126332742Y-140181015D01*
X126496638Y-140426303D01*
X126691154Y-140648106D01*
X126912957Y-140842622D01*
X127158245Y-141006518D01*
X127158252Y-141006522D01*
X127168405Y-141011529D01*
X127422836Y-141137000D01*
X127702191Y-141231829D01*
X127991533Y-141289382D01*
X128009137Y-141290535D01*
X128180466Y-141301766D01*
X128246075Y-141325793D01*
X128288278Y-141381476D01*
X128288350Y-141382411D01*
X128305757Y-141344297D01*
X128364535Y-141306523D01*
X128391360Y-141301766D01*
X128543614Y-141291786D01*
X128580293Y-141289382D01*
X128869635Y-141231829D01*
X129148990Y-141137000D01*
X129413578Y-141006520D01*
X129658870Y-140842621D01*
X129880671Y-140648106D01*
X130075186Y-140426305D01*
X130239085Y-140181013D01*
X130369565Y-139916425D01*
X130464394Y-139637070D01*
X130521947Y-139347728D01*
X130525794Y-139289023D01*
X130541242Y-139053355D01*
X130541242Y-139053340D01*
X130521948Y-138758984D01*
X130521947Y-138758968D01*
X130481774Y-138557004D01*
X139360000Y-138557004D01*
X139379968Y-138823478D01*
X139379968Y-138823480D01*
X139422540Y-139010000D01*
X139439436Y-139084022D01*
X139537068Y-139332784D01*
X139670685Y-139564216D01*
X139763913Y-139681120D01*
X139837306Y-139773153D01*
X139945000Y-139873077D01*
X140033200Y-139954915D01*
X140254000Y-140105453D01*
X140494770Y-140221402D01*
X140750133Y-140300171D01*
X140750134Y-140300171D01*
X140750137Y-140300172D01*
X141014375Y-140339999D01*
X141014380Y-140339999D01*
X141014383Y-140340000D01*
X141014384Y-140340000D01*
X141281616Y-140340000D01*
X141281617Y-140340000D01*
X141281624Y-140339999D01*
X141545862Y-140300172D01*
X141545863Y-140300171D01*
X141545867Y-140300171D01*
X141801230Y-140221402D01*
X142042000Y-140105453D01*
X142262800Y-139954915D01*
X142458697Y-139773149D01*
X142625315Y-139564216D01*
X142758932Y-139332784D01*
X142856564Y-139084022D01*
X142916030Y-138823488D01*
X142924112Y-138715636D01*
X142936000Y-138557004D01*
X148580000Y-138557004D01*
X148599968Y-138823478D01*
X148599968Y-138823480D01*
X148642540Y-139010000D01*
X148659436Y-139084022D01*
X148757068Y-139332784D01*
X148890685Y-139564216D01*
X148983913Y-139681120D01*
X149057306Y-139773153D01*
X149165000Y-139873077D01*
X149253200Y-139954915D01*
X149474000Y-140105453D01*
X149714770Y-140221402D01*
X149970133Y-140300171D01*
X149970134Y-140300171D01*
X149970137Y-140300172D01*
X150234375Y-140339999D01*
X150234380Y-140339999D01*
X150234383Y-140340000D01*
X150234384Y-140340000D01*
X150501616Y-140340000D01*
X150501617Y-140340000D01*
X150501624Y-140339999D01*
X150765862Y-140300172D01*
X150765863Y-140300171D01*
X150765867Y-140300171D01*
X151021230Y-140221402D01*
X151262000Y-140105453D01*
X151482800Y-139954915D01*
X151678697Y-139773149D01*
X151845315Y-139564216D01*
X151978932Y-139332784D01*
X152076564Y-139084022D01*
X152093458Y-139010007D01*
X160304671Y-139010007D01*
X160323964Y-139304363D01*
X160323965Y-139304373D01*
X160323966Y-139304380D01*
X160373226Y-139552032D01*
X160381518Y-139593716D01*
X160381521Y-139593730D01*
X160476349Y-139873080D01*
X160606825Y-140137660D01*
X160606829Y-140137667D01*
X160770725Y-140382955D01*
X160965241Y-140604758D01*
X161187044Y-140799274D01*
X161352012Y-140909502D01*
X161432335Y-140963172D01*
X161696923Y-141093652D01*
X161976278Y-141188481D01*
X162265620Y-141246034D01*
X162293888Y-141247886D01*
X162559993Y-141265329D01*
X162560000Y-141265329D01*
X162560007Y-141265329D01*
X162795675Y-141249881D01*
X162854380Y-141246034D01*
X163143722Y-141188481D01*
X163423077Y-141093652D01*
X163687665Y-140963172D01*
X163932957Y-140799273D01*
X164154758Y-140604758D01*
X164349273Y-140382957D01*
X164513172Y-140137665D01*
X164643652Y-139873077D01*
X164738481Y-139593722D01*
X164796034Y-139304380D01*
X164810477Y-139084027D01*
X164815329Y-139010007D01*
X164815329Y-139009992D01*
X164796035Y-138715636D01*
X164796034Y-138715620D01*
X164738481Y-138426278D01*
X164643652Y-138146923D01*
X164513172Y-137882336D01*
X164349273Y-137637043D01*
X164272749Y-137549784D01*
X164154758Y-137415241D01*
X163932955Y-137220725D01*
X163687667Y-137056829D01*
X163687660Y-137056825D01*
X163423080Y-136926349D01*
X163143730Y-136831521D01*
X163143724Y-136831519D01*
X163143722Y-136831519D01*
X162854380Y-136773966D01*
X162854373Y-136773965D01*
X162854363Y-136773964D01*
X162560007Y-136754671D01*
X162559993Y-136754671D01*
X162265636Y-136773964D01*
X162265624Y-136773965D01*
X162265620Y-136773966D01*
X162265612Y-136773967D01*
X162265609Y-136773968D01*
X161976283Y-136831518D01*
X161976269Y-136831521D01*
X161696919Y-136926349D01*
X161432334Y-137056828D01*
X161187041Y-137220728D01*
X160965241Y-137415241D01*
X160770728Y-137637041D01*
X160606828Y-137882334D01*
X160476349Y-138146919D01*
X160381521Y-138426269D01*
X160381518Y-138426283D01*
X160323968Y-138715609D01*
X160323964Y-138715636D01*
X160304671Y-139009992D01*
X160304671Y-139010007D01*
X152093458Y-139010007D01*
X152136030Y-138823488D01*
X152144112Y-138715636D01*
X152156000Y-138557004D01*
X152156000Y-138556995D01*
X152136031Y-138290521D01*
X152136031Y-138290519D01*
X152136030Y-138290515D01*
X152136030Y-138290512D01*
X152076564Y-138029978D01*
X151978932Y-137781216D01*
X151845315Y-137549784D01*
X151678697Y-137340851D01*
X151678696Y-137340850D01*
X151678693Y-137340846D01*
X151549232Y-137220725D01*
X151482800Y-137159085D01*
X151262000Y-137008547D01*
X151021230Y-136892598D01*
X150963754Y-136874869D01*
X150765868Y-136813829D01*
X150765862Y-136813827D01*
X150501624Y-136774000D01*
X150501617Y-136774000D01*
X150234383Y-136774000D01*
X150234375Y-136774000D01*
X149970137Y-136813827D01*
X149970131Y-136813829D01*
X149714769Y-136892598D01*
X149474003Y-137008545D01*
X149473999Y-137008547D01*
X149253202Y-137159083D01*
X149057306Y-137340846D01*
X148890685Y-137549784D01*
X148757068Y-137781215D01*
X148659438Y-138029972D01*
X148659433Y-138029989D01*
X148599968Y-138290519D01*
X148599968Y-138290521D01*
X148580000Y-138556995D01*
X148580000Y-138557004D01*
X142936000Y-138557004D01*
X142936000Y-138556995D01*
X142916031Y-138290521D01*
X142916031Y-138290519D01*
X142916030Y-138290515D01*
X142916030Y-138290512D01*
X142856564Y-138029978D01*
X142758932Y-137781216D01*
X142625315Y-137549784D01*
X142458697Y-137340851D01*
X142458696Y-137340850D01*
X142458693Y-137340846D01*
X142329232Y-137220725D01*
X142262800Y-137159085D01*
X142042000Y-137008547D01*
X141801230Y-136892598D01*
X141743754Y-136874869D01*
X141545868Y-136813829D01*
X141545862Y-136813827D01*
X141281624Y-136774000D01*
X141281617Y-136774000D01*
X141014383Y-136774000D01*
X141014375Y-136774000D01*
X140750137Y-136813827D01*
X140750131Y-136813829D01*
X140494769Y-136892598D01*
X140254003Y-137008545D01*
X140253999Y-137008547D01*
X140033202Y-137159083D01*
X139837306Y-137340846D01*
X139670685Y-137549784D01*
X139537068Y-137781215D01*
X139439438Y-138029972D01*
X139439433Y-138029989D01*
X139379968Y-138290519D01*
X139379968Y-138290521D01*
X139360000Y-138556995D01*
X139360000Y-138557004D01*
X130481774Y-138557004D01*
X130464394Y-138469626D01*
X130369565Y-138190271D01*
X130239085Y-137925684D01*
X130075186Y-137680391D01*
X130032568Y-137631795D01*
X129880671Y-137458589D01*
X129658868Y-137264073D01*
X129413580Y-137100177D01*
X129413573Y-137100173D01*
X129148993Y-136969697D01*
X128869643Y-136874869D01*
X128869637Y-136874867D01*
X128869635Y-136874867D01*
X128580293Y-136817314D01*
X128580286Y-136817313D01*
X128580276Y-136817312D01*
X128285920Y-136798019D01*
X128285906Y-136798019D01*
X127991549Y-136817312D01*
X127991537Y-136817313D01*
X127991533Y-136817314D01*
X127991525Y-136817315D01*
X127991522Y-136817316D01*
X127702196Y-136874866D01*
X127702182Y-136874869D01*
X127422832Y-136969697D01*
X127158247Y-137100176D01*
X126912954Y-137264076D01*
X126691154Y-137458589D01*
X126496641Y-137680389D01*
X126332741Y-137925682D01*
X126202262Y-138190267D01*
X126107434Y-138469617D01*
X126107431Y-138469631D01*
X126049881Y-138758957D01*
X126049877Y-138758984D01*
X126030584Y-139053340D01*
X126030584Y-139053355D01*
X125730500Y-139053355D01*
X125730500Y-134057005D01*
X139642357Y-134057005D01*
X139662890Y-134304812D01*
X139662892Y-134304824D01*
X139723936Y-134545881D01*
X139823826Y-134773606D01*
X139959833Y-134981782D01*
X139959836Y-134981785D01*
X140128256Y-135164738D01*
X140324491Y-135317474D01*
X140543190Y-135435828D01*
X140778386Y-135516571D01*
X141023665Y-135557500D01*
X141272335Y-135557500D01*
X141517614Y-135516571D01*
X141752810Y-135435828D01*
X141971509Y-135317474D01*
X142076990Y-135235374D01*
X142141980Y-135209733D01*
X142210520Y-135223299D01*
X142212832Y-135224538D01*
X142216632Y-135226627D01*
X142375823Y-135267500D01*
X142375827Y-135267500D01*
X142498923Y-135267500D01*
X142498925Y-135267500D01*
X142498930Y-135267499D01*
X142498934Y-135267499D01*
X142512174Y-135265826D01*
X142621058Y-135252071D01*
X142773871Y-135191568D01*
X142778452Y-135188240D01*
X142906835Y-135094965D01*
X142906835Y-135094963D01*
X142906837Y-135094963D01*
X143011600Y-134968326D01*
X143081579Y-134819613D01*
X143112376Y-134658170D01*
X143102056Y-134494140D01*
X143051268Y-134337829D01*
X142963202Y-134199060D01*
X142896278Y-134136214D01*
X142843396Y-134086554D01*
X142843391Y-134086551D01*
X142705491Y-134010739D01*
X142656228Y-133961194D01*
X142641654Y-133912321D01*
X142633108Y-133809179D01*
X142628823Y-133792259D01*
X142572063Y-133568118D01*
X142472173Y-133340393D01*
X142336166Y-133132217D01*
X142280533Y-133071784D01*
X142167744Y-132949262D01*
X141971509Y-132796526D01*
X141971507Y-132796525D01*
X141971506Y-132796524D01*
X141752811Y-132678172D01*
X141752802Y-132678169D01*
X141517616Y-132597429D01*
X141272335Y-132556500D01*
X141023665Y-132556500D01*
X140778383Y-132597429D01*
X140543197Y-132678169D01*
X140543188Y-132678172D01*
X140324493Y-132796524D01*
X140128257Y-132949261D01*
X139959833Y-133132217D01*
X139823826Y-133340393D01*
X139723936Y-133568118D01*
X139662892Y-133809175D01*
X139662890Y-133809187D01*
X139642357Y-134056994D01*
X139642357Y-134057005D01*
X125730500Y-134057005D01*
X125730500Y-131445000D01*
X141334540Y-131445000D01*
X141354326Y-131633256D01*
X141354327Y-131633259D01*
X141412818Y-131813277D01*
X141412821Y-131813284D01*
X141507467Y-131977216D01*
X141634128Y-132117888D01*
X141634129Y-132117888D01*
X141787265Y-132229148D01*
X141787270Y-132229151D01*
X141960192Y-132306142D01*
X141960197Y-132306144D01*
X142145354Y-132345500D01*
X142145355Y-132345500D01*
X142334644Y-132345500D01*
X142334646Y-132345500D01*
X142519803Y-132306144D01*
X142540534Y-132296913D01*
X142609782Y-132287628D01*
X142673059Y-132317256D01*
X142698356Y-132348192D01*
X142777467Y-132485216D01*
X142837942Y-132552380D01*
X142904129Y-132625888D01*
X143057265Y-132737148D01*
X143057270Y-132737151D01*
X143230192Y-132814142D01*
X143230197Y-132814144D01*
X143415354Y-132853500D01*
X143415355Y-132853500D01*
X143604644Y-132853500D01*
X143604646Y-132853500D01*
X143789803Y-132814144D01*
X143962730Y-132737151D01*
X144115871Y-132625888D01*
X144242533Y-132485216D01*
X144337179Y-132321284D01*
X144395674Y-132141256D01*
X144415460Y-131953000D01*
X144395674Y-131764744D01*
X144374312Y-131699000D01*
X147684540Y-131699000D01*
X147704326Y-131887256D01*
X147704327Y-131887259D01*
X147762818Y-132067277D01*
X147762821Y-132067284D01*
X147857467Y-132231216D01*
X147890821Y-132268259D01*
X147984129Y-132371888D01*
X148137265Y-132483148D01*
X148137270Y-132483151D01*
X148310192Y-132560142D01*
X148310197Y-132560144D01*
X148495354Y-132599500D01*
X148495355Y-132599500D01*
X148684644Y-132599500D01*
X148684646Y-132599500D01*
X148869803Y-132560144D01*
X149042730Y-132483151D01*
X149195871Y-132371888D01*
X149195875Y-132371883D01*
X149200700Y-132367540D01*
X149202011Y-132368996D01*
X149253546Y-132337238D01*
X149323403Y-132338560D01*
X149381456Y-132377439D01*
X149404155Y-132418536D01*
X149413819Y-132448280D01*
X149413821Y-132448284D01*
X149508467Y-132612216D01*
X149531742Y-132638065D01*
X149561972Y-132701056D01*
X149553348Y-132770392D01*
X149515756Y-132818891D01*
X149348258Y-132949260D01*
X149179833Y-133132217D01*
X149043826Y-133340393D01*
X148943936Y-133568118D01*
X148882892Y-133809175D01*
X148882890Y-133809187D01*
X148874039Y-133916006D01*
X148848886Y-133981191D01*
X148796113Y-134021057D01*
X148742132Y-134042430D01*
X148742121Y-134042436D01*
X148609164Y-134139034D01*
X148609162Y-134139037D01*
X148504400Y-134265673D01*
X148434420Y-134414387D01*
X148419207Y-134494139D01*
X148403624Y-134575830D01*
X148403624Y-134575832D01*
X148403624Y-134575833D01*
X148413944Y-134739860D01*
X148464732Y-134896171D01*
X148464734Y-134896175D01*
X148552798Y-135034940D01*
X148672603Y-135147445D01*
X148672611Y-135147451D01*
X148816628Y-135226625D01*
X148816632Y-135226627D01*
X148975823Y-135267500D01*
X148975827Y-135267500D01*
X149098923Y-135267500D01*
X149098925Y-135267500D01*
X149098930Y-135267499D01*
X149098934Y-135267499D01*
X149112174Y-135265826D01*
X149221058Y-135252071D01*
X149313852Y-135215330D01*
X149383430Y-135208954D01*
X149435662Y-135232770D01*
X149544482Y-135317468D01*
X149544488Y-135317472D01*
X149544491Y-135317474D01*
X149763190Y-135435828D01*
X149998386Y-135516571D01*
X150243665Y-135557500D01*
X150492335Y-135557500D01*
X150737614Y-135516571D01*
X150972810Y-135435828D01*
X151191509Y-135317474D01*
X151387744Y-135164738D01*
X151556164Y-134981785D01*
X151692173Y-134773607D01*
X151792063Y-134545881D01*
X151853108Y-134304821D01*
X151861872Y-134199059D01*
X151873643Y-134057005D01*
X151873643Y-134056994D01*
X151853109Y-133809187D01*
X151853107Y-133809175D01*
X151801150Y-133604000D01*
X156955540Y-133604000D01*
X156975326Y-133792256D01*
X156975327Y-133792259D01*
X157033818Y-133972277D01*
X157033821Y-133972284D01*
X157128467Y-134136216D01*
X157245031Y-134265673D01*
X157255129Y-134276888D01*
X157408265Y-134388148D01*
X157408270Y-134388151D01*
X157581192Y-134465142D01*
X157581197Y-134465144D01*
X157766354Y-134504500D01*
X157766355Y-134504500D01*
X157955644Y-134504500D01*
X157955646Y-134504500D01*
X158140803Y-134465144D01*
X158313730Y-134388151D01*
X158466871Y-134276888D01*
X158593533Y-134136216D01*
X158688179Y-133972284D01*
X158746674Y-133792256D01*
X158766460Y-133604000D01*
X158746674Y-133415744D01*
X158688179Y-133235716D01*
X158593533Y-133071784D01*
X158466871Y-132931112D01*
X158466870Y-132931111D01*
X158313734Y-132819851D01*
X158313729Y-132819848D01*
X158140807Y-132742857D01*
X158140802Y-132742855D01*
X157995001Y-132711865D01*
X157955646Y-132703500D01*
X157766354Y-132703500D01*
X157733897Y-132710398D01*
X157581197Y-132742855D01*
X157581192Y-132742857D01*
X157408270Y-132819848D01*
X157408265Y-132819851D01*
X157255129Y-132931111D01*
X157128466Y-133071785D01*
X157033821Y-133235715D01*
X157033818Y-133235722D01*
X156999809Y-133340393D01*
X156975326Y-133415744D01*
X156955540Y-133604000D01*
X151801150Y-133604000D01*
X151792063Y-133568118D01*
X151692173Y-133340393D01*
X151556166Y-133132217D01*
X151500533Y-133071784D01*
X151387744Y-132949262D01*
X151191509Y-132796526D01*
X151191508Y-132796525D01*
X151191505Y-132796523D01*
X151191503Y-132796522D01*
X151056449Y-132723435D01*
X151006858Y-132674215D01*
X150991750Y-132605999D01*
X151008079Y-132552380D01*
X151046857Y-132485214D01*
X151068179Y-132448284D01*
X151126674Y-132268256D01*
X151146460Y-132080000D01*
X152764540Y-132080000D01*
X152784326Y-132268256D01*
X152784327Y-132268259D01*
X152842818Y-132448277D01*
X152842821Y-132448284D01*
X152937467Y-132612216D01*
X153017459Y-132701056D01*
X153064129Y-132752888D01*
X153217265Y-132864148D01*
X153217270Y-132864151D01*
X153390192Y-132941142D01*
X153390197Y-132941144D01*
X153575354Y-132980500D01*
X153575355Y-132980500D01*
X153764644Y-132980500D01*
X153764646Y-132980500D01*
X153949803Y-132941144D01*
X154122730Y-132864151D01*
X154275871Y-132752888D01*
X154402533Y-132612216D01*
X154497179Y-132448284D01*
X154555674Y-132268256D01*
X154575460Y-132080000D01*
X154555674Y-131891744D01*
X154497179Y-131711716D01*
X154402533Y-131547784D01*
X154275871Y-131407112D01*
X154275870Y-131407111D01*
X154122734Y-131295851D01*
X154122729Y-131295848D01*
X153949807Y-131218857D01*
X153949802Y-131218855D01*
X153804001Y-131187865D01*
X153764646Y-131179500D01*
X153575354Y-131179500D01*
X153542897Y-131186398D01*
X153390197Y-131218855D01*
X153390192Y-131218857D01*
X153217270Y-131295848D01*
X153217265Y-131295851D01*
X153064129Y-131407111D01*
X152937466Y-131547785D01*
X152842821Y-131711715D01*
X152842818Y-131711722D01*
X152809819Y-131813284D01*
X152784326Y-131891744D01*
X152764540Y-132080000D01*
X151146460Y-132080000D01*
X151126674Y-131891744D01*
X151068179Y-131711716D01*
X150973533Y-131547784D01*
X150846871Y-131407112D01*
X150846870Y-131407111D01*
X150693734Y-131295851D01*
X150693729Y-131295848D01*
X150520807Y-131218857D01*
X150520802Y-131218855D01*
X150375000Y-131187865D01*
X150335646Y-131179500D01*
X150146354Y-131179500D01*
X150113897Y-131186398D01*
X149961197Y-131218855D01*
X149961192Y-131218857D01*
X149788270Y-131295848D01*
X149788265Y-131295851D01*
X149635129Y-131407111D01*
X149630300Y-131411460D01*
X149628994Y-131410009D01*
X149577409Y-131441773D01*
X149507552Y-131440425D01*
X149449514Y-131401525D01*
X149426844Y-131360461D01*
X149417182Y-131330724D01*
X149417180Y-131330720D01*
X149417179Y-131330716D01*
X149322533Y-131166784D01*
X149195871Y-131026112D01*
X149195870Y-131026111D01*
X149042734Y-130914851D01*
X149042729Y-130914848D01*
X148869807Y-130837857D01*
X148869802Y-130837855D01*
X148724001Y-130806865D01*
X148684646Y-130798500D01*
X148495354Y-130798500D01*
X148462897Y-130805398D01*
X148310197Y-130837855D01*
X148310192Y-130837857D01*
X148137270Y-130914848D01*
X148137265Y-130914851D01*
X147984129Y-131026111D01*
X147857466Y-131166785D01*
X147762821Y-131330715D01*
X147762818Y-131330722D01*
X147704327Y-131510740D01*
X147704326Y-131510744D01*
X147684540Y-131699000D01*
X144374312Y-131699000D01*
X144337179Y-131584716D01*
X144242533Y-131420784D01*
X144115871Y-131280112D01*
X144083708Y-131256744D01*
X143962734Y-131168851D01*
X143962729Y-131168848D01*
X143789807Y-131091857D01*
X143789802Y-131091855D01*
X143644000Y-131060865D01*
X143604646Y-131052500D01*
X143415354Y-131052500D01*
X143382897Y-131059398D01*
X143230197Y-131091855D01*
X143230191Y-131091857D01*
X143209461Y-131101087D01*
X143140211Y-131110370D01*
X143076935Y-131080740D01*
X143051642Y-131049805D01*
X142972536Y-130912788D01*
X142972534Y-130912785D01*
X142905066Y-130837855D01*
X142845871Y-130772112D01*
X142845870Y-130772111D01*
X142692734Y-130660851D01*
X142692729Y-130660848D01*
X142519807Y-130583857D01*
X142519802Y-130583855D01*
X142374001Y-130552865D01*
X142334646Y-130544500D01*
X142145354Y-130544500D01*
X142112897Y-130551398D01*
X141960197Y-130583855D01*
X141960192Y-130583857D01*
X141787270Y-130660848D01*
X141787265Y-130660851D01*
X141634129Y-130772111D01*
X141507466Y-130912785D01*
X141412821Y-131076715D01*
X141412818Y-131076722D01*
X141366636Y-131218857D01*
X141354326Y-131256744D01*
X141334540Y-131445000D01*
X125730500Y-131445000D01*
X125730500Y-128850000D01*
X128184341Y-128850000D01*
X128204936Y-129085403D01*
X128204938Y-129085413D01*
X128266094Y-129313655D01*
X128266096Y-129313659D01*
X128266097Y-129313663D01*
X128352998Y-129500023D01*
X128365965Y-129527830D01*
X128365967Y-129527834D01*
X128472316Y-129679715D01*
X128501505Y-129721401D01*
X128668599Y-129888495D01*
X128765384Y-129956264D01*
X128862165Y-130024032D01*
X128862167Y-130024033D01*
X128862170Y-130024035D01*
X129076337Y-130123903D01*
X129304592Y-130185063D01*
X129476016Y-130200061D01*
X129539999Y-130205659D01*
X129540000Y-130205659D01*
X129540001Y-130205659D01*
X129579234Y-130202226D01*
X129775408Y-130185063D01*
X130003663Y-130123903D01*
X130217830Y-130024035D01*
X130411401Y-129888495D01*
X130578495Y-129721401D01*
X130714035Y-129527830D01*
X130813903Y-129313663D01*
X130875063Y-129085408D01*
X130894347Y-128865000D01*
X135799341Y-128865000D01*
X135819936Y-129100403D01*
X135819938Y-129100413D01*
X135881094Y-129328655D01*
X135881096Y-129328659D01*
X135881097Y-129328663D01*
X135902757Y-129375112D01*
X135980965Y-129542830D01*
X135980967Y-129542834D01*
X136076813Y-129679715D01*
X136116505Y-129736401D01*
X136283599Y-129903495D01*
X136380384Y-129971264D01*
X136477165Y-130039032D01*
X136477167Y-130039033D01*
X136477170Y-130039035D01*
X136691337Y-130138903D01*
X136919592Y-130200063D01*
X137107918Y-130216539D01*
X137154999Y-130220659D01*
X137155000Y-130220659D01*
X137155001Y-130220659D01*
X137194234Y-130217226D01*
X137390408Y-130200063D01*
X137618663Y-130138903D01*
X137832830Y-130039035D01*
X138026401Y-129903495D01*
X138193495Y-129736401D01*
X138323424Y-129550842D01*
X138378002Y-129507217D01*
X138447500Y-129500023D01*
X138509855Y-129531546D01*
X138526575Y-129550842D01*
X138656500Y-129736395D01*
X138656505Y-129736401D01*
X138823599Y-129903495D01*
X138920384Y-129971264D01*
X139017165Y-130039032D01*
X139017167Y-130039033D01*
X139017170Y-130039035D01*
X139231337Y-130138903D01*
X139459592Y-130200063D01*
X139647918Y-130216539D01*
X139694999Y-130220659D01*
X139695000Y-130220659D01*
X139695001Y-130220659D01*
X139734234Y-130217226D01*
X139930408Y-130200063D01*
X140158663Y-130138903D01*
X140372830Y-130039035D01*
X140566401Y-129903495D01*
X140680195Y-129789701D01*
X154030241Y-129789701D01*
X154050027Y-129977957D01*
X154050028Y-129977960D01*
X154108519Y-130157978D01*
X154108522Y-130157985D01*
X154203168Y-130321917D01*
X154288137Y-130416284D01*
X154329830Y-130462589D01*
X154482966Y-130573849D01*
X154482971Y-130573852D01*
X154655893Y-130650843D01*
X154655898Y-130650845D01*
X154841055Y-130690201D01*
X154841056Y-130690201D01*
X155030345Y-130690201D01*
X155030347Y-130690201D01*
X155215504Y-130650845D01*
X155388431Y-130573852D01*
X155541572Y-130462589D01*
X155668234Y-130321917D01*
X155762880Y-130157985D01*
X155798617Y-130048000D01*
X157120040Y-130048000D01*
X157139826Y-130236256D01*
X157139827Y-130236259D01*
X157198318Y-130416277D01*
X157198321Y-130416284D01*
X157292967Y-130580216D01*
X157391998Y-130690201D01*
X157419629Y-130720888D01*
X157572765Y-130832148D01*
X157572770Y-130832151D01*
X157745692Y-130909142D01*
X157745697Y-130909144D01*
X157930854Y-130948500D01*
X157930855Y-130948500D01*
X158120144Y-130948500D01*
X158120146Y-130948500D01*
X158305303Y-130909144D01*
X158478230Y-130832151D01*
X158631371Y-130720888D01*
X158758033Y-130580216D01*
X158852679Y-130416284D01*
X158911174Y-130236256D01*
X158930960Y-130048000D01*
X158911174Y-129859744D01*
X158852679Y-129679716D01*
X158758033Y-129515784D01*
X158631371Y-129375112D01*
X158631370Y-129375111D01*
X158478234Y-129263851D01*
X158478229Y-129263848D01*
X158305307Y-129186857D01*
X158305302Y-129186855D01*
X158159500Y-129155865D01*
X158120146Y-129147500D01*
X157930854Y-129147500D01*
X157898397Y-129154398D01*
X157745697Y-129186855D01*
X157745692Y-129186857D01*
X157572770Y-129263848D01*
X157572765Y-129263851D01*
X157419629Y-129375111D01*
X157292966Y-129515785D01*
X157198321Y-129679715D01*
X157198318Y-129679722D01*
X157162584Y-129789701D01*
X157139826Y-129859744D01*
X157120040Y-130048000D01*
X155798617Y-130048000D01*
X155821375Y-129977957D01*
X155841161Y-129789701D01*
X155821375Y-129601445D01*
X155762880Y-129421417D01*
X155668234Y-129257485D01*
X155541572Y-129116813D01*
X155541571Y-129116812D01*
X155388435Y-129005552D01*
X155388430Y-129005549D01*
X155215508Y-128928558D01*
X155215503Y-128928556D01*
X155069701Y-128897566D01*
X155030347Y-128889201D01*
X154841055Y-128889201D01*
X154808598Y-128896099D01*
X154655898Y-128928556D01*
X154655893Y-128928558D01*
X154482971Y-129005549D01*
X154482966Y-129005552D01*
X154329830Y-129116812D01*
X154203167Y-129257486D01*
X154108522Y-129421416D01*
X154108519Y-129421423D01*
X154066469Y-129550842D01*
X154050027Y-129601445D01*
X154030241Y-129789701D01*
X140680195Y-129789701D01*
X140733495Y-129736401D01*
X140869035Y-129542830D01*
X140968903Y-129328663D01*
X141030063Y-129100408D01*
X141050659Y-128865000D01*
X141049347Y-128850000D01*
X159934341Y-128850000D01*
X159954936Y-129085403D01*
X159954938Y-129085413D01*
X160016094Y-129313655D01*
X160016096Y-129313659D01*
X160016097Y-129313663D01*
X160102998Y-129500023D01*
X160115965Y-129527830D01*
X160115967Y-129527834D01*
X160222316Y-129679715D01*
X160251505Y-129721401D01*
X160418599Y-129888495D01*
X160515384Y-129956265D01*
X160612165Y-130024032D01*
X160612167Y-130024033D01*
X160612170Y-130024035D01*
X160826337Y-130123903D01*
X161054592Y-130185063D01*
X161226016Y-130200061D01*
X161289999Y-130205659D01*
X161290000Y-130205659D01*
X161290001Y-130205659D01*
X161329234Y-130202226D01*
X161525408Y-130185063D01*
X161753663Y-130123903D01*
X161967830Y-130024035D01*
X162161401Y-129888495D01*
X162328495Y-129721401D01*
X162464035Y-129527830D01*
X162563903Y-129313663D01*
X162625063Y-129085408D01*
X162645659Y-128850000D01*
X162625063Y-128614592D01*
X162567922Y-128401335D01*
X162563905Y-128386344D01*
X162563904Y-128386343D01*
X162563903Y-128386337D01*
X162464035Y-128172171D01*
X162328495Y-127978599D01*
X162328494Y-127978597D01*
X162161402Y-127811506D01*
X162161396Y-127811501D01*
X161975842Y-127681575D01*
X161932217Y-127626998D01*
X161925023Y-127557500D01*
X161956546Y-127495145D01*
X161975842Y-127478425D01*
X161998026Y-127462891D01*
X162161401Y-127348495D01*
X162328495Y-127181401D01*
X162464035Y-126987830D01*
X162563903Y-126773663D01*
X162625063Y-126545408D01*
X162645659Y-126310000D01*
X162625063Y-126074592D01*
X162578588Y-125901142D01*
X162563905Y-125846344D01*
X162563904Y-125846343D01*
X162563903Y-125846337D01*
X162464035Y-125632171D01*
X162422055Y-125572216D01*
X162328494Y-125438597D01*
X162161402Y-125271506D01*
X162161396Y-125271501D01*
X161975842Y-125141575D01*
X161932217Y-125086998D01*
X161925023Y-125017500D01*
X161956546Y-124955145D01*
X161975842Y-124938425D01*
X162099635Y-124851744D01*
X162161401Y-124808495D01*
X162328495Y-124641401D01*
X162464035Y-124447830D01*
X162563903Y-124233663D01*
X162625063Y-124005408D01*
X162645659Y-123770000D01*
X162625063Y-123534592D01*
X162563903Y-123306337D01*
X162464035Y-123092171D01*
X162463115Y-123090856D01*
X162328494Y-122898597D01*
X162161402Y-122731506D01*
X162161396Y-122731501D01*
X161975842Y-122601575D01*
X161932217Y-122546998D01*
X161925023Y-122477500D01*
X161956546Y-122415145D01*
X161975842Y-122398425D01*
X162075195Y-122328857D01*
X162161401Y-122268495D01*
X162328495Y-122101401D01*
X162464035Y-121907830D01*
X162563903Y-121693663D01*
X162625063Y-121465408D01*
X162645659Y-121230000D01*
X162625063Y-120994592D01*
X162563903Y-120766337D01*
X162464035Y-120552171D01*
X162389590Y-120445851D01*
X162328494Y-120358597D01*
X162161402Y-120191506D01*
X162161396Y-120191501D01*
X161975842Y-120061575D01*
X161932217Y-120006998D01*
X161925023Y-119937500D01*
X161956546Y-119875145D01*
X161975842Y-119858425D01*
X161998026Y-119842891D01*
X162161401Y-119728495D01*
X162328495Y-119561401D01*
X162464035Y-119367830D01*
X162563903Y-119153663D01*
X162625063Y-118925408D01*
X162645659Y-118690000D01*
X162625063Y-118454592D01*
X162563903Y-118226337D01*
X162464035Y-118012171D01*
X162461676Y-118008801D01*
X162328494Y-117818597D01*
X162161402Y-117651506D01*
X162161396Y-117651501D01*
X161975842Y-117521575D01*
X161932217Y-117466998D01*
X161925023Y-117397500D01*
X161956546Y-117335145D01*
X161975842Y-117318425D01*
X161998026Y-117302891D01*
X162161401Y-117188495D01*
X162328495Y-117021401D01*
X162464035Y-116827830D01*
X162563903Y-116613663D01*
X162625063Y-116385408D01*
X162645659Y-116150000D01*
X162625063Y-115914592D01*
X162563903Y-115686337D01*
X162464035Y-115472171D01*
X162389590Y-115365851D01*
X162328494Y-115278597D01*
X162161402Y-115111506D01*
X162161396Y-115111501D01*
X161975842Y-114981575D01*
X161932217Y-114926998D01*
X161925023Y-114857500D01*
X161956546Y-114795145D01*
X161975842Y-114778425D01*
X162133149Y-114668277D01*
X162161401Y-114648495D01*
X162328495Y-114481401D01*
X162464035Y-114287830D01*
X162563903Y-114073663D01*
X162625063Y-113845408D01*
X162645659Y-113610000D01*
X162625063Y-113374592D01*
X162563903Y-113146337D01*
X162464035Y-112932171D01*
X162433892Y-112889121D01*
X162328494Y-112738597D01*
X162161402Y-112571506D01*
X162161396Y-112571501D01*
X161975842Y-112441575D01*
X161932217Y-112386998D01*
X161925023Y-112317500D01*
X161956546Y-112255145D01*
X161975842Y-112238425D01*
X162075195Y-112168857D01*
X162161401Y-112108495D01*
X162328495Y-111941401D01*
X162464035Y-111747830D01*
X162563903Y-111533663D01*
X162625063Y-111305408D01*
X162645659Y-111070000D01*
X162625063Y-110834592D01*
X162563903Y-110606337D01*
X162464035Y-110392171D01*
X162452827Y-110376163D01*
X162328494Y-110198597D01*
X162161402Y-110031506D01*
X162161396Y-110031501D01*
X161975842Y-109901575D01*
X161932217Y-109846998D01*
X161925023Y-109777500D01*
X161956546Y-109715145D01*
X161975842Y-109698425D01*
X162099635Y-109611744D01*
X162161401Y-109568495D01*
X162328495Y-109401401D01*
X162464035Y-109207830D01*
X162563903Y-108993663D01*
X162625063Y-108765408D01*
X162645659Y-108530000D01*
X162625063Y-108294592D01*
X162563903Y-108066337D01*
X162464035Y-107852171D01*
X162422055Y-107792216D01*
X162328494Y-107658597D01*
X162161402Y-107491506D01*
X162161396Y-107491501D01*
X161975842Y-107361575D01*
X161932217Y-107306998D01*
X161925023Y-107237500D01*
X161956546Y-107175145D01*
X161975842Y-107158425D01*
X162099635Y-107071744D01*
X162161401Y-107028495D01*
X162328495Y-106861401D01*
X162464035Y-106667830D01*
X162563903Y-106453663D01*
X162625063Y-106225408D01*
X162645659Y-105990000D01*
X162625063Y-105754592D01*
X162563903Y-105526337D01*
X162464035Y-105312171D01*
X162461676Y-105308801D01*
X162328494Y-105118597D01*
X162161402Y-104951506D01*
X162161396Y-104951501D01*
X161975842Y-104821575D01*
X161932217Y-104766998D01*
X161925023Y-104697500D01*
X161956546Y-104635145D01*
X161975842Y-104618425D01*
X162075195Y-104548857D01*
X162161401Y-104488495D01*
X162328495Y-104321401D01*
X162464035Y-104127830D01*
X162563903Y-103913663D01*
X162625063Y-103685408D01*
X162645659Y-103450000D01*
X162625063Y-103214592D01*
X162563903Y-102986337D01*
X162464035Y-102772171D01*
X162461676Y-102768801D01*
X162328494Y-102578597D01*
X162161402Y-102411506D01*
X162161396Y-102411501D01*
X161975842Y-102281575D01*
X161932217Y-102226998D01*
X161925023Y-102157500D01*
X161956546Y-102095145D01*
X161975842Y-102078425D01*
X162075195Y-102008857D01*
X162161401Y-101948495D01*
X162328495Y-101781401D01*
X162464035Y-101587830D01*
X162563903Y-101373663D01*
X162625063Y-101145408D01*
X162645659Y-100910000D01*
X162625063Y-100674592D01*
X162563903Y-100446337D01*
X162464035Y-100232171D01*
X162389590Y-100125851D01*
X162328494Y-100038597D01*
X162161402Y-99871506D01*
X162161396Y-99871501D01*
X161975842Y-99741575D01*
X161932217Y-99686998D01*
X161925023Y-99617500D01*
X161956546Y-99555145D01*
X161975842Y-99538425D01*
X162075195Y-99468857D01*
X162161401Y-99408495D01*
X162328495Y-99241401D01*
X162464035Y-99047830D01*
X162563903Y-98833663D01*
X162625063Y-98605408D01*
X162645659Y-98370000D01*
X162625063Y-98134592D01*
X162563903Y-97906337D01*
X162464035Y-97692171D01*
X162328495Y-97498599D01*
X162328494Y-97498597D01*
X162161402Y-97331506D01*
X162161396Y-97331501D01*
X161975842Y-97201575D01*
X161932217Y-97146998D01*
X161925023Y-97077500D01*
X161956546Y-97015145D01*
X161975842Y-96998425D01*
X162075195Y-96928857D01*
X162161401Y-96868495D01*
X162328495Y-96701401D01*
X162464035Y-96507830D01*
X162563903Y-96293663D01*
X162625063Y-96065408D01*
X162645659Y-95830000D01*
X162625063Y-95594592D01*
X162563903Y-95366337D01*
X162464035Y-95152171D01*
X162400717Y-95061742D01*
X162328494Y-94958597D01*
X162161402Y-94791506D01*
X162161396Y-94791501D01*
X161975842Y-94661575D01*
X161932217Y-94606998D01*
X161925023Y-94537500D01*
X161956546Y-94475145D01*
X161975842Y-94458425D01*
X162075195Y-94388857D01*
X162161401Y-94328495D01*
X162328495Y-94161401D01*
X162464035Y-93967830D01*
X162563903Y-93753663D01*
X162625063Y-93525408D01*
X162645659Y-93290000D01*
X162625063Y-93054592D01*
X162563903Y-92826337D01*
X162464035Y-92612171D01*
X162328495Y-92418599D01*
X162328494Y-92418597D01*
X162161402Y-92251506D01*
X162161396Y-92251501D01*
X161975842Y-92121575D01*
X161932217Y-92066998D01*
X161925023Y-91997500D01*
X161956546Y-91935145D01*
X161975842Y-91918425D01*
X162075195Y-91848857D01*
X162161401Y-91788495D01*
X162328495Y-91621401D01*
X162464035Y-91427830D01*
X162563903Y-91213663D01*
X162625063Y-90985408D01*
X162645659Y-90750000D01*
X162625063Y-90514592D01*
X162563903Y-90286337D01*
X162464035Y-90072171D01*
X162350008Y-89909322D01*
X162328494Y-89878597D01*
X162161402Y-89711506D01*
X162161396Y-89711501D01*
X161975842Y-89581575D01*
X161932217Y-89526998D01*
X161925023Y-89457500D01*
X161956546Y-89395145D01*
X161975842Y-89378425D01*
X161998026Y-89362891D01*
X162161401Y-89248495D01*
X162328495Y-89081401D01*
X162464035Y-88887830D01*
X162563903Y-88673663D01*
X162625063Y-88445408D01*
X162645659Y-88210000D01*
X162625063Y-87974592D01*
X162563903Y-87746337D01*
X162464035Y-87532171D01*
X162422055Y-87472216D01*
X162328494Y-87338597D01*
X162161402Y-87171506D01*
X162161396Y-87171501D01*
X161975842Y-87041575D01*
X161932217Y-86986998D01*
X161925023Y-86917500D01*
X161956546Y-86855145D01*
X161975842Y-86838425D01*
X162099635Y-86751744D01*
X162161401Y-86708495D01*
X162328495Y-86541401D01*
X162464035Y-86347830D01*
X162563903Y-86133663D01*
X162625063Y-85905408D01*
X162645659Y-85670000D01*
X162625063Y-85434592D01*
X162563903Y-85206337D01*
X162464035Y-84992171D01*
X162422055Y-84932216D01*
X162328494Y-84798597D01*
X162161402Y-84631506D01*
X162161396Y-84631501D01*
X161975842Y-84501575D01*
X161932217Y-84446998D01*
X161925023Y-84377500D01*
X161956546Y-84315145D01*
X161975842Y-84298425D01*
X162099635Y-84211744D01*
X162161401Y-84168495D01*
X162328495Y-84001401D01*
X162464035Y-83807830D01*
X162563903Y-83593663D01*
X162625063Y-83365408D01*
X162645659Y-83130000D01*
X162625063Y-82894592D01*
X162563903Y-82666337D01*
X162464035Y-82452171D01*
X162422054Y-82392216D01*
X162328496Y-82258600D01*
X162298173Y-82228277D01*
X162206179Y-82136283D01*
X162172696Y-82074963D01*
X162177680Y-82005271D01*
X162219551Y-81949337D01*
X162250529Y-81932422D01*
X162382086Y-81883354D01*
X162382093Y-81883350D01*
X162497187Y-81797190D01*
X162497190Y-81797187D01*
X162583350Y-81682093D01*
X162583354Y-81682086D01*
X162633596Y-81547379D01*
X162633598Y-81547372D01*
X162639999Y-81487844D01*
X162640000Y-81487827D01*
X162640000Y-80840000D01*
X161903347Y-80840000D01*
X161836308Y-80820315D01*
X161790553Y-80767511D01*
X161780609Y-80698353D01*
X161784369Y-80681067D01*
X161790000Y-80661888D01*
X161790000Y-80518111D01*
X161784369Y-80498933D01*
X161784370Y-80429064D01*
X161822145Y-80370286D01*
X161885701Y-80341262D01*
X161903347Y-80340000D01*
X162640000Y-80340000D01*
X162640000Y-79692172D01*
X162639999Y-79692155D01*
X162633598Y-79632627D01*
X162633596Y-79632620D01*
X162583354Y-79497913D01*
X162583350Y-79497906D01*
X162497190Y-79382812D01*
X162497187Y-79382809D01*
X162382093Y-79296649D01*
X162382086Y-79296645D01*
X162247379Y-79246403D01*
X162247372Y-79246401D01*
X162187844Y-79240000D01*
X161540000Y-79240000D01*
X161540000Y-79977698D01*
X161520315Y-80044737D01*
X161467511Y-80090492D01*
X161398355Y-80100436D01*
X161325766Y-80090000D01*
X161325763Y-80090000D01*
X161254237Y-80090000D01*
X161254233Y-80090000D01*
X161181645Y-80100436D01*
X161112487Y-80090492D01*
X161059684Y-80044736D01*
X161040000Y-79977698D01*
X161040000Y-79240000D01*
X160392155Y-79240000D01*
X160332627Y-79246401D01*
X160332620Y-79246403D01*
X160197913Y-79296645D01*
X160197906Y-79296649D01*
X160082812Y-79382809D01*
X160082809Y-79382812D01*
X159996649Y-79497906D01*
X159996645Y-79497913D01*
X159946403Y-79632620D01*
X159946401Y-79632627D01*
X159940000Y-79692155D01*
X159940000Y-80340000D01*
X160676653Y-80340000D01*
X160743692Y-80359685D01*
X160789447Y-80412489D01*
X160799391Y-80481647D01*
X160795631Y-80498933D01*
X160790000Y-80518111D01*
X160790000Y-80661888D01*
X160795631Y-80681067D01*
X160795630Y-80750936D01*
X160757855Y-80809714D01*
X160694299Y-80838738D01*
X160676653Y-80840000D01*
X159940000Y-80840000D01*
X159940000Y-81487844D01*
X159946401Y-81547372D01*
X159946403Y-81547379D01*
X159996645Y-81682086D01*
X159996649Y-81682093D01*
X160082809Y-81797187D01*
X160082812Y-81797190D01*
X160197906Y-81883350D01*
X160197913Y-81883354D01*
X160329470Y-81932421D01*
X160385403Y-81974292D01*
X160409821Y-82039756D01*
X160394970Y-82108029D01*
X160373819Y-82136284D01*
X160251503Y-82258600D01*
X160115965Y-82452169D01*
X160115964Y-82452171D01*
X160016098Y-82666335D01*
X160016094Y-82666344D01*
X159954938Y-82894586D01*
X159954936Y-82894596D01*
X159934341Y-83129999D01*
X159934341Y-83130000D01*
X159954936Y-83365403D01*
X159954938Y-83365413D01*
X160016094Y-83593655D01*
X160016096Y-83593659D01*
X160016097Y-83593663D01*
X160115964Y-83807830D01*
X160115965Y-83807830D01*
X160115967Y-83807834D01*
X160251501Y-84001395D01*
X160251506Y-84001402D01*
X160418597Y-84168493D01*
X160418603Y-84168498D01*
X160604158Y-84298425D01*
X160647783Y-84353002D01*
X160654977Y-84422500D01*
X160623454Y-84484855D01*
X160604158Y-84501575D01*
X160418597Y-84631505D01*
X160251505Y-84798597D01*
X160115965Y-84992169D01*
X160115964Y-84992171D01*
X160016098Y-85206335D01*
X160016094Y-85206344D01*
X159954938Y-85434586D01*
X159954936Y-85434596D01*
X159934341Y-85669999D01*
X159934341Y-85670000D01*
X159954936Y-85905403D01*
X159954938Y-85905413D01*
X160016094Y-86133655D01*
X160016096Y-86133659D01*
X160016097Y-86133663D01*
X160113661Y-86342888D01*
X160115965Y-86347830D01*
X160115967Y-86347834D01*
X160251501Y-86541395D01*
X160251506Y-86541402D01*
X160418597Y-86708493D01*
X160418603Y-86708498D01*
X160604158Y-86838425D01*
X160647783Y-86893002D01*
X160654977Y-86962500D01*
X160623454Y-87024855D01*
X160604158Y-87041575D01*
X160418597Y-87171505D01*
X160251505Y-87338597D01*
X160115965Y-87532169D01*
X160115964Y-87532171D01*
X160016098Y-87746335D01*
X160016094Y-87746344D01*
X159954938Y-87974586D01*
X159954936Y-87974596D01*
X159934341Y-88209999D01*
X159934341Y-88210000D01*
X159954936Y-88445403D01*
X159954938Y-88445413D01*
X160016094Y-88673655D01*
X160016096Y-88673659D01*
X160016097Y-88673663D01*
X160099426Y-88852362D01*
X160115965Y-88887830D01*
X160115967Y-88887834D01*
X160251501Y-89081395D01*
X160251506Y-89081402D01*
X160418597Y-89248493D01*
X160418603Y-89248498D01*
X160604158Y-89378425D01*
X160647783Y-89433002D01*
X160654977Y-89502500D01*
X160623454Y-89564855D01*
X160604158Y-89581575D01*
X160418597Y-89711505D01*
X160251505Y-89878597D01*
X160115965Y-90072169D01*
X160115964Y-90072171D01*
X160016098Y-90286335D01*
X160016094Y-90286344D01*
X159954938Y-90514586D01*
X159954936Y-90514596D01*
X159934341Y-90749999D01*
X159934341Y-90750000D01*
X159954936Y-90985403D01*
X159954938Y-90985413D01*
X160016094Y-91213655D01*
X160016096Y-91213659D01*
X160016097Y-91213663D01*
X160033853Y-91251740D01*
X160115965Y-91427830D01*
X160115967Y-91427834D01*
X160251501Y-91621395D01*
X160251506Y-91621402D01*
X160418597Y-91788493D01*
X160418603Y-91788498D01*
X160604158Y-91918425D01*
X160647783Y-91973002D01*
X160654977Y-92042500D01*
X160623454Y-92104855D01*
X160604158Y-92121575D01*
X160418597Y-92251505D01*
X160251505Y-92418597D01*
X160115965Y-92612169D01*
X160115964Y-92612171D01*
X160016098Y-92826335D01*
X160016094Y-92826344D01*
X159954938Y-93054586D01*
X159954936Y-93054596D01*
X159934341Y-93289999D01*
X159934341Y-93290000D01*
X159954936Y-93525403D01*
X159954938Y-93525413D01*
X160016094Y-93753655D01*
X160016096Y-93753659D01*
X160016097Y-93753663D01*
X160033853Y-93791740D01*
X160115965Y-93967830D01*
X160115967Y-93967834D01*
X160251501Y-94161395D01*
X160251506Y-94161402D01*
X160418597Y-94328493D01*
X160418603Y-94328498D01*
X160604158Y-94458425D01*
X160647783Y-94513002D01*
X160654977Y-94582500D01*
X160623454Y-94644855D01*
X160604158Y-94661575D01*
X160418597Y-94791505D01*
X160251505Y-94958597D01*
X160115965Y-95152169D01*
X160115964Y-95152171D01*
X160016098Y-95366335D01*
X160016094Y-95366344D01*
X159954938Y-95594586D01*
X159954936Y-95594596D01*
X159934341Y-95829999D01*
X159934341Y-95830000D01*
X159954936Y-96065403D01*
X159954938Y-96065413D01*
X160016094Y-96293655D01*
X160016096Y-96293659D01*
X160016097Y-96293663D01*
X160033853Y-96331740D01*
X160115965Y-96507830D01*
X160115967Y-96507834D01*
X160251501Y-96701395D01*
X160251506Y-96701402D01*
X160418597Y-96868493D01*
X160418603Y-96868498D01*
X160604158Y-96998425D01*
X160647783Y-97053002D01*
X160654977Y-97122500D01*
X160623454Y-97184855D01*
X160604158Y-97201575D01*
X160418597Y-97331505D01*
X160251505Y-97498597D01*
X160115965Y-97692169D01*
X160115964Y-97692171D01*
X160016098Y-97906335D01*
X160016094Y-97906344D01*
X159954938Y-98134586D01*
X159954936Y-98134596D01*
X159934341Y-98369999D01*
X159934341Y-98370000D01*
X159954936Y-98605403D01*
X159954938Y-98605413D01*
X160016094Y-98833655D01*
X160016096Y-98833659D01*
X160016097Y-98833663D01*
X160027352Y-98857799D01*
X160115965Y-99047830D01*
X160115967Y-99047834D01*
X160251501Y-99241395D01*
X160251506Y-99241402D01*
X160418597Y-99408493D01*
X160418603Y-99408498D01*
X160604158Y-99538425D01*
X160647783Y-99593002D01*
X160654977Y-99662500D01*
X160623454Y-99724855D01*
X160604158Y-99741575D01*
X160418597Y-99871505D01*
X160251505Y-100038597D01*
X160115965Y-100232169D01*
X160115964Y-100232171D01*
X160016098Y-100446335D01*
X160016094Y-100446344D01*
X159954938Y-100674586D01*
X159954936Y-100674596D01*
X159934341Y-100909999D01*
X159934341Y-100910000D01*
X159954936Y-101145403D01*
X159954938Y-101145413D01*
X160016094Y-101373655D01*
X160016096Y-101373659D01*
X160016097Y-101373663D01*
X160113661Y-101582888D01*
X160115965Y-101587830D01*
X160115967Y-101587834D01*
X160251501Y-101781395D01*
X160251506Y-101781402D01*
X160418597Y-101948493D01*
X160418603Y-101948498D01*
X160604158Y-102078425D01*
X160647783Y-102133002D01*
X160654977Y-102202500D01*
X160623454Y-102264855D01*
X160604158Y-102281575D01*
X160418597Y-102411505D01*
X160251505Y-102578597D01*
X160115965Y-102772169D01*
X160115964Y-102772171D01*
X160016098Y-102986335D01*
X160016094Y-102986344D01*
X159954938Y-103214586D01*
X159954936Y-103214596D01*
X159934341Y-103449999D01*
X159934341Y-103450000D01*
X159954936Y-103685403D01*
X159954938Y-103685413D01*
X160016094Y-103913655D01*
X160016096Y-103913659D01*
X160016097Y-103913663D01*
X160048063Y-103982214D01*
X160115965Y-104127830D01*
X160115967Y-104127834D01*
X160251501Y-104321395D01*
X160251506Y-104321402D01*
X160418597Y-104488493D01*
X160418603Y-104488498D01*
X160604158Y-104618425D01*
X160647783Y-104673002D01*
X160654977Y-104742500D01*
X160623454Y-104804855D01*
X160604158Y-104821575D01*
X160418597Y-104951505D01*
X160251505Y-105118597D01*
X160115965Y-105312169D01*
X160115964Y-105312171D01*
X160016098Y-105526335D01*
X160016094Y-105526344D01*
X159954938Y-105754586D01*
X159954936Y-105754596D01*
X159934341Y-105989999D01*
X159934341Y-105990000D01*
X159954936Y-106225403D01*
X159954938Y-106225413D01*
X160016094Y-106453655D01*
X160016096Y-106453659D01*
X160016097Y-106453663D01*
X160098575Y-106630537D01*
X160115965Y-106667830D01*
X160115967Y-106667834D01*
X160251501Y-106861395D01*
X160251506Y-106861402D01*
X160418597Y-107028493D01*
X160418603Y-107028498D01*
X160604158Y-107158425D01*
X160647783Y-107213002D01*
X160654977Y-107282500D01*
X160623454Y-107344855D01*
X160604158Y-107361575D01*
X160418597Y-107491505D01*
X160251505Y-107658597D01*
X160115965Y-107852169D01*
X160115964Y-107852171D01*
X160016098Y-108066335D01*
X160016094Y-108066344D01*
X159954938Y-108294586D01*
X159954936Y-108294596D01*
X159934341Y-108529999D01*
X159934341Y-108530000D01*
X159954936Y-108765403D01*
X159954938Y-108765413D01*
X160016094Y-108993655D01*
X160016096Y-108993659D01*
X160016097Y-108993663D01*
X160115965Y-109207829D01*
X160115965Y-109207830D01*
X160115967Y-109207834D01*
X160251501Y-109401395D01*
X160251506Y-109401402D01*
X160418597Y-109568493D01*
X160418603Y-109568498D01*
X160604158Y-109698425D01*
X160647783Y-109753002D01*
X160654977Y-109822500D01*
X160623454Y-109884855D01*
X160604158Y-109901575D01*
X160418597Y-110031505D01*
X160251505Y-110198597D01*
X160115965Y-110392169D01*
X160115964Y-110392171D01*
X160016098Y-110606335D01*
X160016094Y-110606344D01*
X159954938Y-110834586D01*
X159954936Y-110834596D01*
X159934341Y-111069999D01*
X159934341Y-111070000D01*
X159954936Y-111305403D01*
X159954938Y-111305413D01*
X160016094Y-111533655D01*
X160016096Y-111533659D01*
X160016097Y-111533663D01*
X160113661Y-111742888D01*
X160115965Y-111747830D01*
X160115967Y-111747834D01*
X160251501Y-111941395D01*
X160251506Y-111941402D01*
X160418597Y-112108493D01*
X160418603Y-112108498D01*
X160604158Y-112238425D01*
X160647783Y-112293002D01*
X160654977Y-112362500D01*
X160623454Y-112424855D01*
X160604158Y-112441575D01*
X160418597Y-112571505D01*
X160251505Y-112738597D01*
X160115965Y-112932169D01*
X160115964Y-112932171D01*
X160016098Y-113146335D01*
X160016094Y-113146344D01*
X159954938Y-113374586D01*
X159954936Y-113374596D01*
X159934341Y-113609999D01*
X159934341Y-113610000D01*
X159954936Y-113845403D01*
X159954938Y-113845413D01*
X160016094Y-114073655D01*
X160016096Y-114073659D01*
X160016097Y-114073663D01*
X160033853Y-114111740D01*
X160115965Y-114287830D01*
X160115967Y-114287834D01*
X160251501Y-114481395D01*
X160251506Y-114481402D01*
X160418597Y-114648493D01*
X160418603Y-114648498D01*
X160604158Y-114778425D01*
X160647783Y-114833002D01*
X160654977Y-114902500D01*
X160623454Y-114964855D01*
X160604158Y-114981575D01*
X160418597Y-115111505D01*
X160251505Y-115278597D01*
X160115965Y-115472169D01*
X160115964Y-115472171D01*
X160016098Y-115686335D01*
X160016094Y-115686344D01*
X159954938Y-115914586D01*
X159954936Y-115914596D01*
X159934341Y-116149999D01*
X159934341Y-116150000D01*
X159954936Y-116385403D01*
X159954938Y-116385413D01*
X160016094Y-116613655D01*
X160016096Y-116613659D01*
X160016097Y-116613663D01*
X160048063Y-116682214D01*
X160115965Y-116827830D01*
X160115967Y-116827834D01*
X160251501Y-117021395D01*
X160251506Y-117021402D01*
X160418597Y-117188493D01*
X160418603Y-117188498D01*
X160604158Y-117318425D01*
X160647783Y-117373002D01*
X160654977Y-117442500D01*
X160623454Y-117504855D01*
X160604158Y-117521575D01*
X160418597Y-117651505D01*
X160251505Y-117818597D01*
X160115965Y-118012169D01*
X160115964Y-118012171D01*
X160016098Y-118226335D01*
X160016094Y-118226344D01*
X159954938Y-118454586D01*
X159954936Y-118454596D01*
X159934341Y-118689999D01*
X159934341Y-118690000D01*
X159954936Y-118925403D01*
X159954938Y-118925413D01*
X160016094Y-119153655D01*
X160016096Y-119153659D01*
X160016097Y-119153663D01*
X160048063Y-119222214D01*
X160115965Y-119367830D01*
X160115967Y-119367834D01*
X160251501Y-119561395D01*
X160251506Y-119561402D01*
X160418597Y-119728493D01*
X160418603Y-119728498D01*
X160604158Y-119858425D01*
X160647783Y-119913002D01*
X160654977Y-119982500D01*
X160623454Y-120044855D01*
X160604158Y-120061575D01*
X160418597Y-120191505D01*
X160251505Y-120358597D01*
X160115965Y-120552169D01*
X160115964Y-120552171D01*
X160016098Y-120766335D01*
X160016094Y-120766344D01*
X159954938Y-120994586D01*
X159954936Y-120994596D01*
X159934341Y-121229999D01*
X159934341Y-121230000D01*
X159954936Y-121465403D01*
X159954938Y-121465413D01*
X160016094Y-121693655D01*
X160016096Y-121693659D01*
X160016097Y-121693663D01*
X160110348Y-121895784D01*
X160115965Y-121907830D01*
X160115967Y-121907834D01*
X160251501Y-122101395D01*
X160251506Y-122101402D01*
X160418597Y-122268493D01*
X160418603Y-122268498D01*
X160604158Y-122398425D01*
X160647783Y-122453002D01*
X160654977Y-122522500D01*
X160623454Y-122584855D01*
X160604158Y-122601575D01*
X160418597Y-122731505D01*
X160251505Y-122898597D01*
X160115965Y-123092169D01*
X160115964Y-123092171D01*
X160016098Y-123306335D01*
X160016094Y-123306344D01*
X159954938Y-123534586D01*
X159954936Y-123534596D01*
X159934341Y-123769999D01*
X159934341Y-123770000D01*
X159954936Y-124005403D01*
X159954938Y-124005413D01*
X160016094Y-124233655D01*
X160016096Y-124233659D01*
X160016097Y-124233663D01*
X160080086Y-124370888D01*
X160115965Y-124447830D01*
X160115967Y-124447834D01*
X160193908Y-124559144D01*
X160239942Y-124624888D01*
X160251501Y-124641395D01*
X160251506Y-124641402D01*
X160418597Y-124808493D01*
X160418603Y-124808498D01*
X160604158Y-124938425D01*
X160647783Y-124993002D01*
X160654977Y-125062500D01*
X160623454Y-125124855D01*
X160604158Y-125141575D01*
X160418597Y-125271505D01*
X160251505Y-125438597D01*
X160115965Y-125632169D01*
X160115964Y-125632171D01*
X160016098Y-125846335D01*
X160016094Y-125846344D01*
X159954938Y-126074586D01*
X159954936Y-126074596D01*
X159934341Y-126309999D01*
X159934341Y-126310000D01*
X159954936Y-126545403D01*
X159954938Y-126545413D01*
X160016094Y-126773655D01*
X160016096Y-126773659D01*
X160016097Y-126773663D01*
X160102998Y-126960023D01*
X160115965Y-126987830D01*
X160115967Y-126987834D01*
X160251501Y-127181395D01*
X160251506Y-127181402D01*
X160418597Y-127348493D01*
X160418603Y-127348498D01*
X160604158Y-127478425D01*
X160647783Y-127533002D01*
X160654977Y-127602500D01*
X160623454Y-127664855D01*
X160604158Y-127681575D01*
X160418597Y-127811505D01*
X160251505Y-127978597D01*
X160115965Y-128172169D01*
X160115964Y-128172171D01*
X160016098Y-128386335D01*
X160016094Y-128386344D01*
X159954938Y-128614586D01*
X159954936Y-128614596D01*
X159934341Y-128849999D01*
X159934341Y-128850000D01*
X141049347Y-128850000D01*
X141030063Y-128629592D01*
X140968903Y-128401337D01*
X140869035Y-128187171D01*
X140863425Y-128179158D01*
X140733494Y-127993597D01*
X140566402Y-127826506D01*
X140566396Y-127826501D01*
X140380842Y-127696575D01*
X140337217Y-127641998D01*
X140330023Y-127572500D01*
X140361546Y-127510145D01*
X140380842Y-127493425D01*
X140403026Y-127477891D01*
X140566401Y-127363495D01*
X140733495Y-127196401D01*
X140869035Y-127002830D01*
X140968903Y-126788663D01*
X141030063Y-126560408D01*
X141050659Y-126325000D01*
X141030063Y-126089592D01*
X140968903Y-125861337D01*
X140869035Y-125647171D01*
X140863425Y-125639158D01*
X140733494Y-125453597D01*
X140566402Y-125286506D01*
X140566401Y-125286505D01*
X140380405Y-125156269D01*
X140336781Y-125101692D01*
X140329588Y-125032193D01*
X140361110Y-124969839D01*
X140380405Y-124953119D01*
X140566082Y-124823105D01*
X140733105Y-124656082D01*
X140868600Y-124462578D01*
X140968429Y-124248492D01*
X140968432Y-124248486D01*
X141025636Y-124035000D01*
X140308347Y-124035000D01*
X140241308Y-124015315D01*
X140195553Y-123962511D01*
X140185609Y-123893353D01*
X140189369Y-123876067D01*
X140191143Y-123870022D01*
X140195000Y-123856889D01*
X140195000Y-123713111D01*
X140189368Y-123693933D01*
X140189370Y-123624064D01*
X140227145Y-123565286D01*
X140290701Y-123536262D01*
X140308347Y-123535000D01*
X141025636Y-123535000D01*
X141025635Y-123534999D01*
X140968432Y-123321513D01*
X140968429Y-123321507D01*
X140907107Y-123190000D01*
X141334540Y-123190000D01*
X141354326Y-123378256D01*
X141354327Y-123378259D01*
X141412818Y-123558277D01*
X141412821Y-123558284D01*
X141507467Y-123722216D01*
X141615221Y-123841889D01*
X141634129Y-123862888D01*
X141787265Y-123974148D01*
X141787270Y-123974151D01*
X141960192Y-124051142D01*
X141960197Y-124051144D01*
X142145354Y-124090500D01*
X142145355Y-124090500D01*
X142334644Y-124090500D01*
X142334646Y-124090500D01*
X142519803Y-124051144D01*
X142692730Y-123974151D01*
X142845871Y-123862888D01*
X142972533Y-123722216D01*
X143067179Y-123558284D01*
X143125674Y-123378256D01*
X143145460Y-123190000D01*
X143125674Y-123001744D01*
X143107292Y-122945173D01*
X143105298Y-122875335D01*
X143141378Y-122815502D01*
X143204078Y-122784673D01*
X143251005Y-122785567D01*
X143321774Y-122800609D01*
X143415354Y-122820500D01*
X143415355Y-122820500D01*
X143604644Y-122820500D01*
X143604646Y-122820500D01*
X143789803Y-122781144D01*
X143962730Y-122704151D01*
X144072117Y-122624676D01*
X144137920Y-122601198D01*
X144205974Y-122617023D01*
X144217871Y-122624668D01*
X144311793Y-122692906D01*
X144327270Y-122704151D01*
X144500192Y-122781142D01*
X144500193Y-122781142D01*
X144500197Y-122781144D01*
X144571393Y-122796277D01*
X144618124Y-122806210D01*
X144669556Y-122833976D01*
X144704221Y-122820859D01*
X144713656Y-122820500D01*
X144874644Y-122820500D01*
X144874646Y-122820500D01*
X145038994Y-122785567D01*
X145108661Y-122790883D01*
X145164395Y-122833020D01*
X145188500Y-122898600D01*
X145182706Y-122945174D01*
X145164327Y-123001738D01*
X145164327Y-123001740D01*
X145164326Y-123001744D01*
X145157191Y-123069627D01*
X145130607Y-123134240D01*
X145073310Y-123174225D01*
X145003491Y-123176885D01*
X144983435Y-123169943D01*
X144805807Y-123090857D01*
X144805800Y-123090855D01*
X144687876Y-123065790D01*
X144636443Y-123038023D01*
X144601779Y-123051141D01*
X144592344Y-123051500D01*
X144431354Y-123051500D01*
X144398897Y-123058398D01*
X144246197Y-123090855D01*
X144246192Y-123090857D01*
X144073270Y-123167848D01*
X144073265Y-123167851D01*
X143920129Y-123279111D01*
X143793466Y-123419785D01*
X143698821Y-123583715D01*
X143698818Y-123583722D01*
X143640327Y-123763740D01*
X143640326Y-123763744D01*
X143620540Y-123952000D01*
X143640326Y-124140256D01*
X143640327Y-124140259D01*
X143698818Y-124320277D01*
X143698821Y-124320284D01*
X143793467Y-124484216D01*
X143920128Y-124624887D01*
X143920129Y-124624888D01*
X144073265Y-124736148D01*
X144073270Y-124736151D01*
X144246191Y-124813142D01*
X144246193Y-124813142D01*
X144246197Y-124813144D01*
X144286271Y-124821661D01*
X144347750Y-124854852D01*
X144381528Y-124916014D01*
X144383810Y-124955907D01*
X144382540Y-124967995D01*
X144382540Y-124967997D01*
X144382540Y-124968000D01*
X144402326Y-125156256D01*
X144402327Y-125156259D01*
X144460818Y-125336277D01*
X144460821Y-125336284D01*
X144555467Y-125500216D01*
X144674278Y-125632169D01*
X144682129Y-125640888D01*
X144835265Y-125752148D01*
X144835270Y-125752151D01*
X145008192Y-125829142D01*
X145008197Y-125829144D01*
X145193354Y-125868500D01*
X145193355Y-125868500D01*
X145382644Y-125868500D01*
X145382646Y-125868500D01*
X145567803Y-125829144D01*
X145740730Y-125752151D01*
X145893871Y-125640888D01*
X146020533Y-125500216D01*
X146115179Y-125336284D01*
X146173674Y-125156256D01*
X146185893Y-125040000D01*
X155304540Y-125040000D01*
X155324326Y-125228256D01*
X155324327Y-125228259D01*
X155382818Y-125408277D01*
X155382821Y-125408284D01*
X155477467Y-125572216D01*
X155577022Y-125682783D01*
X155604129Y-125712888D01*
X155757265Y-125824148D01*
X155757270Y-125824151D01*
X155930192Y-125901142D01*
X155930197Y-125901144D01*
X156115354Y-125940500D01*
X156115355Y-125940500D01*
X156304644Y-125940500D01*
X156304646Y-125940500D01*
X156489803Y-125901144D01*
X156662730Y-125824151D01*
X156815871Y-125712888D01*
X156942533Y-125572216D01*
X157037179Y-125408284D01*
X157095674Y-125228256D01*
X157115460Y-125040000D01*
X157095674Y-124851744D01*
X157037179Y-124671716D01*
X156942533Y-124507784D01*
X156815871Y-124367112D01*
X156815870Y-124367111D01*
X156662734Y-124255851D01*
X156662729Y-124255848D01*
X156489807Y-124178857D01*
X156489802Y-124178855D01*
X156312747Y-124141222D01*
X156304646Y-124139500D01*
X156115354Y-124139500D01*
X156107253Y-124141222D01*
X155930197Y-124178855D01*
X155930192Y-124178857D01*
X155757270Y-124255848D01*
X155757265Y-124255851D01*
X155604129Y-124367111D01*
X155477466Y-124507785D01*
X155382821Y-124671715D01*
X155382818Y-124671722D01*
X155336868Y-124813144D01*
X155324326Y-124851744D01*
X155304540Y-125040000D01*
X146185893Y-125040000D01*
X146193460Y-124968000D01*
X146173674Y-124779744D01*
X146115179Y-124599716D01*
X146020533Y-124435784D01*
X145895996Y-124297472D01*
X145865766Y-124234481D01*
X145874391Y-124165145D01*
X145919133Y-124111480D01*
X145985785Y-124090522D01*
X145988146Y-124090500D01*
X146144644Y-124090500D01*
X146144646Y-124090500D01*
X146329803Y-124051144D01*
X146502730Y-123974151D01*
X146525119Y-123957884D01*
X146537908Y-123948593D01*
X146603714Y-123925112D01*
X146671768Y-123940937D01*
X146720463Y-123991042D01*
X146728725Y-124010591D01*
X146746819Y-124066280D01*
X146746821Y-124066284D01*
X146841467Y-124230216D01*
X146877001Y-124269680D01*
X146968129Y-124370888D01*
X147121265Y-124482148D01*
X147121270Y-124482151D01*
X147294192Y-124559142D01*
X147294197Y-124559144D01*
X147479354Y-124598500D01*
X147479355Y-124598500D01*
X147668644Y-124598500D01*
X147668646Y-124598500D01*
X147853803Y-124559144D01*
X148026730Y-124482151D01*
X148179871Y-124370888D01*
X148306533Y-124230216D01*
X148401179Y-124066284D01*
X148459674Y-123886256D01*
X148479460Y-123698000D01*
X148459674Y-123509744D01*
X148401179Y-123329716D01*
X148306533Y-123165784D01*
X148288693Y-123145971D01*
X148258464Y-123082981D01*
X148267089Y-123013646D01*
X148288694Y-122980028D01*
X148306533Y-122960216D01*
X148401179Y-122796284D01*
X148459674Y-122616256D01*
X148479460Y-122428000D01*
X148459674Y-122239744D01*
X148401179Y-122059716D01*
X148306533Y-121895784D01*
X148179871Y-121755112D01*
X148147708Y-121731744D01*
X148026734Y-121643851D01*
X148026729Y-121643848D01*
X147853807Y-121566857D01*
X147853802Y-121566855D01*
X147708001Y-121535865D01*
X147668646Y-121527500D01*
X147479354Y-121527500D01*
X147446897Y-121534398D01*
X147294197Y-121566855D01*
X147294192Y-121566857D01*
X147121270Y-121643848D01*
X147121267Y-121643850D01*
X147091116Y-121665756D01*
X147025309Y-121689234D01*
X146957256Y-121673407D01*
X146908562Y-121623300D01*
X146894688Y-121554822D01*
X146900300Y-121527122D01*
X146935674Y-121418256D01*
X146955460Y-121230000D01*
X146935674Y-121041744D01*
X146877179Y-120861716D01*
X146782533Y-120697784D01*
X146655871Y-120557112D01*
X146655870Y-120557111D01*
X146502734Y-120445851D01*
X146502729Y-120445848D01*
X146329807Y-120368857D01*
X146329802Y-120368855D01*
X146184001Y-120337865D01*
X146144646Y-120329500D01*
X145955354Y-120329500D01*
X145922897Y-120336398D01*
X145770197Y-120368855D01*
X145770192Y-120368857D01*
X145597270Y-120445848D01*
X145597265Y-120445851D01*
X145444129Y-120557111D01*
X145317466Y-120697785D01*
X145222821Y-120861715D01*
X145222819Y-120861719D01*
X145186874Y-120972348D01*
X145147436Y-121030023D01*
X145083077Y-121057221D01*
X145043162Y-121055319D01*
X144874646Y-121019500D01*
X144685354Y-121019500D01*
X144652897Y-121026398D01*
X144500197Y-121058855D01*
X144500192Y-121058857D01*
X144327270Y-121135848D01*
X144327265Y-121135851D01*
X144217885Y-121215321D01*
X144152079Y-121238801D01*
X144084025Y-121222975D01*
X144072115Y-121215321D01*
X143962734Y-121135851D01*
X143962729Y-121135848D01*
X143789807Y-121058857D01*
X143789802Y-121058855D01*
X143644000Y-121027865D01*
X143604646Y-121019500D01*
X143415354Y-121019500D01*
X143382897Y-121026398D01*
X143230197Y-121058855D01*
X143230192Y-121058857D01*
X143057270Y-121135848D01*
X143057265Y-121135851D01*
X142904129Y-121247111D01*
X142777466Y-121387785D01*
X142682821Y-121551715D01*
X142682818Y-121551722D01*
X142636636Y-121693857D01*
X142624326Y-121731744D01*
X142604540Y-121920000D01*
X142624326Y-122108256D01*
X142624327Y-122108259D01*
X142642706Y-122164824D01*
X142644701Y-122234665D01*
X142608621Y-122294498D01*
X142545920Y-122325326D01*
X142498995Y-122324433D01*
X142472862Y-122318878D01*
X142334646Y-122289500D01*
X142145354Y-122289500D01*
X142121840Y-122294498D01*
X141960197Y-122328855D01*
X141960192Y-122328857D01*
X141787270Y-122405848D01*
X141787265Y-122405851D01*
X141634129Y-122517111D01*
X141507466Y-122657785D01*
X141412821Y-122821715D01*
X141412818Y-122821722D01*
X141372706Y-122945176D01*
X141354326Y-123001744D01*
X141334540Y-123190000D01*
X140907107Y-123190000D01*
X140868600Y-123107422D01*
X140868599Y-123107420D01*
X140733113Y-122913926D01*
X140733108Y-122913920D01*
X140566082Y-122746894D01*
X140372578Y-122611399D01*
X140158492Y-122511570D01*
X140158486Y-122511567D01*
X139945000Y-122454364D01*
X139945000Y-123172698D01*
X139925315Y-123239737D01*
X139872511Y-123285492D01*
X139803355Y-123295436D01*
X139730766Y-123285000D01*
X139730763Y-123285000D01*
X139659237Y-123285000D01*
X139659233Y-123285000D01*
X139586645Y-123295436D01*
X139517487Y-123285492D01*
X139464684Y-123239736D01*
X139445000Y-123172698D01*
X139445000Y-122454364D01*
X139444999Y-122454364D01*
X139231513Y-122511567D01*
X139231507Y-122511570D01*
X139017422Y-122611399D01*
X139017420Y-122611400D01*
X138823926Y-122746886D01*
X138701477Y-122869335D01*
X138640154Y-122902819D01*
X138570462Y-122897835D01*
X138514529Y-122855963D01*
X138497614Y-122824986D01*
X138448354Y-122692913D01*
X138448350Y-122692906D01*
X138362190Y-122577812D01*
X138362187Y-122577809D01*
X138247093Y-122491649D01*
X138247086Y-122491645D01*
X138112379Y-122441403D01*
X138112372Y-122441401D01*
X138052844Y-122435000D01*
X137405000Y-122435000D01*
X137405000Y-123172698D01*
X137385315Y-123239737D01*
X137332511Y-123285492D01*
X137263355Y-123295436D01*
X137190766Y-123285000D01*
X137190763Y-123285000D01*
X137119237Y-123285000D01*
X137119233Y-123285000D01*
X137046645Y-123295436D01*
X136977487Y-123285492D01*
X136924684Y-123239736D01*
X136905000Y-123172698D01*
X136905000Y-122435000D01*
X136257155Y-122435000D01*
X136197627Y-122441401D01*
X136197620Y-122441403D01*
X136062913Y-122491645D01*
X136062906Y-122491649D01*
X135947812Y-122577809D01*
X135947809Y-122577812D01*
X135861649Y-122692906D01*
X135861645Y-122692913D01*
X135811403Y-122827620D01*
X135811401Y-122827627D01*
X135805000Y-122887155D01*
X135805000Y-123535000D01*
X136541653Y-123535000D01*
X136608692Y-123554685D01*
X136654447Y-123607489D01*
X136664391Y-123676647D01*
X136660631Y-123693933D01*
X136655000Y-123713111D01*
X136655000Y-123856889D01*
X136658856Y-123870022D01*
X136660631Y-123876067D01*
X136660630Y-123945936D01*
X136622855Y-124004714D01*
X136559299Y-124033738D01*
X136541653Y-124035000D01*
X135805000Y-124035000D01*
X135805000Y-124682844D01*
X135811401Y-124742372D01*
X135811403Y-124742379D01*
X135861645Y-124877086D01*
X135861649Y-124877093D01*
X135947809Y-124992187D01*
X135947812Y-124992190D01*
X136062906Y-125078350D01*
X136062913Y-125078354D01*
X136194470Y-125127421D01*
X136250403Y-125169292D01*
X136274821Y-125234756D01*
X136259970Y-125303029D01*
X136238819Y-125331284D01*
X136116503Y-125453600D01*
X135980965Y-125647169D01*
X135980964Y-125647171D01*
X135881098Y-125861335D01*
X135881094Y-125861344D01*
X135819938Y-126089586D01*
X135819936Y-126089596D01*
X135799341Y-126324999D01*
X135799341Y-126325000D01*
X135819936Y-126560403D01*
X135819938Y-126560413D01*
X135881094Y-126788655D01*
X135881096Y-126788659D01*
X135881097Y-126788663D01*
X135885000Y-126797032D01*
X135980965Y-127002830D01*
X135980967Y-127002834D01*
X136089281Y-127157521D01*
X136116501Y-127196396D01*
X136116506Y-127196402D01*
X136283597Y-127363493D01*
X136283603Y-127363498D01*
X136469158Y-127493425D01*
X136512783Y-127548002D01*
X136519977Y-127617500D01*
X136488454Y-127679855D01*
X136469158Y-127696575D01*
X136283597Y-127826505D01*
X136116505Y-127993597D01*
X135980965Y-128187169D01*
X135980964Y-128187171D01*
X135881098Y-128401335D01*
X135881094Y-128401344D01*
X135819938Y-128629586D01*
X135819936Y-128629596D01*
X135799341Y-128864999D01*
X135799341Y-128865000D01*
X130894347Y-128865000D01*
X130895659Y-128850000D01*
X130875063Y-128614592D01*
X130817922Y-128401335D01*
X130813905Y-128386344D01*
X130813904Y-128386343D01*
X130813903Y-128386337D01*
X130714035Y-128172171D01*
X130578495Y-127978599D01*
X130578494Y-127978597D01*
X130411402Y-127811506D01*
X130411396Y-127811501D01*
X130225842Y-127681575D01*
X130182217Y-127626998D01*
X130175023Y-127557500D01*
X130206546Y-127495145D01*
X130225842Y-127478425D01*
X130248026Y-127462891D01*
X130411401Y-127348495D01*
X130578495Y-127181401D01*
X130714035Y-126987830D01*
X130813903Y-126773663D01*
X130875063Y-126545408D01*
X130895659Y-126310000D01*
X130875063Y-126074592D01*
X130828588Y-125901142D01*
X130813905Y-125846344D01*
X130813904Y-125846343D01*
X130813903Y-125846337D01*
X130714035Y-125632171D01*
X130672055Y-125572216D01*
X130578494Y-125438597D01*
X130411402Y-125271506D01*
X130411401Y-125271505D01*
X130239252Y-125150965D01*
X130225405Y-125141269D01*
X130181781Y-125086692D01*
X130174588Y-125017193D01*
X130206110Y-124954839D01*
X130225405Y-124938119D01*
X130411082Y-124808105D01*
X130578105Y-124641082D01*
X130670241Y-124509500D01*
X131174540Y-124509500D01*
X131194326Y-124697756D01*
X131194327Y-124697759D01*
X131252818Y-124877777D01*
X131252821Y-124877784D01*
X131347467Y-125041716D01*
X131437105Y-125141269D01*
X131474129Y-125182388D01*
X131627265Y-125293648D01*
X131627270Y-125293651D01*
X131800192Y-125370642D01*
X131800197Y-125370644D01*
X131985354Y-125410000D01*
X131985355Y-125410000D01*
X132174644Y-125410000D01*
X132174646Y-125410000D01*
X132359803Y-125370644D01*
X132532730Y-125293651D01*
X132685871Y-125182388D01*
X132812533Y-125041716D01*
X132907179Y-124877784D01*
X132965674Y-124697756D01*
X132985460Y-124509500D01*
X132965674Y-124321244D01*
X132907179Y-124141216D01*
X132812533Y-123977284D01*
X132685871Y-123836612D01*
X132685870Y-123836611D01*
X132532734Y-123725351D01*
X132532729Y-123725348D01*
X132359807Y-123648357D01*
X132359802Y-123648355D01*
X132214001Y-123617365D01*
X132174646Y-123609000D01*
X131985354Y-123609000D01*
X131952897Y-123615898D01*
X131800197Y-123648355D01*
X131800192Y-123648357D01*
X131627270Y-123725348D01*
X131627265Y-123725351D01*
X131474129Y-123836611D01*
X131347466Y-123977285D01*
X131252821Y-124141215D01*
X131252818Y-124141222D01*
X131202050Y-124297472D01*
X131194326Y-124321244D01*
X131174540Y-124509500D01*
X130670241Y-124509500D01*
X130713600Y-124447578D01*
X130813429Y-124233492D01*
X130813432Y-124233486D01*
X130870636Y-124020000D01*
X130153347Y-124020000D01*
X130086308Y-124000315D01*
X130040553Y-123947511D01*
X130030609Y-123878353D01*
X130034369Y-123861067D01*
X130040000Y-123841888D01*
X130040000Y-123698111D01*
X130034369Y-123678933D01*
X130034370Y-123609064D01*
X130072145Y-123550286D01*
X130135701Y-123521262D01*
X130153347Y-123520000D01*
X130870636Y-123520000D01*
X130870635Y-123519999D01*
X130813432Y-123306513D01*
X130813429Y-123306507D01*
X130713600Y-123092422D01*
X130713599Y-123092420D01*
X130578113Y-122898926D01*
X130578108Y-122898920D01*
X130411078Y-122731890D01*
X130225405Y-122601879D01*
X130187933Y-122555000D01*
X131936540Y-122555000D01*
X131956326Y-122743256D01*
X131956327Y-122743259D01*
X132014818Y-122923277D01*
X132014821Y-122923284D01*
X132109467Y-123087216D01*
X132236129Y-123227888D01*
X132389265Y-123339148D01*
X132389270Y-123339151D01*
X132562192Y-123416142D01*
X132562197Y-123416144D01*
X132747354Y-123455500D01*
X132747355Y-123455500D01*
X132936644Y-123455500D01*
X132936646Y-123455500D01*
X133121803Y-123416144D01*
X133294730Y-123339151D01*
X133447871Y-123227888D01*
X133574533Y-123087216D01*
X133669179Y-122923284D01*
X133727674Y-122743256D01*
X133747460Y-122555000D01*
X133727674Y-122366744D01*
X133669179Y-122186716D01*
X133574533Y-122022784D01*
X133447871Y-121882112D01*
X133447870Y-121882111D01*
X133294734Y-121770851D01*
X133294729Y-121770848D01*
X133121807Y-121693857D01*
X133121802Y-121693855D01*
X132976000Y-121662865D01*
X132936646Y-121654500D01*
X132747354Y-121654500D01*
X132714897Y-121661398D01*
X132562197Y-121693855D01*
X132562192Y-121693857D01*
X132389270Y-121770848D01*
X132389265Y-121770851D01*
X132236129Y-121882111D01*
X132109466Y-122022785D01*
X132014821Y-122186715D01*
X132014818Y-122186722D01*
X131968636Y-122328857D01*
X131956326Y-122366744D01*
X131936540Y-122555000D01*
X130187933Y-122555000D01*
X130181780Y-122547302D01*
X130174588Y-122477804D01*
X130206110Y-122415449D01*
X130225406Y-122398730D01*
X130271087Y-122366744D01*
X130411401Y-122268495D01*
X130578495Y-122101401D01*
X130714035Y-121907830D01*
X130813903Y-121693663D01*
X130875063Y-121465408D01*
X130895659Y-121230000D01*
X130875063Y-120994592D01*
X130813903Y-120766337D01*
X130714035Y-120552171D01*
X130639590Y-120445851D01*
X130578494Y-120358597D01*
X130411402Y-120191506D01*
X130411396Y-120191501D01*
X130225842Y-120061575D01*
X130182217Y-120006998D01*
X130175023Y-119937500D01*
X130206546Y-119875145D01*
X130225842Y-119858425D01*
X130248026Y-119842891D01*
X130411401Y-119728495D01*
X130578495Y-119561401D01*
X130714035Y-119367830D01*
X130813903Y-119153663D01*
X130875063Y-118925408D01*
X130895659Y-118690000D01*
X154034540Y-118690000D01*
X154054326Y-118878256D01*
X154054327Y-118878259D01*
X154112818Y-119058277D01*
X154112821Y-119058284D01*
X154207467Y-119222216D01*
X154305000Y-119330537D01*
X154334129Y-119362888D01*
X154487265Y-119474148D01*
X154487270Y-119474151D01*
X154660192Y-119551142D01*
X154660197Y-119551144D01*
X154845354Y-119590500D01*
X154845355Y-119590500D01*
X155034644Y-119590500D01*
X155034646Y-119590500D01*
X155219803Y-119551144D01*
X155392730Y-119474151D01*
X155502117Y-119394676D01*
X155567920Y-119371198D01*
X155635974Y-119387023D01*
X155647871Y-119394668D01*
X155757266Y-119474148D01*
X155757270Y-119474151D01*
X155930192Y-119551142D01*
X155930197Y-119551144D01*
X156115354Y-119590500D01*
X156115355Y-119590500D01*
X156304644Y-119590500D01*
X156304646Y-119590500D01*
X156489803Y-119551144D01*
X156662730Y-119474151D01*
X156815871Y-119362888D01*
X156942533Y-119222216D01*
X157037179Y-119058284D01*
X157095674Y-118878256D01*
X157115460Y-118690000D01*
X157095674Y-118501744D01*
X157037179Y-118321716D01*
X156942533Y-118157784D01*
X156815871Y-118017112D01*
X156815870Y-118017111D01*
X156662734Y-117905851D01*
X156662729Y-117905848D01*
X156489807Y-117828857D01*
X156489802Y-117828855D01*
X156344001Y-117797865D01*
X156304646Y-117789500D01*
X156115354Y-117789500D01*
X156082897Y-117796398D01*
X155930197Y-117828855D01*
X155930192Y-117828857D01*
X155757270Y-117905848D01*
X155757265Y-117905851D01*
X155647885Y-117985321D01*
X155582079Y-118008801D01*
X155514025Y-117992975D01*
X155502115Y-117985321D01*
X155392734Y-117905851D01*
X155392729Y-117905848D01*
X155219807Y-117828857D01*
X155219802Y-117828855D01*
X155074000Y-117797865D01*
X155034646Y-117789500D01*
X154845354Y-117789500D01*
X154812897Y-117796398D01*
X154660197Y-117828855D01*
X154660192Y-117828857D01*
X154487270Y-117905848D01*
X154487265Y-117905851D01*
X154334129Y-118017111D01*
X154207466Y-118157785D01*
X154112821Y-118321715D01*
X154112818Y-118321722D01*
X154069645Y-118454596D01*
X154054326Y-118501744D01*
X154034540Y-118690000D01*
X130895659Y-118690000D01*
X130875063Y-118454592D01*
X130813903Y-118226337D01*
X130714035Y-118012171D01*
X130711676Y-118008801D01*
X130578494Y-117818597D01*
X130411402Y-117651506D01*
X130411396Y-117651501D01*
X130225842Y-117521575D01*
X130182217Y-117466998D01*
X130175023Y-117397500D01*
X130206546Y-117335145D01*
X130225842Y-117318425D01*
X130248026Y-117302891D01*
X130411401Y-117188495D01*
X130578495Y-117021401D01*
X130714035Y-116827830D01*
X130813903Y-116613663D01*
X130875063Y-116385408D01*
X130895659Y-116150000D01*
X141334540Y-116150000D01*
X141354326Y-116338256D01*
X141354327Y-116338259D01*
X141412818Y-116518277D01*
X141412821Y-116518284D01*
X141507467Y-116682216D01*
X141634128Y-116822888D01*
X141634129Y-116822888D01*
X141787265Y-116934148D01*
X141787270Y-116934151D01*
X141960192Y-117011142D01*
X141960197Y-117011144D01*
X142145354Y-117050500D01*
X142145355Y-117050500D01*
X142334644Y-117050500D01*
X142334646Y-117050500D01*
X142519803Y-117011144D01*
X142692730Y-116934151D01*
X142845871Y-116822888D01*
X142972533Y-116682216D01*
X143067179Y-116518284D01*
X143125674Y-116338256D01*
X143145460Y-116150000D01*
X143125674Y-115961744D01*
X143067179Y-115781716D01*
X142972533Y-115617784D01*
X142845871Y-115477112D01*
X142845870Y-115477111D01*
X142692734Y-115365851D01*
X142692729Y-115365848D01*
X142519807Y-115288857D01*
X142519802Y-115288855D01*
X142374001Y-115257865D01*
X142334646Y-115249500D01*
X142145354Y-115249500D01*
X142112897Y-115256398D01*
X141960197Y-115288855D01*
X141960192Y-115288857D01*
X141787270Y-115365848D01*
X141787265Y-115365851D01*
X141634129Y-115477111D01*
X141507466Y-115617785D01*
X141412821Y-115781715D01*
X141412818Y-115781722D01*
X141369645Y-115914596D01*
X141354326Y-115961744D01*
X141334540Y-116150000D01*
X130895659Y-116150000D01*
X130875063Y-115914592D01*
X130813903Y-115686337D01*
X130714035Y-115472171D01*
X130639590Y-115365851D01*
X130578494Y-115278597D01*
X130411402Y-115111506D01*
X130411396Y-115111501D01*
X130225842Y-114981575D01*
X130182217Y-114926998D01*
X130175023Y-114857500D01*
X130206546Y-114795145D01*
X130225842Y-114778425D01*
X130383149Y-114668277D01*
X130411401Y-114648495D01*
X130578495Y-114481401D01*
X130714035Y-114287830D01*
X130813903Y-114073663D01*
X130875063Y-113845408D01*
X130895659Y-113610000D01*
X130891460Y-113562009D01*
X141312909Y-113562009D01*
X141332695Y-113750265D01*
X141332696Y-113750268D01*
X141391187Y-113930286D01*
X141391190Y-113930293D01*
X141485836Y-114094225D01*
X141612498Y-114234897D01*
X141765634Y-114346157D01*
X141765639Y-114346160D01*
X141938561Y-114423151D01*
X141938566Y-114423153D01*
X142123723Y-114462509D01*
X142123724Y-114462509D01*
X142313013Y-114462509D01*
X142313015Y-114462509D01*
X142498172Y-114423153D01*
X142671099Y-114346160D01*
X142824240Y-114234897D01*
X142950902Y-114094225D01*
X143045548Y-113930293D01*
X143104043Y-113750265D01*
X143123829Y-113562009D01*
X143104043Y-113373753D01*
X143045548Y-113193725D01*
X142951022Y-113030000D01*
X146414540Y-113030000D01*
X146434326Y-113218256D01*
X146434327Y-113218259D01*
X146492818Y-113398277D01*
X146492821Y-113398284D01*
X146587467Y-113562216D01*
X146714128Y-113702888D01*
X146714129Y-113702888D01*
X146867265Y-113814148D01*
X146867270Y-113814151D01*
X147040192Y-113891142D01*
X147040197Y-113891144D01*
X147225354Y-113930500D01*
X147225355Y-113930500D01*
X147414644Y-113930500D01*
X147414646Y-113930500D01*
X147578994Y-113895567D01*
X147648661Y-113900883D01*
X147704395Y-113943020D01*
X147728500Y-114008600D01*
X147722706Y-114055174D01*
X147704327Y-114111739D01*
X147704327Y-114111740D01*
X147704326Y-114111744D01*
X147684540Y-114300000D01*
X147704326Y-114488256D01*
X147704327Y-114488259D01*
X147762818Y-114668277D01*
X147762821Y-114668284D01*
X147857467Y-114832216D01*
X147976896Y-114964855D01*
X147984129Y-114972888D01*
X148137265Y-115084148D01*
X148137270Y-115084151D01*
X148310192Y-115161142D01*
X148310197Y-115161144D01*
X148495354Y-115200500D01*
X148495355Y-115200500D01*
X148684644Y-115200500D01*
X148684646Y-115200500D01*
X148869803Y-115161144D01*
X149042730Y-115084151D01*
X149195871Y-114972888D01*
X149322533Y-114832216D01*
X149417179Y-114668284D01*
X149475674Y-114488256D01*
X149495460Y-114300000D01*
X149475674Y-114111744D01*
X149417179Y-113931716D01*
X149322533Y-113767784D01*
X149304693Y-113747971D01*
X149274464Y-113684981D01*
X149283089Y-113615646D01*
X149304694Y-113582028D01*
X149322533Y-113562216D01*
X149417179Y-113398284D01*
X149475674Y-113218256D01*
X149495460Y-113030000D01*
X149475674Y-112841744D01*
X149417179Y-112661716D01*
X149322533Y-112497784D01*
X149195871Y-112357112D01*
X149184432Y-112348801D01*
X149042734Y-112245851D01*
X149042729Y-112245848D01*
X148869807Y-112168857D01*
X148869802Y-112168855D01*
X148724000Y-112137865D01*
X148684646Y-112129500D01*
X148495354Y-112129500D01*
X148462897Y-112136398D01*
X148310197Y-112168855D01*
X148310192Y-112168857D01*
X148137270Y-112245848D01*
X148137265Y-112245851D01*
X148027885Y-112325321D01*
X147962079Y-112348801D01*
X147894025Y-112332975D01*
X147882115Y-112325321D01*
X147772734Y-112245851D01*
X147772729Y-112245848D01*
X147599805Y-112168856D01*
X147596960Y-112167932D01*
X147595524Y-112166950D01*
X147593866Y-112166212D01*
X147594000Y-112165908D01*
X147539283Y-112128497D01*
X147512083Y-112064140D01*
X147523995Y-111995293D01*
X147571237Y-111943815D01*
X147596960Y-111932068D01*
X147599799Y-111931144D01*
X147599803Y-111931144D01*
X147772730Y-111854151D01*
X147925871Y-111742888D01*
X148052533Y-111602216D01*
X148147179Y-111438284D01*
X148205674Y-111258256D01*
X148225460Y-111070000D01*
X148205674Y-110881744D01*
X148147179Y-110701716D01*
X148052533Y-110537784D01*
X147925871Y-110397112D01*
X147925870Y-110397111D01*
X147772734Y-110285851D01*
X147772729Y-110285848D01*
X147599807Y-110208857D01*
X147599802Y-110208855D01*
X147438160Y-110174498D01*
X147414646Y-110169500D01*
X147225354Y-110169500D01*
X147201840Y-110174498D01*
X147040197Y-110208855D01*
X147040192Y-110208857D01*
X146867270Y-110285848D01*
X146867265Y-110285851D01*
X146714129Y-110397111D01*
X146587466Y-110537785D01*
X146492821Y-110701715D01*
X146492818Y-110701722D01*
X146449645Y-110834596D01*
X146434326Y-110881744D01*
X146414540Y-111070000D01*
X146434326Y-111258256D01*
X146434327Y-111258259D01*
X146492818Y-111438277D01*
X146492821Y-111438284D01*
X146587467Y-111602216D01*
X146645899Y-111667111D01*
X146714129Y-111742888D01*
X146867265Y-111854148D01*
X146867270Y-111854151D01*
X147040194Y-111931143D01*
X147043043Y-111932069D01*
X147044479Y-111933051D01*
X147046134Y-111933788D01*
X147045999Y-111934090D01*
X147100718Y-111971506D01*
X147127917Y-112035864D01*
X147116003Y-112104711D01*
X147068759Y-112156187D01*
X147043043Y-112167931D01*
X147040194Y-112168856D01*
X146867270Y-112245848D01*
X146867265Y-112245851D01*
X146714129Y-112357111D01*
X146587466Y-112497785D01*
X146492821Y-112661715D01*
X146492818Y-112661722D01*
X146455083Y-112777860D01*
X146434326Y-112841744D01*
X146414540Y-113030000D01*
X142951022Y-113030000D01*
X142950902Y-113029793D01*
X142824240Y-112889121D01*
X142824239Y-112889120D01*
X142671103Y-112777860D01*
X142671098Y-112777857D01*
X142498176Y-112700866D01*
X142498171Y-112700864D01*
X142352369Y-112669874D01*
X142313015Y-112661509D01*
X142123723Y-112661509D01*
X142091266Y-112668407D01*
X141938566Y-112700864D01*
X141938561Y-112700866D01*
X141765639Y-112777857D01*
X141765634Y-112777860D01*
X141612498Y-112889120D01*
X141485835Y-113029794D01*
X141391190Y-113193724D01*
X141391187Y-113193731D01*
X141332696Y-113373749D01*
X141332695Y-113373753D01*
X141312909Y-113562009D01*
X130891460Y-113562009D01*
X130875063Y-113374592D01*
X130813903Y-113146337D01*
X130714035Y-112932171D01*
X130683892Y-112889121D01*
X130578494Y-112738597D01*
X130411402Y-112571506D01*
X130411396Y-112571501D01*
X130225842Y-112441575D01*
X130182217Y-112386998D01*
X130177352Y-112340000D01*
X136254540Y-112340000D01*
X136274326Y-112528256D01*
X136274327Y-112528259D01*
X136332818Y-112708277D01*
X136332821Y-112708284D01*
X136427467Y-112872216D01*
X136481451Y-112932171D01*
X136554129Y-113012888D01*
X136707265Y-113124148D01*
X136707270Y-113124151D01*
X136880192Y-113201142D01*
X136880197Y-113201144D01*
X137065354Y-113240500D01*
X137065355Y-113240500D01*
X137254644Y-113240500D01*
X137254646Y-113240500D01*
X137439803Y-113201144D01*
X137612730Y-113124151D01*
X137765871Y-113012888D01*
X137892533Y-112872216D01*
X137987179Y-112708284D01*
X138045674Y-112528256D01*
X138065460Y-112340000D01*
X138045674Y-112151744D01*
X137987179Y-111971716D01*
X137892533Y-111807784D01*
X137765871Y-111667112D01*
X137765870Y-111667111D01*
X137612734Y-111555851D01*
X137612729Y-111555848D01*
X137439807Y-111478857D01*
X137439802Y-111478855D01*
X137294001Y-111447865D01*
X137254646Y-111439500D01*
X137065354Y-111439500D01*
X137032897Y-111446398D01*
X136880197Y-111478855D01*
X136880192Y-111478857D01*
X136707270Y-111555848D01*
X136707265Y-111555851D01*
X136554129Y-111667111D01*
X136427466Y-111807785D01*
X136332821Y-111971715D01*
X136332818Y-111971722D01*
X136274327Y-112151740D01*
X136274326Y-112151744D01*
X136254540Y-112340000D01*
X130177352Y-112340000D01*
X130175023Y-112317500D01*
X130206546Y-112255145D01*
X130225842Y-112238425D01*
X130325195Y-112168857D01*
X130411401Y-112108495D01*
X130578495Y-111941401D01*
X130714035Y-111747830D01*
X130813903Y-111533663D01*
X130875063Y-111305408D01*
X130895659Y-111070000D01*
X141334540Y-111070000D01*
X141354326Y-111258256D01*
X141354327Y-111258259D01*
X141412818Y-111438277D01*
X141412821Y-111438284D01*
X141507467Y-111602216D01*
X141565899Y-111667111D01*
X141634129Y-111742888D01*
X141787265Y-111854148D01*
X141787270Y-111854151D01*
X141960192Y-111931142D01*
X141960195Y-111931143D01*
X141960197Y-111931144D01*
X142145354Y-111970500D01*
X142145355Y-111970500D01*
X142334644Y-111970500D01*
X142334646Y-111970500D01*
X142519803Y-111931144D01*
X142692730Y-111854151D01*
X142845871Y-111742888D01*
X142972533Y-111602216D01*
X143067179Y-111438284D01*
X143125674Y-111258256D01*
X143145460Y-111070000D01*
X143125674Y-110881744D01*
X143107292Y-110825173D01*
X143105298Y-110755335D01*
X143141378Y-110695502D01*
X143204078Y-110664673D01*
X143251005Y-110665567D01*
X143321774Y-110680609D01*
X143415354Y-110700500D01*
X143415355Y-110700500D01*
X143604644Y-110700500D01*
X143604646Y-110700500D01*
X143789803Y-110661144D01*
X143962730Y-110584151D01*
X144115871Y-110472888D01*
X144242533Y-110332216D01*
X144337179Y-110168284D01*
X144395674Y-109988256D01*
X144415460Y-109800000D01*
X144395674Y-109611744D01*
X144337179Y-109431716D01*
X144242533Y-109267784D01*
X144199508Y-109220000D01*
X151494540Y-109220000D01*
X151514326Y-109408256D01*
X151514327Y-109408259D01*
X151572818Y-109588277D01*
X151572821Y-109588284D01*
X151667467Y-109752216D01*
X151786896Y-109884855D01*
X151794129Y-109892888D01*
X151947265Y-110004148D01*
X151947270Y-110004151D01*
X152120192Y-110081142D01*
X152120197Y-110081144D01*
X152305354Y-110120500D01*
X152305355Y-110120500D01*
X152494644Y-110120500D01*
X152494646Y-110120500D01*
X152679803Y-110081144D01*
X152852730Y-110004151D01*
X153005871Y-109892888D01*
X153132533Y-109752216D01*
X153227179Y-109588284D01*
X153285674Y-109408256D01*
X153305460Y-109220000D01*
X153285674Y-109031744D01*
X153227179Y-108851716D01*
X153132533Y-108687784D01*
X153005871Y-108547112D01*
X153005870Y-108547111D01*
X152852734Y-108435851D01*
X152852729Y-108435848D01*
X152679807Y-108358857D01*
X152679802Y-108358855D01*
X152534000Y-108327865D01*
X152494646Y-108319500D01*
X152305354Y-108319500D01*
X152272897Y-108326398D01*
X152120197Y-108358855D01*
X152120192Y-108358857D01*
X151947270Y-108435848D01*
X151947265Y-108435851D01*
X151794129Y-108547111D01*
X151667466Y-108687785D01*
X151572821Y-108851715D01*
X151572818Y-108851722D01*
X151519490Y-109015851D01*
X151514326Y-109031744D01*
X151494540Y-109220000D01*
X144199508Y-109220000D01*
X144115871Y-109127112D01*
X144115870Y-109127111D01*
X143962734Y-109015851D01*
X143962729Y-109015848D01*
X143789807Y-108938857D01*
X143789802Y-108938855D01*
X143644000Y-108907865D01*
X143604646Y-108899500D01*
X143415354Y-108899500D01*
X143382897Y-108906398D01*
X143230197Y-108938855D01*
X143230192Y-108938857D01*
X143057270Y-109015848D01*
X143057265Y-109015851D01*
X142904129Y-109127111D01*
X142777466Y-109267785D01*
X142682821Y-109431715D01*
X142682818Y-109431722D01*
X142624327Y-109611740D01*
X142624326Y-109611744D01*
X142604540Y-109800000D01*
X142624326Y-109988256D01*
X142624327Y-109988259D01*
X142642706Y-110044824D01*
X142644701Y-110114665D01*
X142608621Y-110174498D01*
X142545920Y-110205326D01*
X142498995Y-110204433D01*
X142471538Y-110198597D01*
X142334646Y-110169500D01*
X142145354Y-110169500D01*
X142121840Y-110174498D01*
X141960197Y-110208855D01*
X141960192Y-110208857D01*
X141787270Y-110285848D01*
X141787265Y-110285851D01*
X141634129Y-110397111D01*
X141507466Y-110537785D01*
X141412821Y-110701715D01*
X141412818Y-110701722D01*
X141369645Y-110834596D01*
X141354326Y-110881744D01*
X141334540Y-111070000D01*
X130895659Y-111070000D01*
X130875063Y-110834592D01*
X130813903Y-110606337D01*
X130714035Y-110392171D01*
X130702827Y-110376163D01*
X130578494Y-110198597D01*
X130411402Y-110031506D01*
X130411396Y-110031501D01*
X130225842Y-109901575D01*
X130182217Y-109846998D01*
X130175023Y-109777500D01*
X130206546Y-109715145D01*
X130225842Y-109698425D01*
X130349635Y-109611744D01*
X130411401Y-109568495D01*
X130578495Y-109401401D01*
X130714035Y-109207830D01*
X130813903Y-108993663D01*
X130875063Y-108765408D01*
X130895659Y-108530000D01*
X130875063Y-108294592D01*
X130813903Y-108066337D01*
X130714035Y-107852171D01*
X130672055Y-107792216D01*
X130578494Y-107658597D01*
X130411402Y-107491506D01*
X130411396Y-107491501D01*
X130225842Y-107361575D01*
X130182217Y-107306998D01*
X130177352Y-107260000D01*
X137524540Y-107260000D01*
X137544326Y-107448256D01*
X137544327Y-107448259D01*
X137602818Y-107628277D01*
X137602821Y-107628284D01*
X137697467Y-107792216D01*
X137751451Y-107852171D01*
X137824129Y-107932888D01*
X137977265Y-108044148D01*
X137977270Y-108044151D01*
X138150192Y-108121142D01*
X138150197Y-108121144D01*
X138335354Y-108160500D01*
X138335355Y-108160500D01*
X138524644Y-108160500D01*
X138524646Y-108160500D01*
X138709803Y-108121144D01*
X138882730Y-108044151D01*
X139035871Y-107932888D01*
X139162533Y-107792216D01*
X139257179Y-107628284D01*
X139315674Y-107448256D01*
X139335460Y-107260000D01*
X139315674Y-107071744D01*
X139297292Y-107015173D01*
X139295298Y-106945335D01*
X139331378Y-106885502D01*
X139394078Y-106854673D01*
X139441005Y-106855567D01*
X139511774Y-106870609D01*
X139605354Y-106890500D01*
X139605355Y-106890500D01*
X139794644Y-106890500D01*
X139794646Y-106890500D01*
X139979803Y-106851144D01*
X140152730Y-106774151D01*
X140305871Y-106662888D01*
X140432533Y-106522216D01*
X140527179Y-106358284D01*
X140585674Y-106178256D01*
X140605460Y-105990000D01*
X148954540Y-105990000D01*
X148974326Y-106178256D01*
X148974327Y-106178259D01*
X149032818Y-106358277D01*
X149032821Y-106358284D01*
X149127467Y-106522216D01*
X149185899Y-106587111D01*
X149254129Y-106662888D01*
X149407265Y-106774148D01*
X149407270Y-106774151D01*
X149580192Y-106851142D01*
X149580197Y-106851144D01*
X149765354Y-106890500D01*
X149765355Y-106890500D01*
X149954644Y-106890500D01*
X149954646Y-106890500D01*
X150139803Y-106851144D01*
X150312730Y-106774151D01*
X150422118Y-106694676D01*
X150487919Y-106671198D01*
X150555973Y-106687023D01*
X150567884Y-106694678D01*
X150677265Y-106774148D01*
X150677270Y-106774151D01*
X150850192Y-106851142D01*
X150850197Y-106851144D01*
X151035354Y-106890500D01*
X151035355Y-106890500D01*
X151224644Y-106890500D01*
X151224646Y-106890500D01*
X151409803Y-106851144D01*
X151582730Y-106774151D01*
X151735871Y-106662888D01*
X151862533Y-106522216D01*
X151957179Y-106358284D01*
X151960036Y-106349488D01*
X151999471Y-106291814D01*
X152063828Y-106264613D01*
X152116289Y-106269874D01*
X152120191Y-106271141D01*
X152120197Y-106271144D01*
X152305354Y-106310500D01*
X152305355Y-106310500D01*
X152494644Y-106310500D01*
X152494646Y-106310500D01*
X152679803Y-106271144D01*
X152852730Y-106194151D01*
X153005871Y-106082888D01*
X153132533Y-105942216D01*
X153227179Y-105778284D01*
X153285674Y-105598256D01*
X153305460Y-105410000D01*
X153285674Y-105221744D01*
X153227179Y-105041716D01*
X153132533Y-104877784D01*
X153005871Y-104737112D01*
X153005870Y-104737111D01*
X152852734Y-104625851D01*
X152852729Y-104625848D01*
X152679807Y-104548857D01*
X152679802Y-104548855D01*
X152534000Y-104517865D01*
X152494646Y-104509500D01*
X152305354Y-104509500D01*
X152272897Y-104516398D01*
X152120197Y-104548855D01*
X152120192Y-104548857D01*
X151947270Y-104625848D01*
X151947265Y-104625851D01*
X151794129Y-104737111D01*
X151667466Y-104877785D01*
X151572821Y-105041715D01*
X151572818Y-105041723D01*
X151569961Y-105050516D01*
X151530522Y-105108190D01*
X151466163Y-105135387D01*
X151413718Y-105130128D01*
X151409800Y-105128855D01*
X151293102Y-105104050D01*
X151224646Y-105089500D01*
X151035354Y-105089500D01*
X151002897Y-105096398D01*
X150850197Y-105128855D01*
X150850192Y-105128857D01*
X150677270Y-105205848D01*
X150677265Y-105205851D01*
X150567885Y-105285321D01*
X150502079Y-105308801D01*
X150434025Y-105292975D01*
X150422115Y-105285321D01*
X150312734Y-105205851D01*
X150312729Y-105205848D01*
X150139807Y-105128857D01*
X150139802Y-105128855D01*
X149994001Y-105097865D01*
X149954646Y-105089500D01*
X149765354Y-105089500D01*
X149732897Y-105096398D01*
X149580197Y-105128855D01*
X149580192Y-105128857D01*
X149407270Y-105205848D01*
X149407265Y-105205851D01*
X149254129Y-105317111D01*
X149127466Y-105457785D01*
X149032821Y-105621715D01*
X149032818Y-105621722D01*
X148974327Y-105801740D01*
X148974326Y-105801744D01*
X148954540Y-105990000D01*
X140605460Y-105990000D01*
X140585674Y-105801744D01*
X140527179Y-105621716D01*
X140432533Y-105457784D01*
X140305871Y-105317112D01*
X140305870Y-105317111D01*
X140152734Y-105205851D01*
X140152729Y-105205848D01*
X139979807Y-105128857D01*
X139979802Y-105128855D01*
X139834000Y-105097865D01*
X139794646Y-105089500D01*
X139605354Y-105089500D01*
X139572897Y-105096398D01*
X139420197Y-105128855D01*
X139420192Y-105128857D01*
X139247270Y-105205848D01*
X139247265Y-105205851D01*
X139094129Y-105317111D01*
X138967466Y-105457785D01*
X138872821Y-105621715D01*
X138872818Y-105621722D01*
X138814327Y-105801740D01*
X138814326Y-105801744D01*
X138794540Y-105990000D01*
X138814326Y-106178256D01*
X138814327Y-106178259D01*
X138832706Y-106234824D01*
X138834701Y-106304665D01*
X138798621Y-106364498D01*
X138735920Y-106395326D01*
X138688995Y-106394433D01*
X138662862Y-106388878D01*
X138524646Y-106359500D01*
X138335354Y-106359500D01*
X138311840Y-106364498D01*
X138150197Y-106398855D01*
X138150192Y-106398857D01*
X137977270Y-106475848D01*
X137977265Y-106475851D01*
X137824129Y-106587111D01*
X137697466Y-106727785D01*
X137602821Y-106891715D01*
X137602818Y-106891722D01*
X137544327Y-107071740D01*
X137544326Y-107071744D01*
X137524540Y-107260000D01*
X130177352Y-107260000D01*
X130175023Y-107237500D01*
X130206546Y-107175145D01*
X130225842Y-107158425D01*
X130349635Y-107071744D01*
X130411401Y-107028495D01*
X130578495Y-106861401D01*
X130714035Y-106667830D01*
X130813903Y-106453663D01*
X130875063Y-106225408D01*
X130895659Y-105990000D01*
X130875063Y-105754592D01*
X130813903Y-105526337D01*
X130714035Y-105312171D01*
X130711676Y-105308801D01*
X130578494Y-105118597D01*
X130411402Y-104951506D01*
X130411396Y-104951501D01*
X130225842Y-104821575D01*
X130182217Y-104766998D01*
X130175023Y-104697500D01*
X130206546Y-104635145D01*
X130225842Y-104618425D01*
X130325195Y-104548857D01*
X130411401Y-104488495D01*
X130578495Y-104321401D01*
X130714035Y-104127830D01*
X130813903Y-103913663D01*
X130875063Y-103685408D01*
X130895659Y-103450000D01*
X130875063Y-103214592D01*
X130813903Y-102986337D01*
X130714035Y-102772171D01*
X130711676Y-102768801D01*
X130578494Y-102578597D01*
X130411402Y-102411506D01*
X130411396Y-102411501D01*
X130225842Y-102281575D01*
X130182217Y-102226998D01*
X130175023Y-102157500D01*
X130206546Y-102095145D01*
X130225842Y-102078425D01*
X130325195Y-102008857D01*
X130411401Y-101948495D01*
X130578495Y-101781401D01*
X130705513Y-101600000D01*
X132444540Y-101600000D01*
X132464326Y-101788256D01*
X132464327Y-101788258D01*
X132464327Y-101788259D01*
X132522818Y-101968277D01*
X132522821Y-101968284D01*
X132617467Y-102132216D01*
X132736896Y-102264855D01*
X132744129Y-102272888D01*
X132897265Y-102384148D01*
X132897270Y-102384151D01*
X133070192Y-102461142D01*
X133070197Y-102461144D01*
X133255354Y-102500500D01*
X133255355Y-102500500D01*
X133348044Y-102500500D01*
X133415083Y-102520185D01*
X133460838Y-102572989D01*
X133470782Y-102642147D01*
X133465976Y-102662816D01*
X133459826Y-102681741D01*
X133452004Y-102756163D01*
X133440040Y-102870000D01*
X133459826Y-103058256D01*
X133459827Y-103058259D01*
X133518318Y-103238277D01*
X133518321Y-103238284D01*
X133612967Y-103402216D01*
X133739628Y-103542888D01*
X133739629Y-103542888D01*
X133892765Y-103654148D01*
X133892770Y-103654151D01*
X134065692Y-103731142D01*
X134065697Y-103731144D01*
X134250854Y-103770500D01*
X134250855Y-103770500D01*
X134440144Y-103770500D01*
X134440146Y-103770500D01*
X134625303Y-103731144D01*
X134798230Y-103654151D01*
X134951371Y-103542888D01*
X135078033Y-103402216D01*
X135172679Y-103238284D01*
X135231174Y-103058256D01*
X135250960Y-102870000D01*
X135231174Y-102681744D01*
X135172679Y-102501716D01*
X135078033Y-102337784D01*
X134951371Y-102197112D01*
X134951370Y-102197111D01*
X134798234Y-102085851D01*
X134798229Y-102085848D01*
X134625307Y-102008857D01*
X134625302Y-102008855D01*
X134479500Y-101977865D01*
X134440146Y-101969500D01*
X134347455Y-101969500D01*
X134280416Y-101949815D01*
X134234661Y-101897011D01*
X134224717Y-101827853D01*
X134229523Y-101807184D01*
X134235674Y-101788256D01*
X134255460Y-101600000D01*
X134235674Y-101411744D01*
X134177179Y-101231716D01*
X134082533Y-101067784D01*
X133955871Y-100927112D01*
X133955870Y-100927111D01*
X133932319Y-100910000D01*
X140064540Y-100910000D01*
X140084326Y-101098256D01*
X140084327Y-101098259D01*
X140142818Y-101278277D01*
X140142821Y-101278284D01*
X140237467Y-101442216D01*
X140295899Y-101507111D01*
X140364129Y-101582888D01*
X140517265Y-101694148D01*
X140517270Y-101694151D01*
X140690192Y-101771142D01*
X140690197Y-101771144D01*
X140875354Y-101810500D01*
X140875355Y-101810500D01*
X141064644Y-101810500D01*
X141064646Y-101810500D01*
X141228994Y-101775567D01*
X141298661Y-101780883D01*
X141354395Y-101823020D01*
X141378500Y-101888600D01*
X141372706Y-101935174D01*
X141354327Y-101991739D01*
X141354327Y-101991740D01*
X141354326Y-101991744D01*
X141334540Y-102180000D01*
X141354326Y-102368256D01*
X141354327Y-102368259D01*
X141412818Y-102548277D01*
X141412821Y-102548284D01*
X141507467Y-102712216D01*
X141561451Y-102772171D01*
X141634129Y-102852888D01*
X141787265Y-102964148D01*
X141787270Y-102964151D01*
X141960192Y-103041142D01*
X141960197Y-103041144D01*
X142145354Y-103080500D01*
X142145355Y-103080500D01*
X142334644Y-103080500D01*
X142334646Y-103080500D01*
X142498994Y-103045567D01*
X142568661Y-103050883D01*
X142624395Y-103093020D01*
X142648500Y-103158600D01*
X142642706Y-103205174D01*
X142624327Y-103261739D01*
X142624327Y-103261740D01*
X142624326Y-103261744D01*
X142604540Y-103450000D01*
X142624326Y-103638256D01*
X142624327Y-103638259D01*
X142682818Y-103818277D01*
X142682821Y-103818284D01*
X142777467Y-103982216D01*
X142875000Y-104090537D01*
X142904129Y-104122888D01*
X143057265Y-104234148D01*
X143057270Y-104234151D01*
X143230192Y-104311142D01*
X143230197Y-104311144D01*
X143415354Y-104350500D01*
X143415355Y-104350500D01*
X143604644Y-104350500D01*
X143604646Y-104350500D01*
X143789803Y-104311144D01*
X143962730Y-104234151D01*
X144072117Y-104154676D01*
X144137920Y-104131198D01*
X144205974Y-104147023D01*
X144217871Y-104154668D01*
X144327266Y-104234148D01*
X144327270Y-104234151D01*
X144500192Y-104311142D01*
X144500197Y-104311144D01*
X144685354Y-104350500D01*
X144685355Y-104350500D01*
X144874644Y-104350500D01*
X144874646Y-104350500D01*
X145059803Y-104311144D01*
X145232730Y-104234151D01*
X145342117Y-104154676D01*
X145407920Y-104131198D01*
X145475974Y-104147023D01*
X145487871Y-104154668D01*
X145597266Y-104234148D01*
X145597270Y-104234151D01*
X145770192Y-104311142D01*
X145770197Y-104311144D01*
X145955354Y-104350500D01*
X145955355Y-104350500D01*
X146144644Y-104350500D01*
X146144646Y-104350500D01*
X146329803Y-104311144D01*
X146502730Y-104234151D01*
X146655871Y-104122888D01*
X146782533Y-103982216D01*
X146877179Y-103818284D01*
X146935674Y-103638256D01*
X146955460Y-103450000D01*
X146935674Y-103261744D01*
X146877179Y-103081716D01*
X146782533Y-102917784D01*
X146655871Y-102777112D01*
X146655870Y-102777111D01*
X146502734Y-102665851D01*
X146502729Y-102665848D01*
X146329807Y-102588857D01*
X146329802Y-102588855D01*
X146184001Y-102557865D01*
X146144646Y-102549500D01*
X145955354Y-102549500D01*
X145922897Y-102556398D01*
X145770197Y-102588855D01*
X145770192Y-102588857D01*
X145597270Y-102665848D01*
X145597265Y-102665851D01*
X145487885Y-102745321D01*
X145422079Y-102768801D01*
X145354025Y-102752975D01*
X145342115Y-102745321D01*
X145232734Y-102665851D01*
X145232729Y-102665848D01*
X145059807Y-102588857D01*
X145059802Y-102588855D01*
X144914001Y-102557865D01*
X144874646Y-102549500D01*
X144685354Y-102549500D01*
X144652897Y-102556398D01*
X144500197Y-102588855D01*
X144500192Y-102588857D01*
X144327270Y-102665848D01*
X144327265Y-102665851D01*
X144217885Y-102745321D01*
X144152079Y-102768801D01*
X144084025Y-102752975D01*
X144072115Y-102745321D01*
X143962734Y-102665851D01*
X143962729Y-102665848D01*
X143789807Y-102588857D01*
X143789802Y-102588855D01*
X143644000Y-102557865D01*
X143604646Y-102549500D01*
X143415354Y-102549500D01*
X143304846Y-102572989D01*
X143251004Y-102584433D01*
X143181337Y-102579116D01*
X143125604Y-102536978D01*
X143101499Y-102471398D01*
X143107294Y-102424822D01*
X143111621Y-102411505D01*
X143125674Y-102368256D01*
X143145460Y-102180000D01*
X143125674Y-101991744D01*
X143067179Y-101811716D01*
X142972533Y-101647784D01*
X142929508Y-101600000D01*
X148954540Y-101600000D01*
X148974326Y-101788256D01*
X148974327Y-101788258D01*
X148974327Y-101788259D01*
X149032818Y-101968277D01*
X149032821Y-101968284D01*
X149127467Y-102132216D01*
X149246896Y-102264855D01*
X149254129Y-102272888D01*
X149407265Y-102384148D01*
X149407270Y-102384151D01*
X149580192Y-102461142D01*
X149580197Y-102461144D01*
X149765354Y-102500500D01*
X149765355Y-102500500D01*
X149954644Y-102500500D01*
X149954646Y-102500500D01*
X150139803Y-102461144D01*
X150312730Y-102384151D01*
X150465871Y-102272888D01*
X150592533Y-102132216D01*
X150687179Y-101968284D01*
X150745674Y-101788256D01*
X150765460Y-101600000D01*
X150745674Y-101411744D01*
X150687179Y-101231716D01*
X150592533Y-101067784D01*
X150465871Y-100927112D01*
X150465870Y-100927111D01*
X150312734Y-100815851D01*
X150312729Y-100815848D01*
X150139807Y-100738857D01*
X150139802Y-100738855D01*
X149994001Y-100707865D01*
X149954646Y-100699500D01*
X149765354Y-100699500D01*
X149732897Y-100706398D01*
X149580197Y-100738855D01*
X149580192Y-100738857D01*
X149407270Y-100815848D01*
X149407265Y-100815851D01*
X149254129Y-100927111D01*
X149127466Y-101067785D01*
X149032821Y-101231715D01*
X149032818Y-101231722D01*
X148979490Y-101395851D01*
X148974326Y-101411744D01*
X148954540Y-101600000D01*
X142929508Y-101600000D01*
X142845871Y-101507112D01*
X142845870Y-101507111D01*
X142692734Y-101395851D01*
X142692729Y-101395848D01*
X142519807Y-101318857D01*
X142519802Y-101318855D01*
X142374001Y-101287865D01*
X142334646Y-101279500D01*
X142145354Y-101279500D01*
X142031148Y-101303774D01*
X141981004Y-101314433D01*
X141911337Y-101309116D01*
X141855604Y-101266978D01*
X141831499Y-101201398D01*
X141837294Y-101154822D01*
X141855674Y-101098256D01*
X141875460Y-100910000D01*
X141855674Y-100721744D01*
X141797179Y-100541716D01*
X141702533Y-100377784D01*
X141659508Y-100330000D01*
X143874540Y-100330000D01*
X143894326Y-100518256D01*
X143894327Y-100518259D01*
X143952818Y-100698277D01*
X143952821Y-100698284D01*
X144047467Y-100862216D01*
X144105899Y-100927111D01*
X144174129Y-101002888D01*
X144327265Y-101114148D01*
X144327270Y-101114151D01*
X144500192Y-101191142D01*
X144500197Y-101191144D01*
X144685354Y-101230500D01*
X144685355Y-101230500D01*
X144874644Y-101230500D01*
X144874646Y-101230500D01*
X145059803Y-101191144D01*
X145232730Y-101114151D01*
X145385871Y-101002888D01*
X145512533Y-100862216D01*
X145607179Y-100698284D01*
X145665674Y-100518256D01*
X145685460Y-100330000D01*
X145665674Y-100141744D01*
X145607179Y-99961716D01*
X145512533Y-99797784D01*
X145385871Y-99657112D01*
X145385870Y-99657111D01*
X145232734Y-99545851D01*
X145232729Y-99545848D01*
X145059807Y-99468857D01*
X145059802Y-99468855D01*
X144914000Y-99437865D01*
X144874646Y-99429500D01*
X144685354Y-99429500D01*
X144652897Y-99436398D01*
X144500197Y-99468855D01*
X144500192Y-99468857D01*
X144327270Y-99545848D01*
X144327265Y-99545851D01*
X144174129Y-99657111D01*
X144047466Y-99797785D01*
X143952821Y-99961715D01*
X143952818Y-99961722D01*
X143899490Y-100125851D01*
X143894326Y-100141744D01*
X143874540Y-100330000D01*
X141659508Y-100330000D01*
X141575871Y-100237112D01*
X141575870Y-100237111D01*
X141422734Y-100125851D01*
X141422729Y-100125848D01*
X141249807Y-100048857D01*
X141249802Y-100048855D01*
X141104000Y-100017865D01*
X141064646Y-100009500D01*
X140875354Y-100009500D01*
X140842897Y-100016398D01*
X140690197Y-100048855D01*
X140690192Y-100048857D01*
X140517270Y-100125848D01*
X140517265Y-100125851D01*
X140364129Y-100237111D01*
X140237466Y-100377785D01*
X140142821Y-100541715D01*
X140142818Y-100541722D01*
X140084327Y-100721740D01*
X140084326Y-100721744D01*
X140064540Y-100910000D01*
X133932319Y-100910000D01*
X133802734Y-100815851D01*
X133802729Y-100815848D01*
X133629807Y-100738857D01*
X133629802Y-100738855D01*
X133484000Y-100707865D01*
X133444646Y-100699500D01*
X133255354Y-100699500D01*
X133222897Y-100706398D01*
X133070197Y-100738855D01*
X133070192Y-100738857D01*
X132897270Y-100815848D01*
X132897265Y-100815851D01*
X132744129Y-100927111D01*
X132617466Y-101067785D01*
X132522821Y-101231715D01*
X132522818Y-101231722D01*
X132469490Y-101395851D01*
X132464326Y-101411744D01*
X132444540Y-101600000D01*
X130705513Y-101600000D01*
X130714035Y-101587830D01*
X130813903Y-101373663D01*
X130875063Y-101145408D01*
X130895659Y-100910000D01*
X130875063Y-100674592D01*
X130813903Y-100446337D01*
X130714035Y-100232171D01*
X130639590Y-100125851D01*
X130578494Y-100038597D01*
X130411402Y-99871506D01*
X130411396Y-99871501D01*
X130225842Y-99741575D01*
X130182217Y-99686998D01*
X130175023Y-99617500D01*
X130206546Y-99555145D01*
X130225842Y-99538425D01*
X130325195Y-99468857D01*
X130411401Y-99408495D01*
X130578495Y-99241401D01*
X130714035Y-99047830D01*
X130813903Y-98833663D01*
X130875063Y-98605408D01*
X130895659Y-98370000D01*
X130875063Y-98134592D01*
X130827558Y-97957299D01*
X134817241Y-97957299D01*
X134837027Y-98145555D01*
X134837028Y-98145558D01*
X134895519Y-98325576D01*
X134895522Y-98325583D01*
X134990168Y-98489515D01*
X135066372Y-98574148D01*
X135116830Y-98630187D01*
X135269966Y-98741447D01*
X135269971Y-98741450D01*
X135442893Y-98818441D01*
X135442898Y-98818443D01*
X135628055Y-98857799D01*
X135628056Y-98857799D01*
X135817345Y-98857799D01*
X135817347Y-98857799D01*
X136002504Y-98818443D01*
X136175431Y-98741450D01*
X136328572Y-98630187D01*
X136455234Y-98489515D01*
X136549880Y-98325583D01*
X136608375Y-98145555D01*
X136628161Y-97957299D01*
X136610578Y-97790000D01*
X141334540Y-97790000D01*
X141354326Y-97978256D01*
X141354327Y-97978259D01*
X141412818Y-98158277D01*
X141412821Y-98158284D01*
X141507467Y-98322216D01*
X141634128Y-98462888D01*
X141634129Y-98462888D01*
X141787265Y-98574148D01*
X141787270Y-98574151D01*
X141960192Y-98651142D01*
X141960197Y-98651144D01*
X142145354Y-98690500D01*
X142145355Y-98690500D01*
X142334644Y-98690500D01*
X142334646Y-98690500D01*
X142519803Y-98651144D01*
X142692730Y-98574151D01*
X142845871Y-98462888D01*
X142972533Y-98322216D01*
X143067179Y-98158284D01*
X143125674Y-97978256D01*
X143145460Y-97790000D01*
X156574540Y-97790000D01*
X156594326Y-97978256D01*
X156594327Y-97978259D01*
X156652818Y-98158277D01*
X156652821Y-98158284D01*
X156747467Y-98322216D01*
X156874129Y-98462888D01*
X157027265Y-98574148D01*
X157027270Y-98574151D01*
X157200192Y-98651142D01*
X157200197Y-98651144D01*
X157385354Y-98690500D01*
X157385355Y-98690500D01*
X157574644Y-98690500D01*
X157574646Y-98690500D01*
X157759803Y-98651144D01*
X157932730Y-98574151D01*
X158085871Y-98462888D01*
X158212533Y-98322216D01*
X158307179Y-98158284D01*
X158365674Y-97978256D01*
X158385460Y-97790000D01*
X158365674Y-97601744D01*
X158307179Y-97421716D01*
X158212533Y-97257784D01*
X158194693Y-97237971D01*
X158164464Y-97174981D01*
X158173089Y-97105646D01*
X158194694Y-97072028D01*
X158212533Y-97052216D01*
X158307179Y-96888284D01*
X158365674Y-96708256D01*
X158385460Y-96520000D01*
X158365674Y-96331744D01*
X158307179Y-96151716D01*
X158212533Y-95987784D01*
X158085871Y-95847112D01*
X158085870Y-95847111D01*
X157932734Y-95735851D01*
X157932729Y-95735848D01*
X157759807Y-95658857D01*
X157759802Y-95658855D01*
X157614000Y-95627865D01*
X157574646Y-95619500D01*
X157385354Y-95619500D01*
X157352897Y-95626398D01*
X157200197Y-95658855D01*
X157200192Y-95658857D01*
X157027270Y-95735848D01*
X157027265Y-95735851D01*
X156874129Y-95847111D01*
X156747466Y-95987785D01*
X156652821Y-96151715D01*
X156652818Y-96151722D01*
X156606699Y-96293663D01*
X156594326Y-96331744D01*
X156574540Y-96520000D01*
X156594326Y-96708256D01*
X156594327Y-96708259D01*
X156652818Y-96888277D01*
X156652821Y-96888284D01*
X156747467Y-97052216D01*
X156748175Y-97053002D01*
X156765307Y-97072030D01*
X156795535Y-97135022D01*
X156786909Y-97204357D01*
X156765307Y-97237970D01*
X156747466Y-97257785D01*
X156652821Y-97421715D01*
X156652818Y-97421722D01*
X156598462Y-97589014D01*
X156594326Y-97601744D01*
X156574540Y-97790000D01*
X143145460Y-97790000D01*
X143125674Y-97601744D01*
X143067179Y-97421716D01*
X142972533Y-97257784D01*
X142845871Y-97117112D01*
X142845870Y-97117111D01*
X142692734Y-97005851D01*
X142692729Y-97005848D01*
X142519807Y-96928857D01*
X142519802Y-96928855D01*
X142374000Y-96897865D01*
X142334646Y-96889500D01*
X142145354Y-96889500D01*
X142112897Y-96896398D01*
X141960197Y-96928855D01*
X141960192Y-96928857D01*
X141787270Y-97005848D01*
X141787265Y-97005851D01*
X141634129Y-97117111D01*
X141507466Y-97257785D01*
X141412821Y-97421715D01*
X141412818Y-97421722D01*
X141358462Y-97589014D01*
X141354326Y-97601744D01*
X141334540Y-97790000D01*
X136610578Y-97790000D01*
X136608375Y-97769043D01*
X136549880Y-97589015D01*
X136455234Y-97425083D01*
X136328572Y-97284411D01*
X136328571Y-97284410D01*
X136175435Y-97173150D01*
X136175430Y-97173147D01*
X136002508Y-97096156D01*
X136002503Y-97096154D01*
X135856701Y-97065164D01*
X135817347Y-97056799D01*
X135628055Y-97056799D01*
X135595598Y-97063697D01*
X135442898Y-97096154D01*
X135442893Y-97096156D01*
X135269971Y-97173147D01*
X135269966Y-97173150D01*
X135116830Y-97284410D01*
X134990167Y-97425084D01*
X134895522Y-97589014D01*
X134895519Y-97589021D01*
X134862004Y-97692171D01*
X134837027Y-97769043D01*
X134817241Y-97957299D01*
X130827558Y-97957299D01*
X130813903Y-97906337D01*
X130714035Y-97692171D01*
X130578495Y-97498599D01*
X130578494Y-97498597D01*
X130411402Y-97331506D01*
X130411396Y-97331501D01*
X130225842Y-97201575D01*
X130182217Y-97146998D01*
X130175023Y-97077500D01*
X130206546Y-97015145D01*
X130225842Y-96998425D01*
X130325195Y-96928857D01*
X130411401Y-96868495D01*
X130578495Y-96701401D01*
X130714035Y-96507830D01*
X130813903Y-96293663D01*
X130875063Y-96065408D01*
X130895659Y-95830000D01*
X130875063Y-95594592D01*
X130813903Y-95366337D01*
X130759654Y-95250000D01*
X146414540Y-95250000D01*
X146434326Y-95438256D01*
X146434327Y-95438259D01*
X146492818Y-95618277D01*
X146492821Y-95618284D01*
X146587467Y-95782216D01*
X146645899Y-95847111D01*
X146714129Y-95922888D01*
X146867265Y-96034148D01*
X146867270Y-96034151D01*
X147040192Y-96111142D01*
X147040197Y-96111144D01*
X147225354Y-96150500D01*
X147225355Y-96150500D01*
X147414644Y-96150500D01*
X147414646Y-96150500D01*
X147599803Y-96111144D01*
X147772730Y-96034151D01*
X147925871Y-95922888D01*
X148052533Y-95782216D01*
X148147179Y-95618284D01*
X148205674Y-95438256D01*
X148225460Y-95250000D01*
X148205674Y-95061744D01*
X148187292Y-95005173D01*
X148185298Y-94935335D01*
X148221378Y-94875502D01*
X148284078Y-94844673D01*
X148331005Y-94845567D01*
X148401774Y-94860609D01*
X148495354Y-94880500D01*
X148495355Y-94880500D01*
X148684644Y-94880500D01*
X148684646Y-94880500D01*
X148869803Y-94841144D01*
X149042730Y-94764151D01*
X149195871Y-94652888D01*
X149322533Y-94512216D01*
X149417179Y-94348284D01*
X149475674Y-94168256D01*
X149495460Y-93980000D01*
X150949040Y-93980000D01*
X150968826Y-94168256D01*
X150968827Y-94168259D01*
X151027318Y-94348277D01*
X151027321Y-94348284D01*
X151121967Y-94512216D01*
X151241396Y-94644855D01*
X151248629Y-94652888D01*
X151401765Y-94764148D01*
X151401770Y-94764151D01*
X151574692Y-94841142D01*
X151574697Y-94841144D01*
X151759854Y-94880500D01*
X151759855Y-94880500D01*
X151949144Y-94880500D01*
X151949146Y-94880500D01*
X152134303Y-94841144D01*
X152307230Y-94764151D01*
X152460371Y-94652888D01*
X152587033Y-94512216D01*
X152681679Y-94348284D01*
X152740174Y-94168256D01*
X152759960Y-93980000D01*
X152740174Y-93791744D01*
X152704427Y-93681726D01*
X152702432Y-93611885D01*
X152738512Y-93552052D01*
X152771918Y-93530131D01*
X152852730Y-93494151D01*
X153005871Y-93382888D01*
X153132533Y-93242216D01*
X153227179Y-93078284D01*
X153285674Y-92898256D01*
X153305460Y-92710000D01*
X153285674Y-92521744D01*
X153227179Y-92341716D01*
X153132533Y-92177784D01*
X153005871Y-92037112D01*
X153005870Y-92037111D01*
X152852734Y-91925851D01*
X152852729Y-91925848D01*
X152679807Y-91848857D01*
X152679802Y-91848855D01*
X152534001Y-91817865D01*
X152494646Y-91809500D01*
X152305354Y-91809500D01*
X152272897Y-91816398D01*
X152120197Y-91848855D01*
X152120192Y-91848857D01*
X151947270Y-91925848D01*
X151947265Y-91925851D01*
X151794129Y-92037111D01*
X151667466Y-92177785D01*
X151572821Y-92341715D01*
X151572818Y-92341722D01*
X151514327Y-92521740D01*
X151514326Y-92521744D01*
X151494540Y-92710000D01*
X151514326Y-92898256D01*
X151514327Y-92898259D01*
X151550073Y-93008273D01*
X151552068Y-93078114D01*
X151515988Y-93137947D01*
X151482579Y-93159870D01*
X151401767Y-93195850D01*
X151401765Y-93195851D01*
X151248629Y-93307111D01*
X151121966Y-93447785D01*
X151027321Y-93611715D01*
X151027318Y-93611722D01*
X150981199Y-93753663D01*
X150968826Y-93791744D01*
X150949040Y-93980000D01*
X149495460Y-93980000D01*
X149475674Y-93791744D01*
X149417179Y-93611716D01*
X149322533Y-93447784D01*
X149195871Y-93307112D01*
X149195870Y-93307111D01*
X149042734Y-93195851D01*
X149042729Y-93195848D01*
X148869807Y-93118857D01*
X148869802Y-93118855D01*
X148724001Y-93087865D01*
X148684646Y-93079500D01*
X148495354Y-93079500D01*
X148462897Y-93086398D01*
X148310197Y-93118855D01*
X148310192Y-93118857D01*
X148137270Y-93195848D01*
X148137265Y-93195851D01*
X147984129Y-93307111D01*
X147857466Y-93447785D01*
X147762821Y-93611715D01*
X147762818Y-93611722D01*
X147716699Y-93753663D01*
X147704326Y-93791744D01*
X147684540Y-93980000D01*
X147704326Y-94168256D01*
X147704327Y-94168259D01*
X147722706Y-94224824D01*
X147724701Y-94294665D01*
X147688621Y-94354498D01*
X147625920Y-94385326D01*
X147578995Y-94384433D01*
X147552862Y-94378878D01*
X147414646Y-94349500D01*
X147225354Y-94349500D01*
X147201840Y-94354498D01*
X147040197Y-94388855D01*
X147040192Y-94388857D01*
X146867270Y-94465848D01*
X146867265Y-94465851D01*
X146714129Y-94577111D01*
X146587466Y-94717785D01*
X146492821Y-94881715D01*
X146492818Y-94881722D01*
X146452706Y-95005176D01*
X146434326Y-95061744D01*
X146414540Y-95250000D01*
X130759654Y-95250000D01*
X130714035Y-95152171D01*
X130650717Y-95061742D01*
X130578494Y-94958597D01*
X130411402Y-94791506D01*
X130411396Y-94791501D01*
X130225842Y-94661575D01*
X130182217Y-94606998D01*
X130175023Y-94537500D01*
X130206546Y-94475145D01*
X130225842Y-94458425D01*
X130325195Y-94388857D01*
X130411401Y-94328495D01*
X130578495Y-94161401D01*
X130714035Y-93967830D01*
X130813903Y-93753663D01*
X130875063Y-93525408D01*
X130895659Y-93290000D01*
X130875063Y-93054592D01*
X130813903Y-92826337D01*
X130714035Y-92612171D01*
X130578495Y-92418599D01*
X130578494Y-92418597D01*
X130411402Y-92251506D01*
X130411396Y-92251501D01*
X130225842Y-92121575D01*
X130182217Y-92066998D01*
X130175023Y-91997500D01*
X130206546Y-91935145D01*
X130225842Y-91918425D01*
X130325195Y-91848857D01*
X130411401Y-91788495D01*
X130578495Y-91621401D01*
X130705513Y-91440000D01*
X138794540Y-91440000D01*
X138814326Y-91628256D01*
X138814327Y-91628259D01*
X138872818Y-91808277D01*
X138872821Y-91808284D01*
X138967467Y-91972216D01*
X139086896Y-92104855D01*
X139094129Y-92112888D01*
X139247265Y-92224148D01*
X139247270Y-92224151D01*
X139420192Y-92301142D01*
X139420197Y-92301144D01*
X139605354Y-92340500D01*
X139605355Y-92340500D01*
X139794644Y-92340500D01*
X139794646Y-92340500D01*
X139979803Y-92301144D01*
X140152730Y-92224151D01*
X140305871Y-92112888D01*
X140432533Y-91972216D01*
X140527179Y-91808284D01*
X140585674Y-91628256D01*
X140605460Y-91440000D01*
X140585674Y-91251744D01*
X140527179Y-91071716D01*
X140432533Y-90907784D01*
X140305871Y-90767112D01*
X140305870Y-90767111D01*
X140152734Y-90655851D01*
X140152729Y-90655848D01*
X139979807Y-90578857D01*
X139979802Y-90578855D01*
X139834000Y-90547865D01*
X139794646Y-90539500D01*
X139605354Y-90539500D01*
X139572897Y-90546398D01*
X139420197Y-90578855D01*
X139420192Y-90578857D01*
X139247270Y-90655848D01*
X139247265Y-90655851D01*
X139094129Y-90767111D01*
X138967466Y-90907785D01*
X138872821Y-91071715D01*
X138872818Y-91071722D01*
X138826699Y-91213663D01*
X138814326Y-91251744D01*
X138794540Y-91440000D01*
X130705513Y-91440000D01*
X130714035Y-91427830D01*
X130813903Y-91213663D01*
X130875063Y-90985408D01*
X130895659Y-90750000D01*
X130875063Y-90514592D01*
X130813903Y-90286337D01*
X130714035Y-90072171D01*
X130600008Y-89909322D01*
X130578494Y-89878597D01*
X130411402Y-89711506D01*
X130411396Y-89711501D01*
X130225842Y-89581575D01*
X130182217Y-89526998D01*
X130177352Y-89480002D01*
X142414723Y-89480002D01*
X142433793Y-89697975D01*
X142433793Y-89697979D01*
X142490422Y-89909322D01*
X142490424Y-89909326D01*
X142490425Y-89909330D01*
X142536661Y-90008484D01*
X142582897Y-90107638D01*
X142582898Y-90107639D01*
X142708402Y-90286877D01*
X142863123Y-90441598D01*
X143042361Y-90567102D01*
X143240670Y-90659575D01*
X143452023Y-90716207D01*
X143634926Y-90732208D01*
X143669998Y-90735277D01*
X143670000Y-90735277D01*
X143670002Y-90735277D01*
X143698254Y-90732805D01*
X143887977Y-90716207D01*
X144099330Y-90659575D01*
X144297639Y-90567102D01*
X144476877Y-90441598D01*
X144631598Y-90286877D01*
X144757102Y-90107639D01*
X144849575Y-89909330D01*
X144906207Y-89697977D01*
X144925277Y-89480002D01*
X147294723Y-89480002D01*
X147313793Y-89697975D01*
X147313793Y-89697979D01*
X147370422Y-89909322D01*
X147370424Y-89909326D01*
X147370425Y-89909330D01*
X147416661Y-90008484D01*
X147462897Y-90107638D01*
X147462898Y-90107639D01*
X147588402Y-90286877D01*
X147743123Y-90441598D01*
X147922361Y-90567102D01*
X148120670Y-90659575D01*
X148332023Y-90716207D01*
X148514926Y-90732208D01*
X148549998Y-90735277D01*
X148550000Y-90735277D01*
X148550002Y-90735277D01*
X148578254Y-90732805D01*
X148767977Y-90716207D01*
X148979330Y-90659575D01*
X149177639Y-90567102D01*
X149356877Y-90441598D01*
X149511598Y-90286877D01*
X149637102Y-90107639D01*
X149729575Y-89909330D01*
X149786207Y-89697977D01*
X149805277Y-89480000D01*
X149786207Y-89262023D01*
X149729575Y-89050670D01*
X149637102Y-88852362D01*
X149637100Y-88852359D01*
X149637099Y-88852357D01*
X149511599Y-88673124D01*
X149511596Y-88673121D01*
X149356877Y-88518402D01*
X149177639Y-88392898D01*
X149177640Y-88392898D01*
X149177638Y-88392897D01*
X149078484Y-88346661D01*
X148979330Y-88300425D01*
X148979326Y-88300424D01*
X148979322Y-88300422D01*
X148767977Y-88243793D01*
X148550002Y-88224723D01*
X148549998Y-88224723D01*
X148404682Y-88237436D01*
X148332023Y-88243793D01*
X148332020Y-88243793D01*
X148120677Y-88300422D01*
X148120668Y-88300426D01*
X147922361Y-88392898D01*
X147922357Y-88392900D01*
X147743121Y-88518402D01*
X147588402Y-88673121D01*
X147462900Y-88852357D01*
X147462898Y-88852361D01*
X147370426Y-89050668D01*
X147370422Y-89050677D01*
X147313793Y-89262020D01*
X147313793Y-89262024D01*
X147294723Y-89479997D01*
X147294723Y-89480002D01*
X144925277Y-89480002D01*
X144925277Y-89480000D01*
X144906207Y-89262023D01*
X144849575Y-89050670D01*
X144757102Y-88852362D01*
X144757100Y-88852359D01*
X144757099Y-88852357D01*
X144631599Y-88673124D01*
X144631596Y-88673121D01*
X144476877Y-88518402D01*
X144297639Y-88392898D01*
X144297640Y-88392898D01*
X144297638Y-88392897D01*
X144198484Y-88346661D01*
X144099330Y-88300425D01*
X144099326Y-88300424D01*
X144099322Y-88300422D01*
X143887977Y-88243793D01*
X143670002Y-88224723D01*
X143669998Y-88224723D01*
X143524682Y-88237436D01*
X143452023Y-88243793D01*
X143452020Y-88243793D01*
X143240677Y-88300422D01*
X143240668Y-88300426D01*
X143042361Y-88392898D01*
X143042357Y-88392900D01*
X142863121Y-88518402D01*
X142708402Y-88673121D01*
X142582900Y-88852357D01*
X142582898Y-88852361D01*
X142490426Y-89050668D01*
X142490422Y-89050677D01*
X142433793Y-89262020D01*
X142433793Y-89262024D01*
X142414723Y-89479997D01*
X142414723Y-89480002D01*
X130177352Y-89480002D01*
X130175023Y-89457500D01*
X130206546Y-89395145D01*
X130225842Y-89378425D01*
X130248026Y-89362891D01*
X130411401Y-89248495D01*
X130578495Y-89081401D01*
X130714035Y-88887830D01*
X130813903Y-88673663D01*
X130875063Y-88445408D01*
X130895659Y-88210000D01*
X130875063Y-87974592D01*
X130813903Y-87746337D01*
X130714035Y-87532171D01*
X130672055Y-87472216D01*
X130578494Y-87338597D01*
X130411402Y-87171506D01*
X130411396Y-87171501D01*
X130225842Y-87041575D01*
X130182217Y-86986998D01*
X130177352Y-86940000D01*
X136254540Y-86940000D01*
X136274326Y-87128256D01*
X136274327Y-87128259D01*
X136332818Y-87308277D01*
X136332821Y-87308284D01*
X136427467Y-87472216D01*
X136481451Y-87532171D01*
X136554129Y-87612888D01*
X136707265Y-87724148D01*
X136707270Y-87724151D01*
X136880192Y-87801142D01*
X136880197Y-87801144D01*
X137065354Y-87840500D01*
X137065355Y-87840500D01*
X137254644Y-87840500D01*
X137254646Y-87840500D01*
X137439803Y-87801144D01*
X137612730Y-87724151D01*
X137765871Y-87612888D01*
X137892533Y-87472216D01*
X137987179Y-87308284D01*
X138045674Y-87128256D01*
X138065460Y-86940000D01*
X138045674Y-86751744D01*
X137987179Y-86571716D01*
X137892533Y-86407784D01*
X137765871Y-86267112D01*
X137765870Y-86267111D01*
X137612734Y-86155851D01*
X137612729Y-86155848D01*
X137439807Y-86078857D01*
X137439802Y-86078855D01*
X137294000Y-86047865D01*
X137254646Y-86039500D01*
X137065354Y-86039500D01*
X137032897Y-86046398D01*
X136880197Y-86078855D01*
X136880192Y-86078857D01*
X136707270Y-86155848D01*
X136707265Y-86155851D01*
X136554129Y-86267111D01*
X136427466Y-86407785D01*
X136332821Y-86571715D01*
X136332818Y-86571722D01*
X136274327Y-86751740D01*
X136274326Y-86751744D01*
X136254540Y-86940000D01*
X130177352Y-86940000D01*
X130175023Y-86917500D01*
X130206546Y-86855145D01*
X130225842Y-86838425D01*
X130349635Y-86751744D01*
X130411401Y-86708495D01*
X130578495Y-86541401D01*
X130714035Y-86347830D01*
X130813903Y-86133663D01*
X130875063Y-85905408D01*
X130895659Y-85670000D01*
X154034540Y-85670000D01*
X154054326Y-85858256D01*
X154054327Y-85858259D01*
X154112818Y-86038277D01*
X154112821Y-86038284D01*
X154207467Y-86202216D01*
X154265899Y-86267111D01*
X154334129Y-86342888D01*
X154487265Y-86454148D01*
X154487270Y-86454151D01*
X154660192Y-86531142D01*
X154660197Y-86531144D01*
X154845354Y-86570500D01*
X154845355Y-86570500D01*
X155034644Y-86570500D01*
X155034646Y-86570500D01*
X155219803Y-86531144D01*
X155392730Y-86454151D01*
X155545871Y-86342888D01*
X155672533Y-86202216D01*
X155767179Y-86038284D01*
X155825674Y-85858256D01*
X155845460Y-85670000D01*
X155825674Y-85481744D01*
X155767179Y-85301716D01*
X155672533Y-85137784D01*
X155545871Y-84997112D01*
X155545870Y-84997111D01*
X155392734Y-84885851D01*
X155392729Y-84885848D01*
X155219807Y-84808857D01*
X155219802Y-84808855D01*
X155074000Y-84777865D01*
X155034646Y-84769500D01*
X154845354Y-84769500D01*
X154812897Y-84776398D01*
X154660197Y-84808855D01*
X154660192Y-84808857D01*
X154487270Y-84885848D01*
X154487265Y-84885851D01*
X154334129Y-84997111D01*
X154207466Y-85137785D01*
X154112821Y-85301715D01*
X154112818Y-85301722D01*
X154069645Y-85434596D01*
X154054326Y-85481744D01*
X154034540Y-85670000D01*
X130895659Y-85670000D01*
X130875063Y-85434592D01*
X130813903Y-85206337D01*
X130714035Y-84992171D01*
X130672055Y-84932216D01*
X130578494Y-84798597D01*
X130411402Y-84631506D01*
X130411396Y-84631501D01*
X130225842Y-84501575D01*
X130182217Y-84446998D01*
X130175023Y-84377500D01*
X130206546Y-84315145D01*
X130225842Y-84298425D01*
X130349635Y-84211744D01*
X130411401Y-84168495D01*
X130578495Y-84001401D01*
X130705513Y-83820000D01*
X137524540Y-83820000D01*
X137544326Y-84008256D01*
X137544327Y-84008259D01*
X137602818Y-84188277D01*
X137602821Y-84188284D01*
X137697467Y-84352216D01*
X137795000Y-84460537D01*
X137824129Y-84492888D01*
X137977265Y-84604148D01*
X137977270Y-84604151D01*
X138150192Y-84681142D01*
X138150197Y-84681144D01*
X138335354Y-84720500D01*
X138335355Y-84720500D01*
X138524644Y-84720500D01*
X138524646Y-84720500D01*
X138709803Y-84681144D01*
X138882730Y-84604151D01*
X138992117Y-84524676D01*
X139057920Y-84501198D01*
X139125974Y-84517023D01*
X139137871Y-84524668D01*
X139247266Y-84604148D01*
X139247270Y-84604151D01*
X139420192Y-84681142D01*
X139420197Y-84681144D01*
X139605354Y-84720500D01*
X139605355Y-84720500D01*
X139794644Y-84720500D01*
X139794646Y-84720500D01*
X139979803Y-84681144D01*
X140152730Y-84604151D01*
X140305871Y-84492888D01*
X140389508Y-84400000D01*
X142604540Y-84400000D01*
X142624326Y-84588256D01*
X142624327Y-84588259D01*
X142682818Y-84768277D01*
X142682821Y-84768284D01*
X142777467Y-84932216D01*
X142831451Y-84992171D01*
X142904129Y-85072888D01*
X143057265Y-85184148D01*
X143057270Y-85184151D01*
X143230192Y-85261142D01*
X143230197Y-85261144D01*
X143415354Y-85300500D01*
X143415355Y-85300500D01*
X143604644Y-85300500D01*
X143604646Y-85300500D01*
X143789803Y-85261144D01*
X143962730Y-85184151D01*
X144115871Y-85072888D01*
X144242533Y-84932216D01*
X144337179Y-84768284D01*
X144395674Y-84588256D01*
X144415460Y-84400000D01*
X144395674Y-84211744D01*
X144337179Y-84031716D01*
X144242533Y-83867784D01*
X144115871Y-83727112D01*
X144115870Y-83727111D01*
X143962734Y-83615851D01*
X143962729Y-83615848D01*
X143789807Y-83538857D01*
X143789802Y-83538855D01*
X143644000Y-83507865D01*
X143604646Y-83499500D01*
X143415354Y-83499500D01*
X143382897Y-83506398D01*
X143230197Y-83538855D01*
X143230192Y-83538857D01*
X143057270Y-83615848D01*
X143057265Y-83615851D01*
X142904129Y-83727111D01*
X142777466Y-83867785D01*
X142682821Y-84031715D01*
X142682818Y-84031722D01*
X142624327Y-84211740D01*
X142624326Y-84211744D01*
X142604540Y-84400000D01*
X140389508Y-84400000D01*
X140432533Y-84352216D01*
X140527179Y-84188284D01*
X140585674Y-84008256D01*
X140605460Y-83820000D01*
X140585674Y-83631744D01*
X140527179Y-83451716D01*
X140432533Y-83287784D01*
X140305871Y-83147112D01*
X140294432Y-83138801D01*
X140152734Y-83035851D01*
X140152729Y-83035848D01*
X139979807Y-82958857D01*
X139979802Y-82958855D01*
X139834000Y-82927865D01*
X139794646Y-82919500D01*
X139605354Y-82919500D01*
X139572897Y-82926398D01*
X139420197Y-82958855D01*
X139420192Y-82958857D01*
X139247270Y-83035848D01*
X139247265Y-83035851D01*
X139137885Y-83115321D01*
X139072079Y-83138801D01*
X139004025Y-83122975D01*
X138992115Y-83115321D01*
X138882734Y-83035851D01*
X138882729Y-83035848D01*
X138709807Y-82958857D01*
X138709802Y-82958855D01*
X138564000Y-82927865D01*
X138524646Y-82919500D01*
X138335354Y-82919500D01*
X138302897Y-82926398D01*
X138150197Y-82958855D01*
X138150192Y-82958857D01*
X137977270Y-83035848D01*
X137977265Y-83035851D01*
X137824129Y-83147111D01*
X137697466Y-83287785D01*
X137602821Y-83451715D01*
X137602818Y-83451722D01*
X137549490Y-83615851D01*
X137544326Y-83631744D01*
X137524540Y-83820000D01*
X130705513Y-83820000D01*
X130714035Y-83807830D01*
X130813903Y-83593663D01*
X130875063Y-83365408D01*
X130895659Y-83130000D01*
X130875063Y-82894592D01*
X130813903Y-82666337D01*
X130759654Y-82550000D01*
X141334540Y-82550000D01*
X141354326Y-82738256D01*
X141354327Y-82738259D01*
X141412818Y-82918277D01*
X141412821Y-82918284D01*
X141507467Y-83082216D01*
X141558417Y-83138801D01*
X141634129Y-83222888D01*
X141787265Y-83334148D01*
X141787270Y-83334151D01*
X141960192Y-83411142D01*
X141960197Y-83411144D01*
X142145354Y-83450500D01*
X142145355Y-83450500D01*
X142334644Y-83450500D01*
X142334646Y-83450500D01*
X142519803Y-83411144D01*
X142692730Y-83334151D01*
X142845871Y-83222888D01*
X142972533Y-83082216D01*
X143067179Y-82918284D01*
X143125674Y-82738256D01*
X143145460Y-82550000D01*
X143125674Y-82361744D01*
X143067179Y-82181716D01*
X142972533Y-82017784D01*
X142845871Y-81877112D01*
X142845870Y-81877111D01*
X142822319Y-81860000D01*
X146414540Y-81860000D01*
X146434326Y-82048256D01*
X146434327Y-82048259D01*
X146492818Y-82228277D01*
X146492821Y-82228284D01*
X146587467Y-82392216D01*
X146641451Y-82452171D01*
X146714129Y-82532888D01*
X146867265Y-82644148D01*
X146867270Y-82644151D01*
X147040192Y-82721142D01*
X147040197Y-82721144D01*
X147225354Y-82760500D01*
X147225355Y-82760500D01*
X147414644Y-82760500D01*
X147414646Y-82760500D01*
X147599803Y-82721144D01*
X147772730Y-82644151D01*
X147925871Y-82532888D01*
X148052533Y-82392216D01*
X148147179Y-82228284D01*
X148205674Y-82048256D01*
X148225460Y-81860000D01*
X148205674Y-81671744D01*
X148147179Y-81491716D01*
X148052533Y-81327784D01*
X147925871Y-81187112D01*
X147925870Y-81187111D01*
X147772734Y-81075851D01*
X147772729Y-81075848D01*
X147599807Y-80998857D01*
X147599802Y-80998855D01*
X147454000Y-80967865D01*
X147414646Y-80959500D01*
X147225354Y-80959500D01*
X147192897Y-80966398D01*
X147040197Y-80998855D01*
X147040192Y-80998857D01*
X146867270Y-81075848D01*
X146867265Y-81075851D01*
X146714129Y-81187111D01*
X146587466Y-81327785D01*
X146492821Y-81491715D01*
X146492818Y-81491722D01*
X146434327Y-81671740D01*
X146434326Y-81671744D01*
X146414540Y-81860000D01*
X142822319Y-81860000D01*
X142692734Y-81765851D01*
X142692729Y-81765848D01*
X142519807Y-81688857D01*
X142519802Y-81688855D01*
X142374000Y-81657865D01*
X142334646Y-81649500D01*
X142145354Y-81649500D01*
X142112897Y-81656398D01*
X141960197Y-81688855D01*
X141960192Y-81688857D01*
X141787270Y-81765848D01*
X141787265Y-81765851D01*
X141634129Y-81877111D01*
X141507466Y-82017785D01*
X141412821Y-82181715D01*
X141412818Y-82181722D01*
X141354327Y-82361740D01*
X141354326Y-82361744D01*
X141334540Y-82550000D01*
X130759654Y-82550000D01*
X130714035Y-82452171D01*
X130672054Y-82392216D01*
X130578496Y-82258600D01*
X130548173Y-82228277D01*
X130456567Y-82136671D01*
X130423084Y-82075351D01*
X130428068Y-82005659D01*
X130469939Y-81949725D01*
X130500915Y-81932810D01*
X130632331Y-81883796D01*
X130747546Y-81797546D01*
X130833796Y-81682331D01*
X130884091Y-81547483D01*
X130890500Y-81487873D01*
X130890499Y-79692128D01*
X130884091Y-79632517D01*
X130833884Y-79497906D01*
X130833797Y-79497671D01*
X130833793Y-79497664D01*
X130747547Y-79382455D01*
X130747544Y-79382452D01*
X130664119Y-79320000D01*
X145144540Y-79320000D01*
X145164326Y-79508256D01*
X145164327Y-79508259D01*
X145222818Y-79688277D01*
X145222821Y-79688284D01*
X145317467Y-79852216D01*
X145430452Y-79977698D01*
X145444129Y-79992888D01*
X145597265Y-80104148D01*
X145597270Y-80104151D01*
X145770192Y-80181142D01*
X145770197Y-80181144D01*
X145955354Y-80220500D01*
X145955355Y-80220500D01*
X146144644Y-80220500D01*
X146144646Y-80220500D01*
X146329803Y-80181144D01*
X146502730Y-80104151D01*
X146655871Y-79992888D01*
X146782533Y-79852216D01*
X146877179Y-79688284D01*
X146935674Y-79508256D01*
X146955460Y-79320000D01*
X146935674Y-79131744D01*
X146877179Y-78951716D01*
X146782533Y-78787784D01*
X146655871Y-78647112D01*
X146655870Y-78647111D01*
X146502734Y-78535851D01*
X146502729Y-78535848D01*
X146329807Y-78458857D01*
X146329802Y-78458855D01*
X146184001Y-78427865D01*
X146144646Y-78419500D01*
X145955354Y-78419500D01*
X145922897Y-78426398D01*
X145770197Y-78458855D01*
X145770192Y-78458857D01*
X145597270Y-78535848D01*
X145597265Y-78535851D01*
X145444129Y-78647111D01*
X145317466Y-78787785D01*
X145222821Y-78951715D01*
X145222818Y-78951722D01*
X145164327Y-79131740D01*
X145164326Y-79131744D01*
X145144540Y-79320000D01*
X130664119Y-79320000D01*
X130632335Y-79296206D01*
X130632328Y-79296202D01*
X130497482Y-79245908D01*
X130497483Y-79245908D01*
X130437883Y-79239501D01*
X130437881Y-79239500D01*
X130437873Y-79239500D01*
X130437864Y-79239500D01*
X128642129Y-79239500D01*
X128642123Y-79239501D01*
X128582516Y-79245908D01*
X128447671Y-79296202D01*
X128447664Y-79296206D01*
X128332455Y-79382452D01*
X128332452Y-79382455D01*
X128246206Y-79497664D01*
X128246202Y-79497671D01*
X128195908Y-79632517D01*
X128189914Y-79688277D01*
X128189501Y-79692123D01*
X128189500Y-79692135D01*
X128189500Y-81487870D01*
X128189501Y-81487876D01*
X128195908Y-81547483D01*
X128246202Y-81682328D01*
X128246206Y-81682335D01*
X128332452Y-81797544D01*
X128332455Y-81797547D01*
X128447664Y-81883793D01*
X128447671Y-81883797D01*
X128579081Y-81932810D01*
X128635015Y-81974681D01*
X128659432Y-82040145D01*
X128644580Y-82108418D01*
X128623430Y-82136673D01*
X128501503Y-82258600D01*
X128365965Y-82452169D01*
X128365964Y-82452171D01*
X128266098Y-82666335D01*
X128266094Y-82666344D01*
X128204938Y-82894586D01*
X128204936Y-82894596D01*
X128184341Y-83129999D01*
X128184341Y-83130000D01*
X128204936Y-83365403D01*
X128204938Y-83365413D01*
X128266094Y-83593655D01*
X128266096Y-83593659D01*
X128266097Y-83593663D01*
X128365964Y-83807830D01*
X128365965Y-83807830D01*
X128365967Y-83807834D01*
X128501501Y-84001395D01*
X128501506Y-84001402D01*
X128668597Y-84168493D01*
X128668603Y-84168498D01*
X128854158Y-84298425D01*
X128897783Y-84353002D01*
X128904977Y-84422500D01*
X128873454Y-84484855D01*
X128854158Y-84501575D01*
X128668597Y-84631505D01*
X128501505Y-84798597D01*
X128365965Y-84992169D01*
X128365964Y-84992171D01*
X128266098Y-85206335D01*
X128266094Y-85206344D01*
X128204938Y-85434586D01*
X128204936Y-85434596D01*
X128184341Y-85669999D01*
X128184341Y-85670000D01*
X128204936Y-85905403D01*
X128204938Y-85905413D01*
X128266094Y-86133655D01*
X128266096Y-86133659D01*
X128266097Y-86133663D01*
X128363661Y-86342888D01*
X128365965Y-86347830D01*
X128365967Y-86347834D01*
X128501501Y-86541395D01*
X128501506Y-86541402D01*
X128668597Y-86708493D01*
X128668603Y-86708498D01*
X128854158Y-86838425D01*
X128897783Y-86893002D01*
X128904977Y-86962500D01*
X128873454Y-87024855D01*
X128854158Y-87041575D01*
X128668597Y-87171505D01*
X128501505Y-87338597D01*
X128365965Y-87532169D01*
X128365964Y-87532171D01*
X128266098Y-87746335D01*
X128266094Y-87746344D01*
X128204938Y-87974586D01*
X128204936Y-87974596D01*
X128184341Y-88209999D01*
X128184341Y-88210000D01*
X128204936Y-88445403D01*
X128204938Y-88445413D01*
X128266094Y-88673655D01*
X128266096Y-88673659D01*
X128266097Y-88673663D01*
X128349426Y-88852362D01*
X128365965Y-88887830D01*
X128365967Y-88887834D01*
X128501501Y-89081395D01*
X128501506Y-89081402D01*
X128668597Y-89248493D01*
X128668603Y-89248498D01*
X128854158Y-89378425D01*
X128897783Y-89433002D01*
X128904977Y-89502500D01*
X128873454Y-89564855D01*
X128854158Y-89581575D01*
X128668597Y-89711505D01*
X128501505Y-89878597D01*
X128365965Y-90072169D01*
X128365964Y-90072171D01*
X128266098Y-90286335D01*
X128266094Y-90286344D01*
X128204938Y-90514586D01*
X128204936Y-90514596D01*
X128184341Y-90749999D01*
X128184341Y-90750000D01*
X128204936Y-90985403D01*
X128204938Y-90985413D01*
X128266094Y-91213655D01*
X128266096Y-91213659D01*
X128266097Y-91213663D01*
X128283853Y-91251740D01*
X128365965Y-91427830D01*
X128365967Y-91427834D01*
X128501501Y-91621395D01*
X128501506Y-91621402D01*
X128668597Y-91788493D01*
X128668603Y-91788498D01*
X128854158Y-91918425D01*
X128897783Y-91973002D01*
X128904977Y-92042500D01*
X128873454Y-92104855D01*
X128854158Y-92121575D01*
X128668597Y-92251505D01*
X128501505Y-92418597D01*
X128365965Y-92612169D01*
X128365964Y-92612171D01*
X128266098Y-92826335D01*
X128266094Y-92826344D01*
X128204938Y-93054586D01*
X128204936Y-93054596D01*
X128184341Y-93289999D01*
X128184341Y-93290000D01*
X128204936Y-93525403D01*
X128204938Y-93525413D01*
X128266094Y-93753655D01*
X128266096Y-93753659D01*
X128266097Y-93753663D01*
X128283853Y-93791740D01*
X128365965Y-93967830D01*
X128365967Y-93967834D01*
X128501501Y-94161395D01*
X128501506Y-94161402D01*
X128668597Y-94328493D01*
X128668603Y-94328498D01*
X128854158Y-94458425D01*
X128897783Y-94513002D01*
X128904977Y-94582500D01*
X128873454Y-94644855D01*
X128854158Y-94661575D01*
X128668597Y-94791505D01*
X128501505Y-94958597D01*
X128365965Y-95152169D01*
X128365964Y-95152171D01*
X128266098Y-95366335D01*
X128266094Y-95366344D01*
X128204938Y-95594586D01*
X128204936Y-95594596D01*
X128184341Y-95829999D01*
X128184341Y-95830000D01*
X128204936Y-96065403D01*
X128204938Y-96065413D01*
X128266094Y-96293655D01*
X128266096Y-96293659D01*
X128266097Y-96293663D01*
X128283853Y-96331740D01*
X128365965Y-96507830D01*
X128365967Y-96507834D01*
X128501501Y-96701395D01*
X128501506Y-96701402D01*
X128668597Y-96868493D01*
X128668603Y-96868498D01*
X128854158Y-96998425D01*
X128897783Y-97053002D01*
X128904977Y-97122500D01*
X128873454Y-97184855D01*
X128854158Y-97201575D01*
X128668597Y-97331505D01*
X128501505Y-97498597D01*
X128365965Y-97692169D01*
X128365964Y-97692171D01*
X128266098Y-97906335D01*
X128266094Y-97906344D01*
X128204938Y-98134586D01*
X128204936Y-98134596D01*
X128184341Y-98369999D01*
X128184341Y-98370000D01*
X128204936Y-98605403D01*
X128204938Y-98605413D01*
X128266094Y-98833655D01*
X128266096Y-98833659D01*
X128266097Y-98833663D01*
X128277352Y-98857799D01*
X128365965Y-99047830D01*
X128365967Y-99047834D01*
X128501501Y-99241395D01*
X128501506Y-99241402D01*
X128668597Y-99408493D01*
X128668603Y-99408498D01*
X128854158Y-99538425D01*
X128897783Y-99593002D01*
X128904977Y-99662500D01*
X128873454Y-99724855D01*
X128854158Y-99741575D01*
X128668597Y-99871505D01*
X128501505Y-100038597D01*
X128365965Y-100232169D01*
X128365964Y-100232171D01*
X128266098Y-100446335D01*
X128266094Y-100446344D01*
X128204938Y-100674586D01*
X128204936Y-100674596D01*
X128184341Y-100909999D01*
X128184341Y-100910000D01*
X128204936Y-101145403D01*
X128204938Y-101145413D01*
X128266094Y-101373655D01*
X128266096Y-101373659D01*
X128266097Y-101373663D01*
X128363661Y-101582888D01*
X128365965Y-101587830D01*
X128365967Y-101587834D01*
X128501501Y-101781395D01*
X128501506Y-101781402D01*
X128668597Y-101948493D01*
X128668603Y-101948498D01*
X128854158Y-102078425D01*
X128897783Y-102133002D01*
X128904977Y-102202500D01*
X128873454Y-102264855D01*
X128854158Y-102281575D01*
X128668597Y-102411505D01*
X128501505Y-102578597D01*
X128365965Y-102772169D01*
X128365964Y-102772171D01*
X128266098Y-102986335D01*
X128266094Y-102986344D01*
X128204938Y-103214586D01*
X128204936Y-103214596D01*
X128184341Y-103449999D01*
X128184341Y-103450000D01*
X128204936Y-103685403D01*
X128204938Y-103685413D01*
X128266094Y-103913655D01*
X128266096Y-103913659D01*
X128266097Y-103913663D01*
X128298063Y-103982214D01*
X128365965Y-104127830D01*
X128365967Y-104127834D01*
X128501501Y-104321395D01*
X128501506Y-104321402D01*
X128668597Y-104488493D01*
X128668603Y-104488498D01*
X128854158Y-104618425D01*
X128897783Y-104673002D01*
X128904977Y-104742500D01*
X128873454Y-104804855D01*
X128854158Y-104821575D01*
X128668597Y-104951505D01*
X128501505Y-105118597D01*
X128365965Y-105312169D01*
X128365964Y-105312171D01*
X128266098Y-105526335D01*
X128266094Y-105526344D01*
X128204938Y-105754586D01*
X128204936Y-105754596D01*
X128184341Y-105989999D01*
X128184341Y-105990000D01*
X128204936Y-106225403D01*
X128204938Y-106225413D01*
X128266094Y-106453655D01*
X128266096Y-106453659D01*
X128266097Y-106453663D01*
X128348575Y-106630537D01*
X128365965Y-106667830D01*
X128365967Y-106667834D01*
X128501501Y-106861395D01*
X128501506Y-106861402D01*
X128668597Y-107028493D01*
X128668603Y-107028498D01*
X128854158Y-107158425D01*
X128897783Y-107213002D01*
X128904977Y-107282500D01*
X128873454Y-107344855D01*
X128854158Y-107361575D01*
X128668597Y-107491505D01*
X128501505Y-107658597D01*
X128365965Y-107852169D01*
X128365964Y-107852171D01*
X128266098Y-108066335D01*
X128266094Y-108066344D01*
X128204938Y-108294586D01*
X128204936Y-108294596D01*
X128184341Y-108529999D01*
X128184341Y-108530000D01*
X128204936Y-108765403D01*
X128204938Y-108765413D01*
X128266094Y-108993655D01*
X128266096Y-108993659D01*
X128266097Y-108993663D01*
X128365964Y-109207830D01*
X128365965Y-109207830D01*
X128365967Y-109207834D01*
X128501501Y-109401395D01*
X128501506Y-109401402D01*
X128668597Y-109568493D01*
X128668603Y-109568498D01*
X128854158Y-109698425D01*
X128897783Y-109753002D01*
X128904977Y-109822500D01*
X128873454Y-109884855D01*
X128854158Y-109901575D01*
X128668597Y-110031505D01*
X128501505Y-110198597D01*
X128365965Y-110392169D01*
X128365964Y-110392171D01*
X128266098Y-110606335D01*
X128266094Y-110606344D01*
X128204938Y-110834586D01*
X128204936Y-110834596D01*
X128184341Y-111069999D01*
X128184341Y-111070000D01*
X128204936Y-111305403D01*
X128204938Y-111305413D01*
X128266094Y-111533655D01*
X128266096Y-111533659D01*
X128266097Y-111533663D01*
X128363661Y-111742888D01*
X128365965Y-111747830D01*
X128365967Y-111747834D01*
X128501501Y-111941395D01*
X128501506Y-111941402D01*
X128668597Y-112108493D01*
X128668603Y-112108498D01*
X128854158Y-112238425D01*
X128897783Y-112293002D01*
X128904977Y-112362500D01*
X128873454Y-112424855D01*
X128854158Y-112441575D01*
X128668597Y-112571505D01*
X128501505Y-112738597D01*
X128365965Y-112932169D01*
X128365964Y-112932171D01*
X128266098Y-113146335D01*
X128266094Y-113146344D01*
X128204938Y-113374586D01*
X128204936Y-113374596D01*
X128184341Y-113609999D01*
X128184341Y-113610000D01*
X128204936Y-113845403D01*
X128204938Y-113845413D01*
X128266094Y-114073655D01*
X128266096Y-114073659D01*
X128266097Y-114073663D01*
X128283853Y-114111740D01*
X128365965Y-114287830D01*
X128365967Y-114287834D01*
X128501501Y-114481395D01*
X128501506Y-114481402D01*
X128668597Y-114648493D01*
X128668603Y-114648498D01*
X128854158Y-114778425D01*
X128897783Y-114833002D01*
X128904977Y-114902500D01*
X128873454Y-114964855D01*
X128854158Y-114981575D01*
X128668597Y-115111505D01*
X128501505Y-115278597D01*
X128365965Y-115472169D01*
X128365964Y-115472171D01*
X128266098Y-115686335D01*
X128266094Y-115686344D01*
X128204938Y-115914586D01*
X128204936Y-115914596D01*
X128184341Y-116149999D01*
X128184341Y-116150000D01*
X128204936Y-116385403D01*
X128204938Y-116385413D01*
X128266094Y-116613655D01*
X128266096Y-116613659D01*
X128266097Y-116613663D01*
X128298063Y-116682214D01*
X128365965Y-116827830D01*
X128365967Y-116827834D01*
X128501501Y-117021395D01*
X128501506Y-117021402D01*
X128668597Y-117188493D01*
X128668603Y-117188498D01*
X128854158Y-117318425D01*
X128897783Y-117373002D01*
X128904977Y-117442500D01*
X128873454Y-117504855D01*
X128854158Y-117521575D01*
X128668597Y-117651505D01*
X128501505Y-117818597D01*
X128365965Y-118012169D01*
X128365964Y-118012171D01*
X128266098Y-118226335D01*
X128266094Y-118226344D01*
X128204938Y-118454586D01*
X128204936Y-118454596D01*
X128184341Y-118689999D01*
X128184341Y-118690000D01*
X128204936Y-118925403D01*
X128204938Y-118925413D01*
X128266094Y-119153655D01*
X128266096Y-119153659D01*
X128266097Y-119153663D01*
X128298063Y-119222214D01*
X128365965Y-119367830D01*
X128365967Y-119367834D01*
X128501501Y-119561395D01*
X128501506Y-119561402D01*
X128668597Y-119728493D01*
X128668603Y-119728498D01*
X128854158Y-119858425D01*
X128897783Y-119913002D01*
X128904977Y-119982500D01*
X128873454Y-120044855D01*
X128854158Y-120061575D01*
X128668597Y-120191505D01*
X128501505Y-120358597D01*
X128365965Y-120552169D01*
X128365964Y-120552171D01*
X128266098Y-120766335D01*
X128266094Y-120766344D01*
X128204938Y-120994586D01*
X128204936Y-120994596D01*
X128184341Y-121229999D01*
X128184341Y-121230000D01*
X128204936Y-121465403D01*
X128204938Y-121465413D01*
X128266094Y-121693655D01*
X128266096Y-121693659D01*
X128266097Y-121693663D01*
X128360348Y-121895784D01*
X128365965Y-121907830D01*
X128365967Y-121907834D01*
X128501501Y-122101395D01*
X128501506Y-122101402D01*
X128668597Y-122268493D01*
X128668603Y-122268498D01*
X128854594Y-122398730D01*
X128898219Y-122453307D01*
X128905413Y-122522805D01*
X128873890Y-122585160D01*
X128854595Y-122601880D01*
X128668922Y-122731890D01*
X128668920Y-122731891D01*
X128501891Y-122898920D01*
X128501886Y-122898926D01*
X128366400Y-123092420D01*
X128366399Y-123092422D01*
X128266570Y-123306507D01*
X128266567Y-123306513D01*
X128209364Y-123519999D01*
X128209364Y-123520000D01*
X128926653Y-123520000D01*
X128993692Y-123539685D01*
X129039447Y-123592489D01*
X129049391Y-123661647D01*
X129045631Y-123678933D01*
X129040000Y-123698111D01*
X129040000Y-123841888D01*
X129045631Y-123861067D01*
X129045630Y-123930936D01*
X129007855Y-123989714D01*
X128944299Y-124018738D01*
X128926653Y-124020000D01*
X128209364Y-124020000D01*
X128266567Y-124233486D01*
X128266570Y-124233492D01*
X128366399Y-124447578D01*
X128501894Y-124641082D01*
X128668917Y-124808105D01*
X128854595Y-124938119D01*
X128898219Y-124992696D01*
X128905412Y-125062195D01*
X128873890Y-125124549D01*
X128854595Y-125141269D01*
X128668594Y-125271508D01*
X128501505Y-125438597D01*
X128365965Y-125632169D01*
X128365964Y-125632171D01*
X128266098Y-125846335D01*
X128266094Y-125846344D01*
X128204938Y-126074586D01*
X128204936Y-126074596D01*
X128184341Y-126309999D01*
X128184341Y-126310000D01*
X128204936Y-126545403D01*
X128204938Y-126545413D01*
X128266094Y-126773655D01*
X128266096Y-126773659D01*
X128266097Y-126773663D01*
X128352998Y-126960023D01*
X128365965Y-126987830D01*
X128365967Y-126987834D01*
X128501501Y-127181395D01*
X128501506Y-127181402D01*
X128668597Y-127348493D01*
X128668603Y-127348498D01*
X128854158Y-127478425D01*
X128897783Y-127533002D01*
X128904977Y-127602500D01*
X128873454Y-127664855D01*
X128854158Y-127681575D01*
X128668597Y-127811505D01*
X128501505Y-127978597D01*
X128365965Y-128172169D01*
X128365964Y-128172171D01*
X128266098Y-128386335D01*
X128266094Y-128386344D01*
X128204938Y-128614586D01*
X128204936Y-128614596D01*
X128184341Y-128849999D01*
X128184341Y-128850000D01*
X125730500Y-128850000D01*
X125730500Y-76780000D01*
X138794540Y-76780000D01*
X138814326Y-76968256D01*
X138814327Y-76968259D01*
X138872818Y-77148277D01*
X138872821Y-77148284D01*
X138967467Y-77312216D01*
X139094128Y-77452887D01*
X139094129Y-77452888D01*
X139247265Y-77564148D01*
X139247270Y-77564151D01*
X139420192Y-77641142D01*
X139420197Y-77641144D01*
X139605354Y-77680500D01*
X139605355Y-77680500D01*
X139794644Y-77680500D01*
X139794646Y-77680500D01*
X139979803Y-77641144D01*
X140152730Y-77564151D01*
X140305871Y-77452888D01*
X140432533Y-77312216D01*
X140527179Y-77148284D01*
X140585674Y-76968256D01*
X140605460Y-76780000D01*
X140585674Y-76591744D01*
X140527179Y-76411716D01*
X140432533Y-76247784D01*
X140305871Y-76107112D01*
X140305870Y-76107111D01*
X140152734Y-75995851D01*
X140152729Y-75995848D01*
X139979807Y-75918857D01*
X139979802Y-75918855D01*
X139834000Y-75887865D01*
X139794646Y-75879500D01*
X139605354Y-75879500D01*
X139572897Y-75886398D01*
X139420197Y-75918855D01*
X139420192Y-75918857D01*
X139247270Y-75995848D01*
X139247265Y-75995851D01*
X139094129Y-76107111D01*
X138967466Y-76247785D01*
X138872821Y-76411715D01*
X138872818Y-76411722D01*
X138814327Y-76591740D01*
X138814326Y-76591744D01*
X138794540Y-76780000D01*
X125730500Y-76780000D01*
X125730500Y-66620001D01*
X131994843Y-66620001D01*
X132015430Y-66855315D01*
X132015432Y-66855326D01*
X132076566Y-67083483D01*
X132076570Y-67083492D01*
X132176400Y-67297579D01*
X132176402Y-67297583D01*
X132235072Y-67381373D01*
X132235073Y-67381373D01*
X132741050Y-66875395D01*
X132802373Y-66841910D01*
X132872064Y-66846894D01*
X132927998Y-66888765D01*
X132933039Y-66896025D01*
X132933048Y-66896039D01*
X132968239Y-66950798D01*
X133083602Y-67050759D01*
X133081293Y-67053422D01*
X133116006Y-67093499D01*
X133125935Y-67162660D01*
X133096898Y-67226210D01*
X133090882Y-67232669D01*
X132584393Y-67739157D01*
X132573833Y-67791705D01*
X132525218Y-67841888D01*
X132503076Y-67851718D01*
X132430880Y-67875641D01*
X132430875Y-67875643D01*
X132281654Y-67967684D01*
X132157684Y-68091654D01*
X132065643Y-68240875D01*
X132065641Y-68240880D01*
X132010494Y-68407302D01*
X132010493Y-68407309D01*
X132000000Y-68510013D01*
X132000000Y-68910000D01*
X132736653Y-68910000D01*
X132803692Y-68929685D01*
X132849447Y-68982489D01*
X132859391Y-69051647D01*
X132855631Y-69068933D01*
X132850000Y-69088111D01*
X132850000Y-69231888D01*
X132855631Y-69251067D01*
X132855630Y-69320936D01*
X132817855Y-69379714D01*
X132754299Y-69408738D01*
X132736653Y-69410000D01*
X132000001Y-69410000D01*
X132000001Y-69809986D01*
X132010494Y-69912697D01*
X132065641Y-70079119D01*
X132065643Y-70079124D01*
X132157684Y-70228345D01*
X132281654Y-70352315D01*
X132430875Y-70444356D01*
X132430880Y-70444358D01*
X132597302Y-70499505D01*
X132597309Y-70499506D01*
X132700019Y-70509999D01*
X133099999Y-70509999D01*
X133100000Y-70509998D01*
X133100000Y-69772301D01*
X133119685Y-69705262D01*
X133172489Y-69659507D01*
X133241647Y-69649563D01*
X133314237Y-69660000D01*
X133314238Y-69660000D01*
X133385762Y-69660000D01*
X133385763Y-69660000D01*
X133458353Y-69649563D01*
X133527512Y-69659507D01*
X133580315Y-69705262D01*
X133600000Y-69772301D01*
X133600000Y-70509999D01*
X133999972Y-70509999D01*
X133999986Y-70509998D01*
X134102697Y-70499505D01*
X134269119Y-70444358D01*
X134269124Y-70444356D01*
X134418345Y-70352315D01*
X134542315Y-70228345D01*
X134634356Y-70079124D01*
X134634357Y-70079120D01*
X134637284Y-70070289D01*
X134677055Y-70012843D01*
X134741570Y-69986018D01*
X134810346Y-69998331D01*
X134847568Y-70027681D01*
X134847677Y-70027573D01*
X134848590Y-70028486D01*
X134849976Y-70029579D01*
X134851501Y-70031396D01*
X134851505Y-70031401D01*
X135018599Y-70198495D01*
X135115384Y-70266265D01*
X135212165Y-70334032D01*
X135212167Y-70334033D01*
X135212170Y-70334035D01*
X135426337Y-70433903D01*
X135426343Y-70433904D01*
X135426344Y-70433905D01*
X135465356Y-70444358D01*
X135654592Y-70495063D01*
X135842918Y-70511539D01*
X135889999Y-70515659D01*
X135890000Y-70515659D01*
X135890001Y-70515659D01*
X135929234Y-70512226D01*
X136125408Y-70495063D01*
X136353663Y-70433903D01*
X136567830Y-70334035D01*
X136761401Y-70198495D01*
X136928495Y-70031401D01*
X137058426Y-69845841D01*
X137113002Y-69802217D01*
X137182500Y-69795023D01*
X137244855Y-69826546D01*
X137261575Y-69845842D01*
X137391500Y-70031395D01*
X137391505Y-70031401D01*
X137558599Y-70198495D01*
X137655384Y-70266265D01*
X137752165Y-70334032D01*
X137752167Y-70334033D01*
X137752170Y-70334035D01*
X137966337Y-70433903D01*
X137966343Y-70433904D01*
X137966344Y-70433905D01*
X138005356Y-70444358D01*
X138194592Y-70495063D01*
X138382918Y-70511539D01*
X138429999Y-70515659D01*
X138430000Y-70515659D01*
X138430001Y-70515659D01*
X138469234Y-70512226D01*
X138665408Y-70495063D01*
X138893663Y-70433903D01*
X139107830Y-70334035D01*
X139301401Y-70198495D01*
X139468495Y-70031401D01*
X139598426Y-69845840D01*
X139653001Y-69802217D01*
X139722499Y-69795023D01*
X139784854Y-69826546D01*
X139801574Y-69845841D01*
X139931505Y-70031401D01*
X140098599Y-70198495D01*
X140195384Y-70266265D01*
X140292165Y-70334032D01*
X140292167Y-70334033D01*
X140292170Y-70334035D01*
X140506337Y-70433903D01*
X140506343Y-70433904D01*
X140506344Y-70433905D01*
X140545356Y-70444358D01*
X140734592Y-70495063D01*
X140922918Y-70511539D01*
X140969999Y-70515659D01*
X140970000Y-70515659D01*
X140970001Y-70515659D01*
X141009234Y-70512226D01*
X141205408Y-70495063D01*
X141433663Y-70433903D01*
X141647830Y-70334035D01*
X141841401Y-70198495D01*
X142008495Y-70031401D01*
X142138426Y-69845841D01*
X142193002Y-69802217D01*
X142262500Y-69795023D01*
X142324855Y-69826546D01*
X142341575Y-69845842D01*
X142471500Y-70031395D01*
X142471505Y-70031401D01*
X142638599Y-70198495D01*
X142735384Y-70266265D01*
X142832165Y-70334032D01*
X142832167Y-70334033D01*
X142832170Y-70334035D01*
X143046337Y-70433903D01*
X143046343Y-70433904D01*
X143046344Y-70433905D01*
X143085356Y-70444358D01*
X143274592Y-70495063D01*
X143462918Y-70511539D01*
X143509999Y-70515659D01*
X143510000Y-70515659D01*
X143510001Y-70515659D01*
X143549234Y-70512226D01*
X143745408Y-70495063D01*
X143973663Y-70433903D01*
X144187830Y-70334035D01*
X144381401Y-70198495D01*
X144548495Y-70031401D01*
X144678426Y-69845840D01*
X144733001Y-69802217D01*
X144802499Y-69795023D01*
X144864854Y-69826546D01*
X144881574Y-69845841D01*
X145011505Y-70031401D01*
X145178599Y-70198495D01*
X145275384Y-70266265D01*
X145372165Y-70334032D01*
X145372167Y-70334033D01*
X145372170Y-70334035D01*
X145586337Y-70433903D01*
X145586343Y-70433904D01*
X145586344Y-70433905D01*
X145625356Y-70444358D01*
X145814592Y-70495063D01*
X146002918Y-70511539D01*
X146049999Y-70515659D01*
X146050000Y-70515659D01*
X146050001Y-70515659D01*
X146089234Y-70512226D01*
X146285408Y-70495063D01*
X146513663Y-70433903D01*
X146727830Y-70334035D01*
X146921401Y-70198495D01*
X147088495Y-70031401D01*
X147218426Y-69845841D01*
X147273002Y-69802217D01*
X147342500Y-69795023D01*
X147404855Y-69826546D01*
X147421575Y-69845842D01*
X147551500Y-70031395D01*
X147551505Y-70031401D01*
X147718599Y-70198495D01*
X147815384Y-70266265D01*
X147912165Y-70334032D01*
X147912167Y-70334033D01*
X147912170Y-70334035D01*
X148126337Y-70433903D01*
X148126343Y-70433904D01*
X148126344Y-70433905D01*
X148165356Y-70444358D01*
X148354592Y-70495063D01*
X148542918Y-70511539D01*
X148589999Y-70515659D01*
X148590000Y-70515659D01*
X148590001Y-70515659D01*
X148629234Y-70512226D01*
X148825408Y-70495063D01*
X149053663Y-70433903D01*
X149267830Y-70334035D01*
X149461401Y-70198495D01*
X149628495Y-70031401D01*
X149758426Y-69845840D01*
X149813001Y-69802217D01*
X149882499Y-69795023D01*
X149944854Y-69826546D01*
X149961574Y-69845841D01*
X150091505Y-70031401D01*
X150258599Y-70198495D01*
X150355384Y-70266265D01*
X150452165Y-70334032D01*
X150452167Y-70334033D01*
X150452170Y-70334035D01*
X150666337Y-70433903D01*
X150666343Y-70433904D01*
X150666344Y-70433905D01*
X150705356Y-70444358D01*
X150894592Y-70495063D01*
X151082918Y-70511539D01*
X151129999Y-70515659D01*
X151130000Y-70515659D01*
X151130001Y-70515659D01*
X151169234Y-70512226D01*
X151365408Y-70495063D01*
X151593663Y-70433903D01*
X151807830Y-70334035D01*
X152001401Y-70198495D01*
X152168495Y-70031401D01*
X152298426Y-69845841D01*
X152353002Y-69802217D01*
X152422500Y-69795023D01*
X152484855Y-69826546D01*
X152501575Y-69845842D01*
X152631500Y-70031395D01*
X152631505Y-70031401D01*
X152798599Y-70198495D01*
X152895384Y-70266265D01*
X152992165Y-70334032D01*
X152992167Y-70334033D01*
X152992170Y-70334035D01*
X153206337Y-70433903D01*
X153206343Y-70433904D01*
X153206344Y-70433905D01*
X153245356Y-70444358D01*
X153434592Y-70495063D01*
X153622918Y-70511539D01*
X153669999Y-70515659D01*
X153670000Y-70515659D01*
X153670001Y-70515659D01*
X153709234Y-70512226D01*
X153905408Y-70495063D01*
X154133663Y-70433903D01*
X154347830Y-70334035D01*
X154541401Y-70198495D01*
X154708495Y-70031401D01*
X154838426Y-69845840D01*
X154893001Y-69802217D01*
X154962499Y-69795023D01*
X155024854Y-69826546D01*
X155041574Y-69845841D01*
X155171505Y-70031401D01*
X155338599Y-70198495D01*
X155435384Y-70266265D01*
X155532165Y-70334032D01*
X155532167Y-70334033D01*
X155532170Y-70334035D01*
X155746337Y-70433903D01*
X155746343Y-70433904D01*
X155746344Y-70433905D01*
X155785356Y-70444358D01*
X155974592Y-70495063D01*
X156162918Y-70511539D01*
X156209999Y-70515659D01*
X156210000Y-70515659D01*
X156210001Y-70515659D01*
X156249234Y-70512226D01*
X156445408Y-70495063D01*
X156673663Y-70433903D01*
X156887830Y-70334035D01*
X157081401Y-70198495D01*
X157248495Y-70031401D01*
X157384035Y-69837830D01*
X157483903Y-69623663D01*
X157545063Y-69395408D01*
X157565659Y-69160000D01*
X157545063Y-68924592D01*
X157483903Y-68696337D01*
X157384035Y-68482171D01*
X157378425Y-68474158D01*
X157248494Y-68288597D01*
X157081402Y-68121506D01*
X157081401Y-68121505D01*
X156895842Y-67991575D01*
X156895841Y-67991574D01*
X156852216Y-67936997D01*
X156845024Y-67867498D01*
X156876546Y-67805144D01*
X156895836Y-67788428D01*
X157081401Y-67658495D01*
X157248495Y-67491401D01*
X157384035Y-67297830D01*
X157483903Y-67083663D01*
X157545063Y-66855408D01*
X157565659Y-66620000D01*
X157545063Y-66384592D01*
X157494275Y-66195048D01*
X157483905Y-66156344D01*
X157483904Y-66156343D01*
X157483903Y-66156337D01*
X157384035Y-65942171D01*
X157378731Y-65934595D01*
X157248494Y-65748597D01*
X157081402Y-65581506D01*
X157081395Y-65581501D01*
X156887834Y-65445967D01*
X156887830Y-65445965D01*
X156887829Y-65445964D01*
X156673663Y-65346097D01*
X156673659Y-65346096D01*
X156673655Y-65346094D01*
X156445413Y-65284938D01*
X156445403Y-65284936D01*
X156210001Y-65264341D01*
X156209999Y-65264341D01*
X155974596Y-65284936D01*
X155974586Y-65284938D01*
X155746344Y-65346094D01*
X155746335Y-65346098D01*
X155532171Y-65445964D01*
X155532169Y-65445965D01*
X155338597Y-65581505D01*
X155171505Y-65748597D01*
X155041575Y-65934158D01*
X154986998Y-65977783D01*
X154917500Y-65984977D01*
X154855145Y-65953454D01*
X154838425Y-65934158D01*
X154708494Y-65748597D01*
X154541402Y-65581506D01*
X154541395Y-65581501D01*
X154347834Y-65445967D01*
X154347830Y-65445965D01*
X154347828Y-65445964D01*
X154133663Y-65346097D01*
X154133659Y-65346096D01*
X154133655Y-65346094D01*
X153905413Y-65284938D01*
X153905403Y-65284936D01*
X153670001Y-65264341D01*
X153669999Y-65264341D01*
X153434596Y-65284936D01*
X153434586Y-65284938D01*
X153206344Y-65346094D01*
X153206335Y-65346098D01*
X152992171Y-65445964D01*
X152992169Y-65445965D01*
X152798597Y-65581505D01*
X152631505Y-65748597D01*
X152501575Y-65934158D01*
X152446998Y-65977783D01*
X152377500Y-65984977D01*
X152315145Y-65953454D01*
X152298425Y-65934158D01*
X152168494Y-65748597D01*
X152001402Y-65581506D01*
X152001395Y-65581501D01*
X151807834Y-65445967D01*
X151807830Y-65445965D01*
X151807828Y-65445964D01*
X151593663Y-65346097D01*
X151593659Y-65346096D01*
X151593655Y-65346094D01*
X151365413Y-65284938D01*
X151365403Y-65284936D01*
X151130001Y-65264341D01*
X151129999Y-65264341D01*
X150894596Y-65284936D01*
X150894586Y-65284938D01*
X150666344Y-65346094D01*
X150666335Y-65346098D01*
X150452171Y-65445964D01*
X150452169Y-65445965D01*
X150258597Y-65581505D01*
X150091505Y-65748597D01*
X149961575Y-65934158D01*
X149906998Y-65977783D01*
X149837500Y-65984977D01*
X149775145Y-65953454D01*
X149758425Y-65934158D01*
X149628494Y-65748597D01*
X149461402Y-65581506D01*
X149461395Y-65581501D01*
X149267834Y-65445967D01*
X149267830Y-65445965D01*
X149267828Y-65445964D01*
X149053663Y-65346097D01*
X149053659Y-65346096D01*
X149053655Y-65346094D01*
X148825413Y-65284938D01*
X148825403Y-65284936D01*
X148590001Y-65264341D01*
X148589999Y-65264341D01*
X148354596Y-65284936D01*
X148354586Y-65284938D01*
X148126344Y-65346094D01*
X148126335Y-65346098D01*
X147912171Y-65445964D01*
X147912169Y-65445965D01*
X147718597Y-65581505D01*
X147551505Y-65748597D01*
X147421575Y-65934158D01*
X147366998Y-65977783D01*
X147297500Y-65984977D01*
X147235145Y-65953454D01*
X147218425Y-65934158D01*
X147088494Y-65748597D01*
X146921402Y-65581506D01*
X146921395Y-65581501D01*
X146727834Y-65445967D01*
X146727830Y-65445965D01*
X146727828Y-65445964D01*
X146513663Y-65346097D01*
X146513659Y-65346096D01*
X146513655Y-65346094D01*
X146285413Y-65284938D01*
X146285403Y-65284936D01*
X146050001Y-65264341D01*
X146049999Y-65264341D01*
X145814596Y-65284936D01*
X145814586Y-65284938D01*
X145586344Y-65346094D01*
X145586335Y-65346098D01*
X145372171Y-65445964D01*
X145372169Y-65445965D01*
X145178597Y-65581505D01*
X145011505Y-65748597D01*
X144881575Y-65934158D01*
X144826998Y-65977783D01*
X144757500Y-65984977D01*
X144695145Y-65953454D01*
X144678425Y-65934158D01*
X144548494Y-65748597D01*
X144381402Y-65581506D01*
X144381395Y-65581501D01*
X144187834Y-65445967D01*
X144187830Y-65445965D01*
X144187828Y-65445964D01*
X143973663Y-65346097D01*
X143973659Y-65346096D01*
X143973655Y-65346094D01*
X143745413Y-65284938D01*
X143745403Y-65284936D01*
X143510001Y-65264341D01*
X143509999Y-65264341D01*
X143274596Y-65284936D01*
X143274586Y-65284938D01*
X143046344Y-65346094D01*
X143046335Y-65346098D01*
X142832171Y-65445964D01*
X142832169Y-65445965D01*
X142638597Y-65581505D01*
X142471505Y-65748597D01*
X142341575Y-65934158D01*
X142286998Y-65977783D01*
X142217500Y-65984977D01*
X142155145Y-65953454D01*
X142138425Y-65934158D01*
X142008494Y-65748597D01*
X141841402Y-65581506D01*
X141841395Y-65581501D01*
X141647834Y-65445967D01*
X141647830Y-65445965D01*
X141647828Y-65445964D01*
X141433663Y-65346097D01*
X141433659Y-65346096D01*
X141433655Y-65346094D01*
X141205413Y-65284938D01*
X141205403Y-65284936D01*
X140970001Y-65264341D01*
X140969999Y-65264341D01*
X140734596Y-65284936D01*
X140734586Y-65284938D01*
X140506344Y-65346094D01*
X140506335Y-65346098D01*
X140292171Y-65445964D01*
X140292169Y-65445965D01*
X140098597Y-65581505D01*
X139931505Y-65748597D01*
X139801575Y-65934158D01*
X139746998Y-65977783D01*
X139677500Y-65984977D01*
X139615145Y-65953454D01*
X139598425Y-65934158D01*
X139468494Y-65748597D01*
X139301402Y-65581506D01*
X139301395Y-65581501D01*
X139107834Y-65445967D01*
X139107830Y-65445965D01*
X139107828Y-65445964D01*
X138893663Y-65346097D01*
X138893659Y-65346096D01*
X138893655Y-65346094D01*
X138665413Y-65284938D01*
X138665403Y-65284936D01*
X138430001Y-65264341D01*
X138429999Y-65264341D01*
X138194596Y-65284936D01*
X138194586Y-65284938D01*
X137966344Y-65346094D01*
X137966335Y-65346098D01*
X137752171Y-65445964D01*
X137752169Y-65445965D01*
X137558597Y-65581505D01*
X137391505Y-65748597D01*
X137261575Y-65934158D01*
X137206998Y-65977783D01*
X137137500Y-65984977D01*
X137075145Y-65953454D01*
X137058425Y-65934158D01*
X136928494Y-65748597D01*
X136761402Y-65581506D01*
X136761395Y-65581501D01*
X136567834Y-65445967D01*
X136567830Y-65445965D01*
X136567828Y-65445964D01*
X136353663Y-65346097D01*
X136353659Y-65346096D01*
X136353655Y-65346094D01*
X136125413Y-65284938D01*
X136125403Y-65284936D01*
X135890001Y-65264341D01*
X135889999Y-65264341D01*
X135654596Y-65284936D01*
X135654586Y-65284938D01*
X135426344Y-65346094D01*
X135426335Y-65346098D01*
X135212171Y-65445964D01*
X135212169Y-65445965D01*
X135018597Y-65581505D01*
X134851505Y-65748597D01*
X134721269Y-65934595D01*
X134666692Y-65978220D01*
X134597194Y-65985414D01*
X134534839Y-65953891D01*
X134518119Y-65934595D01*
X134464925Y-65858626D01*
X134464925Y-65858625D01*
X133958949Y-66364602D01*
X133897626Y-66398087D01*
X133827934Y-66393103D01*
X133772001Y-66351231D01*
X133766953Y-66343961D01*
X133731761Y-66289202D01*
X133616398Y-66189241D01*
X133618708Y-66186574D01*
X133584005Y-66146528D01*
X133574058Y-66077370D01*
X133603080Y-66013813D01*
X133609116Y-66007330D01*
X134111373Y-65505073D01*
X134111373Y-65505072D01*
X134027583Y-65446402D01*
X134027579Y-65446400D01*
X133813492Y-65346570D01*
X133813483Y-65346566D01*
X133585326Y-65285432D01*
X133585315Y-65285430D01*
X133350002Y-65264843D01*
X133349998Y-65264843D01*
X133114684Y-65285430D01*
X133114673Y-65285432D01*
X132886516Y-65346566D01*
X132886507Y-65346570D01*
X132672419Y-65446401D01*
X132588625Y-65505072D01*
X133090883Y-66007330D01*
X133124368Y-66068653D01*
X133119384Y-66138345D01*
X133082357Y-66187805D01*
X133083602Y-66189241D01*
X132968238Y-66289202D01*
X132933046Y-66343962D01*
X132880242Y-66389717D01*
X132811083Y-66399660D01*
X132747528Y-66370634D01*
X132741050Y-66364603D01*
X132235072Y-65858625D01*
X132176401Y-65942419D01*
X132076570Y-66156507D01*
X132076566Y-66156516D01*
X132015432Y-66384673D01*
X132015430Y-66384684D01*
X131994843Y-66619998D01*
X131994843Y-66620001D01*
X125730500Y-66620001D01*
X125730500Y-60270007D01*
X126014671Y-60270007D01*
X126033964Y-60564363D01*
X126033965Y-60564373D01*
X126033966Y-60564380D01*
X126033968Y-60564390D01*
X126091518Y-60853716D01*
X126091521Y-60853730D01*
X126186349Y-61133080D01*
X126316825Y-61397660D01*
X126316829Y-61397667D01*
X126480725Y-61642955D01*
X126675241Y-61864758D01*
X126897043Y-62059273D01*
X127142335Y-62223172D01*
X127406923Y-62353652D01*
X127686278Y-62448481D01*
X127975620Y-62506034D01*
X128003888Y-62507886D01*
X128269993Y-62525329D01*
X128270000Y-62525329D01*
X128270007Y-62525329D01*
X128505675Y-62509881D01*
X128564380Y-62506034D01*
X128853722Y-62448481D01*
X129133077Y-62353652D01*
X129397665Y-62223172D01*
X129642957Y-62059273D01*
X129864758Y-61864758D01*
X130059273Y-61642957D01*
X130223172Y-61397665D01*
X130353652Y-61133077D01*
X130448481Y-60853722D01*
X130506034Y-60564380D01*
X130525329Y-60270007D01*
X160304671Y-60270007D01*
X160323964Y-60564363D01*
X160323965Y-60564373D01*
X160323966Y-60564380D01*
X160323968Y-60564390D01*
X160381518Y-60853716D01*
X160381521Y-60853730D01*
X160476349Y-61133080D01*
X160606825Y-61397660D01*
X160606829Y-61397667D01*
X160770725Y-61642955D01*
X160965241Y-61864758D01*
X161187043Y-62059273D01*
X161432335Y-62223172D01*
X161696923Y-62353652D01*
X161976278Y-62448481D01*
X162265620Y-62506034D01*
X162293888Y-62507886D01*
X162559993Y-62525329D01*
X162560000Y-62525329D01*
X162560007Y-62525329D01*
X162795675Y-62509881D01*
X162854380Y-62506034D01*
X163143722Y-62448481D01*
X163423077Y-62353652D01*
X163687665Y-62223172D01*
X163932957Y-62059273D01*
X164154758Y-61864758D01*
X164349273Y-61642957D01*
X164513172Y-61397665D01*
X164643652Y-61133077D01*
X164738481Y-60853722D01*
X164796034Y-60564380D01*
X164815329Y-60270000D01*
X164815329Y-60269992D01*
X164796035Y-59975636D01*
X164796034Y-59975620D01*
X164738481Y-59686278D01*
X164643652Y-59406923D01*
X164513172Y-59142336D01*
X164349273Y-58897043D01*
X164279118Y-58817047D01*
X164154758Y-58675241D01*
X163932955Y-58480725D01*
X163687667Y-58316829D01*
X163687660Y-58316825D01*
X163423080Y-58186349D01*
X163143730Y-58091521D01*
X163143724Y-58091519D01*
X163143722Y-58091519D01*
X162854380Y-58033966D01*
X162854373Y-58033965D01*
X162854363Y-58033964D01*
X162560007Y-58014671D01*
X162559993Y-58014671D01*
X162265636Y-58033964D01*
X162265624Y-58033965D01*
X162265620Y-58033966D01*
X162265612Y-58033967D01*
X162265609Y-58033968D01*
X161976283Y-58091518D01*
X161976269Y-58091521D01*
X161696919Y-58186349D01*
X161432334Y-58316828D01*
X161187041Y-58480728D01*
X160965241Y-58675241D01*
X160770728Y-58897041D01*
X160606828Y-59142334D01*
X160476349Y-59406919D01*
X160381521Y-59686269D01*
X160381518Y-59686283D01*
X160323968Y-59975609D01*
X160323964Y-59975636D01*
X160304671Y-60269992D01*
X160304671Y-60270007D01*
X130525329Y-60270007D01*
X130525329Y-60270000D01*
X130525329Y-60269992D01*
X130506035Y-59975636D01*
X130506034Y-59975620D01*
X130448481Y-59686278D01*
X130353652Y-59406923D01*
X130223172Y-59142336D01*
X130059273Y-58897043D01*
X129989118Y-58817047D01*
X129864758Y-58675241D01*
X129642955Y-58480725D01*
X129397667Y-58316829D01*
X129397660Y-58316825D01*
X129133080Y-58186349D01*
X128853730Y-58091521D01*
X128853724Y-58091519D01*
X128853722Y-58091519D01*
X128564380Y-58033966D01*
X128564373Y-58033965D01*
X128564363Y-58033964D01*
X128270007Y-58014671D01*
X128269993Y-58014671D01*
X127975636Y-58033964D01*
X127975624Y-58033965D01*
X127975620Y-58033966D01*
X127975612Y-58033967D01*
X127975609Y-58033968D01*
X127686283Y-58091518D01*
X127686269Y-58091521D01*
X127406919Y-58186349D01*
X127142334Y-58316828D01*
X126897041Y-58480728D01*
X126675241Y-58675241D01*
X126480728Y-58897041D01*
X126316828Y-59142334D01*
X126186349Y-59406919D01*
X126091521Y-59686269D01*
X126091518Y-59686283D01*
X126033968Y-59975609D01*
X126033964Y-59975636D01*
X126014671Y-60269992D01*
X126014671Y-60270007D01*
X125730500Y-60270007D01*
X125730500Y-59732005D01*
X125730632Y-59727980D01*
X125733366Y-59686278D01*
X125735983Y-59646350D01*
X125748986Y-59464536D01*
X125750014Y-59456903D01*
X125773153Y-59340579D01*
X125774118Y-59336141D01*
X125804533Y-59196323D01*
X125806392Y-59189625D01*
X125846815Y-59070543D01*
X125896159Y-58938251D01*
X125898633Y-58932520D01*
X125955583Y-58817036D01*
X126022179Y-58695076D01*
X126025019Y-58690384D01*
X126096563Y-58583311D01*
X126098428Y-58580676D01*
X126180291Y-58471321D01*
X126183244Y-58467678D01*
X126268503Y-58370459D01*
X126271198Y-58367581D01*
X126367581Y-58271198D01*
X126370459Y-58268503D01*
X126467678Y-58183244D01*
X126471321Y-58180291D01*
X126580676Y-58098428D01*
X126583311Y-58096563D01*
X126690384Y-58025019D01*
X126695076Y-58022179D01*
X126817036Y-57955583D01*
X126932520Y-57898633D01*
X126938251Y-57896159D01*
X127070543Y-57846815D01*
X127189625Y-57806392D01*
X127196323Y-57804533D01*
X127340548Y-57773158D01*
X127456903Y-57750014D01*
X127464536Y-57748986D01*
X127646244Y-57735989D01*
X127699211Y-57732517D01*
X127727981Y-57730633D01*
X127732036Y-57730500D01*
X163097964Y-57730500D01*
X163102019Y-57730633D01*
G37*
%TD.AperFunction*%
%TD*%
M02*
