M48
; DRILL file {KiCad 7.0.7} date Fri Sep 22 09:56:36 2023
; FORMAT={-:-/ absolute / inch / decimal}
; #@! TF.CreationDate,2023-09-22T09:56:36+09:00
; #@! TF.GenerationSoftware,Kicad,Pcbnew,7.0.7
; #@! TF.FileFunction,Plated,1,4,PTH
FMAT,2
INCH
; #@! TA.AperFunction,Plated,PTH,ViaDrill
T1C0.0157
; #@! TA.AperFunction,Plated,PTH,ComponentDrill
T2C0.0315
; #@! TA.AperFunction,Plated,PTH,ComponentDrill
T3C0.0394
; #@! TA.AperFunction,Plated,PTH,ComponentDrill
T4C0.0673
; #@! TA.AperFunction,Plated,PTH,ComponentDrill
T5C0.0866
%
G90
G05
T1
X5.2Y-3.1228
X5.2Y-4.9728
X5.25Y-4.0
X5.2892Y-4.05
X5.3Y-4.7
X5.3434Y-3.8566
X5.4Y-3.4228
X5.4Y-4.4228
X5.45Y-3.3
X5.45Y-4.2228
X5.5Y-3.0228
X5.5Y-3.3
X5.5Y-3.6
X5.5Y-4.1728
X5.55Y-3.9728
X5.5991Y-4.4709
X5.6Y-3.25
X5.6Y-3.85
X5.6Y-4.0228
X5.6Y-4.3728
X5.6Y-4.5728
X5.6Y-4.85
X5.6Y-5.175
X5.65Y-3.3228
X5.65Y-4.0728
X5.65Y-4.3228
X5.65Y-4.37
X5.65Y-4.8
X5.65Y-5.195
X5.695Y-5.085
X5.7Y-3.95
X5.7Y-4.0728
X5.7Y-4.8
X5.7Y-4.95
X5.7017Y-4.4012
X5.75Y-3.1228
X5.75Y-4.0728
X5.75Y-4.7728
X5.75Y-4.85
X5.75Y-4.95
X5.8Y-3.2228
X5.8Y-3.75
X5.8Y-4.3728
X5.8Y-4.45
X5.8Y-4.62
X5.805Y-5.075
X5.85Y-3.7
X5.85Y-4.45
X5.85Y-4.5
X5.85Y-4.5728
X5.85Y-4.8728
X5.85Y-4.9228
X5.85Y-5.185
X5.9Y-4.0
X5.9Y-4.1728
X5.915Y-5.2
X5.95Y-4.1728
X5.955Y-4.685
X6.0Y-3.65
X6.0Y-3.7228
X6.0Y-4.1728
X6.0Y-4.3
X6.05Y-5.2
X6.0998Y-5.1098
X6.1Y-3.3728
X6.1Y-4.6728
X6.15Y-4.6728
X6.15Y-4.9228
X6.2Y-3.8
X6.2Y-3.85
X6.2Y-5.15
T2
X5.6563Y-3.5228
X5.8484Y-3.5228
T3
X5.1Y-3.1728
X5.1Y-3.2728
X5.1Y-3.3728
X5.1Y-3.4728
X5.1Y-3.5728
X5.1Y-3.6728
X5.1Y-3.7728
X5.1Y-3.8728
X5.1Y-3.9728
X5.1Y-4.0728
X5.1Y-4.1728
X5.1Y-4.2728
X5.1Y-4.3728
X5.1Y-4.4728
X5.1Y-4.5728
X5.1Y-4.6728
X5.1Y-4.7728
X5.1Y-4.8728
X5.1Y-4.9728
X5.1Y-5.0728
X5.25Y-2.6228
X5.25Y-2.7228
X5.35Y-2.6228
X5.35Y-2.7228
X5.3998Y-4.8734
X5.3998Y-4.9734
X5.3998Y-5.0734
X5.45Y-2.6228
X5.45Y-2.7228
X5.4998Y-4.8734
X5.4998Y-4.9734
X5.4998Y-5.0734
X5.55Y-2.6228
X5.55Y-2.7228
X5.65Y-2.6228
X5.65Y-2.7228
X5.75Y-2.6228
X5.75Y-2.7228
X5.85Y-2.6228
X5.85Y-2.7228
X5.95Y-2.6228
X5.95Y-2.7228
X6.05Y-2.6228
X6.05Y-2.7228
X6.15Y-2.6228
X6.15Y-2.7228
X6.35Y-3.1728
X6.35Y-3.2728
X6.35Y-3.3728
X6.35Y-3.4728
X6.35Y-3.5728
X6.35Y-3.6728
X6.35Y-3.7728
X6.35Y-3.8728
X6.35Y-3.9728
X6.35Y-4.0728
X6.35Y-4.1728
X6.35Y-4.2728
X6.35Y-4.3728
X6.35Y-4.4728
X6.35Y-4.5728
X6.35Y-4.6728
X6.35Y-4.7728
X6.35Y-4.8728
X6.35Y-4.9728
X6.35Y-5.0728
T4
X5.557Y-5.2778
X5.557Y-5.455
X5.92Y-5.2778
X5.92Y-5.455
T5
X5.05Y-2.3728
X5.0506Y-5.4745
X6.4Y-2.3728
X6.4Y-5.4728
T0
M30
