%TF.GenerationSoftware,KiCad,Pcbnew,7.0.9*%
%TF.CreationDate,2023-12-14T15:30:35+09:00*%
%TF.ProjectId,STM32F103_dev_board,53544d33-3246-4313-9033-5f6465765f62,1.2.0*%
%TF.SameCoordinates,Original*%
%TF.FileFunction,Copper,L3,Inr*%
%TF.FilePolarity,Positive*%
%FSLAX46Y46*%
G04 Gerber Fmt 4.6, Leading zero omitted, Abs format (unit mm)*
G04 Created by KiCad (PCBNEW 7.0.9) date 2023-12-14 15:30:35*
%MOMM*%
%LPD*%
G01*
G04 APERTURE LIST*
G04 Aperture macros list*
%AMRoundRect*
0 Rectangle with rounded corners*
0 $1 Rounding radius*
0 $2 $3 $4 $5 $6 $7 $8 $9 X,Y pos of 4 corners*
0 Add a 4 corners polygon primitive as box body*
4,1,4,$2,$3,$4,$5,$6,$7,$8,$9,$2,$3,0*
0 Add four circle primitives for the rounded corners*
1,1,$1+$1,$2,$3*
1,1,$1+$1,$4,$5*
1,1,$1+$1,$6,$7*
1,1,$1+$1,$8,$9*
0 Add four rect primitives between the rounded corners*
20,1,$1+$1,$2,$3,$4,$5,0*
20,1,$1+$1,$4,$5,$6,$7,0*
20,1,$1+$1,$6,$7,$8,$9,0*
20,1,$1+$1,$8,$9,$2,$3,0*%
G04 Aperture macros list end*
%TA.AperFunction,ComponentPad*%
%ADD10R,1.300000X1.300000*%
%TD*%
%TA.AperFunction,ComponentPad*%
%ADD11C,1.300000*%
%TD*%
%TA.AperFunction,ComponentPad*%
%ADD12C,3.500000*%
%TD*%
%TA.AperFunction,ComponentPad*%
%ADD13C,2.000000*%
%TD*%
%TA.AperFunction,ComponentPad*%
%ADD14C,2.565000*%
%TD*%
%TA.AperFunction,ComponentPad*%
%ADD15RoundRect,0.250000X0.600000X-0.600000X0.600000X0.600000X-0.600000X0.600000X-0.600000X-0.600000X0*%
%TD*%
%TA.AperFunction,ComponentPad*%
%ADD16C,1.700000*%
%TD*%
%TA.AperFunction,ComponentPad*%
%ADD17R,1.700000X1.700000*%
%TD*%
%TA.AperFunction,ComponentPad*%
%ADD18O,1.700000X1.700000*%
%TD*%
%TA.AperFunction,ComponentPad*%
%ADD19C,1.500000*%
%TD*%
%TA.AperFunction,ViaPad*%
%ADD20C,0.800000*%
%TD*%
G04 APERTURE END LIST*
D10*
%TO.N,Net-(S2-COM)*%
%TO.C,S2*%
X137160000Y-126365000D03*
D11*
%TO.N,GND*%
X137160000Y-128905000D03*
%TO.N,unconnected-(S2-NC-Pad3)*%
X137160000Y-123825000D03*
%TD*%
D12*
%TO.N,GND*%
%TO.C,REF\u002A\u002A*%
X162560000Y-60270000D03*
%TD*%
D13*
%TO.N,GND*%
%TO.C,J6*%
X141148000Y-134057000D03*
X150368000Y-134057000D03*
D14*
X141148000Y-138557000D03*
X150368000Y-138557000D03*
%TD*%
D12*
%TO.N,GND*%
%TO.C,REF\u002A\u002A*%
X128285913Y-139053348D03*
%TD*%
%TO.N,GND*%
%TO.C,REF\u002A\u002A*%
X128270000Y-60270000D03*
%TD*%
D15*
%TO.N,VCC3V3*%
%TO.C,J1*%
X133350000Y-69160000D03*
D16*
X133350000Y-66620000D03*
%TO.N,JNTRST*%
X135890000Y-69160000D03*
%TO.N,GND*%
X135890000Y-66620000D03*
%TO.N,JTDI*%
X138430000Y-69160000D03*
%TO.N,GND*%
X138430000Y-66620000D03*
%TO.N,JTMS{slash}SWDIO*%
X140970000Y-69160000D03*
%TO.N,GND*%
X140970000Y-66620000D03*
%TO.N,JTCK{slash}SWCLK*%
X143510000Y-69160000D03*
%TO.N,GND*%
X143510000Y-66620000D03*
%TO.N,Net-(J1-RTCK)*%
X146050000Y-69160000D03*
%TO.N,GND*%
X146050000Y-66620000D03*
%TO.N,JTDO*%
X148590000Y-69160000D03*
%TO.N,GND*%
X148590000Y-66620000D03*
%TO.N,RESET*%
X151130000Y-69160000D03*
%TO.N,GND*%
X151130000Y-66620000D03*
%TO.N,Net-(J1-DBGRQ{slash}NC)*%
X153670000Y-69160000D03*
%TO.N,GND*%
X153670000Y-66620000D03*
%TO.N,Net-(J1-DBGACK{slash}NC)*%
X156210000Y-69160000D03*
%TO.N,GND*%
X156210000Y-66620000D03*
%TD*%
D17*
%TO.N,VCC3V3*%
%TO.C,J3*%
X161290000Y-80590000D03*
D18*
%TO.N,GND*%
X161290000Y-83130000D03*
%TO.N,5V*%
X161290000Y-85670000D03*
%TO.N,PC12*%
X161290000Y-88210000D03*
%TO.N,PC11*%
X161290000Y-90750000D03*
%TO.N,PC10*%
X161290000Y-93290000D03*
%TO.N,PA10{slash}USART1_RX*%
X161290000Y-95830000D03*
%TO.N,PA9{slash}USART1_TX*%
X161290000Y-98370000D03*
%TO.N,PA8*%
X161290000Y-100910000D03*
%TO.N,PC9*%
X161290000Y-103450000D03*
%TO.N,PC8*%
X161290000Y-105990000D03*
%TO.N,PC7*%
X161290000Y-108530000D03*
%TO.N,PC6*%
X161290000Y-111070000D03*
%TO.N,PB15*%
X161290000Y-113610000D03*
%TO.N,PB14*%
X161290000Y-116150000D03*
%TO.N,PB13*%
X161290000Y-118690000D03*
%TO.N,PB12*%
X161290000Y-121230000D03*
%TO.N,PB11*%
X161290000Y-123770000D03*
%TO.N,PB10*%
X161290000Y-126310000D03*
%TO.N,PB1*%
X161290000Y-128850000D03*
%TD*%
D12*
%TO.N,GND*%
%TO.C,REF\u002A\u002A*%
X162560000Y-139010000D03*
%TD*%
D10*
%TO.N,Net-(S3-COM)*%
%TO.C,S3*%
X139700000Y-126365000D03*
D11*
%TO.N,GND*%
X139700000Y-128905000D03*
%TO.N,unconnected-(S3-NC-Pad3)*%
X139700000Y-123825000D03*
%TD*%
D19*
%TO.N,OSC_OUT*%
%TO.C,Y1*%
X148550000Y-89480000D03*
%TO.N,OSC_IN*%
X143670000Y-89480000D03*
%TD*%
D17*
%TO.N,VBAT*%
%TO.C,J2*%
X129540000Y-80590000D03*
D18*
%TO.N,PB6*%
X129540000Y-83130000D03*
%TO.N,PB7*%
X129540000Y-85670000D03*
%TO.N,PB8*%
X129540000Y-88210000D03*
%TO.N,PB9*%
X129540000Y-90750000D03*
%TO.N,PC13*%
X129540000Y-93290000D03*
%TO.N,PA5*%
X129540000Y-95830000D03*
%TO.N,PA6*%
X129540000Y-98370000D03*
%TO.N,PC0*%
X129540000Y-100910000D03*
%TO.N,PC1*%
X129540000Y-103450000D03*
%TO.N,PC2*%
X129540000Y-105990000D03*
%TO.N,PC3*%
X129540000Y-108530000D03*
%TO.N,PA0*%
X129540000Y-111070000D03*
%TO.N,PA1*%
X129540000Y-113610000D03*
%TO.N,PA2*%
X129540000Y-116150000D03*
%TO.N,PA3*%
X129540000Y-118690000D03*
%TO.N,RESET*%
X129540000Y-121230000D03*
%TO.N,VCC3V3*%
X129540000Y-123770000D03*
%TO.N,GND*%
X129540000Y-126310000D03*
X129540000Y-128850000D03*
%TD*%
D20*
%TO.N,OSC_IN*%
X139700000Y-105990000D03*
X140970000Y-100910000D03*
%TO.N,OSC_OUT*%
X142240000Y-102180000D03*
X142240000Y-111070000D03*
%TO.N,OSC32_IN*%
X147320000Y-95250000D03*
X142240000Y-82550000D03*
X139700000Y-83820000D03*
X152400000Y-92710000D03*
X134345500Y-102870000D03*
%TO.N,OSC32_OUT*%
X149860000Y-101600000D03*
X139700000Y-91440000D03*
X142240000Y-97790000D03*
X133350000Y-101600000D03*
X144780000Y-100330000D03*
%TO.N,PA4*%
X142240000Y-123190000D03*
X146050000Y-123190000D03*
%TO.N,PA12*%
X157480000Y-96520000D03*
%TO.N,PA11*%
X157480000Y-97790000D03*
%TO.N,JNTRST*%
X144780000Y-103450000D03*
%TO.N,JTDI*%
X139700000Y-76780000D03*
X149860000Y-105990000D03*
%TO.N,JTMS{slash}SWDIO*%
X148590000Y-93980000D03*
X152400000Y-105410000D03*
X151854500Y-93980000D03*
%TO.N,JTCK{slash}SWCLK*%
X151130000Y-105990000D03*
%TO.N,JTDO*%
X143510000Y-84400000D03*
X146050000Y-79320000D03*
X146050000Y-103450000D03*
X147320000Y-81860000D03*
%TO.N,PA5*%
X143510000Y-121920000D03*
%TO.N,PA6*%
X144780000Y-121920000D03*
%TO.N,PB11*%
X147574000Y-122428000D03*
%TO.N,PB10*%
X147574000Y-123698000D03*
%TO.N,PB1*%
X146050000Y-121230000D03*
%TO.N,BOOT0*%
X143510000Y-109800000D03*
X132080000Y-124509500D03*
%TO.N,RESET*%
X143510000Y-103450000D03*
X137160000Y-112340000D03*
X154940000Y-85670000D03*
X132842000Y-122555000D03*
%TO.N,GND*%
X142240000Y-131445000D03*
X142240000Y-116150000D03*
X147320000Y-111070000D03*
X142218369Y-113562009D03*
X154940000Y-118690000D03*
X150241000Y-132080000D03*
X153670000Y-132080000D03*
X152400000Y-109220000D03*
X135722701Y-97957299D03*
X138430000Y-83820000D03*
%TO.N,5V*%
X143510000Y-131953000D03*
X156210000Y-118690000D03*
X156210000Y-125040000D03*
X147320000Y-113030000D03*
X158025500Y-130048000D03*
X154935701Y-129789701D03*
X148590000Y-131699000D03*
%TO.N,VCC3V3*%
X148590000Y-116150000D03*
X147320000Y-117348000D03*
X151257000Y-118999000D03*
X132080000Y-79320000D03*
X143510000Y-110998000D03*
%TO.N,VBAT*%
X137160000Y-86940000D03*
X138430000Y-107260000D03*
%TO.N,USBDP*%
X157861000Y-133604000D03*
X144526000Y-123952000D03*
%TO.N,USBDM*%
X145288000Y-124968000D03*
%TO.N,PA10{slash}USART1_RX*%
X148590000Y-113030000D03*
%TO.N,PA9{slash}USART1_TX*%
X148590000Y-114300000D03*
%TD*%
%TA.AperFunction,Conductor*%
%TO.N,GND*%
G36*
X129790000Y-128414498D02*
G01*
X129682315Y-128365320D01*
X129575763Y-128350000D01*
X129504237Y-128350000D01*
X129397685Y-128365320D01*
X129290000Y-128414498D01*
X129290000Y-126745501D01*
X129397685Y-126794680D01*
X129504237Y-126810000D01*
X129575763Y-126810000D01*
X129682315Y-126794680D01*
X129790000Y-126745501D01*
X129790000Y-128414498D01*
G37*
%TD.AperFunction*%
%TA.AperFunction,Conductor*%
G36*
X137970507Y-66829844D02*
G01*
X138048239Y-66950798D01*
X138156900Y-67044952D01*
X138287685Y-67104680D01*
X138297466Y-67106086D01*
X137668625Y-67734925D01*
X137744594Y-67788119D01*
X137788219Y-67842696D01*
X137795413Y-67912194D01*
X137763890Y-67974549D01*
X137744595Y-67991269D01*
X137558594Y-68121508D01*
X137391505Y-68288597D01*
X137261575Y-68474158D01*
X137206998Y-68517783D01*
X137137500Y-68524977D01*
X137075145Y-68493454D01*
X137058425Y-68474158D01*
X136928494Y-68288597D01*
X136761402Y-68121506D01*
X136761401Y-68121505D01*
X136575405Y-67991269D01*
X136531781Y-67936692D01*
X136524588Y-67867193D01*
X136556110Y-67804839D01*
X136575405Y-67788119D01*
X136651373Y-67734925D01*
X136022533Y-67106086D01*
X136032315Y-67104680D01*
X136163100Y-67044952D01*
X136271761Y-66950798D01*
X136349493Y-66829844D01*
X136373076Y-66749524D01*
X137004925Y-67381373D01*
X137058425Y-67304968D01*
X137113002Y-67261344D01*
X137182501Y-67254151D01*
X137244855Y-67285673D01*
X137261576Y-67304969D01*
X137315073Y-67381372D01*
X137946922Y-66749523D01*
X137970507Y-66829844D01*
G37*
%TD.AperFunction*%
%TA.AperFunction,Conductor*%
G36*
X140510507Y-66829844D02*
G01*
X140588239Y-66950798D01*
X140696900Y-67044952D01*
X140827685Y-67104680D01*
X140837466Y-67106086D01*
X140208625Y-67734925D01*
X140284594Y-67788119D01*
X140328219Y-67842696D01*
X140335413Y-67912194D01*
X140303890Y-67974549D01*
X140284595Y-67991269D01*
X140098594Y-68121508D01*
X139931505Y-68288597D01*
X139801575Y-68474158D01*
X139746998Y-68517783D01*
X139677500Y-68524977D01*
X139615145Y-68493454D01*
X139598425Y-68474158D01*
X139468494Y-68288597D01*
X139301402Y-68121506D01*
X139301401Y-68121505D01*
X139115405Y-67991269D01*
X139071781Y-67936692D01*
X139064588Y-67867193D01*
X139096110Y-67804839D01*
X139115405Y-67788119D01*
X139191373Y-67734925D01*
X138562533Y-67106086D01*
X138572315Y-67104680D01*
X138703100Y-67044952D01*
X138811761Y-66950798D01*
X138889493Y-66829844D01*
X138913076Y-66749524D01*
X139544925Y-67381373D01*
X139598425Y-67304968D01*
X139653002Y-67261344D01*
X139722501Y-67254151D01*
X139784855Y-67285673D01*
X139801576Y-67304969D01*
X139855073Y-67381372D01*
X140486922Y-66749523D01*
X140510507Y-66829844D01*
G37*
%TD.AperFunction*%
%TA.AperFunction,Conductor*%
G36*
X143050507Y-66829844D02*
G01*
X143128239Y-66950798D01*
X143236900Y-67044952D01*
X143367685Y-67104680D01*
X143377466Y-67106086D01*
X142748625Y-67734925D01*
X142824594Y-67788119D01*
X142868219Y-67842696D01*
X142875413Y-67912194D01*
X142843890Y-67974549D01*
X142824595Y-67991269D01*
X142638594Y-68121508D01*
X142471505Y-68288597D01*
X142341575Y-68474158D01*
X142286998Y-68517783D01*
X142217500Y-68524977D01*
X142155145Y-68493454D01*
X142138425Y-68474158D01*
X142008494Y-68288597D01*
X141841402Y-68121506D01*
X141841401Y-68121505D01*
X141655405Y-67991269D01*
X141611781Y-67936692D01*
X141604588Y-67867193D01*
X141636110Y-67804839D01*
X141655405Y-67788119D01*
X141731373Y-67734925D01*
X141102533Y-67106086D01*
X141112315Y-67104680D01*
X141243100Y-67044952D01*
X141351761Y-66950798D01*
X141429493Y-66829844D01*
X141453076Y-66749524D01*
X142084925Y-67381373D01*
X142138425Y-67304968D01*
X142193002Y-67261344D01*
X142262501Y-67254151D01*
X142324855Y-67285673D01*
X142341576Y-67304969D01*
X142395073Y-67381372D01*
X143026922Y-66749523D01*
X143050507Y-66829844D01*
G37*
%TD.AperFunction*%
%TA.AperFunction,Conductor*%
G36*
X145590507Y-66829844D02*
G01*
X145668239Y-66950798D01*
X145776900Y-67044952D01*
X145907685Y-67104680D01*
X145917466Y-67106086D01*
X145288625Y-67734925D01*
X145364594Y-67788119D01*
X145408219Y-67842696D01*
X145415413Y-67912194D01*
X145383890Y-67974549D01*
X145364595Y-67991269D01*
X145178594Y-68121508D01*
X145011505Y-68288597D01*
X144881575Y-68474158D01*
X144826998Y-68517783D01*
X144757500Y-68524977D01*
X144695145Y-68493454D01*
X144678425Y-68474158D01*
X144548494Y-68288597D01*
X144381402Y-68121506D01*
X144381401Y-68121505D01*
X144195405Y-67991269D01*
X144151781Y-67936692D01*
X144144588Y-67867193D01*
X144176110Y-67804839D01*
X144195405Y-67788119D01*
X144271373Y-67734925D01*
X143642533Y-67106086D01*
X143652315Y-67104680D01*
X143783100Y-67044952D01*
X143891761Y-66950798D01*
X143969493Y-66829844D01*
X143993076Y-66749524D01*
X144624925Y-67381373D01*
X144678425Y-67304968D01*
X144733002Y-67261344D01*
X144802501Y-67254151D01*
X144864855Y-67285673D01*
X144881576Y-67304969D01*
X144935073Y-67381372D01*
X145566922Y-66749523D01*
X145590507Y-66829844D01*
G37*
%TD.AperFunction*%
%TA.AperFunction,Conductor*%
G36*
X148130507Y-66829844D02*
G01*
X148208239Y-66950798D01*
X148316900Y-67044952D01*
X148447685Y-67104680D01*
X148457466Y-67106086D01*
X147828625Y-67734925D01*
X147904594Y-67788119D01*
X147948219Y-67842696D01*
X147955413Y-67912194D01*
X147923890Y-67974549D01*
X147904595Y-67991269D01*
X147718594Y-68121508D01*
X147551505Y-68288597D01*
X147421575Y-68474158D01*
X147366998Y-68517783D01*
X147297500Y-68524977D01*
X147235145Y-68493454D01*
X147218425Y-68474158D01*
X147088494Y-68288597D01*
X146921402Y-68121506D01*
X146921401Y-68121505D01*
X146735405Y-67991269D01*
X146691781Y-67936692D01*
X146684588Y-67867193D01*
X146716110Y-67804839D01*
X146735405Y-67788119D01*
X146811373Y-67734925D01*
X146182533Y-67106086D01*
X146192315Y-67104680D01*
X146323100Y-67044952D01*
X146431761Y-66950798D01*
X146509493Y-66829844D01*
X146533076Y-66749524D01*
X147164925Y-67381373D01*
X147218425Y-67304968D01*
X147273002Y-67261344D01*
X147342501Y-67254151D01*
X147404855Y-67285673D01*
X147421576Y-67304969D01*
X147475073Y-67381372D01*
X148106922Y-66749523D01*
X148130507Y-66829844D01*
G37*
%TD.AperFunction*%
%TA.AperFunction,Conductor*%
G36*
X150670507Y-66829844D02*
G01*
X150748239Y-66950798D01*
X150856900Y-67044952D01*
X150987685Y-67104680D01*
X150997466Y-67106086D01*
X150368625Y-67734925D01*
X150444594Y-67788119D01*
X150488219Y-67842696D01*
X150495413Y-67912194D01*
X150463890Y-67974549D01*
X150444595Y-67991269D01*
X150258594Y-68121508D01*
X150091505Y-68288597D01*
X149961575Y-68474158D01*
X149906998Y-68517783D01*
X149837500Y-68524977D01*
X149775145Y-68493454D01*
X149758425Y-68474158D01*
X149628494Y-68288597D01*
X149461402Y-68121506D01*
X149461401Y-68121505D01*
X149275405Y-67991269D01*
X149231781Y-67936692D01*
X149224588Y-67867193D01*
X149256110Y-67804839D01*
X149275405Y-67788119D01*
X149351373Y-67734925D01*
X148722533Y-67106086D01*
X148732315Y-67104680D01*
X148863100Y-67044952D01*
X148971761Y-66950798D01*
X149049493Y-66829844D01*
X149073076Y-66749524D01*
X149704925Y-67381373D01*
X149758425Y-67304968D01*
X149813002Y-67261344D01*
X149882501Y-67254151D01*
X149944855Y-67285673D01*
X149961576Y-67304969D01*
X150015073Y-67381372D01*
X150646922Y-66749523D01*
X150670507Y-66829844D01*
G37*
%TD.AperFunction*%
%TA.AperFunction,Conductor*%
G36*
X153210507Y-66829844D02*
G01*
X153288239Y-66950798D01*
X153396900Y-67044952D01*
X153527685Y-67104680D01*
X153537466Y-67106086D01*
X152908625Y-67734925D01*
X152984594Y-67788119D01*
X153028219Y-67842696D01*
X153035413Y-67912194D01*
X153003890Y-67974549D01*
X152984595Y-67991269D01*
X152798594Y-68121508D01*
X152631505Y-68288597D01*
X152501575Y-68474158D01*
X152446998Y-68517783D01*
X152377500Y-68524977D01*
X152315145Y-68493454D01*
X152298425Y-68474158D01*
X152168494Y-68288597D01*
X152001402Y-68121506D01*
X152001401Y-68121505D01*
X151815405Y-67991269D01*
X151771781Y-67936692D01*
X151764588Y-67867193D01*
X151796110Y-67804839D01*
X151815405Y-67788119D01*
X151891373Y-67734925D01*
X151262533Y-67106086D01*
X151272315Y-67104680D01*
X151403100Y-67044952D01*
X151511761Y-66950798D01*
X151589493Y-66829844D01*
X151613076Y-66749524D01*
X152244925Y-67381373D01*
X152298425Y-67304968D01*
X152353002Y-67261344D01*
X152422501Y-67254151D01*
X152484855Y-67285673D01*
X152501576Y-67304969D01*
X152555073Y-67381372D01*
X153186922Y-66749523D01*
X153210507Y-66829844D01*
G37*
%TD.AperFunction*%
%TA.AperFunction,Conductor*%
G36*
X155750507Y-66829844D02*
G01*
X155828239Y-66950798D01*
X155936900Y-67044952D01*
X156067685Y-67104680D01*
X156077466Y-67106086D01*
X155448625Y-67734925D01*
X155524594Y-67788119D01*
X155568219Y-67842696D01*
X155575413Y-67912194D01*
X155543890Y-67974549D01*
X155524595Y-67991269D01*
X155338594Y-68121508D01*
X155171505Y-68288597D01*
X155041575Y-68474158D01*
X154986998Y-68517783D01*
X154917500Y-68524977D01*
X154855145Y-68493454D01*
X154838425Y-68474158D01*
X154708494Y-68288597D01*
X154541402Y-68121506D01*
X154541401Y-68121505D01*
X154355405Y-67991269D01*
X154311781Y-67936692D01*
X154304588Y-67867193D01*
X154336110Y-67804839D01*
X154355405Y-67788119D01*
X154431373Y-67734925D01*
X153802533Y-67106086D01*
X153812315Y-67104680D01*
X153943100Y-67044952D01*
X154051761Y-66950798D01*
X154129493Y-66829844D01*
X154153076Y-66749524D01*
X154784925Y-67381373D01*
X154838425Y-67304968D01*
X154893002Y-67261344D01*
X154962501Y-67254151D01*
X155024855Y-67285673D01*
X155041576Y-67304969D01*
X155095073Y-67381372D01*
X155726922Y-66749523D01*
X155750507Y-66829844D01*
G37*
%TD.AperFunction*%
%TA.AperFunction,Conductor*%
G36*
X135430507Y-66829844D02*
G01*
X135508239Y-66950798D01*
X135616900Y-67044952D01*
X135747685Y-67104680D01*
X135757466Y-67106086D01*
X135128625Y-67734925D01*
X135204594Y-67788119D01*
X135248219Y-67842696D01*
X135255413Y-67912194D01*
X135223890Y-67974549D01*
X135204595Y-67991269D01*
X135018594Y-68121508D01*
X134851503Y-68288599D01*
X134850349Y-68289975D01*
X134849688Y-68290414D01*
X134847676Y-68292427D01*
X134847271Y-68292022D01*
X134792173Y-68328671D01*
X134722312Y-68329772D01*
X134662946Y-68292928D01*
X134637663Y-68249265D01*
X134634814Y-68240666D01*
X134542712Y-68091344D01*
X134418656Y-67967288D01*
X134269334Y-67875186D01*
X134260733Y-67872336D01*
X134203290Y-67832564D01*
X134176467Y-67768048D01*
X134188782Y-67699272D01*
X134217767Y-67662517D01*
X134217573Y-67662323D01*
X134219219Y-67660676D01*
X134220040Y-67659636D01*
X134221388Y-67658504D01*
X134221401Y-67658495D01*
X134388495Y-67491401D01*
X134518732Y-67305403D01*
X134573307Y-67261780D01*
X134642805Y-67254586D01*
X134705160Y-67286109D01*
X134721880Y-67305405D01*
X134775073Y-67381373D01*
X135406923Y-66749523D01*
X135430507Y-66829844D01*
G37*
%TD.AperFunction*%
%TA.AperFunction,Conductor*%
G36*
X163102019Y-57730633D02*
G01*
X163137198Y-57732938D01*
X163183708Y-57735986D01*
X163365459Y-57748985D01*
X163373100Y-57750015D01*
X163466738Y-57768641D01*
X163489420Y-57773153D01*
X163515023Y-57778722D01*
X163633666Y-57804531D01*
X163640383Y-57806395D01*
X163759437Y-57846809D01*
X163856671Y-57883076D01*
X163891741Y-57896157D01*
X163897499Y-57898643D01*
X164012952Y-57955578D01*
X164134906Y-58022170D01*
X164139634Y-58025032D01*
X164196571Y-58063076D01*
X164246649Y-58096537D01*
X164249358Y-58098454D01*
X164358652Y-58180271D01*
X164362345Y-58183265D01*
X164459502Y-58268469D01*
X164462448Y-58271228D01*
X164558769Y-58367549D01*
X164561526Y-58370492D01*
X164646729Y-58467648D01*
X164649732Y-58471353D01*
X164678968Y-58510406D01*
X164731543Y-58580639D01*
X164733461Y-58583349D01*
X164804962Y-58690357D01*
X164807828Y-58695091D01*
X164874421Y-58817047D01*
X164931355Y-58932499D01*
X164933841Y-58938257D01*
X164970212Y-59035768D01*
X164983196Y-59070578D01*
X164988289Y-59085581D01*
X165023597Y-59189596D01*
X165025472Y-59196352D01*
X165056846Y-59340579D01*
X165079980Y-59456880D01*
X165081015Y-59464560D01*
X165094017Y-59646350D01*
X165099367Y-59727966D01*
X165099500Y-59732023D01*
X165099500Y-139547975D01*
X165099367Y-139552032D01*
X165094017Y-139633648D01*
X165081015Y-139815438D01*
X165079980Y-139823118D01*
X165056846Y-139939420D01*
X165025472Y-140083646D01*
X165023597Y-140090401D01*
X165007310Y-140138383D01*
X164983208Y-140209388D01*
X164983195Y-140209425D01*
X164933841Y-140341741D01*
X164931355Y-140347499D01*
X164874421Y-140462952D01*
X164807828Y-140584907D01*
X164804961Y-140589641D01*
X164733461Y-140696649D01*
X164731543Y-140699359D01*
X164649744Y-140808631D01*
X164646723Y-140812357D01*
X164561529Y-140909502D01*
X164558755Y-140912464D01*
X164462464Y-141008755D01*
X164459502Y-141011529D01*
X164362357Y-141096723D01*
X164358631Y-141099744D01*
X164249359Y-141181543D01*
X164246649Y-141183461D01*
X164139641Y-141254961D01*
X164134907Y-141257828D01*
X164012952Y-141324421D01*
X163897499Y-141381355D01*
X163891741Y-141383841D01*
X163770956Y-141428893D01*
X163759418Y-141433197D01*
X163640401Y-141473597D01*
X163633646Y-141475472D01*
X163489420Y-141506846D01*
X163373118Y-141529980D01*
X163365438Y-141531015D01*
X163183648Y-141544017D01*
X163132582Y-141547364D01*
X163102025Y-141549367D01*
X163097976Y-141549500D01*
X128391830Y-141549500D01*
X128324791Y-141529815D01*
X128284187Y-141482956D01*
X128268198Y-141512658D01*
X128207075Y-141546507D01*
X128179996Y-141549500D01*
X127732024Y-141549500D01*
X127727974Y-141549367D01*
X127684336Y-141546507D01*
X127646350Y-141544017D01*
X127464560Y-141531015D01*
X127456880Y-141529980D01*
X127340579Y-141506846D01*
X127196352Y-141475472D01*
X127189596Y-141473597D01*
X127157881Y-141462831D01*
X127070578Y-141433196D01*
X127035768Y-141420212D01*
X126938257Y-141383841D01*
X126932499Y-141381355D01*
X126817047Y-141324421D01*
X126695091Y-141257828D01*
X126690357Y-141254962D01*
X126583349Y-141183461D01*
X126580639Y-141181543D01*
X126520515Y-141136535D01*
X126471353Y-141099732D01*
X126467648Y-141096729D01*
X126370492Y-141011526D01*
X126367549Y-141008769D01*
X126271228Y-140912448D01*
X126268469Y-140909502D01*
X126209467Y-140842223D01*
X126183265Y-140812345D01*
X126180271Y-140808652D01*
X126098454Y-140699358D01*
X126096537Y-140696649D01*
X126025036Y-140589641D01*
X126022170Y-140584906D01*
X125955578Y-140462952D01*
X125898643Y-140347499D01*
X125896157Y-140341741D01*
X125880469Y-140299681D01*
X125846805Y-140209425D01*
X125806395Y-140090383D01*
X125804531Y-140083666D01*
X125773153Y-139939420D01*
X125761053Y-139878592D01*
X125750015Y-139823100D01*
X125748985Y-139815459D01*
X125735986Y-139633708D01*
X125731414Y-139563942D01*
X125730633Y-139552019D01*
X125730500Y-139547964D01*
X125730500Y-139053348D01*
X126031085Y-139053348D01*
X126050375Y-139347660D01*
X126050377Y-139347672D01*
X126107914Y-139636932D01*
X126107918Y-139636947D01*
X126202725Y-139916236D01*
X126333171Y-140180754D01*
X126333178Y-140180767D01*
X126497035Y-140425996D01*
X126526319Y-140459387D01*
X127350123Y-139635583D01*
X127450807Y-139776972D01*
X127602845Y-139921940D01*
X127705135Y-139987677D01*
X126879872Y-140812940D01*
X126879872Y-140812941D01*
X126913257Y-140842220D01*
X126913261Y-140842223D01*
X127158493Y-141006082D01*
X127158506Y-141006089D01*
X127423024Y-141136535D01*
X127702313Y-141231342D01*
X127702328Y-141231346D01*
X127991588Y-141288883D01*
X127991600Y-141288885D01*
X128188106Y-141301765D01*
X128253714Y-141325792D01*
X128286695Y-141369307D01*
X128298117Y-141344297D01*
X128356895Y-141306523D01*
X128383720Y-141301765D01*
X128580225Y-141288885D01*
X128580237Y-141288883D01*
X128869497Y-141231346D01*
X128869512Y-141231342D01*
X129148801Y-141136535D01*
X129413319Y-141006089D01*
X129413332Y-141006082D01*
X129658563Y-140842225D01*
X129691952Y-140812941D01*
X129691953Y-140812940D01*
X128869219Y-139990207D01*
X128883323Y-139982937D01*
X129048453Y-139853077D01*
X129186023Y-139694313D01*
X129220578Y-139634461D01*
X130045505Y-140459388D01*
X130045506Y-140459387D01*
X130074790Y-140425998D01*
X130238647Y-140180767D01*
X130238654Y-140180754D01*
X130369100Y-139916236D01*
X130463907Y-139636947D01*
X130463911Y-139636932D01*
X130521448Y-139347672D01*
X130521450Y-139347660D01*
X130540740Y-139053348D01*
X130521450Y-138759035D01*
X130521448Y-138759023D01*
X130481264Y-138557004D01*
X139360502Y-138557004D01*
X139380465Y-138823403D01*
X139380466Y-138823408D01*
X139439912Y-139083860D01*
X139439918Y-139083879D01*
X139537520Y-139332566D01*
X139671099Y-139563931D01*
X139671106Y-139563942D01*
X139722747Y-139628697D01*
X139722748Y-139628697D01*
X140393068Y-138958377D01*
X140436153Y-139039644D01*
X140556550Y-139181387D01*
X140704602Y-139293933D01*
X140745635Y-139312917D01*
X140075442Y-139983109D01*
X140254250Y-140105018D01*
X140254258Y-140105023D01*
X140494951Y-140220933D01*
X140494949Y-140220933D01*
X140750242Y-140299681D01*
X140750248Y-140299683D01*
X141014412Y-140339499D01*
X141014421Y-140339500D01*
X141281579Y-140339500D01*
X141281587Y-140339499D01*
X141545751Y-140299683D01*
X141545757Y-140299681D01*
X141801049Y-140220933D01*
X142041741Y-140105023D01*
X142041742Y-140105022D01*
X142220556Y-139983109D01*
X141550252Y-139312805D01*
X141668475Y-139241673D01*
X141803491Y-139113779D01*
X141906461Y-138961908D01*
X142573250Y-139628697D01*
X142573251Y-139628696D01*
X142624902Y-139563929D01*
X142758479Y-139332566D01*
X142856081Y-139083879D01*
X142856087Y-139083860D01*
X142915533Y-138823408D01*
X142915534Y-138823403D01*
X142935498Y-138557004D01*
X148580502Y-138557004D01*
X148600465Y-138823403D01*
X148600466Y-138823408D01*
X148659912Y-139083860D01*
X148659918Y-139083879D01*
X148757520Y-139332566D01*
X148891099Y-139563931D01*
X148891106Y-139563942D01*
X148942747Y-139628697D01*
X148942748Y-139628697D01*
X149613068Y-138958377D01*
X149656153Y-139039644D01*
X149776550Y-139181387D01*
X149924602Y-139293933D01*
X149965635Y-139312917D01*
X149295442Y-139983109D01*
X149474250Y-140105018D01*
X149474258Y-140105023D01*
X149714951Y-140220933D01*
X149714949Y-140220933D01*
X149970242Y-140299681D01*
X149970248Y-140299683D01*
X150234412Y-140339499D01*
X150234421Y-140339500D01*
X150501579Y-140339500D01*
X150501587Y-140339499D01*
X150765751Y-140299683D01*
X150765757Y-140299681D01*
X151021049Y-140220933D01*
X151261741Y-140105023D01*
X151261742Y-140105022D01*
X151440556Y-139983109D01*
X150770252Y-139312805D01*
X150888475Y-139241673D01*
X151023491Y-139113779D01*
X151126461Y-138961908D01*
X151793250Y-139628697D01*
X151793251Y-139628696D01*
X151844902Y-139563929D01*
X151978479Y-139332566D01*
X152076081Y-139083879D01*
X152076087Y-139083860D01*
X152092945Y-139010000D01*
X160305172Y-139010000D01*
X160324462Y-139304312D01*
X160324464Y-139304324D01*
X160382001Y-139593584D01*
X160382005Y-139593599D01*
X160476812Y-139872888D01*
X160607258Y-140137406D01*
X160607265Y-140137419D01*
X160771122Y-140382648D01*
X160800406Y-140416039D01*
X161624210Y-139592235D01*
X161724894Y-139733624D01*
X161876932Y-139878592D01*
X161979222Y-139944329D01*
X161153959Y-140769592D01*
X161153959Y-140769593D01*
X161187344Y-140798872D01*
X161187348Y-140798875D01*
X161432580Y-140962734D01*
X161432593Y-140962741D01*
X161697111Y-141093187D01*
X161976400Y-141187994D01*
X161976415Y-141187998D01*
X162265675Y-141245535D01*
X162265687Y-141245537D01*
X162560000Y-141264827D01*
X162854312Y-141245537D01*
X162854324Y-141245535D01*
X163143584Y-141187998D01*
X163143599Y-141187994D01*
X163422888Y-141093187D01*
X163687406Y-140962741D01*
X163687419Y-140962734D01*
X163932650Y-140798877D01*
X163966039Y-140769593D01*
X163966040Y-140769592D01*
X163143306Y-139946859D01*
X163157410Y-139939589D01*
X163322540Y-139809729D01*
X163460110Y-139650965D01*
X163494665Y-139591112D01*
X164319592Y-140416040D01*
X164319593Y-140416039D01*
X164348877Y-140382650D01*
X164512734Y-140137419D01*
X164512741Y-140137406D01*
X164643187Y-139872888D01*
X164737994Y-139593599D01*
X164737998Y-139593584D01*
X164795535Y-139304324D01*
X164795537Y-139304312D01*
X164814827Y-139010000D01*
X164795537Y-138715687D01*
X164795535Y-138715675D01*
X164737998Y-138426415D01*
X164737994Y-138426400D01*
X164643187Y-138147111D01*
X164512741Y-137882593D01*
X164512734Y-137882580D01*
X164348875Y-137637348D01*
X164348872Y-137637344D01*
X164319593Y-137603959D01*
X164319592Y-137603959D01*
X163495788Y-138427763D01*
X163395106Y-138286376D01*
X163243068Y-138141408D01*
X163140777Y-138075669D01*
X163966039Y-137250406D01*
X163932648Y-137221122D01*
X163687419Y-137057265D01*
X163687406Y-137057258D01*
X163422888Y-136926812D01*
X163143599Y-136832005D01*
X163143584Y-136832001D01*
X162854324Y-136774464D01*
X162854312Y-136774462D01*
X162560000Y-136755172D01*
X162265687Y-136774462D01*
X162265675Y-136774464D01*
X161976415Y-136832001D01*
X161976400Y-136832005D01*
X161697111Y-136926812D01*
X161432593Y-137057258D01*
X161432580Y-137057265D01*
X161187350Y-137221123D01*
X161153958Y-137250406D01*
X161976693Y-138073140D01*
X161962590Y-138080411D01*
X161797460Y-138210271D01*
X161659890Y-138369035D01*
X161625334Y-138428886D01*
X160800406Y-137603958D01*
X160771123Y-137637350D01*
X160607265Y-137882580D01*
X160607258Y-137882593D01*
X160476812Y-138147111D01*
X160382005Y-138426400D01*
X160382001Y-138426415D01*
X160324464Y-138715675D01*
X160324462Y-138715687D01*
X160305172Y-139010000D01*
X152092945Y-139010000D01*
X152135533Y-138823408D01*
X152135534Y-138823403D01*
X152155498Y-138557004D01*
X152155498Y-138556995D01*
X152135534Y-138290596D01*
X152135533Y-138290591D01*
X152076087Y-138030139D01*
X152076081Y-138030120D01*
X151978479Y-137781433D01*
X151844900Y-137550068D01*
X151844893Y-137550057D01*
X151793251Y-137485302D01*
X151793250Y-137485301D01*
X151122930Y-138155620D01*
X151079847Y-138074356D01*
X150959450Y-137932613D01*
X150811398Y-137820067D01*
X150770363Y-137801082D01*
X151440556Y-137130889D01*
X151261749Y-137008981D01*
X151261741Y-137008976D01*
X151021048Y-136893066D01*
X151021050Y-136893066D01*
X150765757Y-136814318D01*
X150765751Y-136814316D01*
X150501587Y-136774500D01*
X150234412Y-136774500D01*
X149970248Y-136814316D01*
X149970242Y-136814318D01*
X149714950Y-136893066D01*
X149474256Y-137008978D01*
X149474243Y-137008985D01*
X149295442Y-137130889D01*
X149965747Y-137801194D01*
X149847525Y-137872327D01*
X149712509Y-138000221D01*
X149609537Y-138152091D01*
X148942747Y-137485301D01*
X148891102Y-137550063D01*
X148757520Y-137781433D01*
X148659918Y-138030120D01*
X148659912Y-138030139D01*
X148600466Y-138290591D01*
X148600465Y-138290596D01*
X148580502Y-138556995D01*
X148580502Y-138557004D01*
X142935498Y-138557004D01*
X142935498Y-138556995D01*
X142915534Y-138290596D01*
X142915533Y-138290591D01*
X142856087Y-138030139D01*
X142856081Y-138030120D01*
X142758479Y-137781433D01*
X142624900Y-137550068D01*
X142624893Y-137550057D01*
X142573251Y-137485302D01*
X142573250Y-137485301D01*
X141902930Y-138155620D01*
X141859847Y-138074356D01*
X141739450Y-137932613D01*
X141591398Y-137820067D01*
X141550363Y-137801082D01*
X142220556Y-137130889D01*
X142041749Y-137008981D01*
X142041741Y-137008976D01*
X141801048Y-136893066D01*
X141801050Y-136893066D01*
X141545757Y-136814318D01*
X141545751Y-136814316D01*
X141281587Y-136774500D01*
X141014412Y-136774500D01*
X140750248Y-136814316D01*
X140750242Y-136814318D01*
X140494950Y-136893066D01*
X140254256Y-137008978D01*
X140254243Y-137008985D01*
X140075442Y-137130889D01*
X140745747Y-137801194D01*
X140627525Y-137872327D01*
X140492509Y-138000221D01*
X140389537Y-138152091D01*
X139722747Y-137485301D01*
X139671102Y-137550063D01*
X139537520Y-137781433D01*
X139439918Y-138030120D01*
X139439912Y-138030139D01*
X139380466Y-138290591D01*
X139380465Y-138290596D01*
X139360502Y-138556995D01*
X139360502Y-138557004D01*
X130481264Y-138557004D01*
X130463911Y-138469763D01*
X130463907Y-138469748D01*
X130369100Y-138190459D01*
X130238654Y-137925941D01*
X130238647Y-137925928D01*
X130074788Y-137680696D01*
X130074785Y-137680692D01*
X130045506Y-137647307D01*
X130045505Y-137647307D01*
X129221701Y-138471111D01*
X129121019Y-138329724D01*
X128968981Y-138184756D01*
X128866690Y-138119017D01*
X129691952Y-137293754D01*
X129658561Y-137264470D01*
X129413332Y-137100613D01*
X129413319Y-137100606D01*
X129148801Y-136970160D01*
X128869512Y-136875353D01*
X128869497Y-136875349D01*
X128580237Y-136817812D01*
X128580225Y-136817810D01*
X128285913Y-136798520D01*
X127991600Y-136817810D01*
X127991588Y-136817812D01*
X127702328Y-136875349D01*
X127702313Y-136875353D01*
X127423024Y-136970160D01*
X127158506Y-137100606D01*
X127158493Y-137100613D01*
X126913263Y-137264471D01*
X126879871Y-137293754D01*
X127702606Y-138116488D01*
X127688503Y-138123759D01*
X127523373Y-138253619D01*
X127385803Y-138412383D01*
X127351247Y-138472234D01*
X126526319Y-137647306D01*
X126497036Y-137680698D01*
X126333178Y-137925928D01*
X126333171Y-137925941D01*
X126202725Y-138190459D01*
X126107918Y-138469748D01*
X126107914Y-138469763D01*
X126050377Y-138759023D01*
X126050375Y-138759035D01*
X126031085Y-139053348D01*
X125730500Y-139053348D01*
X125730500Y-134057005D01*
X139642859Y-134057005D01*
X139663385Y-134304729D01*
X139663387Y-134304738D01*
X139724412Y-134545717D01*
X139824266Y-134773364D01*
X139924564Y-134926882D01*
X140393068Y-134458378D01*
X140436153Y-134539644D01*
X140556550Y-134681387D01*
X140704602Y-134793933D01*
X140745635Y-134812917D01*
X140277942Y-135280609D01*
X140324768Y-135317055D01*
X140324770Y-135317056D01*
X140543385Y-135435364D01*
X140543396Y-135435369D01*
X140778506Y-135516083D01*
X141023707Y-135557000D01*
X141272293Y-135557000D01*
X141517493Y-135516083D01*
X141752603Y-135435369D01*
X141752614Y-135435364D01*
X141971228Y-135317057D01*
X141971231Y-135317055D01*
X142076508Y-135235114D01*
X142141502Y-135209471D01*
X142210042Y-135223037D01*
X142212410Y-135224306D01*
X142216632Y-135226627D01*
X142375823Y-135267500D01*
X142375827Y-135267500D01*
X142498923Y-135267500D01*
X142498925Y-135267500D01*
X142498930Y-135267499D01*
X142498934Y-135267499D01*
X142512174Y-135265826D01*
X142621058Y-135252071D01*
X142773871Y-135191568D01*
X142773878Y-135191563D01*
X142906835Y-135094965D01*
X142906835Y-135094963D01*
X142906837Y-135094963D01*
X143011600Y-134968326D01*
X143081579Y-134819613D01*
X143112376Y-134658170D01*
X143107196Y-134575833D01*
X148403624Y-134575833D01*
X148413944Y-134739860D01*
X148464732Y-134896171D01*
X148464734Y-134896175D01*
X148552798Y-135034940D01*
X148672603Y-135147445D01*
X148672611Y-135147451D01*
X148816628Y-135226625D01*
X148816632Y-135226627D01*
X148975823Y-135267500D01*
X148975827Y-135267500D01*
X149098923Y-135267500D01*
X149098925Y-135267500D01*
X149098930Y-135267499D01*
X149098934Y-135267499D01*
X149112174Y-135265826D01*
X149221058Y-135252071D01*
X149314396Y-135215115D01*
X149383971Y-135208739D01*
X149436204Y-135232555D01*
X149544768Y-135317055D01*
X149544771Y-135317057D01*
X149763385Y-135435364D01*
X149763396Y-135435369D01*
X149998506Y-135516083D01*
X150243707Y-135557000D01*
X150492293Y-135557000D01*
X150737493Y-135516083D01*
X150972603Y-135435369D01*
X150972614Y-135435364D01*
X151191228Y-135317057D01*
X151191231Y-135317055D01*
X151238056Y-135280609D01*
X150770252Y-134812805D01*
X150888475Y-134741673D01*
X151023491Y-134613779D01*
X151126461Y-134461909D01*
X151591434Y-134926882D01*
X151691731Y-134773369D01*
X151791587Y-134545717D01*
X151852612Y-134304738D01*
X151852614Y-134304729D01*
X151873141Y-134057005D01*
X151873141Y-134056994D01*
X151852614Y-133809270D01*
X151852612Y-133809261D01*
X151800632Y-133604000D01*
X156955540Y-133604000D01*
X156975326Y-133792256D01*
X156975327Y-133792259D01*
X157033818Y-133972277D01*
X157033821Y-133972284D01*
X157128467Y-134136216D01*
X157245031Y-134265673D01*
X157255129Y-134276888D01*
X157408265Y-134388148D01*
X157408270Y-134388151D01*
X157581192Y-134465142D01*
X157581197Y-134465144D01*
X157766354Y-134504500D01*
X157766355Y-134504500D01*
X157955644Y-134504500D01*
X157955646Y-134504500D01*
X158140803Y-134465144D01*
X158313730Y-134388151D01*
X158466871Y-134276888D01*
X158593533Y-134136216D01*
X158688179Y-133972284D01*
X158746674Y-133792256D01*
X158766460Y-133604000D01*
X158746674Y-133415744D01*
X158688179Y-133235716D01*
X158593533Y-133071784D01*
X158466871Y-132931112D01*
X158466870Y-132931111D01*
X158313734Y-132819851D01*
X158313729Y-132819848D01*
X158140807Y-132742857D01*
X158140802Y-132742855D01*
X157995001Y-132711865D01*
X157955646Y-132703500D01*
X157766354Y-132703500D01*
X157733897Y-132710398D01*
X157581197Y-132742855D01*
X157581192Y-132742857D01*
X157408270Y-132819848D01*
X157408265Y-132819851D01*
X157255129Y-132931111D01*
X157128466Y-133071785D01*
X157033821Y-133235715D01*
X157033818Y-133235722D01*
X156989433Y-133372327D01*
X156975326Y-133415744D01*
X156955540Y-133604000D01*
X151800632Y-133604000D01*
X151791587Y-133568282D01*
X151691731Y-133340630D01*
X151591434Y-133187116D01*
X151122930Y-133655620D01*
X151079847Y-133574356D01*
X150959450Y-133432613D01*
X150811398Y-133320067D01*
X150770364Y-133301082D01*
X151238057Y-132833390D01*
X151238056Y-132833389D01*
X151191229Y-132796943D01*
X150972614Y-132678635D01*
X150972603Y-132678630D01*
X150737493Y-132597916D01*
X150492293Y-132557000D01*
X150243707Y-132557000D01*
X149998506Y-132597916D01*
X149763396Y-132678630D01*
X149763390Y-132678632D01*
X149544761Y-132796949D01*
X149497942Y-132833388D01*
X149497942Y-132833390D01*
X149965747Y-133301194D01*
X149847525Y-133372327D01*
X149712509Y-133500221D01*
X149609538Y-133652090D01*
X149144564Y-133187116D01*
X149044267Y-133340632D01*
X148944412Y-133568282D01*
X148883387Y-133809261D01*
X148883385Y-133809270D01*
X148874558Y-133915801D01*
X148849405Y-133980986D01*
X148796631Y-134020853D01*
X148742128Y-134042432D01*
X148742121Y-134042436D01*
X148609164Y-134139034D01*
X148609162Y-134139037D01*
X148504400Y-134265673D01*
X148434420Y-134414387D01*
X148419207Y-134494139D01*
X148403624Y-134575830D01*
X148403624Y-134575832D01*
X148403624Y-134575833D01*
X143107196Y-134575833D01*
X143102056Y-134494140D01*
X143051268Y-134337829D01*
X142963202Y-134199060D01*
X142963201Y-134199059D01*
X142843396Y-134086554D01*
X142843388Y-134086548D01*
X142704967Y-134010451D01*
X142655703Y-133960905D01*
X142641127Y-133912028D01*
X142632612Y-133809259D01*
X142571587Y-133568282D01*
X142471731Y-133340630D01*
X142371434Y-133187116D01*
X141902930Y-133655620D01*
X141859847Y-133574356D01*
X141739450Y-133432613D01*
X141591398Y-133320067D01*
X141550364Y-133301082D01*
X142018057Y-132833390D01*
X142018056Y-132833389D01*
X141971229Y-132796943D01*
X141752614Y-132678635D01*
X141752603Y-132678630D01*
X141517493Y-132597916D01*
X141272293Y-132557000D01*
X141023707Y-132557000D01*
X140778506Y-132597916D01*
X140543396Y-132678630D01*
X140543390Y-132678632D01*
X140324761Y-132796949D01*
X140277942Y-132833388D01*
X140277942Y-132833390D01*
X140745747Y-133301194D01*
X140627525Y-133372327D01*
X140492509Y-133500221D01*
X140389538Y-133652090D01*
X139924564Y-133187116D01*
X139824267Y-133340632D01*
X139724412Y-133568282D01*
X139663387Y-133809261D01*
X139663385Y-133809270D01*
X139642859Y-134056994D01*
X139642859Y-134057005D01*
X125730500Y-134057005D01*
X125730500Y-131953000D01*
X142604540Y-131953000D01*
X142624326Y-132141256D01*
X142624327Y-132141259D01*
X142682818Y-132321277D01*
X142682821Y-132321284D01*
X142777467Y-132485216D01*
X142842102Y-132557000D01*
X142904129Y-132625888D01*
X143057265Y-132737148D01*
X143057270Y-132737151D01*
X143230192Y-132814142D01*
X143230197Y-132814144D01*
X143415354Y-132853500D01*
X143415355Y-132853500D01*
X143604644Y-132853500D01*
X143604646Y-132853500D01*
X143789803Y-132814144D01*
X143962730Y-132737151D01*
X144115871Y-132625888D01*
X144242533Y-132485216D01*
X144337179Y-132321284D01*
X144395674Y-132141256D01*
X144415460Y-131953000D01*
X144395674Y-131764744D01*
X144374312Y-131699000D01*
X147684540Y-131699000D01*
X147704326Y-131887256D01*
X147704327Y-131887259D01*
X147762818Y-132067277D01*
X147762821Y-132067284D01*
X147857467Y-132231216D01*
X147938559Y-132321277D01*
X147984129Y-132371888D01*
X148137265Y-132483148D01*
X148137270Y-132483151D01*
X148310192Y-132560142D01*
X148310197Y-132560144D01*
X148495354Y-132599500D01*
X148495355Y-132599500D01*
X148684644Y-132599500D01*
X148684646Y-132599500D01*
X148869803Y-132560144D01*
X149042730Y-132483151D01*
X149195871Y-132371888D01*
X149322533Y-132231216D01*
X149417179Y-132067284D01*
X149475674Y-131887256D01*
X149495460Y-131699000D01*
X149475674Y-131510744D01*
X149417179Y-131330716D01*
X149322533Y-131166784D01*
X149195871Y-131026112D01*
X149195870Y-131026111D01*
X149042734Y-130914851D01*
X149042729Y-130914848D01*
X148869807Y-130837857D01*
X148869802Y-130837855D01*
X148724001Y-130806865D01*
X148684646Y-130798500D01*
X148495354Y-130798500D01*
X148462897Y-130805398D01*
X148310197Y-130837855D01*
X148310192Y-130837857D01*
X148137270Y-130914848D01*
X148137265Y-130914851D01*
X147984129Y-131026111D01*
X147857466Y-131166785D01*
X147762821Y-131330715D01*
X147762818Y-131330722D01*
X147704327Y-131510740D01*
X147704326Y-131510744D01*
X147684540Y-131699000D01*
X144374312Y-131699000D01*
X144337179Y-131584716D01*
X144242533Y-131420784D01*
X144115871Y-131280112D01*
X144115870Y-131280111D01*
X143962734Y-131168851D01*
X143962729Y-131168848D01*
X143789807Y-131091857D01*
X143789802Y-131091855D01*
X143644001Y-131060865D01*
X143604646Y-131052500D01*
X143415354Y-131052500D01*
X143382897Y-131059398D01*
X143230197Y-131091855D01*
X143230192Y-131091857D01*
X143057270Y-131168848D01*
X143057265Y-131168851D01*
X142904129Y-131280111D01*
X142777466Y-131420785D01*
X142682821Y-131584715D01*
X142682818Y-131584722D01*
X142624327Y-131764740D01*
X142624326Y-131764744D01*
X142604540Y-131953000D01*
X125730500Y-131953000D01*
X125730500Y-123770000D01*
X128184341Y-123770000D01*
X128204936Y-124005403D01*
X128204938Y-124005413D01*
X128266094Y-124233655D01*
X128266096Y-124233659D01*
X128266097Y-124233663D01*
X128330086Y-124370888D01*
X128365965Y-124447830D01*
X128365967Y-124447834D01*
X128443908Y-124559144D01*
X128489942Y-124624888D01*
X128501501Y-124641395D01*
X128501506Y-124641402D01*
X128668597Y-124808493D01*
X128668603Y-124808498D01*
X128730359Y-124851740D01*
X128851153Y-124936321D01*
X128854594Y-124938730D01*
X128898219Y-124993307D01*
X128905413Y-125062805D01*
X128873890Y-125125160D01*
X128854595Y-125141880D01*
X128668922Y-125271890D01*
X128668920Y-125271891D01*
X128501891Y-125438920D01*
X128501886Y-125438926D01*
X128366400Y-125632420D01*
X128366399Y-125632422D01*
X128266570Y-125846507D01*
X128266567Y-125846513D01*
X128209364Y-126059999D01*
X128209364Y-126060000D01*
X129106314Y-126060000D01*
X129080507Y-126100156D01*
X129040000Y-126238111D01*
X129040000Y-126381889D01*
X129080507Y-126519844D01*
X129106314Y-126560000D01*
X128209364Y-126560000D01*
X128266567Y-126773486D01*
X128266570Y-126773492D01*
X128366399Y-126987578D01*
X128501894Y-127181082D01*
X128668917Y-127348105D01*
X128855031Y-127478425D01*
X128898656Y-127533003D01*
X128905848Y-127602501D01*
X128874326Y-127664856D01*
X128855031Y-127681575D01*
X128668922Y-127811890D01*
X128668920Y-127811891D01*
X128501891Y-127978920D01*
X128501886Y-127978926D01*
X128366400Y-128172420D01*
X128366399Y-128172422D01*
X128266570Y-128386507D01*
X128266567Y-128386513D01*
X128209364Y-128599999D01*
X128209364Y-128600000D01*
X129106314Y-128600000D01*
X129080507Y-128640156D01*
X129040000Y-128778111D01*
X129040000Y-128921889D01*
X129080507Y-129059844D01*
X129106314Y-129100000D01*
X128209364Y-129100000D01*
X128266567Y-129313486D01*
X128266570Y-129313492D01*
X128366399Y-129527578D01*
X128501894Y-129721082D01*
X128668917Y-129888105D01*
X128862421Y-130023600D01*
X129076507Y-130123429D01*
X129076516Y-130123433D01*
X129290000Y-130180634D01*
X129290000Y-129285501D01*
X129397685Y-129334680D01*
X129504237Y-129350000D01*
X129575763Y-129350000D01*
X129682315Y-129334680D01*
X129790000Y-129285501D01*
X129790000Y-130180633D01*
X130003483Y-130123433D01*
X130003492Y-130123429D01*
X130217578Y-130023600D01*
X130411082Y-129888105D01*
X130578105Y-129721082D01*
X130713600Y-129527578D01*
X130813429Y-129313492D01*
X130813432Y-129313486D01*
X130870636Y-129100000D01*
X129973686Y-129100000D01*
X129999493Y-129059844D01*
X130040000Y-128921889D01*
X130040000Y-128778111D01*
X129999493Y-128640156D01*
X129973686Y-128600000D01*
X130870636Y-128600000D01*
X130870635Y-128599999D01*
X130813432Y-128386513D01*
X130813429Y-128386507D01*
X130713600Y-128172422D01*
X130713599Y-128172420D01*
X130578113Y-127978926D01*
X130578108Y-127978920D01*
X130411082Y-127811894D01*
X130224968Y-127681575D01*
X130181344Y-127626998D01*
X130174151Y-127557499D01*
X130205673Y-127495145D01*
X130224968Y-127478425D01*
X130411082Y-127348105D01*
X130578105Y-127181082D01*
X130713600Y-126987578D01*
X130813429Y-126773492D01*
X130813432Y-126773486D01*
X130870636Y-126560000D01*
X129973686Y-126560000D01*
X129999493Y-126519844D01*
X130040000Y-126381889D01*
X130040000Y-126238111D01*
X129999493Y-126100156D01*
X129973686Y-126060000D01*
X130870636Y-126060000D01*
X130870635Y-126059999D01*
X130813432Y-125846513D01*
X130813429Y-125846507D01*
X130713600Y-125632422D01*
X130713599Y-125632420D01*
X130578113Y-125438926D01*
X130578108Y-125438920D01*
X130411078Y-125271890D01*
X130225405Y-125141879D01*
X130181780Y-125087302D01*
X130174588Y-125017804D01*
X130206110Y-124955449D01*
X130225406Y-124938730D01*
X130225842Y-124938425D01*
X130411401Y-124808495D01*
X130578495Y-124641401D01*
X130670853Y-124509500D01*
X131174540Y-124509500D01*
X131194326Y-124697756D01*
X131194327Y-124697759D01*
X131252818Y-124877777D01*
X131252821Y-124877784D01*
X131347467Y-125041716D01*
X131450600Y-125156256D01*
X131474129Y-125182388D01*
X131627265Y-125293648D01*
X131627270Y-125293651D01*
X131800192Y-125370642D01*
X131800197Y-125370644D01*
X131985354Y-125410000D01*
X131985355Y-125410000D01*
X132174644Y-125410000D01*
X132174646Y-125410000D01*
X132359803Y-125370644D01*
X132532730Y-125293651D01*
X132685871Y-125182388D01*
X132812533Y-125041716D01*
X132907179Y-124877784D01*
X132965674Y-124697756D01*
X132985460Y-124509500D01*
X132965674Y-124321244D01*
X132907179Y-124141216D01*
X132812533Y-123977284D01*
X132685871Y-123836612D01*
X132685870Y-123836611D01*
X132669889Y-123825000D01*
X136004571Y-123825000D01*
X136024244Y-124037310D01*
X136080112Y-124233664D01*
X136082596Y-124242392D01*
X136082596Y-124242394D01*
X136177632Y-124433253D01*
X136303345Y-124599722D01*
X136306128Y-124603407D01*
X136463698Y-124747052D01*
X136644981Y-124859298D01*
X136843802Y-124936321D01*
X137016544Y-124968612D01*
X137078823Y-125000279D01*
X137114096Y-125060591D01*
X137111162Y-125130400D01*
X137070953Y-125187540D01*
X137006235Y-125213871D01*
X136993757Y-125214500D01*
X136462129Y-125214500D01*
X136462123Y-125214501D01*
X136402516Y-125220908D01*
X136267671Y-125271202D01*
X136267664Y-125271206D01*
X136152455Y-125357452D01*
X136152452Y-125357455D01*
X136066206Y-125472664D01*
X136066202Y-125472671D01*
X136015908Y-125607517D01*
X136013231Y-125632422D01*
X136009501Y-125667123D01*
X136009500Y-125667135D01*
X136009500Y-127062870D01*
X136009501Y-127062876D01*
X136015908Y-127122483D01*
X136066202Y-127257328D01*
X136066206Y-127257335D01*
X136152452Y-127372544D01*
X136152455Y-127372547D01*
X136267664Y-127458793D01*
X136267671Y-127458797D01*
X136402517Y-127509091D01*
X136402516Y-127509091D01*
X136409444Y-127509835D01*
X136462127Y-127515500D01*
X136996480Y-127515499D01*
X137063517Y-127535183D01*
X137109272Y-127587987D01*
X137119216Y-127657146D01*
X137090191Y-127720702D01*
X137031413Y-127758476D01*
X137019264Y-127761388D01*
X136843940Y-127794162D01*
X136645208Y-127871151D01*
X136645205Y-127871152D01*
X136542991Y-127934438D01*
X137115600Y-128507046D01*
X137034852Y-128519835D01*
X136921955Y-128577359D01*
X136832359Y-128666955D01*
X136774835Y-128779852D01*
X136762046Y-128860600D01*
X136186835Y-128285389D01*
X136178056Y-128297015D01*
X136083066Y-128487783D01*
X136083058Y-128487803D01*
X136024738Y-128692780D01*
X136024737Y-128692783D01*
X136005073Y-128904999D01*
X136005073Y-128905000D01*
X136024737Y-129117216D01*
X136024738Y-129117219D01*
X136083058Y-129322196D01*
X136083066Y-129322216D01*
X136178060Y-129512990D01*
X136186834Y-129524609D01*
X136186835Y-129524609D01*
X136762046Y-128949399D01*
X136774835Y-129030148D01*
X136832359Y-129143045D01*
X136921955Y-129232641D01*
X137034852Y-129290165D01*
X137115599Y-129302953D01*
X136542991Y-129875560D01*
X136542992Y-129875561D01*
X136645201Y-129938845D01*
X136645210Y-129938850D01*
X136843936Y-130015836D01*
X136843941Y-130015837D01*
X137053439Y-130055000D01*
X137266561Y-130055000D01*
X137476058Y-130015837D01*
X137476063Y-130015836D01*
X137674789Y-129938850D01*
X137674793Y-129938848D01*
X137777007Y-129875560D01*
X137204401Y-129302953D01*
X137285148Y-129290165D01*
X137398045Y-129232641D01*
X137487641Y-129143045D01*
X137545165Y-129030148D01*
X137557953Y-128949400D01*
X138133163Y-129524610D01*
X138141935Y-129512996D01*
X138141938Y-129512991D01*
X138236935Y-129322211D01*
X138236941Y-129322196D01*
X138295261Y-129117219D01*
X138295262Y-129117216D01*
X138306529Y-128995628D01*
X138332315Y-128930690D01*
X138368466Y-128904794D01*
X138340497Y-128888751D01*
X138308307Y-128826738D01*
X138306529Y-128814371D01*
X138295262Y-128692783D01*
X138295261Y-128692780D01*
X138236941Y-128487803D01*
X138236933Y-128487783D01*
X138141940Y-128297010D01*
X138133163Y-128285388D01*
X137557953Y-128860598D01*
X137545165Y-128779852D01*
X137487641Y-128666955D01*
X137398045Y-128577359D01*
X137285148Y-128519835D01*
X137204400Y-128507046D01*
X137777007Y-127934438D01*
X137674789Y-127871149D01*
X137476063Y-127794163D01*
X137476058Y-127794162D01*
X137300735Y-127761388D01*
X137238454Y-127729720D01*
X137203181Y-127669407D01*
X137206115Y-127599599D01*
X137246324Y-127542459D01*
X137311042Y-127516128D01*
X137323512Y-127515499D01*
X137857872Y-127515499D01*
X137917483Y-127509091D01*
X138052331Y-127458796D01*
X138167546Y-127372546D01*
X138253796Y-127257331D01*
X138304091Y-127122483D01*
X138306710Y-127098115D01*
X138333445Y-127033568D01*
X138390837Y-126993719D01*
X138460662Y-126991223D01*
X138520752Y-127026874D01*
X138552028Y-127089352D01*
X138553288Y-127098116D01*
X138555907Y-127122480D01*
X138606202Y-127257328D01*
X138606206Y-127257335D01*
X138692452Y-127372544D01*
X138692455Y-127372547D01*
X138807664Y-127458793D01*
X138807671Y-127458797D01*
X138942517Y-127509091D01*
X138942516Y-127509091D01*
X138949444Y-127509835D01*
X139002127Y-127515500D01*
X139536480Y-127515499D01*
X139603517Y-127535183D01*
X139649272Y-127587987D01*
X139659216Y-127657146D01*
X139630191Y-127720702D01*
X139571413Y-127758476D01*
X139559264Y-127761388D01*
X139383940Y-127794162D01*
X139185208Y-127871151D01*
X139185205Y-127871152D01*
X139082991Y-127934438D01*
X139655600Y-128507046D01*
X139574852Y-128519835D01*
X139461955Y-128577359D01*
X139372359Y-128666955D01*
X139314835Y-128779852D01*
X139302046Y-128860600D01*
X138726835Y-128285389D01*
X138718056Y-128297015D01*
X138623066Y-128487783D01*
X138623058Y-128487803D01*
X138564738Y-128692780D01*
X138564737Y-128692783D01*
X138553471Y-128814371D01*
X138527685Y-128879309D01*
X138491533Y-128905204D01*
X138519503Y-128921248D01*
X138551693Y-128983261D01*
X138553471Y-128995628D01*
X138564737Y-129117216D01*
X138564738Y-129117219D01*
X138623058Y-129322196D01*
X138623066Y-129322216D01*
X138718060Y-129512990D01*
X138726834Y-129524609D01*
X138726835Y-129524609D01*
X139302046Y-128949399D01*
X139314835Y-129030148D01*
X139372359Y-129143045D01*
X139461955Y-129232641D01*
X139574852Y-129290165D01*
X139655599Y-129302953D01*
X139082991Y-129875560D01*
X139082992Y-129875561D01*
X139185201Y-129938845D01*
X139185210Y-129938850D01*
X139383936Y-130015836D01*
X139383941Y-130015837D01*
X139593439Y-130055000D01*
X139806561Y-130055000D01*
X140016058Y-130015837D01*
X140016063Y-130015836D01*
X140214789Y-129938850D01*
X140214793Y-129938848D01*
X140317007Y-129875560D01*
X140231148Y-129789701D01*
X154030241Y-129789701D01*
X154050027Y-129977957D01*
X154050028Y-129977960D01*
X154108519Y-130157978D01*
X154108522Y-130157985D01*
X154203168Y-130321917D01*
X154288137Y-130416284D01*
X154329830Y-130462589D01*
X154482966Y-130573849D01*
X154482971Y-130573852D01*
X154655893Y-130650843D01*
X154655898Y-130650845D01*
X154841055Y-130690201D01*
X154841056Y-130690201D01*
X155030345Y-130690201D01*
X155030347Y-130690201D01*
X155215504Y-130650845D01*
X155388431Y-130573852D01*
X155541572Y-130462589D01*
X155668234Y-130321917D01*
X155762880Y-130157985D01*
X155798617Y-130048000D01*
X157120040Y-130048000D01*
X157139826Y-130236256D01*
X157139827Y-130236259D01*
X157198318Y-130416277D01*
X157198321Y-130416284D01*
X157292967Y-130580216D01*
X157356560Y-130650843D01*
X157419629Y-130720888D01*
X157572765Y-130832148D01*
X157572770Y-130832151D01*
X157745692Y-130909142D01*
X157745697Y-130909144D01*
X157930854Y-130948500D01*
X157930855Y-130948500D01*
X158120144Y-130948500D01*
X158120146Y-130948500D01*
X158305303Y-130909144D01*
X158478230Y-130832151D01*
X158631371Y-130720888D01*
X158758033Y-130580216D01*
X158852679Y-130416284D01*
X158911174Y-130236256D01*
X158930960Y-130048000D01*
X158911174Y-129859744D01*
X158852679Y-129679716D01*
X158758033Y-129515784D01*
X158631371Y-129375112D01*
X158631370Y-129375111D01*
X158478234Y-129263851D01*
X158478229Y-129263848D01*
X158305307Y-129186857D01*
X158305302Y-129186855D01*
X158159501Y-129155865D01*
X158120146Y-129147500D01*
X157930854Y-129147500D01*
X157898397Y-129154398D01*
X157745697Y-129186855D01*
X157745692Y-129186857D01*
X157572770Y-129263848D01*
X157572765Y-129263851D01*
X157419629Y-129375111D01*
X157292966Y-129515785D01*
X157198321Y-129679715D01*
X157198318Y-129679722D01*
X157162584Y-129789701D01*
X157139826Y-129859744D01*
X157120040Y-130048000D01*
X155798617Y-130048000D01*
X155821375Y-129977957D01*
X155841161Y-129789701D01*
X155821375Y-129601445D01*
X155762880Y-129421417D01*
X155668234Y-129257485D01*
X155541572Y-129116813D01*
X155518431Y-129100000D01*
X155388435Y-129005552D01*
X155388430Y-129005549D01*
X155215508Y-128928558D01*
X155215503Y-128928556D01*
X155069702Y-128897566D01*
X155030347Y-128889201D01*
X154841055Y-128889201D01*
X154808598Y-128896099D01*
X154655898Y-128928556D01*
X154655893Y-128928558D01*
X154482971Y-129005549D01*
X154482966Y-129005552D01*
X154329830Y-129116812D01*
X154203167Y-129257486D01*
X154108522Y-129421416D01*
X154108519Y-129421423D01*
X154050028Y-129601441D01*
X154050027Y-129601445D01*
X154030241Y-129789701D01*
X140231148Y-129789701D01*
X139744401Y-129302953D01*
X139825148Y-129290165D01*
X139938045Y-129232641D01*
X140027641Y-129143045D01*
X140085165Y-129030148D01*
X140097953Y-128949400D01*
X140673163Y-129524610D01*
X140681935Y-129512996D01*
X140681938Y-129512991D01*
X140776935Y-129322211D01*
X140776941Y-129322196D01*
X140835261Y-129117219D01*
X140835262Y-129117216D01*
X140854927Y-128905000D01*
X140854927Y-128904999D01*
X140849831Y-128850000D01*
X159934341Y-128850000D01*
X159954936Y-129085403D01*
X159954938Y-129085413D01*
X160016094Y-129313655D01*
X160016096Y-129313659D01*
X160016097Y-129313663D01*
X160109045Y-129512990D01*
X160115965Y-129527830D01*
X160115967Y-129527834D01*
X160222316Y-129679715D01*
X160251505Y-129721401D01*
X160418599Y-129888495D01*
X160515384Y-129956265D01*
X160612165Y-130024032D01*
X160612167Y-130024033D01*
X160612170Y-130024035D01*
X160826337Y-130123903D01*
X161054592Y-130185063D01*
X161242918Y-130201539D01*
X161289999Y-130205659D01*
X161290000Y-130205659D01*
X161290001Y-130205659D01*
X161329234Y-130202226D01*
X161525408Y-130185063D01*
X161753663Y-130123903D01*
X161967830Y-130024035D01*
X162161401Y-129888495D01*
X162328495Y-129721401D01*
X162464035Y-129527830D01*
X162563903Y-129313663D01*
X162625063Y-129085408D01*
X162645659Y-128850000D01*
X162625063Y-128614592D01*
X162563903Y-128386337D01*
X162464035Y-128172171D01*
X162328495Y-127978599D01*
X162328494Y-127978597D01*
X162161402Y-127811506D01*
X162161396Y-127811501D01*
X161975842Y-127681575D01*
X161932217Y-127626998D01*
X161925023Y-127557500D01*
X161956546Y-127495145D01*
X161975842Y-127478425D01*
X162127051Y-127372547D01*
X162161401Y-127348495D01*
X162328495Y-127181401D01*
X162464035Y-126987830D01*
X162563903Y-126773663D01*
X162625063Y-126545408D01*
X162645659Y-126310000D01*
X162625063Y-126074592D01*
X162574275Y-125885048D01*
X162563905Y-125846344D01*
X162563904Y-125846343D01*
X162563903Y-125846337D01*
X162464035Y-125632171D01*
X162463834Y-125631883D01*
X162328494Y-125438597D01*
X162161402Y-125271506D01*
X162161396Y-125271501D01*
X161975842Y-125141575D01*
X161932217Y-125086998D01*
X161925023Y-125017500D01*
X161956546Y-124955145D01*
X161975842Y-124938425D01*
X162062456Y-124877777D01*
X162161401Y-124808495D01*
X162328495Y-124641401D01*
X162464035Y-124447830D01*
X162563903Y-124233663D01*
X162625063Y-124005408D01*
X162645659Y-123770000D01*
X162625063Y-123534592D01*
X162563903Y-123306337D01*
X162464035Y-123092171D01*
X162463115Y-123090856D01*
X162328494Y-122898597D01*
X162161402Y-122731506D01*
X162161396Y-122731501D01*
X161975842Y-122601575D01*
X161932217Y-122546998D01*
X161925023Y-122477500D01*
X161956546Y-122415145D01*
X161975842Y-122398425D01*
X162075195Y-122328857D01*
X162161401Y-122268495D01*
X162328495Y-122101401D01*
X162464035Y-121907830D01*
X162563903Y-121693663D01*
X162625063Y-121465408D01*
X162645659Y-121230000D01*
X162625063Y-120994592D01*
X162563903Y-120766337D01*
X162464035Y-120552171D01*
X162389590Y-120445851D01*
X162328494Y-120358597D01*
X162161402Y-120191506D01*
X162161396Y-120191501D01*
X161975842Y-120061575D01*
X161932217Y-120006998D01*
X161925023Y-119937500D01*
X161956546Y-119875145D01*
X161975842Y-119858425D01*
X162083348Y-119783148D01*
X162161401Y-119728495D01*
X162328495Y-119561401D01*
X162464035Y-119367830D01*
X162563903Y-119153663D01*
X162625063Y-118925408D01*
X162645659Y-118690000D01*
X162625063Y-118454592D01*
X162578626Y-118281285D01*
X162563905Y-118226344D01*
X162563904Y-118226343D01*
X162563903Y-118226337D01*
X162464035Y-118012171D01*
X162389590Y-117905851D01*
X162328494Y-117818597D01*
X162161402Y-117651506D01*
X162161396Y-117651501D01*
X161975842Y-117521575D01*
X161932217Y-117466998D01*
X161925023Y-117397500D01*
X161956546Y-117335145D01*
X161975842Y-117318425D01*
X161998026Y-117302891D01*
X162161401Y-117188495D01*
X162328495Y-117021401D01*
X162464035Y-116827830D01*
X162563903Y-116613663D01*
X162625063Y-116385408D01*
X162645659Y-116150000D01*
X162625063Y-115914592D01*
X162563903Y-115686337D01*
X162464035Y-115472171D01*
X162389590Y-115365851D01*
X162328494Y-115278597D01*
X162161402Y-115111506D01*
X162161396Y-115111501D01*
X161975842Y-114981575D01*
X161932217Y-114926998D01*
X161925023Y-114857500D01*
X161956546Y-114795145D01*
X161975842Y-114778425D01*
X162133149Y-114668277D01*
X162161401Y-114648495D01*
X162328495Y-114481401D01*
X162464035Y-114287830D01*
X162563903Y-114073663D01*
X162625063Y-113845408D01*
X162645659Y-113610000D01*
X162625063Y-113374592D01*
X162563903Y-113146337D01*
X162464035Y-112932171D01*
X162422055Y-112872216D01*
X162328494Y-112738597D01*
X162161402Y-112571506D01*
X162161396Y-112571501D01*
X161975842Y-112441575D01*
X161932217Y-112386998D01*
X161925023Y-112317500D01*
X161956546Y-112255145D01*
X161975842Y-112238425D01*
X162075195Y-112168857D01*
X162161401Y-112108495D01*
X162328495Y-111941401D01*
X162464035Y-111747830D01*
X162563903Y-111533663D01*
X162625063Y-111305408D01*
X162645659Y-111070000D01*
X162625063Y-110834592D01*
X162563903Y-110606337D01*
X162464035Y-110392171D01*
X162452827Y-110376163D01*
X162328494Y-110198597D01*
X162161402Y-110031506D01*
X162161396Y-110031501D01*
X161975842Y-109901575D01*
X161932217Y-109846998D01*
X161925023Y-109777500D01*
X161956546Y-109715145D01*
X161975842Y-109698425D01*
X162099635Y-109611744D01*
X162161401Y-109568495D01*
X162328495Y-109401401D01*
X162464035Y-109207830D01*
X162563903Y-108993663D01*
X162625063Y-108765408D01*
X162645659Y-108530000D01*
X162625063Y-108294592D01*
X162563903Y-108066337D01*
X162464035Y-107852171D01*
X162422055Y-107792216D01*
X162328494Y-107658597D01*
X162161402Y-107491506D01*
X162161396Y-107491501D01*
X161975842Y-107361575D01*
X161932217Y-107306998D01*
X161925023Y-107237500D01*
X161956546Y-107175145D01*
X161975842Y-107158425D01*
X162099635Y-107071744D01*
X162161401Y-107028495D01*
X162328495Y-106861401D01*
X162464035Y-106667830D01*
X162563903Y-106453663D01*
X162625063Y-106225408D01*
X162645659Y-105990000D01*
X162625063Y-105754592D01*
X162563903Y-105526337D01*
X162464035Y-105312171D01*
X162461676Y-105308801D01*
X162328494Y-105118597D01*
X162161402Y-104951506D01*
X162161396Y-104951501D01*
X161975842Y-104821575D01*
X161932217Y-104766998D01*
X161925023Y-104697500D01*
X161956546Y-104635145D01*
X161975842Y-104618425D01*
X162075195Y-104548857D01*
X162161401Y-104488495D01*
X162328495Y-104321401D01*
X162464035Y-104127830D01*
X162563903Y-103913663D01*
X162625063Y-103685408D01*
X162645659Y-103450000D01*
X162625063Y-103214592D01*
X162563903Y-102986337D01*
X162464035Y-102772171D01*
X162461676Y-102768801D01*
X162328494Y-102578597D01*
X162161402Y-102411506D01*
X162161396Y-102411501D01*
X161975842Y-102281575D01*
X161932217Y-102226998D01*
X161925023Y-102157500D01*
X161956546Y-102095145D01*
X161975842Y-102078425D01*
X162075195Y-102008857D01*
X162161401Y-101948495D01*
X162328495Y-101781401D01*
X162464035Y-101587830D01*
X162563903Y-101373663D01*
X162625063Y-101145408D01*
X162645659Y-100910000D01*
X162625063Y-100674592D01*
X162563903Y-100446337D01*
X162464035Y-100232171D01*
X162389590Y-100125851D01*
X162328494Y-100038597D01*
X162161402Y-99871506D01*
X162161396Y-99871501D01*
X161975842Y-99741575D01*
X161932217Y-99686998D01*
X161925023Y-99617500D01*
X161956546Y-99555145D01*
X161975842Y-99538425D01*
X162075195Y-99468857D01*
X162161401Y-99408495D01*
X162328495Y-99241401D01*
X162464035Y-99047830D01*
X162563903Y-98833663D01*
X162625063Y-98605408D01*
X162645659Y-98370000D01*
X162625063Y-98134592D01*
X162563903Y-97906337D01*
X162464035Y-97692171D01*
X162328495Y-97498599D01*
X162328494Y-97498597D01*
X162161402Y-97331506D01*
X162161396Y-97331501D01*
X161975842Y-97201575D01*
X161932217Y-97146998D01*
X161925023Y-97077500D01*
X161956546Y-97015145D01*
X161975842Y-96998425D01*
X162075195Y-96928857D01*
X162161401Y-96868495D01*
X162328495Y-96701401D01*
X162464035Y-96507830D01*
X162563903Y-96293663D01*
X162625063Y-96065408D01*
X162645659Y-95830000D01*
X162625063Y-95594592D01*
X162563903Y-95366337D01*
X162464035Y-95152171D01*
X162400717Y-95061742D01*
X162328494Y-94958597D01*
X162161402Y-94791506D01*
X162161396Y-94791501D01*
X161975842Y-94661575D01*
X161932217Y-94606998D01*
X161925023Y-94537500D01*
X161956546Y-94475145D01*
X161975842Y-94458425D01*
X162075195Y-94388857D01*
X162161401Y-94328495D01*
X162328495Y-94161401D01*
X162464035Y-93967830D01*
X162563903Y-93753663D01*
X162625063Y-93525408D01*
X162645659Y-93290000D01*
X162625063Y-93054592D01*
X162563903Y-92826337D01*
X162464035Y-92612171D01*
X162328495Y-92418599D01*
X162328494Y-92418597D01*
X162161402Y-92251506D01*
X162161396Y-92251501D01*
X161975842Y-92121575D01*
X161932217Y-92066998D01*
X161925023Y-91997500D01*
X161956546Y-91935145D01*
X161975842Y-91918425D01*
X162075195Y-91848857D01*
X162161401Y-91788495D01*
X162328495Y-91621401D01*
X162464035Y-91427830D01*
X162563903Y-91213663D01*
X162625063Y-90985408D01*
X162645659Y-90750000D01*
X162625063Y-90514592D01*
X162563903Y-90286337D01*
X162464035Y-90072171D01*
X162350008Y-89909322D01*
X162328494Y-89878597D01*
X162161402Y-89711506D01*
X162161396Y-89711501D01*
X161975842Y-89581575D01*
X161932217Y-89526998D01*
X161925023Y-89457500D01*
X161956546Y-89395145D01*
X161975842Y-89378425D01*
X161998026Y-89362891D01*
X162161401Y-89248495D01*
X162328495Y-89081401D01*
X162464035Y-88887830D01*
X162563903Y-88673663D01*
X162625063Y-88445408D01*
X162645659Y-88210000D01*
X162625063Y-87974592D01*
X162563903Y-87746337D01*
X162464035Y-87532171D01*
X162422055Y-87472216D01*
X162328494Y-87338597D01*
X162161402Y-87171506D01*
X162161396Y-87171501D01*
X161975842Y-87041575D01*
X161932217Y-86986998D01*
X161925023Y-86917500D01*
X161956546Y-86855145D01*
X161975842Y-86838425D01*
X162099635Y-86751744D01*
X162161401Y-86708495D01*
X162328495Y-86541401D01*
X162464035Y-86347830D01*
X162563903Y-86133663D01*
X162625063Y-85905408D01*
X162645659Y-85670000D01*
X162625063Y-85434592D01*
X162563903Y-85206337D01*
X162464035Y-84992171D01*
X162422055Y-84932216D01*
X162328494Y-84798597D01*
X162161402Y-84631506D01*
X162161401Y-84631505D01*
X161975405Y-84501269D01*
X161931781Y-84446692D01*
X161924588Y-84377193D01*
X161956110Y-84314839D01*
X161975405Y-84298119D01*
X162161082Y-84168105D01*
X162328105Y-84001082D01*
X162463600Y-83807578D01*
X162563429Y-83593492D01*
X162563432Y-83593486D01*
X162620636Y-83380000D01*
X161723686Y-83380000D01*
X161749493Y-83339844D01*
X161790000Y-83201889D01*
X161790000Y-83058111D01*
X161749493Y-82920156D01*
X161723686Y-82880000D01*
X162620636Y-82880000D01*
X162620635Y-82879999D01*
X162563432Y-82666513D01*
X162563429Y-82666507D01*
X162463600Y-82452422D01*
X162463599Y-82452420D01*
X162328113Y-82258926D01*
X162328108Y-82258920D01*
X162206053Y-82136865D01*
X162172568Y-82075542D01*
X162177552Y-82005850D01*
X162219424Y-81949917D01*
X162250400Y-81933002D01*
X162382331Y-81883796D01*
X162497546Y-81797546D01*
X162583796Y-81682331D01*
X162634091Y-81547483D01*
X162640500Y-81487873D01*
X162640499Y-79692128D01*
X162634091Y-79632517D01*
X162583796Y-79497669D01*
X162583795Y-79497668D01*
X162583793Y-79497664D01*
X162497547Y-79382455D01*
X162497544Y-79382452D01*
X162382335Y-79296206D01*
X162382328Y-79296202D01*
X162247482Y-79245908D01*
X162247483Y-79245908D01*
X162187883Y-79239501D01*
X162187881Y-79239500D01*
X162187873Y-79239500D01*
X162187864Y-79239500D01*
X160392129Y-79239500D01*
X160392123Y-79239501D01*
X160332516Y-79245908D01*
X160197671Y-79296202D01*
X160197664Y-79296206D01*
X160082455Y-79382452D01*
X160082452Y-79382455D01*
X159996206Y-79497664D01*
X159996202Y-79497671D01*
X159945908Y-79632517D01*
X159939914Y-79688277D01*
X159939501Y-79692123D01*
X159939500Y-79692135D01*
X159939500Y-81487870D01*
X159939501Y-81487876D01*
X159945908Y-81547483D01*
X159996202Y-81682328D01*
X159996206Y-81682335D01*
X160082452Y-81797544D01*
X160082455Y-81797547D01*
X160197664Y-81883793D01*
X160197671Y-81883797D01*
X160197674Y-81883798D01*
X160329598Y-81933002D01*
X160385531Y-81974873D01*
X160409949Y-82040337D01*
X160395098Y-82108610D01*
X160373947Y-82136865D01*
X160251886Y-82258926D01*
X160116400Y-82452420D01*
X160116399Y-82452422D01*
X160016570Y-82666507D01*
X160016567Y-82666513D01*
X159959364Y-82879999D01*
X159959364Y-82880000D01*
X160856314Y-82880000D01*
X160830507Y-82920156D01*
X160790000Y-83058111D01*
X160790000Y-83201889D01*
X160830507Y-83339844D01*
X160856314Y-83380000D01*
X159959364Y-83380000D01*
X160016567Y-83593486D01*
X160016570Y-83593492D01*
X160116399Y-83807578D01*
X160251894Y-84001082D01*
X160418917Y-84168105D01*
X160604595Y-84298119D01*
X160648219Y-84352696D01*
X160655412Y-84422195D01*
X160623890Y-84484549D01*
X160604595Y-84501269D01*
X160418594Y-84631508D01*
X160251505Y-84798597D01*
X160115965Y-84992169D01*
X160115964Y-84992171D01*
X160016098Y-85206335D01*
X160016094Y-85206344D01*
X159954938Y-85434586D01*
X159954936Y-85434596D01*
X159934341Y-85669999D01*
X159934341Y-85670000D01*
X159954936Y-85905403D01*
X159954938Y-85905413D01*
X160016094Y-86133655D01*
X160016096Y-86133659D01*
X160016097Y-86133663D01*
X160113661Y-86342888D01*
X160115965Y-86347830D01*
X160115967Y-86347834D01*
X160251501Y-86541395D01*
X160251506Y-86541402D01*
X160418597Y-86708493D01*
X160418603Y-86708498D01*
X160604158Y-86838425D01*
X160647783Y-86893002D01*
X160654977Y-86962500D01*
X160623454Y-87024855D01*
X160604158Y-87041575D01*
X160418597Y-87171505D01*
X160251505Y-87338597D01*
X160115965Y-87532169D01*
X160115964Y-87532171D01*
X160016098Y-87746335D01*
X160016094Y-87746344D01*
X159954938Y-87974586D01*
X159954936Y-87974596D01*
X159934341Y-88209999D01*
X159934341Y-88210000D01*
X159954936Y-88445403D01*
X159954938Y-88445413D01*
X160016094Y-88673655D01*
X160016096Y-88673659D01*
X160016097Y-88673663D01*
X160099426Y-88852362D01*
X160115965Y-88887830D01*
X160115967Y-88887834D01*
X160251501Y-89081395D01*
X160251506Y-89081402D01*
X160418597Y-89248493D01*
X160418603Y-89248498D01*
X160604158Y-89378425D01*
X160647783Y-89433002D01*
X160654977Y-89502500D01*
X160623454Y-89564855D01*
X160604158Y-89581575D01*
X160418597Y-89711505D01*
X160251505Y-89878597D01*
X160115965Y-90072169D01*
X160115964Y-90072171D01*
X160016098Y-90286335D01*
X160016094Y-90286344D01*
X159954938Y-90514586D01*
X159954936Y-90514596D01*
X159934341Y-90749999D01*
X159934341Y-90750000D01*
X159954936Y-90985403D01*
X159954938Y-90985413D01*
X160016094Y-91213655D01*
X160016096Y-91213659D01*
X160016097Y-91213663D01*
X160033853Y-91251740D01*
X160115965Y-91427830D01*
X160115967Y-91427834D01*
X160251501Y-91621395D01*
X160251506Y-91621402D01*
X160418597Y-91788493D01*
X160418603Y-91788498D01*
X160604158Y-91918425D01*
X160647783Y-91973002D01*
X160654977Y-92042500D01*
X160623454Y-92104855D01*
X160604158Y-92121575D01*
X160418597Y-92251505D01*
X160251505Y-92418597D01*
X160115965Y-92612169D01*
X160115964Y-92612171D01*
X160016098Y-92826335D01*
X160016094Y-92826344D01*
X159954938Y-93054586D01*
X159954936Y-93054596D01*
X159934341Y-93289999D01*
X159934341Y-93290000D01*
X159954936Y-93525403D01*
X159954938Y-93525413D01*
X160016094Y-93753655D01*
X160016096Y-93753659D01*
X160016097Y-93753663D01*
X160033853Y-93791740D01*
X160115965Y-93967830D01*
X160115967Y-93967834D01*
X160251501Y-94161395D01*
X160251506Y-94161402D01*
X160418597Y-94328493D01*
X160418603Y-94328498D01*
X160604158Y-94458425D01*
X160647783Y-94513002D01*
X160654977Y-94582500D01*
X160623454Y-94644855D01*
X160604158Y-94661575D01*
X160418597Y-94791505D01*
X160251505Y-94958597D01*
X160115965Y-95152169D01*
X160115964Y-95152171D01*
X160016098Y-95366335D01*
X160016094Y-95366344D01*
X159954938Y-95594586D01*
X159954936Y-95594596D01*
X159934341Y-95829999D01*
X159934341Y-95830000D01*
X159954936Y-96065403D01*
X159954938Y-96065413D01*
X160016094Y-96293655D01*
X160016096Y-96293659D01*
X160016097Y-96293663D01*
X160033853Y-96331740D01*
X160115965Y-96507830D01*
X160115967Y-96507834D01*
X160251501Y-96701395D01*
X160251506Y-96701402D01*
X160418597Y-96868493D01*
X160418603Y-96868498D01*
X160604158Y-96998425D01*
X160647783Y-97053002D01*
X160654977Y-97122500D01*
X160623454Y-97184855D01*
X160604158Y-97201575D01*
X160418597Y-97331505D01*
X160251505Y-97498597D01*
X160115965Y-97692169D01*
X160115964Y-97692171D01*
X160016098Y-97906335D01*
X160016094Y-97906344D01*
X159954938Y-98134586D01*
X159954936Y-98134596D01*
X159934341Y-98369999D01*
X159934341Y-98370000D01*
X159954936Y-98605403D01*
X159954938Y-98605413D01*
X160016094Y-98833655D01*
X160016096Y-98833659D01*
X160016097Y-98833663D01*
X160115965Y-99047830D01*
X160115967Y-99047834D01*
X160251501Y-99241395D01*
X160251506Y-99241402D01*
X160418597Y-99408493D01*
X160418603Y-99408498D01*
X160604158Y-99538425D01*
X160647783Y-99593002D01*
X160654977Y-99662500D01*
X160623454Y-99724855D01*
X160604158Y-99741575D01*
X160418597Y-99871505D01*
X160251505Y-100038597D01*
X160115965Y-100232169D01*
X160115964Y-100232171D01*
X160016098Y-100446335D01*
X160016094Y-100446344D01*
X159954938Y-100674586D01*
X159954936Y-100674596D01*
X159934341Y-100909999D01*
X159934341Y-100910000D01*
X159954936Y-101145403D01*
X159954938Y-101145413D01*
X160016094Y-101373655D01*
X160016096Y-101373659D01*
X160016097Y-101373663D01*
X160113661Y-101582888D01*
X160115965Y-101587830D01*
X160115967Y-101587834D01*
X160251501Y-101781395D01*
X160251506Y-101781402D01*
X160418597Y-101948493D01*
X160418603Y-101948498D01*
X160604158Y-102078425D01*
X160647783Y-102133002D01*
X160654977Y-102202500D01*
X160623454Y-102264855D01*
X160604158Y-102281575D01*
X160418597Y-102411505D01*
X160251505Y-102578597D01*
X160115965Y-102772169D01*
X160115964Y-102772171D01*
X160016098Y-102986335D01*
X160016094Y-102986344D01*
X159954938Y-103214586D01*
X159954936Y-103214596D01*
X159934341Y-103449999D01*
X159934341Y-103450000D01*
X159954936Y-103685403D01*
X159954938Y-103685413D01*
X160016094Y-103913655D01*
X160016096Y-103913659D01*
X160016097Y-103913663D01*
X160048063Y-103982214D01*
X160115965Y-104127830D01*
X160115967Y-104127834D01*
X160251501Y-104321395D01*
X160251506Y-104321402D01*
X160418597Y-104488493D01*
X160418603Y-104488498D01*
X160604158Y-104618425D01*
X160647783Y-104673002D01*
X160654977Y-104742500D01*
X160623454Y-104804855D01*
X160604158Y-104821575D01*
X160418597Y-104951505D01*
X160251505Y-105118597D01*
X160115965Y-105312169D01*
X160115964Y-105312171D01*
X160016098Y-105526335D01*
X160016094Y-105526344D01*
X159954938Y-105754586D01*
X159954936Y-105754596D01*
X159934341Y-105989999D01*
X159934341Y-105990000D01*
X159954936Y-106225403D01*
X159954938Y-106225413D01*
X160016094Y-106453655D01*
X160016096Y-106453659D01*
X160016097Y-106453663D01*
X160098575Y-106630537D01*
X160115965Y-106667830D01*
X160115967Y-106667834D01*
X160251501Y-106861395D01*
X160251506Y-106861402D01*
X160418597Y-107028493D01*
X160418603Y-107028498D01*
X160604158Y-107158425D01*
X160647783Y-107213002D01*
X160654977Y-107282500D01*
X160623454Y-107344855D01*
X160604158Y-107361575D01*
X160418597Y-107491505D01*
X160251505Y-107658597D01*
X160115965Y-107852169D01*
X160115964Y-107852171D01*
X160016098Y-108066335D01*
X160016094Y-108066344D01*
X159954938Y-108294586D01*
X159954936Y-108294596D01*
X159934341Y-108529999D01*
X159934341Y-108530000D01*
X159954936Y-108765403D01*
X159954938Y-108765413D01*
X160016094Y-108993655D01*
X160016096Y-108993659D01*
X160016097Y-108993663D01*
X160115965Y-109207830D01*
X160115967Y-109207834D01*
X160251501Y-109401395D01*
X160251506Y-109401402D01*
X160418597Y-109568493D01*
X160418603Y-109568498D01*
X160604158Y-109698425D01*
X160647783Y-109753002D01*
X160654977Y-109822500D01*
X160623454Y-109884855D01*
X160604158Y-109901575D01*
X160418597Y-110031505D01*
X160251505Y-110198597D01*
X160115965Y-110392169D01*
X160115964Y-110392171D01*
X160016098Y-110606335D01*
X160016094Y-110606344D01*
X159954938Y-110834586D01*
X159954936Y-110834596D01*
X159934341Y-111069999D01*
X159934341Y-111070000D01*
X159954936Y-111305403D01*
X159954938Y-111305413D01*
X160016094Y-111533655D01*
X160016096Y-111533659D01*
X160016097Y-111533663D01*
X160080086Y-111670888D01*
X160115965Y-111747830D01*
X160115967Y-111747834D01*
X160251501Y-111941395D01*
X160251506Y-111941402D01*
X160418597Y-112108493D01*
X160418603Y-112108498D01*
X160604158Y-112238425D01*
X160647783Y-112293002D01*
X160654977Y-112362500D01*
X160623454Y-112424855D01*
X160604158Y-112441575D01*
X160418597Y-112571505D01*
X160251505Y-112738597D01*
X160115965Y-112932169D01*
X160115964Y-112932171D01*
X160016098Y-113146335D01*
X160016094Y-113146344D01*
X159954938Y-113374586D01*
X159954936Y-113374596D01*
X159934341Y-113609999D01*
X159934341Y-113610000D01*
X159954936Y-113845403D01*
X159954938Y-113845413D01*
X160016094Y-114073655D01*
X160016096Y-114073659D01*
X160016097Y-114073663D01*
X160033853Y-114111740D01*
X160115965Y-114287830D01*
X160115967Y-114287834D01*
X160251501Y-114481395D01*
X160251506Y-114481402D01*
X160418597Y-114648493D01*
X160418603Y-114648498D01*
X160604158Y-114778425D01*
X160647783Y-114833002D01*
X160654977Y-114902500D01*
X160623454Y-114964855D01*
X160604158Y-114981575D01*
X160418597Y-115111505D01*
X160251505Y-115278597D01*
X160115965Y-115472169D01*
X160115964Y-115472171D01*
X160016098Y-115686335D01*
X160016094Y-115686344D01*
X159954938Y-115914586D01*
X159954936Y-115914596D01*
X159934341Y-116149999D01*
X159934341Y-116150000D01*
X159954936Y-116385403D01*
X159954938Y-116385413D01*
X160016094Y-116613655D01*
X160016096Y-116613659D01*
X160016097Y-116613663D01*
X160048063Y-116682214D01*
X160115965Y-116827830D01*
X160115967Y-116827834D01*
X160251501Y-117021395D01*
X160251506Y-117021402D01*
X160418597Y-117188493D01*
X160418603Y-117188498D01*
X160604158Y-117318425D01*
X160647783Y-117373002D01*
X160654977Y-117442500D01*
X160623454Y-117504855D01*
X160604158Y-117521575D01*
X160418597Y-117651505D01*
X160251505Y-117818597D01*
X160115965Y-118012169D01*
X160115964Y-118012171D01*
X160016098Y-118226335D01*
X160016094Y-118226344D01*
X159954938Y-118454586D01*
X159954936Y-118454596D01*
X159934341Y-118689999D01*
X159934341Y-118690000D01*
X159954936Y-118925403D01*
X159954938Y-118925413D01*
X160016094Y-119153655D01*
X160016096Y-119153659D01*
X160016097Y-119153663D01*
X160048063Y-119222214D01*
X160115965Y-119367830D01*
X160115967Y-119367834D01*
X160251501Y-119561395D01*
X160251506Y-119561402D01*
X160418597Y-119728493D01*
X160418603Y-119728498D01*
X160604158Y-119858425D01*
X160647783Y-119913002D01*
X160654977Y-119982500D01*
X160623454Y-120044855D01*
X160604158Y-120061575D01*
X160418597Y-120191505D01*
X160251505Y-120358597D01*
X160115965Y-120552169D01*
X160115964Y-120552171D01*
X160016098Y-120766335D01*
X160016094Y-120766344D01*
X159954938Y-120994586D01*
X159954936Y-120994596D01*
X159934341Y-121229999D01*
X159934341Y-121230000D01*
X159954936Y-121465403D01*
X159954938Y-121465413D01*
X160016094Y-121693655D01*
X160016096Y-121693659D01*
X160016097Y-121693663D01*
X160110348Y-121895784D01*
X160115965Y-121907830D01*
X160115967Y-121907834D01*
X160251501Y-122101395D01*
X160251506Y-122101402D01*
X160418597Y-122268493D01*
X160418603Y-122268498D01*
X160604158Y-122398425D01*
X160647783Y-122453002D01*
X160654977Y-122522500D01*
X160623454Y-122584855D01*
X160604158Y-122601575D01*
X160418597Y-122731505D01*
X160251505Y-122898597D01*
X160115965Y-123092169D01*
X160115964Y-123092171D01*
X160016098Y-123306335D01*
X160016094Y-123306344D01*
X159954938Y-123534586D01*
X159954936Y-123534596D01*
X159934341Y-123769999D01*
X159934341Y-123770000D01*
X159954936Y-124005403D01*
X159954938Y-124005413D01*
X160016094Y-124233655D01*
X160016096Y-124233659D01*
X160016097Y-124233663D01*
X160080086Y-124370888D01*
X160115965Y-124447830D01*
X160115967Y-124447834D01*
X160193908Y-124559144D01*
X160239942Y-124624888D01*
X160251501Y-124641395D01*
X160251506Y-124641402D01*
X160418597Y-124808493D01*
X160418603Y-124808498D01*
X160604158Y-124938425D01*
X160647783Y-124993002D01*
X160654977Y-125062500D01*
X160623454Y-125124855D01*
X160604158Y-125141575D01*
X160418597Y-125271505D01*
X160251505Y-125438597D01*
X160115965Y-125632169D01*
X160115964Y-125632171D01*
X160016098Y-125846335D01*
X160016094Y-125846344D01*
X159954938Y-126074586D01*
X159954936Y-126074596D01*
X159934341Y-126309999D01*
X159934341Y-126310000D01*
X159954936Y-126545403D01*
X159954938Y-126545413D01*
X160016094Y-126773655D01*
X160016096Y-126773659D01*
X160016097Y-126773663D01*
X160115847Y-126987578D01*
X160115965Y-126987830D01*
X160115967Y-126987834D01*
X160251501Y-127181395D01*
X160251506Y-127181402D01*
X160418597Y-127348493D01*
X160418603Y-127348498D01*
X160604158Y-127478425D01*
X160647783Y-127533002D01*
X160654977Y-127602500D01*
X160623454Y-127664855D01*
X160604158Y-127681575D01*
X160418597Y-127811505D01*
X160251505Y-127978597D01*
X160115965Y-128172169D01*
X160115964Y-128172171D01*
X160016098Y-128386335D01*
X160016094Y-128386344D01*
X159954938Y-128614586D01*
X159954936Y-128614596D01*
X159934341Y-128849999D01*
X159934341Y-128850000D01*
X140849831Y-128850000D01*
X140835262Y-128692783D01*
X140835261Y-128692780D01*
X140776941Y-128487803D01*
X140776933Y-128487783D01*
X140681940Y-128297010D01*
X140673163Y-128285388D01*
X140097953Y-128860598D01*
X140085165Y-128779852D01*
X140027641Y-128666955D01*
X139938045Y-128577359D01*
X139825148Y-128519835D01*
X139744400Y-128507046D01*
X140317007Y-127934438D01*
X140214789Y-127871149D01*
X140016063Y-127794163D01*
X140016058Y-127794162D01*
X139840735Y-127761388D01*
X139778454Y-127729720D01*
X139743181Y-127669407D01*
X139746115Y-127599599D01*
X139786324Y-127542459D01*
X139851042Y-127516128D01*
X139863512Y-127515499D01*
X140397872Y-127515499D01*
X140457483Y-127509091D01*
X140592331Y-127458796D01*
X140707546Y-127372546D01*
X140793796Y-127257331D01*
X140844091Y-127122483D01*
X140850500Y-127062873D01*
X140850499Y-125667128D01*
X140844091Y-125607517D01*
X140804070Y-125500216D01*
X140793797Y-125472671D01*
X140793793Y-125472664D01*
X140707547Y-125357455D01*
X140707544Y-125357452D01*
X140592335Y-125271206D01*
X140592328Y-125271202D01*
X140457482Y-125220908D01*
X140457483Y-125220908D01*
X140397883Y-125214501D01*
X140397881Y-125214500D01*
X140397873Y-125214500D01*
X140397865Y-125214500D01*
X139866243Y-125214500D01*
X139799204Y-125194815D01*
X139753449Y-125142011D01*
X139743505Y-125072853D01*
X139772530Y-125009297D01*
X139831308Y-124971523D01*
X139843441Y-124968614D01*
X140016198Y-124936321D01*
X140215019Y-124859298D01*
X140396302Y-124747052D01*
X140553872Y-124603407D01*
X140682366Y-124433255D01*
X140715301Y-124367112D01*
X140777403Y-124242394D01*
X140777403Y-124242393D01*
X140777405Y-124242389D01*
X140835756Y-124037310D01*
X140855429Y-123825000D01*
X140835756Y-123612690D01*
X140777405Y-123407611D01*
X140777403Y-123407606D01*
X140777403Y-123407605D01*
X140682367Y-123216746D01*
X140662169Y-123190000D01*
X141334540Y-123190000D01*
X141354326Y-123378256D01*
X141354327Y-123378259D01*
X141412818Y-123558277D01*
X141412821Y-123558284D01*
X141507467Y-123722216D01*
X141610469Y-123836611D01*
X141634129Y-123862888D01*
X141787265Y-123974148D01*
X141787270Y-123974151D01*
X141960192Y-124051142D01*
X141960197Y-124051144D01*
X142145354Y-124090500D01*
X142145355Y-124090500D01*
X142334644Y-124090500D01*
X142334646Y-124090500D01*
X142519803Y-124051144D01*
X142692730Y-123974151D01*
X142845871Y-123862888D01*
X142972533Y-123722216D01*
X143067179Y-123558284D01*
X143125674Y-123378256D01*
X143145460Y-123190000D01*
X143125674Y-123001744D01*
X143107292Y-122945173D01*
X143105298Y-122875335D01*
X143141378Y-122815502D01*
X143204078Y-122784673D01*
X143251005Y-122785567D01*
X143321774Y-122800609D01*
X143415354Y-122820500D01*
X143415355Y-122820500D01*
X143604644Y-122820500D01*
X143604646Y-122820500D01*
X143789803Y-122781144D01*
X143962730Y-122704151D01*
X144072117Y-122624676D01*
X144137920Y-122601198D01*
X144205974Y-122617023D01*
X144217871Y-122624668D01*
X144286459Y-122674500D01*
X144327270Y-122704151D01*
X144500192Y-122781142D01*
X144500193Y-122781142D01*
X144500197Y-122781144D01*
X144571393Y-122796277D01*
X144618124Y-122806210D01*
X144669556Y-122833976D01*
X144704221Y-122820859D01*
X144713656Y-122820500D01*
X144874644Y-122820500D01*
X144874646Y-122820500D01*
X145038994Y-122785567D01*
X145108661Y-122790883D01*
X145164395Y-122833020D01*
X145188500Y-122898600D01*
X145182706Y-122945174D01*
X145164327Y-123001738D01*
X145164327Y-123001740D01*
X145164326Y-123001744D01*
X145157191Y-123069627D01*
X145130607Y-123134240D01*
X145073310Y-123174225D01*
X145003491Y-123176885D01*
X144983435Y-123169943D01*
X144805807Y-123090857D01*
X144805800Y-123090855D01*
X144687876Y-123065790D01*
X144636443Y-123038023D01*
X144601779Y-123051141D01*
X144592344Y-123051500D01*
X144431354Y-123051500D01*
X144398897Y-123058398D01*
X144246197Y-123090855D01*
X144246192Y-123090857D01*
X144073270Y-123167848D01*
X144073265Y-123167851D01*
X143920129Y-123279111D01*
X143793466Y-123419785D01*
X143698821Y-123583715D01*
X143698818Y-123583722D01*
X143640327Y-123763740D01*
X143640326Y-123763744D01*
X143620540Y-123952000D01*
X143640326Y-124140256D01*
X143640327Y-124140259D01*
X143698818Y-124320277D01*
X143698821Y-124320284D01*
X143793467Y-124484216D01*
X143900787Y-124603407D01*
X143920129Y-124624888D01*
X144073265Y-124736148D01*
X144073270Y-124736151D01*
X144246191Y-124813142D01*
X144246193Y-124813142D01*
X144246197Y-124813144D01*
X144286271Y-124821661D01*
X144347750Y-124854852D01*
X144381528Y-124916014D01*
X144383810Y-124955907D01*
X144382540Y-124967995D01*
X144382540Y-124967997D01*
X144382540Y-124968000D01*
X144402326Y-125156256D01*
X144402327Y-125156259D01*
X144460818Y-125336277D01*
X144460821Y-125336284D01*
X144555467Y-125500216D01*
X144652081Y-125607516D01*
X144682129Y-125640888D01*
X144835265Y-125752148D01*
X144835270Y-125752151D01*
X145008192Y-125829142D01*
X145008197Y-125829144D01*
X145193354Y-125868500D01*
X145193355Y-125868500D01*
X145382644Y-125868500D01*
X145382646Y-125868500D01*
X145567803Y-125829144D01*
X145740730Y-125752151D01*
X145893871Y-125640888D01*
X146020533Y-125500216D01*
X146115179Y-125336284D01*
X146173674Y-125156256D01*
X146185893Y-125040000D01*
X155304540Y-125040000D01*
X155324326Y-125228256D01*
X155324327Y-125228259D01*
X155382818Y-125408277D01*
X155382821Y-125408284D01*
X155477467Y-125572216D01*
X155562933Y-125667135D01*
X155604129Y-125712888D01*
X155757265Y-125824148D01*
X155757270Y-125824151D01*
X155930192Y-125901142D01*
X155930197Y-125901144D01*
X156115354Y-125940500D01*
X156115355Y-125940500D01*
X156304644Y-125940500D01*
X156304646Y-125940500D01*
X156489803Y-125901144D01*
X156662730Y-125824151D01*
X156815871Y-125712888D01*
X156942533Y-125572216D01*
X157037179Y-125408284D01*
X157095674Y-125228256D01*
X157115460Y-125040000D01*
X157095674Y-124851744D01*
X157037179Y-124671716D01*
X156942533Y-124507784D01*
X156815871Y-124367112D01*
X156815870Y-124367111D01*
X156662734Y-124255851D01*
X156662729Y-124255848D01*
X156489807Y-124178857D01*
X156489802Y-124178855D01*
X156312747Y-124141222D01*
X156304646Y-124139500D01*
X156115354Y-124139500D01*
X156107253Y-124141222D01*
X155930197Y-124178855D01*
X155930192Y-124178857D01*
X155757270Y-124255848D01*
X155757265Y-124255851D01*
X155604129Y-124367111D01*
X155477466Y-124507785D01*
X155382821Y-124671715D01*
X155382818Y-124671722D01*
X155336868Y-124813144D01*
X155324326Y-124851744D01*
X155304540Y-125040000D01*
X146185893Y-125040000D01*
X146193460Y-124968000D01*
X146173674Y-124779744D01*
X146115179Y-124599716D01*
X146020533Y-124435784D01*
X145895996Y-124297472D01*
X145865766Y-124234481D01*
X145874391Y-124165145D01*
X145919133Y-124111480D01*
X145985785Y-124090522D01*
X145988146Y-124090500D01*
X146144644Y-124090500D01*
X146144646Y-124090500D01*
X146329803Y-124051144D01*
X146502730Y-123974151D01*
X146525119Y-123957884D01*
X146537908Y-123948593D01*
X146603714Y-123925112D01*
X146671768Y-123940937D01*
X146720463Y-123991042D01*
X146728725Y-124010591D01*
X146746819Y-124066280D01*
X146746821Y-124066284D01*
X146841467Y-124230216D01*
X146899900Y-124295112D01*
X146968129Y-124370888D01*
X147121265Y-124482148D01*
X147121270Y-124482151D01*
X147294192Y-124559142D01*
X147294197Y-124559144D01*
X147479354Y-124598500D01*
X147479355Y-124598500D01*
X147668644Y-124598500D01*
X147668646Y-124598500D01*
X147853803Y-124559144D01*
X148026730Y-124482151D01*
X148179871Y-124370888D01*
X148306533Y-124230216D01*
X148401179Y-124066284D01*
X148459674Y-123886256D01*
X148479460Y-123698000D01*
X148459674Y-123509744D01*
X148401179Y-123329716D01*
X148306533Y-123165784D01*
X148288693Y-123145971D01*
X148258464Y-123082981D01*
X148267089Y-123013646D01*
X148288694Y-122980028D01*
X148306533Y-122960216D01*
X148401179Y-122796284D01*
X148459674Y-122616256D01*
X148479460Y-122428000D01*
X148459674Y-122239744D01*
X148401179Y-122059716D01*
X148306533Y-121895784D01*
X148179871Y-121755112D01*
X148147708Y-121731744D01*
X148026734Y-121643851D01*
X148026729Y-121643848D01*
X147853807Y-121566857D01*
X147853802Y-121566855D01*
X147708001Y-121535865D01*
X147668646Y-121527500D01*
X147479354Y-121527500D01*
X147446897Y-121534398D01*
X147294197Y-121566855D01*
X147294192Y-121566857D01*
X147121270Y-121643848D01*
X147121267Y-121643850D01*
X147091116Y-121665756D01*
X147025309Y-121689234D01*
X146957256Y-121673407D01*
X146908562Y-121623300D01*
X146894688Y-121554822D01*
X146900300Y-121527122D01*
X146935674Y-121418256D01*
X146955460Y-121230000D01*
X146935674Y-121041744D01*
X146877179Y-120861716D01*
X146782533Y-120697784D01*
X146655871Y-120557112D01*
X146655870Y-120557111D01*
X146502734Y-120445851D01*
X146502729Y-120445848D01*
X146329807Y-120368857D01*
X146329802Y-120368855D01*
X146184001Y-120337865D01*
X146144646Y-120329500D01*
X145955354Y-120329500D01*
X145922897Y-120336398D01*
X145770197Y-120368855D01*
X145770192Y-120368857D01*
X145597270Y-120445848D01*
X145597265Y-120445851D01*
X145444129Y-120557111D01*
X145317466Y-120697785D01*
X145222821Y-120861715D01*
X145222819Y-120861719D01*
X145186874Y-120972348D01*
X145147436Y-121030023D01*
X145083077Y-121057221D01*
X145043162Y-121055319D01*
X144874646Y-121019500D01*
X144685354Y-121019500D01*
X144652897Y-121026398D01*
X144500197Y-121058855D01*
X144500192Y-121058857D01*
X144327270Y-121135848D01*
X144327265Y-121135851D01*
X144217885Y-121215321D01*
X144152079Y-121238801D01*
X144084025Y-121222975D01*
X144072115Y-121215321D01*
X143962734Y-121135851D01*
X143962729Y-121135848D01*
X143789807Y-121058857D01*
X143789802Y-121058855D01*
X143644001Y-121027865D01*
X143604646Y-121019500D01*
X143415354Y-121019500D01*
X143382897Y-121026398D01*
X143230197Y-121058855D01*
X143230192Y-121058857D01*
X143057270Y-121135848D01*
X143057265Y-121135851D01*
X142904129Y-121247111D01*
X142777466Y-121387785D01*
X142682821Y-121551715D01*
X142682818Y-121551722D01*
X142636636Y-121693857D01*
X142624326Y-121731744D01*
X142604540Y-121920000D01*
X142624326Y-122108256D01*
X142624327Y-122108259D01*
X142642706Y-122164824D01*
X142644701Y-122234665D01*
X142608621Y-122294498D01*
X142545920Y-122325326D01*
X142498995Y-122324433D01*
X142472862Y-122318878D01*
X142334646Y-122289500D01*
X142145354Y-122289500D01*
X142121840Y-122294498D01*
X141960197Y-122328855D01*
X141960192Y-122328857D01*
X141787270Y-122405848D01*
X141787265Y-122405851D01*
X141634129Y-122517111D01*
X141507466Y-122657785D01*
X141412821Y-122821715D01*
X141412818Y-122821722D01*
X141372706Y-122945176D01*
X141354326Y-123001744D01*
X141334540Y-123190000D01*
X140662169Y-123190000D01*
X140553872Y-123046593D01*
X140504671Y-123001740D01*
X140396302Y-122902948D01*
X140215019Y-122790702D01*
X140215017Y-122790701D01*
X140062215Y-122731506D01*
X140016198Y-122713679D01*
X139806610Y-122674500D01*
X139593390Y-122674500D01*
X139383802Y-122713679D01*
X139383799Y-122713679D01*
X139383799Y-122713680D01*
X139184982Y-122790701D01*
X139184980Y-122790702D01*
X139003699Y-122902947D01*
X138846127Y-123046593D01*
X138717632Y-123216746D01*
X138622596Y-123407605D01*
X138622596Y-123407607D01*
X138564244Y-123612689D01*
X138553471Y-123728951D01*
X138527685Y-123793888D01*
X138483130Y-123825804D01*
X138519503Y-123846668D01*
X138551693Y-123908681D01*
X138553470Y-123921047D01*
X138564244Y-124037310D01*
X138620112Y-124233664D01*
X138622596Y-124242392D01*
X138622596Y-124242394D01*
X138717632Y-124433253D01*
X138843345Y-124599722D01*
X138846128Y-124603407D01*
X139003698Y-124747052D01*
X139184981Y-124859298D01*
X139383802Y-124936321D01*
X139556544Y-124968612D01*
X139618823Y-125000279D01*
X139654096Y-125060591D01*
X139651162Y-125130400D01*
X139610953Y-125187540D01*
X139546235Y-125213871D01*
X139533757Y-125214500D01*
X139002129Y-125214500D01*
X139002123Y-125214501D01*
X138942516Y-125220908D01*
X138807671Y-125271202D01*
X138807664Y-125271206D01*
X138692455Y-125357452D01*
X138692452Y-125357455D01*
X138606206Y-125472664D01*
X138606202Y-125472671D01*
X138555908Y-125607516D01*
X138553289Y-125631883D01*
X138526551Y-125696434D01*
X138469158Y-125736282D01*
X138399333Y-125738775D01*
X138339244Y-125703122D01*
X138307970Y-125640643D01*
X138306710Y-125631880D01*
X138304091Y-125607516D01*
X138253797Y-125472671D01*
X138253793Y-125472664D01*
X138167547Y-125357455D01*
X138167544Y-125357452D01*
X138052335Y-125271206D01*
X138052328Y-125271202D01*
X137917482Y-125220908D01*
X137917483Y-125220908D01*
X137857883Y-125214501D01*
X137857881Y-125214500D01*
X137857873Y-125214500D01*
X137857865Y-125214500D01*
X137326243Y-125214500D01*
X137259204Y-125194815D01*
X137213449Y-125142011D01*
X137203505Y-125072853D01*
X137232530Y-125009297D01*
X137291308Y-124971523D01*
X137303441Y-124968614D01*
X137476198Y-124936321D01*
X137675019Y-124859298D01*
X137856302Y-124747052D01*
X138013872Y-124603407D01*
X138142366Y-124433255D01*
X138175301Y-124367112D01*
X138237403Y-124242394D01*
X138237403Y-124242393D01*
X138237405Y-124242389D01*
X138295756Y-124037310D01*
X138306529Y-123921047D01*
X138332315Y-123856111D01*
X138376869Y-123824194D01*
X138340497Y-123803331D01*
X138308307Y-123741318D01*
X138306529Y-123728951D01*
X138303661Y-123698000D01*
X138295756Y-123612690D01*
X138237405Y-123407611D01*
X138237403Y-123407606D01*
X138237403Y-123407605D01*
X138142367Y-123216746D01*
X138013872Y-123046593D01*
X137964671Y-123001740D01*
X137856302Y-122902948D01*
X137675019Y-122790702D01*
X137675017Y-122790701D01*
X137522215Y-122731506D01*
X137476198Y-122713679D01*
X137266610Y-122674500D01*
X137053390Y-122674500D01*
X136843802Y-122713679D01*
X136843799Y-122713679D01*
X136843799Y-122713680D01*
X136644982Y-122790701D01*
X136644980Y-122790702D01*
X136463699Y-122902947D01*
X136306127Y-123046593D01*
X136177632Y-123216746D01*
X136082596Y-123407605D01*
X136082596Y-123407607D01*
X136082595Y-123407611D01*
X136024244Y-123612690D01*
X136004571Y-123825000D01*
X132669889Y-123825000D01*
X132532734Y-123725351D01*
X132532729Y-123725348D01*
X132359807Y-123648357D01*
X132359802Y-123648355D01*
X132192006Y-123612690D01*
X132174646Y-123609000D01*
X131985354Y-123609000D01*
X131967994Y-123612690D01*
X131800197Y-123648355D01*
X131800192Y-123648357D01*
X131627270Y-123725348D01*
X131627265Y-123725351D01*
X131474129Y-123836611D01*
X131347466Y-123977285D01*
X131252821Y-124141215D01*
X131252818Y-124141222D01*
X131202050Y-124297472D01*
X131194326Y-124321244D01*
X131174540Y-124509500D01*
X130670853Y-124509500D01*
X130714035Y-124447830D01*
X130813903Y-124233663D01*
X130875063Y-124005408D01*
X130895659Y-123770000D01*
X130875063Y-123534592D01*
X130813903Y-123306337D01*
X130714035Y-123092171D01*
X130713115Y-123090856D01*
X130578494Y-122898597D01*
X130411402Y-122731506D01*
X130411396Y-122731501D01*
X130225842Y-122601575D01*
X130188613Y-122555000D01*
X131936540Y-122555000D01*
X131956326Y-122743256D01*
X131956327Y-122743259D01*
X132014818Y-122923277D01*
X132014821Y-122923284D01*
X132109467Y-123087216D01*
X132226096Y-123216745D01*
X132236129Y-123227888D01*
X132389265Y-123339148D01*
X132389270Y-123339151D01*
X132562192Y-123416142D01*
X132562197Y-123416144D01*
X132747354Y-123455500D01*
X132747355Y-123455500D01*
X132936644Y-123455500D01*
X132936646Y-123455500D01*
X133121803Y-123416144D01*
X133294730Y-123339151D01*
X133447871Y-123227888D01*
X133574533Y-123087216D01*
X133669179Y-122923284D01*
X133727674Y-122743256D01*
X133747460Y-122555000D01*
X133727674Y-122366744D01*
X133669179Y-122186716D01*
X133574533Y-122022784D01*
X133447871Y-121882112D01*
X133447870Y-121882111D01*
X133294734Y-121770851D01*
X133294729Y-121770848D01*
X133121807Y-121693857D01*
X133121802Y-121693855D01*
X132976001Y-121662865D01*
X132936646Y-121654500D01*
X132747354Y-121654500D01*
X132714897Y-121661398D01*
X132562197Y-121693855D01*
X132562192Y-121693857D01*
X132389270Y-121770848D01*
X132389265Y-121770851D01*
X132236129Y-121882111D01*
X132109466Y-122022785D01*
X132014821Y-122186715D01*
X132014818Y-122186722D01*
X131968636Y-122328857D01*
X131956326Y-122366744D01*
X131936540Y-122555000D01*
X130188613Y-122555000D01*
X130182217Y-122546998D01*
X130175023Y-122477500D01*
X130206546Y-122415145D01*
X130225842Y-122398425D01*
X130325195Y-122328857D01*
X130411401Y-122268495D01*
X130578495Y-122101401D01*
X130714035Y-121907830D01*
X130813903Y-121693663D01*
X130875063Y-121465408D01*
X130895659Y-121230000D01*
X130875063Y-120994592D01*
X130813903Y-120766337D01*
X130714035Y-120552171D01*
X130639590Y-120445851D01*
X130578494Y-120358597D01*
X130411402Y-120191506D01*
X130411396Y-120191501D01*
X130225842Y-120061575D01*
X130182217Y-120006998D01*
X130175023Y-119937500D01*
X130206546Y-119875145D01*
X130225842Y-119858425D01*
X130333348Y-119783148D01*
X130411401Y-119728495D01*
X130578495Y-119561401D01*
X130714035Y-119367830D01*
X130813903Y-119153663D01*
X130855344Y-118999000D01*
X150351540Y-118999000D01*
X150371326Y-119187256D01*
X150371327Y-119187259D01*
X150429818Y-119367277D01*
X150429821Y-119367284D01*
X150524467Y-119531216D01*
X150551646Y-119561401D01*
X150651129Y-119671888D01*
X150804265Y-119783148D01*
X150804270Y-119783151D01*
X150977192Y-119860142D01*
X150977197Y-119860144D01*
X151162354Y-119899500D01*
X151162355Y-119899500D01*
X151351644Y-119899500D01*
X151351646Y-119899500D01*
X151536803Y-119860144D01*
X151709730Y-119783151D01*
X151862871Y-119671888D01*
X151989533Y-119531216D01*
X152084179Y-119367284D01*
X152142674Y-119187256D01*
X152162460Y-118999000D01*
X152142674Y-118810744D01*
X152103442Y-118690000D01*
X155304540Y-118690000D01*
X155324326Y-118878256D01*
X155324327Y-118878259D01*
X155382818Y-119058277D01*
X155382821Y-119058284D01*
X155477467Y-119222216D01*
X155604129Y-119362888D01*
X155757265Y-119474148D01*
X155757270Y-119474151D01*
X155930192Y-119551142D01*
X155930197Y-119551144D01*
X156115354Y-119590500D01*
X156115355Y-119590500D01*
X156304644Y-119590500D01*
X156304646Y-119590500D01*
X156489803Y-119551144D01*
X156662730Y-119474151D01*
X156815871Y-119362888D01*
X156942533Y-119222216D01*
X157037179Y-119058284D01*
X157095674Y-118878256D01*
X157115460Y-118690000D01*
X157095674Y-118501744D01*
X157037179Y-118321716D01*
X156942533Y-118157784D01*
X156815871Y-118017112D01*
X156815870Y-118017111D01*
X156662734Y-117905851D01*
X156662729Y-117905848D01*
X156489807Y-117828857D01*
X156489802Y-117828855D01*
X156344001Y-117797865D01*
X156304646Y-117789500D01*
X156115354Y-117789500D01*
X156082897Y-117796398D01*
X155930197Y-117828855D01*
X155930192Y-117828857D01*
X155757270Y-117905848D01*
X155757265Y-117905851D01*
X155604129Y-118017111D01*
X155477466Y-118157785D01*
X155382821Y-118321715D01*
X155382818Y-118321722D01*
X155324327Y-118501740D01*
X155324326Y-118501744D01*
X155304540Y-118690000D01*
X152103442Y-118690000D01*
X152084179Y-118630716D01*
X151989533Y-118466784D01*
X151862871Y-118326112D01*
X151856829Y-118321722D01*
X151709734Y-118214851D01*
X151709729Y-118214848D01*
X151536807Y-118137857D01*
X151536802Y-118137855D01*
X151391001Y-118106865D01*
X151351646Y-118098500D01*
X151162354Y-118098500D01*
X151129897Y-118105398D01*
X150977197Y-118137855D01*
X150977192Y-118137857D01*
X150804270Y-118214848D01*
X150804265Y-118214851D01*
X150651129Y-118326111D01*
X150524466Y-118466785D01*
X150429821Y-118630715D01*
X150429818Y-118630722D01*
X150410558Y-118690000D01*
X150371326Y-118810744D01*
X150351540Y-118999000D01*
X130855344Y-118999000D01*
X130875063Y-118925408D01*
X130895659Y-118690000D01*
X130875063Y-118454592D01*
X130828626Y-118281285D01*
X130813905Y-118226344D01*
X130813904Y-118226343D01*
X130813903Y-118226337D01*
X130714035Y-118012171D01*
X130639590Y-117905851D01*
X130578494Y-117818597D01*
X130411402Y-117651506D01*
X130411396Y-117651501D01*
X130225842Y-117521575D01*
X130182217Y-117466998D01*
X130175023Y-117397500D01*
X130200047Y-117348000D01*
X146414540Y-117348000D01*
X146434326Y-117536256D01*
X146434327Y-117536259D01*
X146492818Y-117716277D01*
X146492821Y-117716284D01*
X146587467Y-117880216D01*
X146706278Y-118012169D01*
X146714129Y-118020888D01*
X146867265Y-118132148D01*
X146867270Y-118132151D01*
X147040192Y-118209142D01*
X147040197Y-118209144D01*
X147225354Y-118248500D01*
X147225355Y-118248500D01*
X147414644Y-118248500D01*
X147414646Y-118248500D01*
X147599803Y-118209144D01*
X147772730Y-118132151D01*
X147925871Y-118020888D01*
X148052533Y-117880216D01*
X148147179Y-117716284D01*
X148205674Y-117536256D01*
X148225460Y-117348000D01*
X148205674Y-117159744D01*
X148205672Y-117159738D01*
X148205149Y-117154760D01*
X148217718Y-117086030D01*
X148265450Y-117035006D01*
X148333191Y-117017888D01*
X148354251Y-117020508D01*
X148403230Y-117030918D01*
X148495354Y-117050500D01*
X148495355Y-117050500D01*
X148684644Y-117050500D01*
X148684646Y-117050500D01*
X148869803Y-117011144D01*
X149042730Y-116934151D01*
X149195871Y-116822888D01*
X149322533Y-116682216D01*
X149417179Y-116518284D01*
X149475674Y-116338256D01*
X149495460Y-116150000D01*
X149475674Y-115961744D01*
X149417179Y-115781716D01*
X149322533Y-115617784D01*
X149195871Y-115477112D01*
X149195870Y-115477111D01*
X149042734Y-115365851D01*
X149042731Y-115365849D01*
X149042730Y-115365849D01*
X148980806Y-115338278D01*
X148927570Y-115293029D01*
X148907249Y-115226180D01*
X148926294Y-115158956D01*
X148978660Y-115112701D01*
X148980786Y-115111730D01*
X149042730Y-115084151D01*
X149195871Y-114972888D01*
X149322533Y-114832216D01*
X149417179Y-114668284D01*
X149475674Y-114488256D01*
X149495460Y-114300000D01*
X149475674Y-114111744D01*
X149417179Y-113931716D01*
X149322533Y-113767784D01*
X149304693Y-113747971D01*
X149274464Y-113684981D01*
X149283089Y-113615646D01*
X149304694Y-113582028D01*
X149322533Y-113562216D01*
X149417179Y-113398284D01*
X149475674Y-113218256D01*
X149495460Y-113030000D01*
X149475674Y-112841744D01*
X149417179Y-112661716D01*
X149322533Y-112497784D01*
X149195871Y-112357112D01*
X149184432Y-112348801D01*
X149042734Y-112245851D01*
X149042729Y-112245848D01*
X148869807Y-112168857D01*
X148869802Y-112168855D01*
X148724001Y-112137865D01*
X148684646Y-112129500D01*
X148495354Y-112129500D01*
X148462897Y-112136398D01*
X148310197Y-112168855D01*
X148310192Y-112168857D01*
X148137270Y-112245848D01*
X148137265Y-112245851D01*
X148027885Y-112325321D01*
X147962079Y-112348801D01*
X147894025Y-112332975D01*
X147882115Y-112325321D01*
X147772734Y-112245851D01*
X147772729Y-112245848D01*
X147599807Y-112168857D01*
X147599802Y-112168855D01*
X147454001Y-112137865D01*
X147414646Y-112129500D01*
X147225354Y-112129500D01*
X147192897Y-112136398D01*
X147040197Y-112168855D01*
X147040192Y-112168857D01*
X146867270Y-112245848D01*
X146867265Y-112245851D01*
X146714129Y-112357111D01*
X146587466Y-112497785D01*
X146492821Y-112661715D01*
X146492818Y-112661722D01*
X146434327Y-112841740D01*
X146434326Y-112841744D01*
X146414540Y-113030000D01*
X146434326Y-113218256D01*
X146434327Y-113218259D01*
X146492818Y-113398277D01*
X146492821Y-113398284D01*
X146587467Y-113562216D01*
X146714129Y-113702888D01*
X146867265Y-113814148D01*
X146867270Y-113814151D01*
X147040192Y-113891142D01*
X147040197Y-113891144D01*
X147225354Y-113930500D01*
X147225355Y-113930500D01*
X147414644Y-113930500D01*
X147414646Y-113930500D01*
X147578994Y-113895567D01*
X147648661Y-113900883D01*
X147704395Y-113943020D01*
X147728500Y-114008600D01*
X147722706Y-114055174D01*
X147704327Y-114111739D01*
X147704327Y-114111740D01*
X147704326Y-114111744D01*
X147684540Y-114300000D01*
X147704326Y-114488256D01*
X147704327Y-114488259D01*
X147762818Y-114668277D01*
X147762821Y-114668284D01*
X147857467Y-114832216D01*
X147976896Y-114964855D01*
X147984129Y-114972888D01*
X148137265Y-115084148D01*
X148137270Y-115084151D01*
X148199192Y-115111721D01*
X148252429Y-115156971D01*
X148272750Y-115223821D01*
X148253704Y-115291044D01*
X148201338Y-115337299D01*
X148199192Y-115338279D01*
X148137270Y-115365848D01*
X148137265Y-115365851D01*
X147984129Y-115477111D01*
X147857466Y-115617785D01*
X147762821Y-115781715D01*
X147762818Y-115781722D01*
X147719645Y-115914596D01*
X147704326Y-115961744D01*
X147684540Y-116149999D01*
X147684540Y-116150000D01*
X147704850Y-116343240D01*
X147692280Y-116411970D01*
X147644548Y-116462993D01*
X147576808Y-116480111D01*
X147555749Y-116477492D01*
X147539194Y-116473973D01*
X147414646Y-116447500D01*
X147225354Y-116447500D01*
X147192897Y-116454398D01*
X147040197Y-116486855D01*
X147040192Y-116486857D01*
X146867270Y-116563848D01*
X146867265Y-116563851D01*
X146714129Y-116675111D01*
X146587466Y-116815785D01*
X146492821Y-116979715D01*
X146492818Y-116979722D01*
X146458277Y-117086030D01*
X146434326Y-117159744D01*
X146414540Y-117348000D01*
X130200047Y-117348000D01*
X130206546Y-117335145D01*
X130225842Y-117318425D01*
X130248026Y-117302891D01*
X130411401Y-117188495D01*
X130578495Y-117021401D01*
X130714035Y-116827830D01*
X130813903Y-116613663D01*
X130875063Y-116385408D01*
X130895659Y-116150000D01*
X130875063Y-115914592D01*
X130813903Y-115686337D01*
X130714035Y-115472171D01*
X130639590Y-115365851D01*
X130578494Y-115278597D01*
X130411402Y-115111506D01*
X130411396Y-115111501D01*
X130225842Y-114981575D01*
X130182217Y-114926998D01*
X130175023Y-114857500D01*
X130206546Y-114795145D01*
X130225842Y-114778425D01*
X130383149Y-114668277D01*
X130411401Y-114648495D01*
X130578495Y-114481401D01*
X130714035Y-114287830D01*
X130813903Y-114073663D01*
X130875063Y-113845408D01*
X130895659Y-113610000D01*
X130875063Y-113374592D01*
X130813903Y-113146337D01*
X130714035Y-112932171D01*
X130672055Y-112872216D01*
X130578494Y-112738597D01*
X130411402Y-112571506D01*
X130411396Y-112571501D01*
X130225842Y-112441575D01*
X130182217Y-112386998D01*
X130177352Y-112340000D01*
X136254540Y-112340000D01*
X136274326Y-112528256D01*
X136274327Y-112528259D01*
X136332818Y-112708277D01*
X136332821Y-112708284D01*
X136427467Y-112872216D01*
X136481451Y-112932171D01*
X136554129Y-113012888D01*
X136707265Y-113124148D01*
X136707270Y-113124151D01*
X136880192Y-113201142D01*
X136880197Y-113201144D01*
X137065354Y-113240500D01*
X137065355Y-113240500D01*
X137254644Y-113240500D01*
X137254646Y-113240500D01*
X137439803Y-113201144D01*
X137612730Y-113124151D01*
X137765871Y-113012888D01*
X137892533Y-112872216D01*
X137987179Y-112708284D01*
X138045674Y-112528256D01*
X138065460Y-112340000D01*
X138045674Y-112151744D01*
X137987179Y-111971716D01*
X137892533Y-111807784D01*
X137765871Y-111667112D01*
X137765870Y-111667111D01*
X137612734Y-111555851D01*
X137612729Y-111555848D01*
X137439807Y-111478857D01*
X137439802Y-111478855D01*
X137294001Y-111447865D01*
X137254646Y-111439500D01*
X137065354Y-111439500D01*
X137032897Y-111446398D01*
X136880197Y-111478855D01*
X136880192Y-111478857D01*
X136707270Y-111555848D01*
X136707265Y-111555851D01*
X136554129Y-111667111D01*
X136427466Y-111807785D01*
X136332821Y-111971715D01*
X136332818Y-111971722D01*
X136274327Y-112151740D01*
X136274326Y-112151744D01*
X136254540Y-112340000D01*
X130177352Y-112340000D01*
X130175023Y-112317500D01*
X130206546Y-112255145D01*
X130225842Y-112238425D01*
X130325195Y-112168857D01*
X130411401Y-112108495D01*
X130578495Y-111941401D01*
X130714035Y-111747830D01*
X130813903Y-111533663D01*
X130875063Y-111305408D01*
X130895659Y-111070000D01*
X141334540Y-111070000D01*
X141354326Y-111258256D01*
X141354327Y-111258259D01*
X141412818Y-111438277D01*
X141412821Y-111438284D01*
X141507467Y-111602216D01*
X141610449Y-111716589D01*
X141634129Y-111742888D01*
X141787265Y-111854148D01*
X141787270Y-111854151D01*
X141960192Y-111931142D01*
X141960197Y-111931144D01*
X142145354Y-111970500D01*
X142145355Y-111970500D01*
X142334644Y-111970500D01*
X142334646Y-111970500D01*
X142519803Y-111931144D01*
X142692730Y-111854151D01*
X142791834Y-111782148D01*
X142851129Y-111739068D01*
X142852821Y-111741398D01*
X142904426Y-111716589D01*
X142973767Y-111725166D01*
X142997377Y-111738637D01*
X143057265Y-111782148D01*
X143057270Y-111782151D01*
X143230192Y-111859142D01*
X143230197Y-111859144D01*
X143415354Y-111898500D01*
X143415355Y-111898500D01*
X143604644Y-111898500D01*
X143604646Y-111898500D01*
X143789803Y-111859144D01*
X143962730Y-111782151D01*
X144115871Y-111670888D01*
X144242533Y-111530216D01*
X144337179Y-111366284D01*
X144395674Y-111186256D01*
X144415460Y-110998000D01*
X144395674Y-110809744D01*
X144337179Y-110629716D01*
X144242533Y-110465784D01*
X144239771Y-110461000D01*
X144223298Y-110393100D01*
X144239771Y-110337000D01*
X144269303Y-110285849D01*
X144337179Y-110168284D01*
X144395674Y-109988256D01*
X144415460Y-109800000D01*
X144395674Y-109611744D01*
X144337179Y-109431716D01*
X144242533Y-109267784D01*
X144115871Y-109127112D01*
X144115870Y-109127111D01*
X143962734Y-109015851D01*
X143962729Y-109015848D01*
X143789807Y-108938857D01*
X143789802Y-108938855D01*
X143644001Y-108907865D01*
X143604646Y-108899500D01*
X143415354Y-108899500D01*
X143382897Y-108906398D01*
X143230197Y-108938855D01*
X143230192Y-108938857D01*
X143057270Y-109015848D01*
X143057265Y-109015851D01*
X142904129Y-109127111D01*
X142777466Y-109267785D01*
X142682821Y-109431715D01*
X142682818Y-109431722D01*
X142624327Y-109611740D01*
X142624326Y-109611744D01*
X142604540Y-109800000D01*
X142624326Y-109988256D01*
X142624327Y-109988259D01*
X142642706Y-110044824D01*
X142644701Y-110114665D01*
X142608621Y-110174498D01*
X142545920Y-110205326D01*
X142498995Y-110204433D01*
X142471538Y-110198597D01*
X142334646Y-110169500D01*
X142145354Y-110169500D01*
X142121840Y-110174498D01*
X141960197Y-110208855D01*
X141960192Y-110208857D01*
X141787270Y-110285848D01*
X141787265Y-110285851D01*
X141634129Y-110397111D01*
X141507466Y-110537785D01*
X141412821Y-110701715D01*
X141412818Y-110701722D01*
X141369645Y-110834596D01*
X141354326Y-110881744D01*
X141334540Y-111070000D01*
X130895659Y-111070000D01*
X130875063Y-110834592D01*
X130813903Y-110606337D01*
X130714035Y-110392171D01*
X130702827Y-110376163D01*
X130578494Y-110198597D01*
X130411402Y-110031506D01*
X130411396Y-110031501D01*
X130225842Y-109901575D01*
X130182217Y-109846998D01*
X130175023Y-109777500D01*
X130206546Y-109715145D01*
X130225842Y-109698425D01*
X130349635Y-109611744D01*
X130411401Y-109568495D01*
X130578495Y-109401401D01*
X130714035Y-109207830D01*
X130813903Y-108993663D01*
X130875063Y-108765408D01*
X130895659Y-108530000D01*
X130875063Y-108294592D01*
X130813903Y-108066337D01*
X130714035Y-107852171D01*
X130672055Y-107792216D01*
X130578494Y-107658597D01*
X130411402Y-107491506D01*
X130411396Y-107491501D01*
X130225842Y-107361575D01*
X130182217Y-107306998D01*
X130177352Y-107260000D01*
X137524540Y-107260000D01*
X137544326Y-107448256D01*
X137544327Y-107448259D01*
X137602818Y-107628277D01*
X137602821Y-107628284D01*
X137697467Y-107792216D01*
X137751451Y-107852171D01*
X137824129Y-107932888D01*
X137977265Y-108044148D01*
X137977270Y-108044151D01*
X138150192Y-108121142D01*
X138150197Y-108121144D01*
X138335354Y-108160500D01*
X138335355Y-108160500D01*
X138524644Y-108160500D01*
X138524646Y-108160500D01*
X138709803Y-108121144D01*
X138882730Y-108044151D01*
X139035871Y-107932888D01*
X139162533Y-107792216D01*
X139257179Y-107628284D01*
X139315674Y-107448256D01*
X139335460Y-107260000D01*
X139315674Y-107071744D01*
X139297292Y-107015173D01*
X139295298Y-106945335D01*
X139331378Y-106885502D01*
X139394078Y-106854673D01*
X139441005Y-106855567D01*
X139511774Y-106870609D01*
X139605354Y-106890500D01*
X139605355Y-106890500D01*
X139794644Y-106890500D01*
X139794646Y-106890500D01*
X139979803Y-106851144D01*
X140152730Y-106774151D01*
X140305871Y-106662888D01*
X140432533Y-106522216D01*
X140527179Y-106358284D01*
X140585674Y-106178256D01*
X140605460Y-105990000D01*
X148954540Y-105990000D01*
X148974326Y-106178256D01*
X148974327Y-106178259D01*
X149032818Y-106358277D01*
X149032821Y-106358284D01*
X149127467Y-106522216D01*
X149185899Y-106587111D01*
X149254129Y-106662888D01*
X149407265Y-106774148D01*
X149407270Y-106774151D01*
X149580192Y-106851142D01*
X149580197Y-106851144D01*
X149765354Y-106890500D01*
X149765355Y-106890500D01*
X149954644Y-106890500D01*
X149954646Y-106890500D01*
X150139803Y-106851144D01*
X150312730Y-106774151D01*
X150422117Y-106694676D01*
X150487920Y-106671198D01*
X150555974Y-106687023D01*
X150567871Y-106694668D01*
X150677266Y-106774148D01*
X150677270Y-106774151D01*
X150850192Y-106851142D01*
X150850197Y-106851144D01*
X151035354Y-106890500D01*
X151035355Y-106890500D01*
X151224644Y-106890500D01*
X151224646Y-106890500D01*
X151409803Y-106851144D01*
X151582730Y-106774151D01*
X151735871Y-106662888D01*
X151862533Y-106522216D01*
X151957179Y-106358284D01*
X151960036Y-106349488D01*
X151999471Y-106291814D01*
X152063828Y-106264613D01*
X152116289Y-106269874D01*
X152120191Y-106271141D01*
X152120197Y-106271144D01*
X152305354Y-106310500D01*
X152305355Y-106310500D01*
X152494644Y-106310500D01*
X152494646Y-106310500D01*
X152679803Y-106271144D01*
X152852730Y-106194151D01*
X153005871Y-106082888D01*
X153132533Y-105942216D01*
X153227179Y-105778284D01*
X153285674Y-105598256D01*
X153305460Y-105410000D01*
X153285674Y-105221744D01*
X153227179Y-105041716D01*
X153132533Y-104877784D01*
X153005871Y-104737112D01*
X153005870Y-104737111D01*
X152852734Y-104625851D01*
X152852729Y-104625848D01*
X152679807Y-104548857D01*
X152679802Y-104548855D01*
X152534001Y-104517865D01*
X152494646Y-104509500D01*
X152305354Y-104509500D01*
X152272897Y-104516398D01*
X152120197Y-104548855D01*
X152120192Y-104548857D01*
X151947270Y-104625848D01*
X151947265Y-104625851D01*
X151794129Y-104737111D01*
X151667466Y-104877785D01*
X151572821Y-105041715D01*
X151572818Y-105041723D01*
X151569961Y-105050516D01*
X151530522Y-105108190D01*
X151466163Y-105135387D01*
X151413718Y-105130128D01*
X151409800Y-105128855D01*
X151293102Y-105104050D01*
X151224646Y-105089500D01*
X151035354Y-105089500D01*
X151002897Y-105096398D01*
X150850197Y-105128855D01*
X150850192Y-105128857D01*
X150677270Y-105205848D01*
X150677265Y-105205851D01*
X150567885Y-105285321D01*
X150502079Y-105308801D01*
X150434025Y-105292975D01*
X150422115Y-105285321D01*
X150312734Y-105205851D01*
X150312729Y-105205848D01*
X150139807Y-105128857D01*
X150139802Y-105128855D01*
X149994001Y-105097865D01*
X149954646Y-105089500D01*
X149765354Y-105089500D01*
X149732897Y-105096398D01*
X149580197Y-105128855D01*
X149580192Y-105128857D01*
X149407270Y-105205848D01*
X149407265Y-105205851D01*
X149254129Y-105317111D01*
X149127466Y-105457785D01*
X149032821Y-105621715D01*
X149032818Y-105621722D01*
X148974327Y-105801740D01*
X148974326Y-105801744D01*
X148954540Y-105990000D01*
X140605460Y-105990000D01*
X140585674Y-105801744D01*
X140527179Y-105621716D01*
X140432533Y-105457784D01*
X140305871Y-105317112D01*
X140305870Y-105317111D01*
X140152734Y-105205851D01*
X140152729Y-105205848D01*
X139979807Y-105128857D01*
X139979802Y-105128855D01*
X139834001Y-105097865D01*
X139794646Y-105089500D01*
X139605354Y-105089500D01*
X139572897Y-105096398D01*
X139420197Y-105128855D01*
X139420192Y-105128857D01*
X139247270Y-105205848D01*
X139247265Y-105205851D01*
X139094129Y-105317111D01*
X138967466Y-105457785D01*
X138872821Y-105621715D01*
X138872818Y-105621722D01*
X138814327Y-105801740D01*
X138814326Y-105801744D01*
X138794540Y-105990000D01*
X138814326Y-106178256D01*
X138814327Y-106178259D01*
X138832706Y-106234824D01*
X138834701Y-106304665D01*
X138798621Y-106364498D01*
X138735920Y-106395326D01*
X138688995Y-106394433D01*
X138662862Y-106388878D01*
X138524646Y-106359500D01*
X138335354Y-106359500D01*
X138311840Y-106364498D01*
X138150197Y-106398855D01*
X138150192Y-106398857D01*
X137977270Y-106475848D01*
X137977265Y-106475851D01*
X137824129Y-106587111D01*
X137697466Y-106727785D01*
X137602821Y-106891715D01*
X137602818Y-106891722D01*
X137544327Y-107071740D01*
X137544326Y-107071744D01*
X137524540Y-107260000D01*
X130177352Y-107260000D01*
X130175023Y-107237500D01*
X130206546Y-107175145D01*
X130225842Y-107158425D01*
X130349635Y-107071744D01*
X130411401Y-107028495D01*
X130578495Y-106861401D01*
X130714035Y-106667830D01*
X130813903Y-106453663D01*
X130875063Y-106225408D01*
X130895659Y-105990000D01*
X130875063Y-105754592D01*
X130813903Y-105526337D01*
X130714035Y-105312171D01*
X130711676Y-105308801D01*
X130578494Y-105118597D01*
X130411402Y-104951506D01*
X130411396Y-104951501D01*
X130225842Y-104821575D01*
X130182217Y-104766998D01*
X130175023Y-104697500D01*
X130206546Y-104635145D01*
X130225842Y-104618425D01*
X130325195Y-104548857D01*
X130411401Y-104488495D01*
X130578495Y-104321401D01*
X130714035Y-104127830D01*
X130813903Y-103913663D01*
X130875063Y-103685408D01*
X130895659Y-103450000D01*
X130875063Y-103214592D01*
X130813903Y-102986337D01*
X130714035Y-102772171D01*
X130711676Y-102768801D01*
X130578494Y-102578597D01*
X130411402Y-102411506D01*
X130411396Y-102411501D01*
X130225842Y-102281575D01*
X130182217Y-102226998D01*
X130175023Y-102157500D01*
X130206546Y-102095145D01*
X130225842Y-102078425D01*
X130325195Y-102008857D01*
X130411401Y-101948495D01*
X130578495Y-101781401D01*
X130705513Y-101600000D01*
X132444540Y-101600000D01*
X132464326Y-101788256D01*
X132464327Y-101788258D01*
X132464327Y-101788259D01*
X132522818Y-101968277D01*
X132522821Y-101968284D01*
X132617467Y-102132216D01*
X132736896Y-102264855D01*
X132744129Y-102272888D01*
X132897265Y-102384148D01*
X132897270Y-102384151D01*
X133070192Y-102461142D01*
X133070197Y-102461144D01*
X133255354Y-102500500D01*
X133255355Y-102500500D01*
X133348044Y-102500500D01*
X133415083Y-102520185D01*
X133460838Y-102572989D01*
X133470782Y-102642147D01*
X133465976Y-102662816D01*
X133459826Y-102681741D01*
X133452004Y-102756163D01*
X133440040Y-102870000D01*
X133459826Y-103058256D01*
X133459827Y-103058259D01*
X133518318Y-103238277D01*
X133518321Y-103238284D01*
X133612967Y-103402216D01*
X133739629Y-103542888D01*
X133892765Y-103654148D01*
X133892770Y-103654151D01*
X134065692Y-103731142D01*
X134065697Y-103731144D01*
X134250854Y-103770500D01*
X134250855Y-103770500D01*
X134440144Y-103770500D01*
X134440146Y-103770500D01*
X134625303Y-103731144D01*
X134798230Y-103654151D01*
X134951371Y-103542888D01*
X135078033Y-103402216D01*
X135172679Y-103238284D01*
X135231174Y-103058256D01*
X135250960Y-102870000D01*
X135231174Y-102681744D01*
X135172679Y-102501716D01*
X135078033Y-102337784D01*
X134951371Y-102197112D01*
X134951370Y-102197111D01*
X134798234Y-102085851D01*
X134798229Y-102085848D01*
X134625307Y-102008857D01*
X134625302Y-102008855D01*
X134479501Y-101977865D01*
X134440146Y-101969500D01*
X134347455Y-101969500D01*
X134280416Y-101949815D01*
X134234661Y-101897011D01*
X134224717Y-101827853D01*
X134229523Y-101807184D01*
X134235674Y-101788256D01*
X134255460Y-101600000D01*
X134235674Y-101411744D01*
X134177179Y-101231716D01*
X134082533Y-101067784D01*
X133955871Y-100927112D01*
X133955870Y-100927111D01*
X133932319Y-100910000D01*
X140064540Y-100910000D01*
X140084326Y-101098256D01*
X140084327Y-101098259D01*
X140142818Y-101278277D01*
X140142821Y-101278284D01*
X140237467Y-101442216D01*
X140295899Y-101507111D01*
X140364129Y-101582888D01*
X140517265Y-101694148D01*
X140517270Y-101694151D01*
X140690192Y-101771142D01*
X140690197Y-101771144D01*
X140875354Y-101810500D01*
X140875355Y-101810500D01*
X141064644Y-101810500D01*
X141064646Y-101810500D01*
X141228994Y-101775567D01*
X141298661Y-101780883D01*
X141354395Y-101823020D01*
X141378500Y-101888600D01*
X141372706Y-101935174D01*
X141354327Y-101991739D01*
X141354327Y-101991740D01*
X141354326Y-101991744D01*
X141334540Y-102180000D01*
X141354326Y-102368256D01*
X141354327Y-102368259D01*
X141412818Y-102548277D01*
X141412821Y-102548284D01*
X141507467Y-102712216D01*
X141561451Y-102772171D01*
X141634129Y-102852888D01*
X141787265Y-102964148D01*
X141787270Y-102964151D01*
X141960192Y-103041142D01*
X141960197Y-103041144D01*
X142145354Y-103080500D01*
X142145355Y-103080500D01*
X142334644Y-103080500D01*
X142334646Y-103080500D01*
X142498994Y-103045567D01*
X142568661Y-103050883D01*
X142624395Y-103093020D01*
X142648500Y-103158600D01*
X142642706Y-103205174D01*
X142624327Y-103261739D01*
X142624327Y-103261740D01*
X142624326Y-103261744D01*
X142604540Y-103450000D01*
X142624326Y-103638256D01*
X142624327Y-103638259D01*
X142682818Y-103818277D01*
X142682821Y-103818284D01*
X142777467Y-103982216D01*
X142875000Y-104090537D01*
X142904129Y-104122888D01*
X143057265Y-104234148D01*
X143057270Y-104234151D01*
X143230192Y-104311142D01*
X143230197Y-104311144D01*
X143415354Y-104350500D01*
X143415355Y-104350500D01*
X143604644Y-104350500D01*
X143604646Y-104350500D01*
X143789803Y-104311144D01*
X143962730Y-104234151D01*
X144072117Y-104154676D01*
X144137920Y-104131198D01*
X144205974Y-104147023D01*
X144217871Y-104154668D01*
X144327266Y-104234148D01*
X144327270Y-104234151D01*
X144500192Y-104311142D01*
X144500197Y-104311144D01*
X144685354Y-104350500D01*
X144685355Y-104350500D01*
X144874644Y-104350500D01*
X144874646Y-104350500D01*
X145059803Y-104311144D01*
X145232730Y-104234151D01*
X145342117Y-104154676D01*
X145407920Y-104131198D01*
X145475974Y-104147023D01*
X145487871Y-104154668D01*
X145597266Y-104234148D01*
X145597270Y-104234151D01*
X145770192Y-104311142D01*
X145770197Y-104311144D01*
X145955354Y-104350500D01*
X145955355Y-104350500D01*
X146144644Y-104350500D01*
X146144646Y-104350500D01*
X146329803Y-104311144D01*
X146502730Y-104234151D01*
X146655871Y-104122888D01*
X146782533Y-103982216D01*
X146877179Y-103818284D01*
X146935674Y-103638256D01*
X146955460Y-103450000D01*
X146935674Y-103261744D01*
X146877179Y-103081716D01*
X146782533Y-102917784D01*
X146655871Y-102777112D01*
X146655870Y-102777111D01*
X146502734Y-102665851D01*
X146502729Y-102665848D01*
X146329807Y-102588857D01*
X146329802Y-102588855D01*
X146184001Y-102557865D01*
X146144646Y-102549500D01*
X145955354Y-102549500D01*
X145922897Y-102556398D01*
X145770197Y-102588855D01*
X145770192Y-102588857D01*
X145597270Y-102665848D01*
X145597265Y-102665851D01*
X145487885Y-102745321D01*
X145422079Y-102768801D01*
X145354025Y-102752975D01*
X145342115Y-102745321D01*
X145232734Y-102665851D01*
X145232729Y-102665848D01*
X145059807Y-102588857D01*
X145059802Y-102588855D01*
X144914001Y-102557865D01*
X144874646Y-102549500D01*
X144685354Y-102549500D01*
X144652897Y-102556398D01*
X144500197Y-102588855D01*
X144500192Y-102588857D01*
X144327270Y-102665848D01*
X144327265Y-102665851D01*
X144217885Y-102745321D01*
X144152079Y-102768801D01*
X144084025Y-102752975D01*
X144072115Y-102745321D01*
X143962734Y-102665851D01*
X143962729Y-102665848D01*
X143789807Y-102588857D01*
X143789802Y-102588855D01*
X143644001Y-102557865D01*
X143604646Y-102549500D01*
X143415354Y-102549500D01*
X143304846Y-102572989D01*
X143251004Y-102584433D01*
X143181337Y-102579116D01*
X143125604Y-102536978D01*
X143101499Y-102471398D01*
X143107294Y-102424822D01*
X143111621Y-102411505D01*
X143125674Y-102368256D01*
X143145460Y-102180000D01*
X143125674Y-101991744D01*
X143067179Y-101811716D01*
X142972533Y-101647784D01*
X142929508Y-101600000D01*
X148954540Y-101600000D01*
X148974326Y-101788256D01*
X148974327Y-101788258D01*
X148974327Y-101788259D01*
X149032818Y-101968277D01*
X149032821Y-101968284D01*
X149127467Y-102132216D01*
X149246896Y-102264855D01*
X149254129Y-102272888D01*
X149407265Y-102384148D01*
X149407270Y-102384151D01*
X149580192Y-102461142D01*
X149580197Y-102461144D01*
X149765354Y-102500500D01*
X149765355Y-102500500D01*
X149954644Y-102500500D01*
X149954646Y-102500500D01*
X150139803Y-102461144D01*
X150312730Y-102384151D01*
X150465871Y-102272888D01*
X150592533Y-102132216D01*
X150687179Y-101968284D01*
X150745674Y-101788256D01*
X150765460Y-101600000D01*
X150745674Y-101411744D01*
X150687179Y-101231716D01*
X150592533Y-101067784D01*
X150465871Y-100927112D01*
X150465870Y-100927111D01*
X150312734Y-100815851D01*
X150312729Y-100815848D01*
X150139807Y-100738857D01*
X150139802Y-100738855D01*
X149994001Y-100707865D01*
X149954646Y-100699500D01*
X149765354Y-100699500D01*
X149732897Y-100706398D01*
X149580197Y-100738855D01*
X149580192Y-100738857D01*
X149407270Y-100815848D01*
X149407265Y-100815851D01*
X149254129Y-100927111D01*
X149127466Y-101067785D01*
X149032821Y-101231715D01*
X149032818Y-101231722D01*
X148979490Y-101395851D01*
X148974326Y-101411744D01*
X148954540Y-101600000D01*
X142929508Y-101600000D01*
X142845871Y-101507112D01*
X142845870Y-101507111D01*
X142692734Y-101395851D01*
X142692729Y-101395848D01*
X142519807Y-101318857D01*
X142519802Y-101318855D01*
X142374001Y-101287865D01*
X142334646Y-101279500D01*
X142145354Y-101279500D01*
X142031148Y-101303774D01*
X141981004Y-101314433D01*
X141911337Y-101309116D01*
X141855604Y-101266978D01*
X141831499Y-101201398D01*
X141837294Y-101154822D01*
X141855674Y-101098256D01*
X141875460Y-100910000D01*
X141855674Y-100721744D01*
X141797179Y-100541716D01*
X141702533Y-100377784D01*
X141659508Y-100330000D01*
X143874540Y-100330000D01*
X143894326Y-100518256D01*
X143894327Y-100518259D01*
X143952818Y-100698277D01*
X143952821Y-100698284D01*
X144047467Y-100862216D01*
X144105899Y-100927111D01*
X144174129Y-101002888D01*
X144327265Y-101114148D01*
X144327270Y-101114151D01*
X144500192Y-101191142D01*
X144500197Y-101191144D01*
X144685354Y-101230500D01*
X144685355Y-101230500D01*
X144874644Y-101230500D01*
X144874646Y-101230500D01*
X145059803Y-101191144D01*
X145232730Y-101114151D01*
X145385871Y-101002888D01*
X145512533Y-100862216D01*
X145607179Y-100698284D01*
X145665674Y-100518256D01*
X145685460Y-100330000D01*
X145665674Y-100141744D01*
X145607179Y-99961716D01*
X145512533Y-99797784D01*
X145385871Y-99657112D01*
X145385870Y-99657111D01*
X145232734Y-99545851D01*
X145232729Y-99545848D01*
X145059807Y-99468857D01*
X145059802Y-99468855D01*
X144914001Y-99437865D01*
X144874646Y-99429500D01*
X144685354Y-99429500D01*
X144652897Y-99436398D01*
X144500197Y-99468855D01*
X144500192Y-99468857D01*
X144327270Y-99545848D01*
X144327265Y-99545851D01*
X144174129Y-99657111D01*
X144047466Y-99797785D01*
X143952821Y-99961715D01*
X143952818Y-99961722D01*
X143899490Y-100125851D01*
X143894326Y-100141744D01*
X143874540Y-100330000D01*
X141659508Y-100330000D01*
X141575871Y-100237112D01*
X141575870Y-100237111D01*
X141422734Y-100125851D01*
X141422729Y-100125848D01*
X141249807Y-100048857D01*
X141249802Y-100048855D01*
X141104001Y-100017865D01*
X141064646Y-100009500D01*
X140875354Y-100009500D01*
X140842897Y-100016398D01*
X140690197Y-100048855D01*
X140690192Y-100048857D01*
X140517270Y-100125848D01*
X140517265Y-100125851D01*
X140364129Y-100237111D01*
X140237466Y-100377785D01*
X140142821Y-100541715D01*
X140142818Y-100541722D01*
X140084327Y-100721740D01*
X140084326Y-100721744D01*
X140064540Y-100910000D01*
X133932319Y-100910000D01*
X133802734Y-100815851D01*
X133802729Y-100815848D01*
X133629807Y-100738857D01*
X133629802Y-100738855D01*
X133484001Y-100707865D01*
X133444646Y-100699500D01*
X133255354Y-100699500D01*
X133222897Y-100706398D01*
X133070197Y-100738855D01*
X133070192Y-100738857D01*
X132897270Y-100815848D01*
X132897265Y-100815851D01*
X132744129Y-100927111D01*
X132617466Y-101067785D01*
X132522821Y-101231715D01*
X132522818Y-101231722D01*
X132469490Y-101395851D01*
X132464326Y-101411744D01*
X132444540Y-101600000D01*
X130705513Y-101600000D01*
X130714035Y-101587830D01*
X130813903Y-101373663D01*
X130875063Y-101145408D01*
X130895659Y-100910000D01*
X130875063Y-100674592D01*
X130813903Y-100446337D01*
X130714035Y-100232171D01*
X130639590Y-100125851D01*
X130578494Y-100038597D01*
X130411402Y-99871506D01*
X130411396Y-99871501D01*
X130225842Y-99741575D01*
X130182217Y-99686998D01*
X130175023Y-99617500D01*
X130206546Y-99555145D01*
X130225842Y-99538425D01*
X130325195Y-99468857D01*
X130411401Y-99408495D01*
X130578495Y-99241401D01*
X130714035Y-99047830D01*
X130813903Y-98833663D01*
X130875063Y-98605408D01*
X130895659Y-98370000D01*
X130875063Y-98134592D01*
X130813903Y-97906337D01*
X130759654Y-97790000D01*
X141334540Y-97790000D01*
X141354326Y-97978256D01*
X141354327Y-97978259D01*
X141412818Y-98158277D01*
X141412821Y-98158284D01*
X141507467Y-98322216D01*
X141634129Y-98462888D01*
X141787265Y-98574148D01*
X141787270Y-98574151D01*
X141960192Y-98651142D01*
X141960197Y-98651144D01*
X142145354Y-98690500D01*
X142145355Y-98690500D01*
X142334644Y-98690500D01*
X142334646Y-98690500D01*
X142519803Y-98651144D01*
X142692730Y-98574151D01*
X142845871Y-98462888D01*
X142972533Y-98322216D01*
X143067179Y-98158284D01*
X143125674Y-97978256D01*
X143145460Y-97790000D01*
X156574540Y-97790000D01*
X156594326Y-97978256D01*
X156594327Y-97978259D01*
X156652818Y-98158277D01*
X156652821Y-98158284D01*
X156747467Y-98322216D01*
X156874129Y-98462888D01*
X157027265Y-98574148D01*
X157027270Y-98574151D01*
X157200192Y-98651142D01*
X157200197Y-98651144D01*
X157385354Y-98690500D01*
X157385355Y-98690500D01*
X157574644Y-98690500D01*
X157574646Y-98690500D01*
X157759803Y-98651144D01*
X157932730Y-98574151D01*
X158085871Y-98462888D01*
X158212533Y-98322216D01*
X158307179Y-98158284D01*
X158365674Y-97978256D01*
X158385460Y-97790000D01*
X158365674Y-97601744D01*
X158307179Y-97421716D01*
X158212533Y-97257784D01*
X158194693Y-97237971D01*
X158164464Y-97174981D01*
X158173089Y-97105646D01*
X158194694Y-97072028D01*
X158212533Y-97052216D01*
X158307179Y-96888284D01*
X158365674Y-96708256D01*
X158385460Y-96520000D01*
X158365674Y-96331744D01*
X158307179Y-96151716D01*
X158212533Y-95987784D01*
X158085871Y-95847112D01*
X158085870Y-95847111D01*
X157932734Y-95735851D01*
X157932729Y-95735848D01*
X157759807Y-95658857D01*
X157759802Y-95658855D01*
X157614001Y-95627865D01*
X157574646Y-95619500D01*
X157385354Y-95619500D01*
X157352897Y-95626398D01*
X157200197Y-95658855D01*
X157200192Y-95658857D01*
X157027270Y-95735848D01*
X157027265Y-95735851D01*
X156874129Y-95847111D01*
X156747466Y-95987785D01*
X156652821Y-96151715D01*
X156652818Y-96151722D01*
X156606699Y-96293663D01*
X156594326Y-96331744D01*
X156574540Y-96520000D01*
X156594326Y-96708256D01*
X156594327Y-96708259D01*
X156652818Y-96888277D01*
X156652821Y-96888284D01*
X156747467Y-97052216D01*
X156748175Y-97053002D01*
X156765307Y-97072030D01*
X156795535Y-97135022D01*
X156786909Y-97204357D01*
X156765307Y-97237970D01*
X156747466Y-97257785D01*
X156652821Y-97421715D01*
X156652818Y-97421722D01*
X156594327Y-97601740D01*
X156594326Y-97601744D01*
X156574540Y-97790000D01*
X143145460Y-97790000D01*
X143125674Y-97601744D01*
X143067179Y-97421716D01*
X142972533Y-97257784D01*
X142845871Y-97117112D01*
X142845870Y-97117111D01*
X142692734Y-97005851D01*
X142692729Y-97005848D01*
X142519807Y-96928857D01*
X142519802Y-96928855D01*
X142374001Y-96897865D01*
X142334646Y-96889500D01*
X142145354Y-96889500D01*
X142112897Y-96896398D01*
X141960197Y-96928855D01*
X141960192Y-96928857D01*
X141787270Y-97005848D01*
X141787265Y-97005851D01*
X141634129Y-97117111D01*
X141507466Y-97257785D01*
X141412821Y-97421715D01*
X141412818Y-97421722D01*
X141354327Y-97601740D01*
X141354326Y-97601744D01*
X141334540Y-97790000D01*
X130759654Y-97790000D01*
X130714035Y-97692171D01*
X130578495Y-97498599D01*
X130578494Y-97498597D01*
X130411402Y-97331506D01*
X130411396Y-97331501D01*
X130225842Y-97201575D01*
X130182217Y-97146998D01*
X130175023Y-97077500D01*
X130206546Y-97015145D01*
X130225842Y-96998425D01*
X130325195Y-96928857D01*
X130411401Y-96868495D01*
X130578495Y-96701401D01*
X130714035Y-96507830D01*
X130813903Y-96293663D01*
X130875063Y-96065408D01*
X130895659Y-95830000D01*
X130875063Y-95594592D01*
X130813903Y-95366337D01*
X130759654Y-95250000D01*
X146414540Y-95250000D01*
X146434326Y-95438256D01*
X146434327Y-95438259D01*
X146492818Y-95618277D01*
X146492821Y-95618284D01*
X146587467Y-95782216D01*
X146645899Y-95847111D01*
X146714129Y-95922888D01*
X146867265Y-96034148D01*
X146867270Y-96034151D01*
X147040192Y-96111142D01*
X147040197Y-96111144D01*
X147225354Y-96150500D01*
X147225355Y-96150500D01*
X147414644Y-96150500D01*
X147414646Y-96150500D01*
X147599803Y-96111144D01*
X147772730Y-96034151D01*
X147925871Y-95922888D01*
X148052533Y-95782216D01*
X148147179Y-95618284D01*
X148205674Y-95438256D01*
X148225460Y-95250000D01*
X148205674Y-95061744D01*
X148187292Y-95005173D01*
X148185298Y-94935335D01*
X148221378Y-94875502D01*
X148284078Y-94844673D01*
X148331005Y-94845567D01*
X148401774Y-94860609D01*
X148495354Y-94880500D01*
X148495355Y-94880500D01*
X148684644Y-94880500D01*
X148684646Y-94880500D01*
X148869803Y-94841144D01*
X149042730Y-94764151D01*
X149195871Y-94652888D01*
X149322533Y-94512216D01*
X149417179Y-94348284D01*
X149475674Y-94168256D01*
X149495460Y-93980000D01*
X150949040Y-93980000D01*
X150968826Y-94168256D01*
X150968827Y-94168259D01*
X151027318Y-94348277D01*
X151027321Y-94348284D01*
X151121967Y-94512216D01*
X151241396Y-94644855D01*
X151248629Y-94652888D01*
X151401765Y-94764148D01*
X151401770Y-94764151D01*
X151574692Y-94841142D01*
X151574697Y-94841144D01*
X151759854Y-94880500D01*
X151759855Y-94880500D01*
X151949144Y-94880500D01*
X151949146Y-94880500D01*
X152134303Y-94841144D01*
X152307230Y-94764151D01*
X152460371Y-94652888D01*
X152587033Y-94512216D01*
X152681679Y-94348284D01*
X152740174Y-94168256D01*
X152759960Y-93980000D01*
X152740174Y-93791744D01*
X152704427Y-93681726D01*
X152702432Y-93611885D01*
X152738512Y-93552052D01*
X152771918Y-93530131D01*
X152852730Y-93494151D01*
X153005871Y-93382888D01*
X153132533Y-93242216D01*
X153227179Y-93078284D01*
X153285674Y-92898256D01*
X153305460Y-92710000D01*
X153285674Y-92521744D01*
X153227179Y-92341716D01*
X153132533Y-92177784D01*
X153005871Y-92037112D01*
X153005870Y-92037111D01*
X152852734Y-91925851D01*
X152852729Y-91925848D01*
X152679807Y-91848857D01*
X152679802Y-91848855D01*
X152534001Y-91817865D01*
X152494646Y-91809500D01*
X152305354Y-91809500D01*
X152272897Y-91816398D01*
X152120197Y-91848855D01*
X152120192Y-91848857D01*
X151947270Y-91925848D01*
X151947265Y-91925851D01*
X151794129Y-92037111D01*
X151667466Y-92177785D01*
X151572821Y-92341715D01*
X151572818Y-92341722D01*
X151514327Y-92521740D01*
X151514326Y-92521744D01*
X151494540Y-92710000D01*
X151514326Y-92898256D01*
X151514327Y-92898259D01*
X151550073Y-93008273D01*
X151552068Y-93078114D01*
X151515988Y-93137947D01*
X151482579Y-93159870D01*
X151401767Y-93195850D01*
X151401765Y-93195851D01*
X151248629Y-93307111D01*
X151121966Y-93447785D01*
X151027321Y-93611715D01*
X151027318Y-93611722D01*
X150981199Y-93753663D01*
X150968826Y-93791744D01*
X150949040Y-93980000D01*
X149495460Y-93980000D01*
X149475674Y-93791744D01*
X149417179Y-93611716D01*
X149322533Y-93447784D01*
X149195871Y-93307112D01*
X149195870Y-93307111D01*
X149042734Y-93195851D01*
X149042729Y-93195848D01*
X148869807Y-93118857D01*
X148869802Y-93118855D01*
X148724001Y-93087865D01*
X148684646Y-93079500D01*
X148495354Y-93079500D01*
X148462897Y-93086398D01*
X148310197Y-93118855D01*
X148310192Y-93118857D01*
X148137270Y-93195848D01*
X148137265Y-93195851D01*
X147984129Y-93307111D01*
X147857466Y-93447785D01*
X147762821Y-93611715D01*
X147762818Y-93611722D01*
X147716699Y-93753663D01*
X147704326Y-93791744D01*
X147684540Y-93980000D01*
X147704326Y-94168256D01*
X147704327Y-94168259D01*
X147722706Y-94224824D01*
X147724701Y-94294665D01*
X147688621Y-94354498D01*
X147625920Y-94385326D01*
X147578995Y-94384433D01*
X147552862Y-94378878D01*
X147414646Y-94349500D01*
X147225354Y-94349500D01*
X147201840Y-94354498D01*
X147040197Y-94388855D01*
X147040192Y-94388857D01*
X146867270Y-94465848D01*
X146867265Y-94465851D01*
X146714129Y-94577111D01*
X146587466Y-94717785D01*
X146492821Y-94881715D01*
X146492818Y-94881722D01*
X146452706Y-95005176D01*
X146434326Y-95061744D01*
X146414540Y-95250000D01*
X130759654Y-95250000D01*
X130714035Y-95152171D01*
X130650717Y-95061742D01*
X130578494Y-94958597D01*
X130411402Y-94791506D01*
X130411396Y-94791501D01*
X130225842Y-94661575D01*
X130182217Y-94606998D01*
X130175023Y-94537500D01*
X130206546Y-94475145D01*
X130225842Y-94458425D01*
X130325195Y-94388857D01*
X130411401Y-94328495D01*
X130578495Y-94161401D01*
X130714035Y-93967830D01*
X130813903Y-93753663D01*
X130875063Y-93525408D01*
X130895659Y-93290000D01*
X130875063Y-93054592D01*
X130813903Y-92826337D01*
X130714035Y-92612171D01*
X130578495Y-92418599D01*
X130578494Y-92418597D01*
X130411402Y-92251506D01*
X130411396Y-92251501D01*
X130225842Y-92121575D01*
X130182217Y-92066998D01*
X130175023Y-91997500D01*
X130206546Y-91935145D01*
X130225842Y-91918425D01*
X130325195Y-91848857D01*
X130411401Y-91788495D01*
X130578495Y-91621401D01*
X130705513Y-91440000D01*
X138794540Y-91440000D01*
X138814326Y-91628256D01*
X138814327Y-91628259D01*
X138872818Y-91808277D01*
X138872821Y-91808284D01*
X138967467Y-91972216D01*
X139086896Y-92104855D01*
X139094129Y-92112888D01*
X139247265Y-92224148D01*
X139247270Y-92224151D01*
X139420192Y-92301142D01*
X139420197Y-92301144D01*
X139605354Y-92340500D01*
X139605355Y-92340500D01*
X139794644Y-92340500D01*
X139794646Y-92340500D01*
X139979803Y-92301144D01*
X140152730Y-92224151D01*
X140305871Y-92112888D01*
X140432533Y-91972216D01*
X140527179Y-91808284D01*
X140585674Y-91628256D01*
X140605460Y-91440000D01*
X140585674Y-91251744D01*
X140527179Y-91071716D01*
X140432533Y-90907784D01*
X140305871Y-90767112D01*
X140305870Y-90767111D01*
X140152734Y-90655851D01*
X140152729Y-90655848D01*
X139979807Y-90578857D01*
X139979802Y-90578855D01*
X139834001Y-90547865D01*
X139794646Y-90539500D01*
X139605354Y-90539500D01*
X139572897Y-90546398D01*
X139420197Y-90578855D01*
X139420192Y-90578857D01*
X139247270Y-90655848D01*
X139247265Y-90655851D01*
X139094129Y-90767111D01*
X138967466Y-90907785D01*
X138872821Y-91071715D01*
X138872818Y-91071722D01*
X138826699Y-91213663D01*
X138814326Y-91251744D01*
X138794540Y-91440000D01*
X130705513Y-91440000D01*
X130714035Y-91427830D01*
X130813903Y-91213663D01*
X130875063Y-90985408D01*
X130895659Y-90750000D01*
X130875063Y-90514592D01*
X130813903Y-90286337D01*
X130714035Y-90072171D01*
X130600008Y-89909322D01*
X130578494Y-89878597D01*
X130411402Y-89711506D01*
X130411396Y-89711501D01*
X130225842Y-89581575D01*
X130182217Y-89526998D01*
X130177352Y-89480002D01*
X142414723Y-89480002D01*
X142433793Y-89697975D01*
X142433793Y-89697979D01*
X142490422Y-89909322D01*
X142490424Y-89909326D01*
X142490425Y-89909330D01*
X142536661Y-90008484D01*
X142582897Y-90107638D01*
X142582898Y-90107639D01*
X142708402Y-90286877D01*
X142863123Y-90441598D01*
X143042361Y-90567102D01*
X143240670Y-90659575D01*
X143452023Y-90716207D01*
X143634926Y-90732208D01*
X143669998Y-90735277D01*
X143670000Y-90735277D01*
X143670002Y-90735277D01*
X143698254Y-90732805D01*
X143887977Y-90716207D01*
X144099330Y-90659575D01*
X144297639Y-90567102D01*
X144476877Y-90441598D01*
X144631598Y-90286877D01*
X144757102Y-90107639D01*
X144849575Y-89909330D01*
X144906207Y-89697977D01*
X144925277Y-89480002D01*
X147294723Y-89480002D01*
X147313793Y-89697975D01*
X147313793Y-89697979D01*
X147370422Y-89909322D01*
X147370424Y-89909326D01*
X147370425Y-89909330D01*
X147416661Y-90008484D01*
X147462897Y-90107638D01*
X147462898Y-90107639D01*
X147588402Y-90286877D01*
X147743123Y-90441598D01*
X147922361Y-90567102D01*
X148120670Y-90659575D01*
X148332023Y-90716207D01*
X148514926Y-90732208D01*
X148549998Y-90735277D01*
X148550000Y-90735277D01*
X148550002Y-90735277D01*
X148578254Y-90732805D01*
X148767977Y-90716207D01*
X148979330Y-90659575D01*
X149177639Y-90567102D01*
X149356877Y-90441598D01*
X149511598Y-90286877D01*
X149637102Y-90107639D01*
X149729575Y-89909330D01*
X149786207Y-89697977D01*
X149805277Y-89480000D01*
X149786207Y-89262023D01*
X149729575Y-89050670D01*
X149637102Y-88852362D01*
X149637100Y-88852359D01*
X149637099Y-88852357D01*
X149511599Y-88673124D01*
X149511596Y-88673121D01*
X149356877Y-88518402D01*
X149177639Y-88392898D01*
X149177640Y-88392898D01*
X149177638Y-88392897D01*
X149078484Y-88346661D01*
X148979330Y-88300425D01*
X148979326Y-88300424D01*
X148979322Y-88300422D01*
X148767977Y-88243793D01*
X148550002Y-88224723D01*
X148549998Y-88224723D01*
X148404682Y-88237436D01*
X148332023Y-88243793D01*
X148332020Y-88243793D01*
X148120677Y-88300422D01*
X148120668Y-88300426D01*
X147922361Y-88392898D01*
X147922357Y-88392900D01*
X147743121Y-88518402D01*
X147588402Y-88673121D01*
X147462900Y-88852357D01*
X147462898Y-88852361D01*
X147370426Y-89050668D01*
X147370422Y-89050677D01*
X147313793Y-89262020D01*
X147313793Y-89262024D01*
X147294723Y-89479997D01*
X147294723Y-89480002D01*
X144925277Y-89480002D01*
X144925277Y-89480000D01*
X144906207Y-89262023D01*
X144849575Y-89050670D01*
X144757102Y-88852362D01*
X144757100Y-88852359D01*
X144757099Y-88852357D01*
X144631599Y-88673124D01*
X144631596Y-88673121D01*
X144476877Y-88518402D01*
X144297639Y-88392898D01*
X144297640Y-88392898D01*
X144297638Y-88392897D01*
X144198484Y-88346661D01*
X144099330Y-88300425D01*
X144099326Y-88300424D01*
X144099322Y-88300422D01*
X143887977Y-88243793D01*
X143670002Y-88224723D01*
X143669998Y-88224723D01*
X143524682Y-88237436D01*
X143452023Y-88243793D01*
X143452020Y-88243793D01*
X143240677Y-88300422D01*
X143240668Y-88300426D01*
X143042361Y-88392898D01*
X143042357Y-88392900D01*
X142863121Y-88518402D01*
X142708402Y-88673121D01*
X142582900Y-88852357D01*
X142582898Y-88852361D01*
X142490426Y-89050668D01*
X142490422Y-89050677D01*
X142433793Y-89262020D01*
X142433793Y-89262024D01*
X142414723Y-89479997D01*
X142414723Y-89480002D01*
X130177352Y-89480002D01*
X130175023Y-89457500D01*
X130206546Y-89395145D01*
X130225842Y-89378425D01*
X130248026Y-89362891D01*
X130411401Y-89248495D01*
X130578495Y-89081401D01*
X130714035Y-88887830D01*
X130813903Y-88673663D01*
X130875063Y-88445408D01*
X130895659Y-88210000D01*
X130875063Y-87974592D01*
X130813903Y-87746337D01*
X130714035Y-87532171D01*
X130672055Y-87472216D01*
X130578494Y-87338597D01*
X130411402Y-87171506D01*
X130411396Y-87171501D01*
X130225842Y-87041575D01*
X130182217Y-86986998D01*
X130177352Y-86940000D01*
X136254540Y-86940000D01*
X136274326Y-87128256D01*
X136274327Y-87128259D01*
X136332818Y-87308277D01*
X136332821Y-87308284D01*
X136427467Y-87472216D01*
X136481451Y-87532171D01*
X136554129Y-87612888D01*
X136707265Y-87724148D01*
X136707270Y-87724151D01*
X136880192Y-87801142D01*
X136880197Y-87801144D01*
X137065354Y-87840500D01*
X137065355Y-87840500D01*
X137254644Y-87840500D01*
X137254646Y-87840500D01*
X137439803Y-87801144D01*
X137612730Y-87724151D01*
X137765871Y-87612888D01*
X137892533Y-87472216D01*
X137987179Y-87308284D01*
X138045674Y-87128256D01*
X138065460Y-86940000D01*
X138045674Y-86751744D01*
X137987179Y-86571716D01*
X137892533Y-86407784D01*
X137765871Y-86267112D01*
X137765870Y-86267111D01*
X137612734Y-86155851D01*
X137612729Y-86155848D01*
X137439807Y-86078857D01*
X137439802Y-86078855D01*
X137294001Y-86047865D01*
X137254646Y-86039500D01*
X137065354Y-86039500D01*
X137032897Y-86046398D01*
X136880197Y-86078855D01*
X136880192Y-86078857D01*
X136707270Y-86155848D01*
X136707265Y-86155851D01*
X136554129Y-86267111D01*
X136427466Y-86407785D01*
X136332821Y-86571715D01*
X136332818Y-86571722D01*
X136274327Y-86751740D01*
X136274326Y-86751744D01*
X136254540Y-86940000D01*
X130177352Y-86940000D01*
X130175023Y-86917500D01*
X130206546Y-86855145D01*
X130225842Y-86838425D01*
X130349635Y-86751744D01*
X130411401Y-86708495D01*
X130578495Y-86541401D01*
X130714035Y-86347830D01*
X130813903Y-86133663D01*
X130875063Y-85905408D01*
X130895659Y-85670000D01*
X154034540Y-85670000D01*
X154054326Y-85858256D01*
X154054327Y-85858259D01*
X154112818Y-86038277D01*
X154112821Y-86038284D01*
X154207467Y-86202216D01*
X154265899Y-86267111D01*
X154334129Y-86342888D01*
X154487265Y-86454148D01*
X154487270Y-86454151D01*
X154660192Y-86531142D01*
X154660197Y-86531144D01*
X154845354Y-86570500D01*
X154845355Y-86570500D01*
X155034644Y-86570500D01*
X155034646Y-86570500D01*
X155219803Y-86531144D01*
X155392730Y-86454151D01*
X155545871Y-86342888D01*
X155672533Y-86202216D01*
X155767179Y-86038284D01*
X155825674Y-85858256D01*
X155845460Y-85670000D01*
X155825674Y-85481744D01*
X155767179Y-85301716D01*
X155672533Y-85137784D01*
X155545871Y-84997112D01*
X155545870Y-84997111D01*
X155392734Y-84885851D01*
X155392729Y-84885848D01*
X155219807Y-84808857D01*
X155219802Y-84808855D01*
X155074001Y-84777865D01*
X155034646Y-84769500D01*
X154845354Y-84769500D01*
X154812897Y-84776398D01*
X154660197Y-84808855D01*
X154660192Y-84808857D01*
X154487270Y-84885848D01*
X154487265Y-84885851D01*
X154334129Y-84997111D01*
X154207466Y-85137785D01*
X154112821Y-85301715D01*
X154112818Y-85301722D01*
X154069645Y-85434596D01*
X154054326Y-85481744D01*
X154034540Y-85670000D01*
X130895659Y-85670000D01*
X130875063Y-85434592D01*
X130813903Y-85206337D01*
X130714035Y-84992171D01*
X130672055Y-84932216D01*
X130578494Y-84798597D01*
X130411402Y-84631506D01*
X130411396Y-84631501D01*
X130225842Y-84501575D01*
X130182217Y-84446998D01*
X130175023Y-84377500D01*
X130206546Y-84315145D01*
X130225842Y-84298425D01*
X130349635Y-84211744D01*
X130411401Y-84168495D01*
X130578495Y-84001401D01*
X130705513Y-83820000D01*
X138794540Y-83820000D01*
X138814326Y-84008256D01*
X138814327Y-84008259D01*
X138872818Y-84188277D01*
X138872821Y-84188284D01*
X138967467Y-84352216D01*
X139086621Y-84484549D01*
X139094129Y-84492888D01*
X139247265Y-84604148D01*
X139247270Y-84604151D01*
X139420192Y-84681142D01*
X139420197Y-84681144D01*
X139605354Y-84720500D01*
X139605355Y-84720500D01*
X139794644Y-84720500D01*
X139794646Y-84720500D01*
X139979803Y-84681144D01*
X140152730Y-84604151D01*
X140305871Y-84492888D01*
X140389508Y-84400000D01*
X142604540Y-84400000D01*
X142624326Y-84588256D01*
X142624327Y-84588259D01*
X142682818Y-84768277D01*
X142682821Y-84768284D01*
X142777467Y-84932216D01*
X142831451Y-84992171D01*
X142904129Y-85072888D01*
X143057265Y-85184148D01*
X143057270Y-85184151D01*
X143230192Y-85261142D01*
X143230197Y-85261144D01*
X143415354Y-85300500D01*
X143415355Y-85300500D01*
X143604644Y-85300500D01*
X143604646Y-85300500D01*
X143789803Y-85261144D01*
X143962730Y-85184151D01*
X144115871Y-85072888D01*
X144242533Y-84932216D01*
X144337179Y-84768284D01*
X144395674Y-84588256D01*
X144415460Y-84400000D01*
X144395674Y-84211744D01*
X144337179Y-84031716D01*
X144242533Y-83867784D01*
X144115871Y-83727112D01*
X144115870Y-83727111D01*
X143962734Y-83615851D01*
X143962729Y-83615848D01*
X143789807Y-83538857D01*
X143789802Y-83538855D01*
X143644001Y-83507865D01*
X143604646Y-83499500D01*
X143415354Y-83499500D01*
X143382897Y-83506398D01*
X143230197Y-83538855D01*
X143230192Y-83538857D01*
X143057270Y-83615848D01*
X143057265Y-83615851D01*
X142904129Y-83727111D01*
X142777466Y-83867785D01*
X142682821Y-84031715D01*
X142682818Y-84031722D01*
X142624327Y-84211740D01*
X142624326Y-84211744D01*
X142604540Y-84400000D01*
X140389508Y-84400000D01*
X140432533Y-84352216D01*
X140527179Y-84188284D01*
X140585674Y-84008256D01*
X140605460Y-83820000D01*
X140585674Y-83631744D01*
X140527179Y-83451716D01*
X140432533Y-83287784D01*
X140305871Y-83147112D01*
X140305870Y-83147111D01*
X140152734Y-83035851D01*
X140152729Y-83035848D01*
X139979807Y-82958857D01*
X139979802Y-82958855D01*
X139834001Y-82927865D01*
X139794646Y-82919500D01*
X139605354Y-82919500D01*
X139572897Y-82926398D01*
X139420197Y-82958855D01*
X139420192Y-82958857D01*
X139247270Y-83035848D01*
X139247265Y-83035851D01*
X139094129Y-83147111D01*
X138967466Y-83287785D01*
X138872821Y-83451715D01*
X138872818Y-83451722D01*
X138814327Y-83631740D01*
X138814326Y-83631744D01*
X138794540Y-83820000D01*
X130705513Y-83820000D01*
X130714035Y-83807830D01*
X130813903Y-83593663D01*
X130875063Y-83365408D01*
X130895659Y-83130000D01*
X130875063Y-82894592D01*
X130813903Y-82666337D01*
X130759654Y-82550000D01*
X141334540Y-82550000D01*
X141354326Y-82738256D01*
X141354327Y-82738259D01*
X141412818Y-82918277D01*
X141412821Y-82918284D01*
X141507467Y-83082216D01*
X141565899Y-83147111D01*
X141634129Y-83222888D01*
X141787265Y-83334148D01*
X141787270Y-83334151D01*
X141960192Y-83411142D01*
X141960197Y-83411144D01*
X142145354Y-83450500D01*
X142145355Y-83450500D01*
X142334644Y-83450500D01*
X142334646Y-83450500D01*
X142519803Y-83411144D01*
X142692730Y-83334151D01*
X142845871Y-83222888D01*
X142972533Y-83082216D01*
X143067179Y-82918284D01*
X143125674Y-82738256D01*
X143145460Y-82550000D01*
X143125674Y-82361744D01*
X143067179Y-82181716D01*
X142972533Y-82017784D01*
X142845871Y-81877112D01*
X142845870Y-81877111D01*
X142822319Y-81860000D01*
X146414540Y-81860000D01*
X146434326Y-82048256D01*
X146434327Y-82048259D01*
X146492818Y-82228277D01*
X146492821Y-82228284D01*
X146587467Y-82392216D01*
X146641677Y-82452422D01*
X146714129Y-82532888D01*
X146867265Y-82644148D01*
X146867270Y-82644151D01*
X147040192Y-82721142D01*
X147040197Y-82721144D01*
X147225354Y-82760500D01*
X147225355Y-82760500D01*
X147414644Y-82760500D01*
X147414646Y-82760500D01*
X147599803Y-82721144D01*
X147772730Y-82644151D01*
X147925871Y-82532888D01*
X148052533Y-82392216D01*
X148147179Y-82228284D01*
X148205674Y-82048256D01*
X148225460Y-81860000D01*
X148205674Y-81671744D01*
X148147179Y-81491716D01*
X148052533Y-81327784D01*
X147925871Y-81187112D01*
X147925870Y-81187111D01*
X147772734Y-81075851D01*
X147772729Y-81075848D01*
X147599807Y-80998857D01*
X147599802Y-80998855D01*
X147454001Y-80967865D01*
X147414646Y-80959500D01*
X147225354Y-80959500D01*
X147192897Y-80966398D01*
X147040197Y-80998855D01*
X147040192Y-80998857D01*
X146867270Y-81075848D01*
X146867265Y-81075851D01*
X146714129Y-81187111D01*
X146587466Y-81327785D01*
X146492821Y-81491715D01*
X146492818Y-81491722D01*
X146434327Y-81671740D01*
X146434326Y-81671744D01*
X146414540Y-81860000D01*
X142822319Y-81860000D01*
X142692734Y-81765851D01*
X142692729Y-81765848D01*
X142519807Y-81688857D01*
X142519802Y-81688855D01*
X142374001Y-81657865D01*
X142334646Y-81649500D01*
X142145354Y-81649500D01*
X142112897Y-81656398D01*
X141960197Y-81688855D01*
X141960192Y-81688857D01*
X141787270Y-81765848D01*
X141787265Y-81765851D01*
X141634129Y-81877111D01*
X141507466Y-82017785D01*
X141412821Y-82181715D01*
X141412818Y-82181722D01*
X141354327Y-82361740D01*
X141354326Y-82361744D01*
X141334540Y-82550000D01*
X130759654Y-82550000D01*
X130714035Y-82452171D01*
X130672054Y-82392216D01*
X130578496Y-82258600D01*
X130548173Y-82228277D01*
X130456567Y-82136671D01*
X130423084Y-82075351D01*
X130428068Y-82005659D01*
X130469939Y-81949725D01*
X130500915Y-81932810D01*
X130632331Y-81883796D01*
X130747546Y-81797546D01*
X130833796Y-81682331D01*
X130884091Y-81547483D01*
X130890500Y-81487873D01*
X130890499Y-79692128D01*
X130884091Y-79632517D01*
X130833796Y-79497669D01*
X130833795Y-79497668D01*
X130833793Y-79497664D01*
X130747547Y-79382455D01*
X130747544Y-79382452D01*
X130664119Y-79320000D01*
X131174540Y-79320000D01*
X131194326Y-79508256D01*
X131194327Y-79508259D01*
X131252818Y-79688277D01*
X131252821Y-79688284D01*
X131347467Y-79852216D01*
X131474129Y-79992888D01*
X131627265Y-80104148D01*
X131627270Y-80104151D01*
X131800192Y-80181142D01*
X131800197Y-80181144D01*
X131985354Y-80220500D01*
X131985355Y-80220500D01*
X132174644Y-80220500D01*
X132174646Y-80220500D01*
X132359803Y-80181144D01*
X132532730Y-80104151D01*
X132685871Y-79992888D01*
X132812533Y-79852216D01*
X132907179Y-79688284D01*
X132965674Y-79508256D01*
X132985460Y-79320000D01*
X145144540Y-79320000D01*
X145164326Y-79508256D01*
X145164327Y-79508259D01*
X145222818Y-79688277D01*
X145222821Y-79688284D01*
X145317467Y-79852216D01*
X145444129Y-79992888D01*
X145597265Y-80104148D01*
X145597270Y-80104151D01*
X145770192Y-80181142D01*
X145770197Y-80181144D01*
X145955354Y-80220500D01*
X145955355Y-80220500D01*
X146144644Y-80220500D01*
X146144646Y-80220500D01*
X146329803Y-80181144D01*
X146502730Y-80104151D01*
X146655871Y-79992888D01*
X146782533Y-79852216D01*
X146877179Y-79688284D01*
X146935674Y-79508256D01*
X146955460Y-79320000D01*
X146935674Y-79131744D01*
X146877179Y-78951716D01*
X146782533Y-78787784D01*
X146655871Y-78647112D01*
X146655870Y-78647111D01*
X146502734Y-78535851D01*
X146502729Y-78535848D01*
X146329807Y-78458857D01*
X146329802Y-78458855D01*
X146184001Y-78427865D01*
X146144646Y-78419500D01*
X145955354Y-78419500D01*
X145922897Y-78426398D01*
X145770197Y-78458855D01*
X145770192Y-78458857D01*
X145597270Y-78535848D01*
X145597265Y-78535851D01*
X145444129Y-78647111D01*
X145317466Y-78787785D01*
X145222821Y-78951715D01*
X145222818Y-78951722D01*
X145164327Y-79131740D01*
X145164326Y-79131744D01*
X145144540Y-79320000D01*
X132985460Y-79320000D01*
X132965674Y-79131744D01*
X132907179Y-78951716D01*
X132812533Y-78787784D01*
X132685871Y-78647112D01*
X132685870Y-78647111D01*
X132532734Y-78535851D01*
X132532729Y-78535848D01*
X132359807Y-78458857D01*
X132359802Y-78458855D01*
X132214001Y-78427865D01*
X132174646Y-78419500D01*
X131985354Y-78419500D01*
X131952897Y-78426398D01*
X131800197Y-78458855D01*
X131800192Y-78458857D01*
X131627270Y-78535848D01*
X131627265Y-78535851D01*
X131474129Y-78647111D01*
X131347466Y-78787785D01*
X131252821Y-78951715D01*
X131252818Y-78951722D01*
X131194327Y-79131740D01*
X131194326Y-79131744D01*
X131174540Y-79320000D01*
X130664119Y-79320000D01*
X130632335Y-79296206D01*
X130632328Y-79296202D01*
X130497482Y-79245908D01*
X130497483Y-79245908D01*
X130437883Y-79239501D01*
X130437881Y-79239500D01*
X130437873Y-79239500D01*
X130437864Y-79239500D01*
X128642129Y-79239500D01*
X128642123Y-79239501D01*
X128582516Y-79245908D01*
X128447671Y-79296202D01*
X128447664Y-79296206D01*
X128332455Y-79382452D01*
X128332452Y-79382455D01*
X128246206Y-79497664D01*
X128246202Y-79497671D01*
X128195908Y-79632517D01*
X128189914Y-79688277D01*
X128189501Y-79692123D01*
X128189500Y-79692135D01*
X128189500Y-81487870D01*
X128189501Y-81487876D01*
X128195908Y-81547483D01*
X128246202Y-81682328D01*
X128246206Y-81682335D01*
X128332452Y-81797544D01*
X128332455Y-81797547D01*
X128447664Y-81883793D01*
X128447671Y-81883797D01*
X128579081Y-81932810D01*
X128635015Y-81974681D01*
X128659432Y-82040145D01*
X128644580Y-82108418D01*
X128623430Y-82136673D01*
X128501503Y-82258600D01*
X128365965Y-82452169D01*
X128365964Y-82452171D01*
X128266098Y-82666335D01*
X128266094Y-82666344D01*
X128204938Y-82894586D01*
X128204936Y-82894596D01*
X128184341Y-83129999D01*
X128184341Y-83130000D01*
X128204936Y-83365403D01*
X128204938Y-83365413D01*
X128266094Y-83593655D01*
X128266096Y-83593659D01*
X128266097Y-83593663D01*
X128365847Y-83807578D01*
X128365965Y-83807830D01*
X128365967Y-83807834D01*
X128501501Y-84001395D01*
X128501506Y-84001402D01*
X128668597Y-84168493D01*
X128668603Y-84168498D01*
X128854158Y-84298425D01*
X128897783Y-84353002D01*
X128904977Y-84422500D01*
X128873454Y-84484855D01*
X128854158Y-84501575D01*
X128668597Y-84631505D01*
X128501505Y-84798597D01*
X128365965Y-84992169D01*
X128365964Y-84992171D01*
X128266098Y-85206335D01*
X128266094Y-85206344D01*
X128204938Y-85434586D01*
X128204936Y-85434596D01*
X128184341Y-85669999D01*
X128184341Y-85670000D01*
X128204936Y-85905403D01*
X128204938Y-85905413D01*
X128266094Y-86133655D01*
X128266096Y-86133659D01*
X128266097Y-86133663D01*
X128363661Y-86342888D01*
X128365965Y-86347830D01*
X128365967Y-86347834D01*
X128501501Y-86541395D01*
X128501506Y-86541402D01*
X128668597Y-86708493D01*
X128668603Y-86708498D01*
X128854158Y-86838425D01*
X128897783Y-86893002D01*
X128904977Y-86962500D01*
X128873454Y-87024855D01*
X128854158Y-87041575D01*
X128668597Y-87171505D01*
X128501505Y-87338597D01*
X128365965Y-87532169D01*
X128365964Y-87532171D01*
X128266098Y-87746335D01*
X128266094Y-87746344D01*
X128204938Y-87974586D01*
X128204936Y-87974596D01*
X128184341Y-88209999D01*
X128184341Y-88210000D01*
X128204936Y-88445403D01*
X128204938Y-88445413D01*
X128266094Y-88673655D01*
X128266096Y-88673659D01*
X128266097Y-88673663D01*
X128349426Y-88852362D01*
X128365965Y-88887830D01*
X128365967Y-88887834D01*
X128501501Y-89081395D01*
X128501506Y-89081402D01*
X128668597Y-89248493D01*
X128668603Y-89248498D01*
X128854158Y-89378425D01*
X128897783Y-89433002D01*
X128904977Y-89502500D01*
X128873454Y-89564855D01*
X128854158Y-89581575D01*
X128668597Y-89711505D01*
X128501505Y-89878597D01*
X128365965Y-90072169D01*
X128365964Y-90072171D01*
X128266098Y-90286335D01*
X128266094Y-90286344D01*
X128204938Y-90514586D01*
X128204936Y-90514596D01*
X128184341Y-90749999D01*
X128184341Y-90750000D01*
X128204936Y-90985403D01*
X128204938Y-90985413D01*
X128266094Y-91213655D01*
X128266096Y-91213659D01*
X128266097Y-91213663D01*
X128283853Y-91251740D01*
X128365965Y-91427830D01*
X128365967Y-91427834D01*
X128501501Y-91621395D01*
X128501506Y-91621402D01*
X128668597Y-91788493D01*
X128668603Y-91788498D01*
X128854158Y-91918425D01*
X128897783Y-91973002D01*
X128904977Y-92042500D01*
X128873454Y-92104855D01*
X128854158Y-92121575D01*
X128668597Y-92251505D01*
X128501505Y-92418597D01*
X128365965Y-92612169D01*
X128365964Y-92612171D01*
X128266098Y-92826335D01*
X128266094Y-92826344D01*
X128204938Y-93054586D01*
X128204936Y-93054596D01*
X128184341Y-93289999D01*
X128184341Y-93290000D01*
X128204936Y-93525403D01*
X128204938Y-93525413D01*
X128266094Y-93753655D01*
X128266096Y-93753659D01*
X128266097Y-93753663D01*
X128283853Y-93791740D01*
X128365965Y-93967830D01*
X128365967Y-93967834D01*
X128501501Y-94161395D01*
X128501506Y-94161402D01*
X128668597Y-94328493D01*
X128668603Y-94328498D01*
X128854158Y-94458425D01*
X128897783Y-94513002D01*
X128904977Y-94582500D01*
X128873454Y-94644855D01*
X128854158Y-94661575D01*
X128668597Y-94791505D01*
X128501505Y-94958597D01*
X128365965Y-95152169D01*
X128365964Y-95152171D01*
X128266098Y-95366335D01*
X128266094Y-95366344D01*
X128204938Y-95594586D01*
X128204936Y-95594596D01*
X128184341Y-95829999D01*
X128184341Y-95830000D01*
X128204936Y-96065403D01*
X128204938Y-96065413D01*
X128266094Y-96293655D01*
X128266096Y-96293659D01*
X128266097Y-96293663D01*
X128283853Y-96331740D01*
X128365965Y-96507830D01*
X128365967Y-96507834D01*
X128501501Y-96701395D01*
X128501506Y-96701402D01*
X128668597Y-96868493D01*
X128668603Y-96868498D01*
X128854158Y-96998425D01*
X128897783Y-97053002D01*
X128904977Y-97122500D01*
X128873454Y-97184855D01*
X128854158Y-97201575D01*
X128668597Y-97331505D01*
X128501505Y-97498597D01*
X128365965Y-97692169D01*
X128365964Y-97692171D01*
X128266098Y-97906335D01*
X128266094Y-97906344D01*
X128204938Y-98134586D01*
X128204936Y-98134596D01*
X128184341Y-98369999D01*
X128184341Y-98370000D01*
X128204936Y-98605403D01*
X128204938Y-98605413D01*
X128266094Y-98833655D01*
X128266096Y-98833659D01*
X128266097Y-98833663D01*
X128365965Y-99047830D01*
X128365967Y-99047834D01*
X128501501Y-99241395D01*
X128501506Y-99241402D01*
X128668597Y-99408493D01*
X128668603Y-99408498D01*
X128854158Y-99538425D01*
X128897783Y-99593002D01*
X128904977Y-99662500D01*
X128873454Y-99724855D01*
X128854158Y-99741575D01*
X128668597Y-99871505D01*
X128501505Y-100038597D01*
X128365965Y-100232169D01*
X128365964Y-100232171D01*
X128266098Y-100446335D01*
X128266094Y-100446344D01*
X128204938Y-100674586D01*
X128204936Y-100674596D01*
X128184341Y-100909999D01*
X128184341Y-100910000D01*
X128204936Y-101145403D01*
X128204938Y-101145413D01*
X128266094Y-101373655D01*
X128266096Y-101373659D01*
X128266097Y-101373663D01*
X128363661Y-101582888D01*
X128365965Y-101587830D01*
X128365967Y-101587834D01*
X128501501Y-101781395D01*
X128501506Y-101781402D01*
X128668597Y-101948493D01*
X128668603Y-101948498D01*
X128854158Y-102078425D01*
X128897783Y-102133002D01*
X128904977Y-102202500D01*
X128873454Y-102264855D01*
X128854158Y-102281575D01*
X128668597Y-102411505D01*
X128501505Y-102578597D01*
X128365965Y-102772169D01*
X128365964Y-102772171D01*
X128266098Y-102986335D01*
X128266094Y-102986344D01*
X128204938Y-103214586D01*
X128204936Y-103214596D01*
X128184341Y-103449999D01*
X128184341Y-103450000D01*
X128204936Y-103685403D01*
X128204938Y-103685413D01*
X128266094Y-103913655D01*
X128266096Y-103913659D01*
X128266097Y-103913663D01*
X128298063Y-103982214D01*
X128365965Y-104127830D01*
X128365967Y-104127834D01*
X128501501Y-104321395D01*
X128501506Y-104321402D01*
X128668597Y-104488493D01*
X128668603Y-104488498D01*
X128854158Y-104618425D01*
X128897783Y-104673002D01*
X128904977Y-104742500D01*
X128873454Y-104804855D01*
X128854158Y-104821575D01*
X128668597Y-104951505D01*
X128501505Y-105118597D01*
X128365965Y-105312169D01*
X128365964Y-105312171D01*
X128266098Y-105526335D01*
X128266094Y-105526344D01*
X128204938Y-105754586D01*
X128204936Y-105754596D01*
X128184341Y-105989999D01*
X128184341Y-105990000D01*
X128204936Y-106225403D01*
X128204938Y-106225413D01*
X128266094Y-106453655D01*
X128266096Y-106453659D01*
X128266097Y-106453663D01*
X128348575Y-106630537D01*
X128365965Y-106667830D01*
X128365967Y-106667834D01*
X128501501Y-106861395D01*
X128501506Y-106861402D01*
X128668597Y-107028493D01*
X128668603Y-107028498D01*
X128854158Y-107158425D01*
X128897783Y-107213002D01*
X128904977Y-107282500D01*
X128873454Y-107344855D01*
X128854158Y-107361575D01*
X128668597Y-107491505D01*
X128501505Y-107658597D01*
X128365965Y-107852169D01*
X128365964Y-107852171D01*
X128266098Y-108066335D01*
X128266094Y-108066344D01*
X128204938Y-108294586D01*
X128204936Y-108294596D01*
X128184341Y-108529999D01*
X128184341Y-108530000D01*
X128204936Y-108765403D01*
X128204938Y-108765413D01*
X128266094Y-108993655D01*
X128266096Y-108993659D01*
X128266097Y-108993663D01*
X128365965Y-109207830D01*
X128365967Y-109207834D01*
X128501501Y-109401395D01*
X128501506Y-109401402D01*
X128668597Y-109568493D01*
X128668603Y-109568498D01*
X128854158Y-109698425D01*
X128897783Y-109753002D01*
X128904977Y-109822500D01*
X128873454Y-109884855D01*
X128854158Y-109901575D01*
X128668597Y-110031505D01*
X128501505Y-110198597D01*
X128365965Y-110392169D01*
X128365964Y-110392171D01*
X128266098Y-110606335D01*
X128266094Y-110606344D01*
X128204938Y-110834586D01*
X128204936Y-110834596D01*
X128184341Y-111069999D01*
X128184341Y-111070000D01*
X128204936Y-111305403D01*
X128204938Y-111305413D01*
X128266094Y-111533655D01*
X128266096Y-111533659D01*
X128266097Y-111533663D01*
X128330086Y-111670888D01*
X128365965Y-111747830D01*
X128365967Y-111747834D01*
X128501501Y-111941395D01*
X128501506Y-111941402D01*
X128668597Y-112108493D01*
X128668603Y-112108498D01*
X128854158Y-112238425D01*
X128897783Y-112293002D01*
X128904977Y-112362500D01*
X128873454Y-112424855D01*
X128854158Y-112441575D01*
X128668597Y-112571505D01*
X128501505Y-112738597D01*
X128365965Y-112932169D01*
X128365964Y-112932171D01*
X128266098Y-113146335D01*
X128266094Y-113146344D01*
X128204938Y-113374586D01*
X128204936Y-113374596D01*
X128184341Y-113609999D01*
X128184341Y-113610000D01*
X128204936Y-113845403D01*
X128204938Y-113845413D01*
X128266094Y-114073655D01*
X128266096Y-114073659D01*
X128266097Y-114073663D01*
X128283853Y-114111740D01*
X128365965Y-114287830D01*
X128365967Y-114287834D01*
X128501501Y-114481395D01*
X128501506Y-114481402D01*
X128668597Y-114648493D01*
X128668603Y-114648498D01*
X128854158Y-114778425D01*
X128897783Y-114833002D01*
X128904977Y-114902500D01*
X128873454Y-114964855D01*
X128854158Y-114981575D01*
X128668597Y-115111505D01*
X128501505Y-115278597D01*
X128365965Y-115472169D01*
X128365964Y-115472171D01*
X128266098Y-115686335D01*
X128266094Y-115686344D01*
X128204938Y-115914586D01*
X128204936Y-115914596D01*
X128184341Y-116149999D01*
X128184341Y-116150000D01*
X128204936Y-116385403D01*
X128204938Y-116385413D01*
X128266094Y-116613655D01*
X128266096Y-116613659D01*
X128266097Y-116613663D01*
X128298063Y-116682214D01*
X128365965Y-116827830D01*
X128365967Y-116827834D01*
X128501501Y-117021395D01*
X128501506Y-117021402D01*
X128668597Y-117188493D01*
X128668603Y-117188498D01*
X128854158Y-117318425D01*
X128897783Y-117373002D01*
X128904977Y-117442500D01*
X128873454Y-117504855D01*
X128854158Y-117521575D01*
X128668597Y-117651505D01*
X128501505Y-117818597D01*
X128365965Y-118012169D01*
X128365964Y-118012171D01*
X128266098Y-118226335D01*
X128266094Y-118226344D01*
X128204938Y-118454586D01*
X128204936Y-118454596D01*
X128184341Y-118689999D01*
X128184341Y-118690000D01*
X128204936Y-118925403D01*
X128204938Y-118925413D01*
X128266094Y-119153655D01*
X128266096Y-119153659D01*
X128266097Y-119153663D01*
X128298063Y-119222214D01*
X128365965Y-119367830D01*
X128365967Y-119367834D01*
X128501501Y-119561395D01*
X128501506Y-119561402D01*
X128668597Y-119728493D01*
X128668603Y-119728498D01*
X128854158Y-119858425D01*
X128897783Y-119913002D01*
X128904977Y-119982500D01*
X128873454Y-120044855D01*
X128854158Y-120061575D01*
X128668597Y-120191505D01*
X128501505Y-120358597D01*
X128365965Y-120552169D01*
X128365964Y-120552171D01*
X128266098Y-120766335D01*
X128266094Y-120766344D01*
X128204938Y-120994586D01*
X128204936Y-120994596D01*
X128184341Y-121229999D01*
X128184341Y-121230000D01*
X128204936Y-121465403D01*
X128204938Y-121465413D01*
X128266094Y-121693655D01*
X128266096Y-121693659D01*
X128266097Y-121693663D01*
X128360348Y-121895784D01*
X128365965Y-121907830D01*
X128365967Y-121907834D01*
X128501501Y-122101395D01*
X128501506Y-122101402D01*
X128668597Y-122268493D01*
X128668603Y-122268498D01*
X128854158Y-122398425D01*
X128897783Y-122453002D01*
X128904977Y-122522500D01*
X128873454Y-122584855D01*
X128854158Y-122601575D01*
X128668597Y-122731505D01*
X128501505Y-122898597D01*
X128365965Y-123092169D01*
X128365964Y-123092171D01*
X128266098Y-123306335D01*
X128266094Y-123306344D01*
X128204938Y-123534586D01*
X128204936Y-123534596D01*
X128184341Y-123769999D01*
X128184341Y-123770000D01*
X125730500Y-123770000D01*
X125730500Y-76780000D01*
X138794540Y-76780000D01*
X138814326Y-76968256D01*
X138814327Y-76968259D01*
X138872818Y-77148277D01*
X138872821Y-77148284D01*
X138967467Y-77312216D01*
X139094129Y-77452888D01*
X139247265Y-77564148D01*
X139247270Y-77564151D01*
X139420192Y-77641142D01*
X139420197Y-77641144D01*
X139605354Y-77680500D01*
X139605355Y-77680500D01*
X139794644Y-77680500D01*
X139794646Y-77680500D01*
X139979803Y-77641144D01*
X140152730Y-77564151D01*
X140305871Y-77452888D01*
X140432533Y-77312216D01*
X140527179Y-77148284D01*
X140585674Y-76968256D01*
X140605460Y-76780000D01*
X140585674Y-76591744D01*
X140527179Y-76411716D01*
X140432533Y-76247784D01*
X140305871Y-76107112D01*
X140305870Y-76107111D01*
X140152734Y-75995851D01*
X140152729Y-75995848D01*
X139979807Y-75918857D01*
X139979802Y-75918855D01*
X139834001Y-75887865D01*
X139794646Y-75879500D01*
X139605354Y-75879500D01*
X139572897Y-75886398D01*
X139420197Y-75918855D01*
X139420192Y-75918857D01*
X139247270Y-75995848D01*
X139247265Y-75995851D01*
X139094129Y-76107111D01*
X138967466Y-76247785D01*
X138872821Y-76411715D01*
X138872818Y-76411722D01*
X138814327Y-76591740D01*
X138814326Y-76591744D01*
X138794540Y-76780000D01*
X125730500Y-76780000D01*
X125730500Y-66620000D01*
X131994341Y-66620000D01*
X132014936Y-66855403D01*
X132014938Y-66855413D01*
X132076094Y-67083655D01*
X132076096Y-67083659D01*
X132076097Y-67083663D01*
X132155597Y-67254151D01*
X132175965Y-67297830D01*
X132175967Y-67297834D01*
X132234462Y-67381373D01*
X132311505Y-67491401D01*
X132478599Y-67658495D01*
X132478604Y-67658499D01*
X132479968Y-67659643D01*
X132480407Y-67660303D01*
X132482427Y-67662323D01*
X132482021Y-67662728D01*
X132518669Y-67717815D01*
X132519776Y-67787676D01*
X132482937Y-67847046D01*
X132439267Y-67872336D01*
X132430669Y-67875184D01*
X132430663Y-67875187D01*
X132281342Y-67967289D01*
X132157289Y-68091342D01*
X132065187Y-68240663D01*
X132065185Y-68240668D01*
X132048701Y-68290414D01*
X132010001Y-68407203D01*
X132010001Y-68407204D01*
X132010000Y-68407204D01*
X131999500Y-68509983D01*
X131999500Y-69810001D01*
X131999501Y-69810018D01*
X132010000Y-69912796D01*
X132010001Y-69912799D01*
X132049303Y-70031402D01*
X132065186Y-70079334D01*
X132157288Y-70228656D01*
X132281344Y-70352712D01*
X132430666Y-70444814D01*
X132597203Y-70499999D01*
X132699991Y-70510500D01*
X134000008Y-70510499D01*
X134102797Y-70499999D01*
X134269334Y-70444814D01*
X134418656Y-70352712D01*
X134542712Y-70228656D01*
X134634814Y-70079334D01*
X134637662Y-70070738D01*
X134677429Y-70013294D01*
X134741944Y-69986468D01*
X134810720Y-69998779D01*
X134847483Y-70027766D01*
X134847677Y-70027573D01*
X134849313Y-70029209D01*
X134850354Y-70030030D01*
X134851501Y-70031397D01*
X134851505Y-70031401D01*
X135018599Y-70198495D01*
X135061675Y-70228657D01*
X135212165Y-70334032D01*
X135212167Y-70334033D01*
X135212170Y-70334035D01*
X135426337Y-70433903D01*
X135654592Y-70495063D01*
X135831034Y-70510500D01*
X135889999Y-70515659D01*
X135890000Y-70515659D01*
X135890001Y-70515659D01*
X135948966Y-70510500D01*
X136125408Y-70495063D01*
X136353663Y-70433903D01*
X136567830Y-70334035D01*
X136761401Y-70198495D01*
X136928495Y-70031401D01*
X137058425Y-69845842D01*
X137113002Y-69802217D01*
X137182500Y-69795023D01*
X137244855Y-69826546D01*
X137261575Y-69845842D01*
X137391500Y-70031395D01*
X137391505Y-70031401D01*
X137558599Y-70198495D01*
X137601675Y-70228657D01*
X137752165Y-70334032D01*
X137752167Y-70334033D01*
X137752170Y-70334035D01*
X137966337Y-70433903D01*
X138194592Y-70495063D01*
X138371034Y-70510500D01*
X138429999Y-70515659D01*
X138430000Y-70515659D01*
X138430001Y-70515659D01*
X138488966Y-70510500D01*
X138665408Y-70495063D01*
X138893663Y-70433903D01*
X139107830Y-70334035D01*
X139301401Y-70198495D01*
X139468495Y-70031401D01*
X139598425Y-69845842D01*
X139653002Y-69802217D01*
X139722500Y-69795023D01*
X139784855Y-69826546D01*
X139801575Y-69845842D01*
X139931500Y-70031395D01*
X139931505Y-70031401D01*
X140098599Y-70198495D01*
X140141675Y-70228657D01*
X140292165Y-70334032D01*
X140292167Y-70334033D01*
X140292170Y-70334035D01*
X140506337Y-70433903D01*
X140734592Y-70495063D01*
X140911034Y-70510500D01*
X140969999Y-70515659D01*
X140970000Y-70515659D01*
X140970001Y-70515659D01*
X141028966Y-70510500D01*
X141205408Y-70495063D01*
X141433663Y-70433903D01*
X141647830Y-70334035D01*
X141841401Y-70198495D01*
X142008495Y-70031401D01*
X142138425Y-69845842D01*
X142193002Y-69802217D01*
X142262500Y-69795023D01*
X142324855Y-69826546D01*
X142341575Y-69845842D01*
X142471500Y-70031395D01*
X142471505Y-70031401D01*
X142638599Y-70198495D01*
X142681675Y-70228657D01*
X142832165Y-70334032D01*
X142832167Y-70334033D01*
X142832170Y-70334035D01*
X143046337Y-70433903D01*
X143274592Y-70495063D01*
X143451034Y-70510500D01*
X143509999Y-70515659D01*
X143510000Y-70515659D01*
X143510001Y-70515659D01*
X143568966Y-70510500D01*
X143745408Y-70495063D01*
X143973663Y-70433903D01*
X144187830Y-70334035D01*
X144381401Y-70198495D01*
X144548495Y-70031401D01*
X144678425Y-69845842D01*
X144733002Y-69802217D01*
X144802500Y-69795023D01*
X144864855Y-69826546D01*
X144881575Y-69845842D01*
X145011500Y-70031395D01*
X145011505Y-70031401D01*
X145178599Y-70198495D01*
X145221675Y-70228657D01*
X145372165Y-70334032D01*
X145372167Y-70334033D01*
X145372170Y-70334035D01*
X145586337Y-70433903D01*
X145814592Y-70495063D01*
X145991034Y-70510500D01*
X146049999Y-70515659D01*
X146050000Y-70515659D01*
X146050001Y-70515659D01*
X146108966Y-70510500D01*
X146285408Y-70495063D01*
X146513663Y-70433903D01*
X146727830Y-70334035D01*
X146921401Y-70198495D01*
X147088495Y-70031401D01*
X147218425Y-69845842D01*
X147273002Y-69802217D01*
X147342500Y-69795023D01*
X147404855Y-69826546D01*
X147421575Y-69845842D01*
X147551500Y-70031395D01*
X147551505Y-70031401D01*
X147718599Y-70198495D01*
X147761675Y-70228657D01*
X147912165Y-70334032D01*
X147912167Y-70334033D01*
X147912170Y-70334035D01*
X148126337Y-70433903D01*
X148354592Y-70495063D01*
X148531034Y-70510500D01*
X148589999Y-70515659D01*
X148590000Y-70515659D01*
X148590001Y-70515659D01*
X148648966Y-70510500D01*
X148825408Y-70495063D01*
X149053663Y-70433903D01*
X149267830Y-70334035D01*
X149461401Y-70198495D01*
X149628495Y-70031401D01*
X149758425Y-69845842D01*
X149813002Y-69802217D01*
X149882500Y-69795023D01*
X149944855Y-69826546D01*
X149961575Y-69845842D01*
X150091500Y-70031395D01*
X150091505Y-70031401D01*
X150258599Y-70198495D01*
X150301675Y-70228657D01*
X150452165Y-70334032D01*
X150452167Y-70334033D01*
X150452170Y-70334035D01*
X150666337Y-70433903D01*
X150894592Y-70495063D01*
X151071034Y-70510500D01*
X151129999Y-70515659D01*
X151130000Y-70515659D01*
X151130001Y-70515659D01*
X151188966Y-70510500D01*
X151365408Y-70495063D01*
X151593663Y-70433903D01*
X151807830Y-70334035D01*
X152001401Y-70198495D01*
X152168495Y-70031401D01*
X152298425Y-69845842D01*
X152353002Y-69802217D01*
X152422500Y-69795023D01*
X152484855Y-69826546D01*
X152501575Y-69845842D01*
X152631500Y-70031395D01*
X152631505Y-70031401D01*
X152798599Y-70198495D01*
X152841675Y-70228657D01*
X152992165Y-70334032D01*
X152992167Y-70334033D01*
X152992170Y-70334035D01*
X153206337Y-70433903D01*
X153434592Y-70495063D01*
X153611034Y-70510500D01*
X153669999Y-70515659D01*
X153670000Y-70515659D01*
X153670001Y-70515659D01*
X153728966Y-70510500D01*
X153905408Y-70495063D01*
X154133663Y-70433903D01*
X154347830Y-70334035D01*
X154541401Y-70198495D01*
X154708495Y-70031401D01*
X154838425Y-69845842D01*
X154893002Y-69802217D01*
X154962500Y-69795023D01*
X155024855Y-69826546D01*
X155041575Y-69845842D01*
X155171500Y-70031395D01*
X155171505Y-70031401D01*
X155338599Y-70198495D01*
X155381675Y-70228657D01*
X155532165Y-70334032D01*
X155532167Y-70334033D01*
X155532170Y-70334035D01*
X155746337Y-70433903D01*
X155974592Y-70495063D01*
X156151034Y-70510500D01*
X156209999Y-70515659D01*
X156210000Y-70515659D01*
X156210001Y-70515659D01*
X156268966Y-70510500D01*
X156445408Y-70495063D01*
X156673663Y-70433903D01*
X156887830Y-70334035D01*
X157081401Y-70198495D01*
X157248495Y-70031401D01*
X157384035Y-69837830D01*
X157483903Y-69623663D01*
X157545063Y-69395408D01*
X157565659Y-69160000D01*
X157545063Y-68924592D01*
X157483903Y-68696337D01*
X157384035Y-68482171D01*
X157378425Y-68474158D01*
X157248494Y-68288597D01*
X157081402Y-68121506D01*
X157081401Y-68121505D01*
X156895405Y-67991269D01*
X156851781Y-67936692D01*
X156844588Y-67867193D01*
X156876110Y-67804839D01*
X156895405Y-67788119D01*
X156971373Y-67734925D01*
X156342533Y-67106086D01*
X156352315Y-67104680D01*
X156483100Y-67044952D01*
X156591761Y-66950798D01*
X156669493Y-66829844D01*
X156693076Y-66749523D01*
X157324926Y-67381373D01*
X157383598Y-67297582D01*
X157383600Y-67297578D01*
X157483429Y-67083492D01*
X157483433Y-67083483D01*
X157544567Y-66855326D01*
X157544569Y-66855315D01*
X157565157Y-66620001D01*
X157565157Y-66619998D01*
X157544569Y-66384684D01*
X157544567Y-66384673D01*
X157483433Y-66156516D01*
X157483429Y-66156507D01*
X157383600Y-65942423D01*
X157383599Y-65942421D01*
X157324925Y-65858626D01*
X157324925Y-65858625D01*
X156693076Y-66490475D01*
X156669493Y-66410156D01*
X156591761Y-66289202D01*
X156483100Y-66195048D01*
X156352315Y-66135320D01*
X156342533Y-66133913D01*
X156971373Y-65505073D01*
X156971373Y-65505072D01*
X156887583Y-65446402D01*
X156887579Y-65446400D01*
X156673492Y-65346570D01*
X156673483Y-65346566D01*
X156445326Y-65285432D01*
X156445315Y-65285430D01*
X156210002Y-65264843D01*
X156209998Y-65264843D01*
X155974684Y-65285430D01*
X155974673Y-65285432D01*
X155746516Y-65346566D01*
X155746507Y-65346570D01*
X155532419Y-65446401D01*
X155448625Y-65505072D01*
X156077466Y-66133913D01*
X156067685Y-66135320D01*
X155936900Y-66195048D01*
X155828239Y-66289202D01*
X155750507Y-66410156D01*
X155726923Y-66490475D01*
X155095073Y-65858625D01*
X155095072Y-65858626D01*
X155041574Y-65935030D01*
X154986998Y-65978655D01*
X154917499Y-65985849D01*
X154855144Y-65954326D01*
X154838424Y-65935030D01*
X154784925Y-65858626D01*
X154784925Y-65858625D01*
X154153076Y-66490475D01*
X154129493Y-66410156D01*
X154051761Y-66289202D01*
X153943100Y-66195048D01*
X153812315Y-66135320D01*
X153802533Y-66133913D01*
X154431373Y-65505073D01*
X154431373Y-65505072D01*
X154347583Y-65446402D01*
X154347579Y-65446400D01*
X154133492Y-65346570D01*
X154133483Y-65346566D01*
X153905326Y-65285432D01*
X153905315Y-65285430D01*
X153670002Y-65264843D01*
X153669998Y-65264843D01*
X153434684Y-65285430D01*
X153434673Y-65285432D01*
X153206516Y-65346566D01*
X153206507Y-65346570D01*
X152992419Y-65446401D01*
X152908625Y-65505072D01*
X153537466Y-66133913D01*
X153527685Y-66135320D01*
X153396900Y-66195048D01*
X153288239Y-66289202D01*
X153210507Y-66410156D01*
X153186923Y-66490475D01*
X152555073Y-65858625D01*
X152555072Y-65858626D01*
X152501574Y-65935030D01*
X152446998Y-65978655D01*
X152377499Y-65985849D01*
X152315144Y-65954326D01*
X152298424Y-65935030D01*
X152244925Y-65858626D01*
X152244925Y-65858625D01*
X151613076Y-66490475D01*
X151589493Y-66410156D01*
X151511761Y-66289202D01*
X151403100Y-66195048D01*
X151272315Y-66135320D01*
X151262533Y-66133913D01*
X151891373Y-65505073D01*
X151891373Y-65505072D01*
X151807583Y-65446402D01*
X151807579Y-65446400D01*
X151593492Y-65346570D01*
X151593483Y-65346566D01*
X151365326Y-65285432D01*
X151365315Y-65285430D01*
X151130002Y-65264843D01*
X151129998Y-65264843D01*
X150894684Y-65285430D01*
X150894673Y-65285432D01*
X150666516Y-65346566D01*
X150666507Y-65346570D01*
X150452419Y-65446401D01*
X150368625Y-65505072D01*
X150997466Y-66133913D01*
X150987685Y-66135320D01*
X150856900Y-66195048D01*
X150748239Y-66289202D01*
X150670507Y-66410156D01*
X150646923Y-66490476D01*
X150015072Y-65858625D01*
X150015072Y-65858626D01*
X149961574Y-65935030D01*
X149906998Y-65978655D01*
X149837499Y-65985849D01*
X149775144Y-65954326D01*
X149758424Y-65935030D01*
X149704925Y-65858626D01*
X149704925Y-65858625D01*
X149073076Y-66490475D01*
X149049493Y-66410156D01*
X148971761Y-66289202D01*
X148863100Y-66195048D01*
X148732315Y-66135320D01*
X148722533Y-66133913D01*
X149351373Y-65505073D01*
X149351373Y-65505072D01*
X149267583Y-65446402D01*
X149267579Y-65446400D01*
X149053492Y-65346570D01*
X149053483Y-65346566D01*
X148825326Y-65285432D01*
X148825315Y-65285430D01*
X148590002Y-65264843D01*
X148589998Y-65264843D01*
X148354684Y-65285430D01*
X148354673Y-65285432D01*
X148126516Y-65346566D01*
X148126507Y-65346570D01*
X147912419Y-65446401D01*
X147828625Y-65505072D01*
X148457466Y-66133913D01*
X148447685Y-66135320D01*
X148316900Y-66195048D01*
X148208239Y-66289202D01*
X148130507Y-66410156D01*
X148106923Y-66490475D01*
X147475073Y-65858625D01*
X147475072Y-65858626D01*
X147421574Y-65935030D01*
X147366998Y-65978655D01*
X147297499Y-65985849D01*
X147235144Y-65954326D01*
X147218424Y-65935030D01*
X147164925Y-65858626D01*
X147164925Y-65858625D01*
X146533076Y-66490475D01*
X146509493Y-66410156D01*
X146431761Y-66289202D01*
X146323100Y-66195048D01*
X146192315Y-66135320D01*
X146182533Y-66133913D01*
X146811373Y-65505073D01*
X146811373Y-65505072D01*
X146727583Y-65446402D01*
X146727579Y-65446400D01*
X146513492Y-65346570D01*
X146513483Y-65346566D01*
X146285326Y-65285432D01*
X146285315Y-65285430D01*
X146050002Y-65264843D01*
X146049998Y-65264843D01*
X145814684Y-65285430D01*
X145814673Y-65285432D01*
X145586516Y-65346566D01*
X145586507Y-65346570D01*
X145372419Y-65446401D01*
X145288625Y-65505072D01*
X145917466Y-66133913D01*
X145907685Y-66135320D01*
X145776900Y-66195048D01*
X145668239Y-66289202D01*
X145590507Y-66410156D01*
X145566923Y-66490476D01*
X144935072Y-65858625D01*
X144935072Y-65858626D01*
X144881574Y-65935030D01*
X144826998Y-65978655D01*
X144757499Y-65985849D01*
X144695144Y-65954326D01*
X144678424Y-65935030D01*
X144624925Y-65858626D01*
X144624925Y-65858625D01*
X143993076Y-66490475D01*
X143969493Y-66410156D01*
X143891761Y-66289202D01*
X143783100Y-66195048D01*
X143652315Y-66135320D01*
X143642533Y-66133913D01*
X144271373Y-65505073D01*
X144271373Y-65505072D01*
X144187583Y-65446402D01*
X144187579Y-65446400D01*
X143973492Y-65346570D01*
X143973483Y-65346566D01*
X143745326Y-65285432D01*
X143745315Y-65285430D01*
X143510002Y-65264843D01*
X143509998Y-65264843D01*
X143274684Y-65285430D01*
X143274673Y-65285432D01*
X143046516Y-65346566D01*
X143046507Y-65346570D01*
X142832419Y-65446401D01*
X142748625Y-65505072D01*
X143377466Y-66133913D01*
X143367685Y-66135320D01*
X143236900Y-66195048D01*
X143128239Y-66289202D01*
X143050507Y-66410156D01*
X143026923Y-66490476D01*
X142395072Y-65858625D01*
X142395072Y-65858626D01*
X142341574Y-65935030D01*
X142286998Y-65978655D01*
X142217499Y-65985849D01*
X142155144Y-65954326D01*
X142138424Y-65935030D01*
X142084925Y-65858626D01*
X142084925Y-65858625D01*
X141453076Y-66490475D01*
X141429493Y-66410156D01*
X141351761Y-66289202D01*
X141243100Y-66195048D01*
X141112315Y-66135320D01*
X141102533Y-66133913D01*
X141731373Y-65505073D01*
X141731373Y-65505072D01*
X141647583Y-65446402D01*
X141647579Y-65446400D01*
X141433492Y-65346570D01*
X141433483Y-65346566D01*
X141205326Y-65285432D01*
X141205315Y-65285430D01*
X140970002Y-65264843D01*
X140969998Y-65264843D01*
X140734684Y-65285430D01*
X140734673Y-65285432D01*
X140506516Y-65346566D01*
X140506507Y-65346570D01*
X140292419Y-65446401D01*
X140208625Y-65505072D01*
X140837466Y-66133913D01*
X140827685Y-66135320D01*
X140696900Y-66195048D01*
X140588239Y-66289202D01*
X140510507Y-66410156D01*
X140486923Y-66490476D01*
X139855072Y-65858625D01*
X139855072Y-65858626D01*
X139801574Y-65935030D01*
X139746998Y-65978655D01*
X139677499Y-65985849D01*
X139615144Y-65954326D01*
X139598424Y-65935030D01*
X139544925Y-65858626D01*
X139544925Y-65858625D01*
X138913076Y-66490475D01*
X138889493Y-66410156D01*
X138811761Y-66289202D01*
X138703100Y-66195048D01*
X138572315Y-66135320D01*
X138562533Y-66133913D01*
X139191373Y-65505073D01*
X139191373Y-65505072D01*
X139107583Y-65446402D01*
X139107579Y-65446400D01*
X138893492Y-65346570D01*
X138893483Y-65346566D01*
X138665326Y-65285432D01*
X138665315Y-65285430D01*
X138430002Y-65264843D01*
X138429998Y-65264843D01*
X138194684Y-65285430D01*
X138194673Y-65285432D01*
X137966516Y-65346566D01*
X137966507Y-65346570D01*
X137752419Y-65446401D01*
X137668625Y-65505072D01*
X138297466Y-66133913D01*
X138287685Y-66135320D01*
X138156900Y-66195048D01*
X138048239Y-66289202D01*
X137970507Y-66410156D01*
X137946923Y-66490476D01*
X137315072Y-65858625D01*
X137315072Y-65858626D01*
X137261574Y-65935030D01*
X137206998Y-65978655D01*
X137137499Y-65985849D01*
X137075144Y-65954326D01*
X137058424Y-65935030D01*
X137004925Y-65858626D01*
X137004925Y-65858625D01*
X136373076Y-66490475D01*
X136349493Y-66410156D01*
X136271761Y-66289202D01*
X136163100Y-66195048D01*
X136032315Y-66135320D01*
X136022533Y-66133913D01*
X136651373Y-65505073D01*
X136651373Y-65505072D01*
X136567583Y-65446402D01*
X136567579Y-65446400D01*
X136353492Y-65346570D01*
X136353483Y-65346566D01*
X136125326Y-65285432D01*
X136125315Y-65285430D01*
X135890002Y-65264843D01*
X135889998Y-65264843D01*
X135654684Y-65285430D01*
X135654673Y-65285432D01*
X135426516Y-65346566D01*
X135426507Y-65346570D01*
X135212419Y-65446401D01*
X135128625Y-65505072D01*
X135757466Y-66133913D01*
X135747685Y-66135320D01*
X135616900Y-66195048D01*
X135508239Y-66289202D01*
X135430507Y-66410156D01*
X135406923Y-66490476D01*
X134775073Y-65858626D01*
X134721881Y-65934594D01*
X134667304Y-65978219D01*
X134597806Y-65985413D01*
X134535451Y-65953891D01*
X134518730Y-65934594D01*
X134388494Y-65748597D01*
X134221402Y-65581506D01*
X134221395Y-65581501D01*
X134027834Y-65445967D01*
X134027830Y-65445965D01*
X134027828Y-65445964D01*
X133813663Y-65346097D01*
X133813659Y-65346096D01*
X133813655Y-65346094D01*
X133585413Y-65284938D01*
X133585403Y-65284936D01*
X133350001Y-65264341D01*
X133349999Y-65264341D01*
X133114596Y-65284936D01*
X133114586Y-65284938D01*
X132886344Y-65346094D01*
X132886335Y-65346098D01*
X132672171Y-65445964D01*
X132672169Y-65445965D01*
X132478597Y-65581505D01*
X132311505Y-65748597D01*
X132175965Y-65942169D01*
X132175964Y-65942171D01*
X132076098Y-66156335D01*
X132076094Y-66156344D01*
X132014938Y-66384586D01*
X132014936Y-66384596D01*
X131994341Y-66619999D01*
X131994341Y-66620000D01*
X125730500Y-66620000D01*
X125730500Y-60270000D01*
X126015172Y-60270000D01*
X126034462Y-60564312D01*
X126034464Y-60564324D01*
X126092001Y-60853584D01*
X126092005Y-60853599D01*
X126186812Y-61132888D01*
X126317258Y-61397406D01*
X126317265Y-61397419D01*
X126481122Y-61642648D01*
X126510406Y-61676039D01*
X127334210Y-60852235D01*
X127434894Y-60993624D01*
X127586932Y-61138592D01*
X127689222Y-61204329D01*
X126863959Y-62029592D01*
X126863959Y-62029593D01*
X126897344Y-62058872D01*
X126897348Y-62058875D01*
X127142580Y-62222734D01*
X127142593Y-62222741D01*
X127407111Y-62353187D01*
X127686400Y-62447994D01*
X127686415Y-62447998D01*
X127975675Y-62505535D01*
X127975687Y-62505537D01*
X128270000Y-62524827D01*
X128564312Y-62505537D01*
X128564324Y-62505535D01*
X128853584Y-62447998D01*
X128853599Y-62447994D01*
X129132888Y-62353187D01*
X129397406Y-62222741D01*
X129397419Y-62222734D01*
X129642650Y-62058877D01*
X129676039Y-62029593D01*
X129676040Y-62029592D01*
X128853306Y-61206859D01*
X128867410Y-61199589D01*
X129032540Y-61069729D01*
X129170110Y-60910965D01*
X129204665Y-60851113D01*
X130029592Y-61676040D01*
X130029593Y-61676039D01*
X130058877Y-61642650D01*
X130222734Y-61397419D01*
X130222741Y-61397406D01*
X130353187Y-61132888D01*
X130447994Y-60853599D01*
X130447998Y-60853584D01*
X130505535Y-60564324D01*
X130505537Y-60564312D01*
X130524827Y-60270000D01*
X160305172Y-60270000D01*
X160324462Y-60564312D01*
X160324464Y-60564324D01*
X160382001Y-60853584D01*
X160382005Y-60853599D01*
X160476812Y-61132888D01*
X160607258Y-61397406D01*
X160607265Y-61397419D01*
X160771122Y-61642648D01*
X160800406Y-61676039D01*
X161624210Y-60852235D01*
X161724894Y-60993624D01*
X161876932Y-61138592D01*
X161979222Y-61204329D01*
X161153959Y-62029592D01*
X161153959Y-62029593D01*
X161187344Y-62058872D01*
X161187348Y-62058875D01*
X161432580Y-62222734D01*
X161432593Y-62222741D01*
X161697111Y-62353187D01*
X161976400Y-62447994D01*
X161976415Y-62447998D01*
X162265675Y-62505535D01*
X162265687Y-62505537D01*
X162560000Y-62524827D01*
X162854312Y-62505537D01*
X162854324Y-62505535D01*
X163143584Y-62447998D01*
X163143599Y-62447994D01*
X163422888Y-62353187D01*
X163687406Y-62222741D01*
X163687419Y-62222734D01*
X163932650Y-62058877D01*
X163966039Y-62029593D01*
X163966040Y-62029592D01*
X163143306Y-61206859D01*
X163157410Y-61199589D01*
X163322540Y-61069729D01*
X163460110Y-60910965D01*
X163494665Y-60851112D01*
X164319592Y-61676040D01*
X164319593Y-61676039D01*
X164348877Y-61642650D01*
X164512734Y-61397419D01*
X164512741Y-61397406D01*
X164643187Y-61132888D01*
X164737994Y-60853599D01*
X164737998Y-60853584D01*
X164795535Y-60564324D01*
X164795537Y-60564312D01*
X164814827Y-60270000D01*
X164795537Y-59975687D01*
X164795535Y-59975675D01*
X164737998Y-59686415D01*
X164737994Y-59686400D01*
X164643187Y-59407111D01*
X164512741Y-59142593D01*
X164512734Y-59142580D01*
X164348875Y-58897348D01*
X164348872Y-58897344D01*
X164319593Y-58863959D01*
X164319592Y-58863959D01*
X163495788Y-59687763D01*
X163395106Y-59546376D01*
X163243068Y-59401408D01*
X163140777Y-59335669D01*
X163966039Y-58510406D01*
X163932648Y-58481122D01*
X163687419Y-58317265D01*
X163687406Y-58317258D01*
X163422888Y-58186812D01*
X163143599Y-58092005D01*
X163143584Y-58092001D01*
X162854324Y-58034464D01*
X162854312Y-58034462D01*
X162560000Y-58015172D01*
X162265687Y-58034462D01*
X162265675Y-58034464D01*
X161976415Y-58092001D01*
X161976400Y-58092005D01*
X161697111Y-58186812D01*
X161432593Y-58317258D01*
X161432580Y-58317265D01*
X161187350Y-58481123D01*
X161153958Y-58510406D01*
X161976693Y-59333140D01*
X161962590Y-59340411D01*
X161797460Y-59470271D01*
X161659890Y-59629035D01*
X161625334Y-59688886D01*
X160800406Y-58863958D01*
X160771123Y-58897350D01*
X160607265Y-59142580D01*
X160607258Y-59142593D01*
X160476812Y-59407111D01*
X160382005Y-59686400D01*
X160382001Y-59686415D01*
X160324464Y-59975675D01*
X160324462Y-59975687D01*
X160305172Y-60270000D01*
X130524827Y-60270000D01*
X130505537Y-59975687D01*
X130505535Y-59975675D01*
X130447998Y-59686415D01*
X130447994Y-59686400D01*
X130353187Y-59407111D01*
X130222741Y-59142593D01*
X130222734Y-59142580D01*
X130058875Y-58897348D01*
X130058872Y-58897344D01*
X130029593Y-58863959D01*
X130029592Y-58863959D01*
X129205788Y-59687763D01*
X129105106Y-59546376D01*
X128953068Y-59401408D01*
X128850777Y-59335669D01*
X129676039Y-58510406D01*
X129642648Y-58481122D01*
X129397419Y-58317265D01*
X129397406Y-58317258D01*
X129132888Y-58186812D01*
X128853599Y-58092005D01*
X128853584Y-58092001D01*
X128564324Y-58034464D01*
X128564312Y-58034462D01*
X128270000Y-58015172D01*
X127975687Y-58034462D01*
X127975675Y-58034464D01*
X127686415Y-58092001D01*
X127686400Y-58092005D01*
X127407111Y-58186812D01*
X127142593Y-58317258D01*
X127142580Y-58317265D01*
X126897350Y-58481123D01*
X126863958Y-58510406D01*
X127686693Y-59333140D01*
X127672590Y-59340411D01*
X127507460Y-59470271D01*
X127369890Y-59629035D01*
X127335334Y-59688886D01*
X126510406Y-58863958D01*
X126481123Y-58897350D01*
X126317265Y-59142580D01*
X126317258Y-59142593D01*
X126186812Y-59407111D01*
X126092005Y-59686400D01*
X126092001Y-59686415D01*
X126034464Y-59975675D01*
X126034462Y-59975687D01*
X126015172Y-60270000D01*
X125730500Y-60270000D01*
X125730500Y-59732035D01*
X125730633Y-59727980D01*
X125732393Y-59701103D01*
X125735989Y-59646244D01*
X125748986Y-59464536D01*
X125750014Y-59456903D01*
X125773153Y-59340579D01*
X125774118Y-59336141D01*
X125804533Y-59196323D01*
X125806392Y-59189625D01*
X125846815Y-59070543D01*
X125896159Y-58938251D01*
X125898633Y-58932520D01*
X125955583Y-58817036D01*
X126022179Y-58695076D01*
X126025019Y-58690384D01*
X126096563Y-58583311D01*
X126098428Y-58580676D01*
X126180291Y-58471321D01*
X126183244Y-58467678D01*
X126268503Y-58370459D01*
X126271198Y-58367581D01*
X126367581Y-58271198D01*
X126370459Y-58268503D01*
X126467678Y-58183244D01*
X126471321Y-58180291D01*
X126580676Y-58098428D01*
X126583311Y-58096563D01*
X126690384Y-58025019D01*
X126695076Y-58022179D01*
X126817036Y-57955583D01*
X126932520Y-57898633D01*
X126938251Y-57896159D01*
X127070543Y-57846815D01*
X127189625Y-57806392D01*
X127196323Y-57804533D01*
X127340579Y-57773153D01*
X127346728Y-57771929D01*
X127456903Y-57750014D01*
X127464536Y-57748986D01*
X127646244Y-57735989D01*
X127699211Y-57732517D01*
X127727981Y-57730633D01*
X127732036Y-57730500D01*
X163097964Y-57730500D01*
X163102019Y-57730633D01*
G37*
%TD.AperFunction*%
%TD*%
M02*
