%TF.GenerationSoftware,KiCad,Pcbnew,7.0.7*%
%TF.CreationDate,2023-09-14T15:29:13+09:00*%
%TF.ProjectId,STM32F103_dev_board,53544d33-3246-4313-9033-5f6465765f62,1.0*%
%TF.SameCoordinates,Original*%
%TF.FileFunction,Copper,L1,Top*%
%TF.FilePolarity,Positive*%
%FSLAX46Y46*%
G04 Gerber Fmt 4.6, Leading zero omitted, Abs format (unit mm)*
G04 Created by KiCad (PCBNEW 7.0.7) date 2023-09-14 15:29:13*
%MOMM*%
%LPD*%
G01*
G04 APERTURE LIST*
G04 Aperture macros list*
%AMRoundRect*
0 Rectangle with rounded corners*
0 $1 Rounding radius*
0 $2 $3 $4 $5 $6 $7 $8 $9 X,Y pos of 4 corners*
0 Add a 4 corners polygon primitive as box body*
4,1,4,$2,$3,$4,$5,$6,$7,$8,$9,$2,$3,0*
0 Add four circle primitives for the rounded corners*
1,1,$1+$1,$2,$3*
1,1,$1+$1,$4,$5*
1,1,$1+$1,$6,$7*
1,1,$1+$1,$8,$9*
0 Add four rect primitives between the rounded corners*
20,1,$1+$1,$2,$3,$4,$5,0*
20,1,$1+$1,$4,$5,$6,$7,0*
20,1,$1+$1,$6,$7,$8,$9,0*
20,1,$1+$1,$8,$9,$2,$3,0*%
G04 Aperture macros list end*
%TA.AperFunction,SMDPad,CuDef*%
%ADD10R,0.600000X1.200000*%
%TD*%
%TA.AperFunction,SMDPad,CuDef*%
%ADD11R,0.300000X0.700000*%
%TD*%
%TA.AperFunction,SMDPad,CuDef*%
%ADD12R,1.000000X0.700000*%
%TD*%
%TA.AperFunction,ComponentPad*%
%ADD13O,1.100000X2.600000*%
%TD*%
%TA.AperFunction,ComponentPad*%
%ADD14O,1.100000X2.100000*%
%TD*%
%TA.AperFunction,SMDPad,CuDef*%
%ADD15RoundRect,0.100000X0.130000X0.100000X-0.130000X0.100000X-0.130000X-0.100000X0.130000X-0.100000X0*%
%TD*%
%TA.AperFunction,SMDPad,CuDef*%
%ADD16RoundRect,0.100000X-0.100000X0.130000X-0.100000X-0.130000X0.100000X-0.130000X0.100000X0.130000X0*%
%TD*%
%TA.AperFunction,SMDPad,CuDef*%
%ADD17R,1.700000X0.800000*%
%TD*%
%TA.AperFunction,SMDPad,CuDef*%
%ADD18RoundRect,0.100000X-0.130000X-0.100000X0.130000X-0.100000X0.130000X0.100000X-0.130000X0.100000X0*%
%TD*%
%TA.AperFunction,ComponentPad*%
%ADD19C,3.500000*%
%TD*%
%TA.AperFunction,ComponentPad*%
%ADD20R,1.700000X1.700000*%
%TD*%
%TA.AperFunction,ComponentPad*%
%ADD21O,1.700000X1.700000*%
%TD*%
%TA.AperFunction,SMDPad,CuDef*%
%ADD22RoundRect,0.075000X-0.700000X-0.075000X0.700000X-0.075000X0.700000X0.075000X-0.700000X0.075000X0*%
%TD*%
%TA.AperFunction,SMDPad,CuDef*%
%ADD23RoundRect,0.075000X-0.075000X-0.700000X0.075000X-0.700000X0.075000X0.700000X-0.075000X0.700000X0*%
%TD*%
%TA.AperFunction,ComponentPad*%
%ADD24RoundRect,0.250000X0.600000X-0.600000X0.600000X0.600000X-0.600000X0.600000X-0.600000X-0.600000X0*%
%TD*%
%TA.AperFunction,ComponentPad*%
%ADD25C,1.700000*%
%TD*%
%TA.AperFunction,ComponentPad*%
%ADD26C,1.500000*%
%TD*%
%TA.AperFunction,ViaPad*%
%ADD27C,0.300000*%
%TD*%
%TA.AperFunction,ViaPad*%
%ADD28C,0.800000*%
%TD*%
%TA.AperFunction,Conductor*%
%ADD29C,0.250000*%
%TD*%
%TA.AperFunction,Conductor*%
%ADD30C,0.000000*%
%TD*%
G04 APERTURE END LIST*
D10*
%TO.P,IC1,1,IN*%
%TO.N,/5V*%
X152405000Y-127341000D03*
%TO.P,IC1,2,GND*%
%TO.N,/GND*%
X153355000Y-127341000D03*
%TO.P,IC1,3,EN*%
%TO.N,/5V*%
X154305000Y-127341000D03*
%TO.P,IC1,4,NC*%
%TO.N,unconnected-(IC1-NC-Pad4)*%
X154305000Y-124841000D03*
%TO.P,IC1,5,OUT*%
%TO.N,/RESET*%
X152405000Y-124841000D03*
%TD*%
D11*
%TO.P,J5,A1,GND*%
%TO.N,/GND*%
X142542000Y-133929000D03*
%TO.P,J5,A2,TX1+*%
%TO.N,unconnected-(J5-TX1+-PadA2)*%
X143042000Y-133929000D03*
%TO.P,J5,A3,TX1-*%
%TO.N,unconnected-(J5-TX1--PadA3)*%
X143542000Y-133929000D03*
%TO.P,J5,A4,VBUS*%
%TO.N,/5V*%
X144042000Y-133929000D03*
%TO.P,J5,A5,CC1*%
%TO.N,Net-(J5-CC1)*%
X144542000Y-133929000D03*
%TO.P,J5,A6,D+*%
%TO.N,Net-(J5-D+-PadA6)*%
X145042000Y-133929000D03*
%TO.P,J5,A7,D-*%
%TO.N,Net-(J5-D--PadA7)*%
X146042000Y-133929000D03*
%TO.P,J5,A8,SBU1*%
%TO.N,unconnected-(J5-SBU1-PadA8)*%
X146542000Y-133929000D03*
%TO.P,J5,A9,VBUS*%
%TO.N,/5V*%
X147042000Y-133929000D03*
%TO.P,J5,A10,RX2-*%
%TO.N,unconnected-(J5-RX2--PadA10)*%
X147542000Y-133929000D03*
%TO.P,J5,A11,RX2+*%
%TO.N,unconnected-(J5-RX2+-PadA11)*%
X148042000Y-133929000D03*
%TO.P,J5,A12,GND*%
%TO.N,/GND*%
X148542000Y-133929000D03*
D12*
%TO.P,J5,B1,GND*%
X148642000Y-135229000D03*
D11*
%TO.P,J5,B2,TX2+*%
%TO.N,unconnected-(J5-TX2+-PadB2)*%
X147792000Y-135229000D03*
%TO.P,J5,B3,TX2-*%
%TO.N,unconnected-(J5-TX2--PadB3)*%
X147292000Y-135229000D03*
%TO.P,J5,B4,VBUS*%
%TO.N,/5V*%
X146792000Y-135229000D03*
%TO.P,J5,B5,CC2*%
%TO.N,Net-(J5-CC2)*%
X146292000Y-135229000D03*
%TO.P,J5,B6,D+*%
%TO.N,Net-(J5-D+-PadA6)*%
X145792000Y-135229000D03*
%TO.P,J5,B7,D-*%
%TO.N,Net-(J5-D--PadA7)*%
X145292000Y-135229000D03*
%TO.P,J5,B8,SBU2*%
%TO.N,unconnected-(J5-SBU2-PadB8)*%
X144792000Y-135229000D03*
%TO.P,J5,B9,VBUS*%
%TO.N,/5V*%
X144292000Y-135229000D03*
%TO.P,J5,B10,RX1-*%
%TO.N,unconnected-(J5-RX1--PadB10)*%
X143792000Y-135229000D03*
%TO.P,J5,B11,RX1+*%
%TO.N,unconnected-(J5-RX1+-PadB11)*%
X143292000Y-135229000D03*
D12*
%TO.P,J5,B12,GND*%
%TO.N,/GND*%
X142442000Y-135229000D03*
D13*
%TO.P,J5,S1,SHIELD*%
X141222000Y-139699000D03*
X149862000Y-139699000D03*
D14*
X141222000Y-134339000D03*
X149862000Y-134339000D03*
%TD*%
D15*
%TO.P,C4,1*%
%TO.N,/GND*%
X153040000Y-130120000D03*
%TO.P,C4,2*%
%TO.N,/5V*%
X152400000Y-130120000D03*
%TD*%
D16*
%TO.P,R6,1*%
%TO.N,/GND*%
X151130000Y-121920000D03*
%TO.P,R6,2*%
%TO.N,Net-(D1-K)*%
X151130000Y-122560000D03*
%TD*%
%TO.P,R7,1*%
%TO.N,/USBDM*%
X147320000Y-126915000D03*
%TO.P,R7,2*%
%TO.N,Net-(J5-D--PadA7)*%
X147320000Y-127555000D03*
%TD*%
D17*
%TO.P,S1,1*%
%TO.N,/GND*%
X134620000Y-132920000D03*
%TO.P,S1,2*%
%TO.N,/RESET*%
X134620000Y-136320000D03*
%TD*%
D18*
%TO.P,R2,1*%
%TO.N,Net-(J5-CC2)*%
X149195000Y-128850000D03*
%TO.P,R2,2*%
%TO.N,/GND*%
X149835000Y-128850000D03*
%TD*%
D15*
%TO.P,C3,1*%
%TO.N,/GND*%
X151770000Y-85670000D03*
%TO.P,C3,2*%
%TO.N,/OSC_OUT*%
X151130000Y-85670000D03*
%TD*%
D16*
%TO.P,R12,1*%
%TO.N,/GND*%
X149908867Y-121933198D03*
%TO.P,R12,2*%
%TO.N,Net-(D2-K)*%
X149908867Y-122573198D03*
%TD*%
%TO.P,R8,1*%
%TO.N,/USBDP*%
X146050000Y-126915000D03*
%TO.P,R8,2*%
%TO.N,Net-(J5-D+-PadA6)*%
X146050000Y-127555000D03*
%TD*%
%TO.P,D1,1,K*%
%TO.N,Net-(D1-K)*%
X151130000Y-124460000D03*
%TO.P,D1,2,A*%
%TO.N,/RESET*%
X151130000Y-125100000D03*
%TD*%
D19*
%TO.P,REF\u002A\u002A,1*%
%TO.N,/GND*%
X162560000Y-60270000D03*
%TD*%
D15*
%TO.P,R5,1*%
%TO.N,/BOOT1*%
X142915000Y-126310000D03*
%TO.P,R5,2*%
%TO.N,Net-(J4-Pin_4)*%
X142275000Y-126310000D03*
%TD*%
D18*
%TO.P,C10,1*%
%TO.N,/RESET*%
X137765000Y-119380000D03*
%TO.P,C10,2*%
%TO.N,/GND*%
X138405000Y-119380000D03*
%TD*%
D19*
%TO.P,REF\u002A\u002A,1*%
%TO.N,/GND*%
X128285913Y-139053348D03*
%TD*%
%TO.P,REF\u002A\u002A,1*%
%TO.N,/GND*%
X128270000Y-60270000D03*
%TD*%
D16*
%TO.P,D2,1,K*%
%TO.N,Net-(D2-K)*%
X149908845Y-124469661D03*
%TO.P,D2,2,A*%
%TO.N,/PA4*%
X149908845Y-125109661D03*
%TD*%
D20*
%TO.P,J4,1,Pin_1*%
%TO.N,/RESET*%
X137155000Y-123785000D03*
D21*
%TO.P,J4,2,Pin_2*%
X139695000Y-123785000D03*
%TO.P,J4,3,Pin_3*%
%TO.N,Net-(J4-Pin_3)*%
X137155000Y-126325000D03*
%TO.P,J4,4,Pin_4*%
%TO.N,Net-(J4-Pin_4)*%
X139695000Y-126325000D03*
%TO.P,J4,5,Pin_5*%
%TO.N,/GND*%
X137155000Y-128865000D03*
%TO.P,J4,6,Pin_6*%
X139695000Y-128865000D03*
%TD*%
D15*
%TO.P,R4,1*%
%TO.N,Net-(J4-Pin_3)*%
X134015000Y-126310000D03*
%TO.P,R4,2*%
%TO.N,/BOOT0*%
X133375000Y-126310000D03*
%TD*%
D22*
%TO.P,U1,1,VBAT*%
%TO.N,/VBAT*%
X139780000Y-109920000D03*
%TO.P,U1,2,PC13*%
%TO.N,/PC13*%
X139780000Y-110420000D03*
%TO.P,U1,3,PC14*%
%TO.N,/OSC32_IN*%
X139780000Y-110920000D03*
%TO.P,U1,4,PC15*%
%TO.N,/OSC32_OUT*%
X139780000Y-111420000D03*
%TO.P,U1,5,PD0*%
%TO.N,/OSC_IN*%
X139780000Y-111920000D03*
%TO.P,U1,6,PD1*%
%TO.N,/OSC_OUT*%
X139780000Y-112420000D03*
%TO.P,U1,7,NRST*%
%TO.N,/RESET*%
X139780000Y-112920000D03*
%TO.P,U1,8,PC0*%
%TO.N,/PC0*%
X139780000Y-113420000D03*
%TO.P,U1,9,PC1*%
%TO.N,/PC1*%
X139780000Y-113920000D03*
%TO.P,U1,10,PC2*%
%TO.N,/PC2*%
X139780000Y-114420000D03*
%TO.P,U1,11,PC3*%
%TO.N,/PC3*%
X139780000Y-114920000D03*
%TO.P,U1,12,VSSA*%
%TO.N,/GND*%
X139780000Y-115420000D03*
%TO.P,U1,13,VDDA*%
%TO.N,/RESET*%
X139780000Y-115920000D03*
%TO.P,U1,14,PA0*%
%TO.N,/PA0*%
X139780000Y-116420000D03*
%TO.P,U1,15,PA1*%
%TO.N,/PA1*%
X139780000Y-116920000D03*
%TO.P,U1,16,PA2*%
%TO.N,/PA2*%
X139780000Y-117420000D03*
D23*
%TO.P,U1,17,PA3*%
%TO.N,/PA3*%
X141705000Y-119345000D03*
%TO.P,U1,18,VSS*%
%TO.N,/GND*%
X142205000Y-119345000D03*
%TO.P,U1,19,VDD*%
%TO.N,/RESET*%
X142705000Y-119345000D03*
%TO.P,U1,20,PA4*%
%TO.N,/PA4*%
X143205000Y-119345000D03*
%TO.P,U1,21,PA5*%
%TO.N,/PA5*%
X143705000Y-119345000D03*
%TO.P,U1,22,PA6*%
%TO.N,/PA6*%
X144205000Y-119345000D03*
%TO.P,U1,23,PA7*%
%TO.N,/PA7*%
X144705000Y-119345000D03*
%TO.P,U1,24,PC4*%
%TO.N,/PC4*%
X145205000Y-119345000D03*
%TO.P,U1,25,PC5*%
%TO.N,/PC5*%
X145705000Y-119345000D03*
%TO.P,U1,26,PB0*%
%TO.N,/PB0*%
X146205000Y-119345000D03*
%TO.P,U1,27,PB1*%
%TO.N,/PB1*%
X146705000Y-119345000D03*
%TO.P,U1,28,PB2*%
%TO.N,/BOOT1*%
X147205000Y-119345000D03*
%TO.P,U1,29,PB10*%
%TO.N,/PB10*%
X147705000Y-119345000D03*
%TO.P,U1,30,PB11*%
%TO.N,/PB11*%
X148205000Y-119345000D03*
%TO.P,U1,31,VSS*%
%TO.N,/GND*%
X148705000Y-119345000D03*
%TO.P,U1,32,VDD*%
%TO.N,/RESET*%
X149205000Y-119345000D03*
D22*
%TO.P,U1,33,PB12*%
%TO.N,/PB12*%
X151130000Y-117420000D03*
%TO.P,U1,34,PB13*%
%TO.N,/PB13*%
X151130000Y-116920000D03*
%TO.P,U1,35,PB14*%
%TO.N,/PB14*%
X151130000Y-116420000D03*
%TO.P,U1,36,PB15*%
%TO.N,/PB15*%
X151130000Y-115920000D03*
%TO.P,U1,37,PC6*%
%TO.N,/PC6*%
X151130000Y-115420000D03*
%TO.P,U1,38,PC7*%
%TO.N,/PC7*%
X151130000Y-114920000D03*
%TO.P,U1,39,PC8*%
%TO.N,/PC8*%
X151130000Y-114420000D03*
%TO.P,U1,40,PC9*%
%TO.N,/PC9*%
X151130000Y-113920000D03*
%TO.P,U1,41,PA8*%
%TO.N,/PA8*%
X151130000Y-113420000D03*
%TO.P,U1,42,PA9*%
%TO.N,/PA9{slash}USART1_TX*%
X151130000Y-112920000D03*
%TO.P,U1,43,PA10*%
%TO.N,/PA10{slash}USART1_RX*%
X151130000Y-112420000D03*
%TO.P,U1,44,PA11*%
%TO.N,/PA11*%
X151130000Y-111920000D03*
%TO.P,U1,45,PA12*%
%TO.N,/PA12*%
X151130000Y-111420000D03*
%TO.P,U1,46,PA13*%
%TO.N,/JTMS{slash}SWDIO*%
X151130000Y-110920000D03*
%TO.P,U1,47,VSS*%
%TO.N,/GND*%
X151130000Y-110420000D03*
%TO.P,U1,48,VDD*%
%TO.N,/RESET*%
X151130000Y-109920000D03*
D23*
%TO.P,U1,49,PA14*%
%TO.N,/JTCK{slash}SWCLK*%
X149205000Y-107995000D03*
%TO.P,U1,50,PA15*%
%TO.N,/JTDI*%
X148705000Y-107995000D03*
%TO.P,U1,51,PC10*%
%TO.N,/PC10*%
X148205000Y-107995000D03*
%TO.P,U1,52,PC11*%
%TO.N,/PC11*%
X147705000Y-107995000D03*
%TO.P,U1,53,PC12*%
%TO.N,/PC12*%
X147205000Y-107995000D03*
%TO.P,U1,54,PD2*%
%TO.N,unconnected-(U1-PD2-Pad54)*%
X146705000Y-107995000D03*
%TO.P,U1,55,PB3*%
%TO.N,/JTDO*%
X146205000Y-107995000D03*
%TO.P,U1,56,PB4*%
%TO.N,/JNTRST*%
X145705000Y-107995000D03*
%TO.P,U1,57,PB5*%
%TO.N,/PB5*%
X145205000Y-107995000D03*
%TO.P,U1,58,PB6*%
%TO.N,/PB6*%
X144705000Y-107995000D03*
%TO.P,U1,59,PB7*%
%TO.N,/PB7*%
X144205000Y-107995000D03*
%TO.P,U1,60,BOOT0*%
%TO.N,/BOOT0*%
X143705000Y-107995000D03*
%TO.P,U1,61,PB8*%
%TO.N,/PB8*%
X143205000Y-107995000D03*
%TO.P,U1,62,PB9*%
%TO.N,/PB9*%
X142705000Y-107995000D03*
%TO.P,U1,63,VSS*%
%TO.N,/GND*%
X142205000Y-107995000D03*
%TO.P,U1,64,VDD*%
%TO.N,/RESET*%
X141705000Y-107995000D03*
%TD*%
D24*
%TO.P,J1,1,VTREF*%
%TO.N,/RESET*%
X133350000Y-69160000D03*
D25*
%TO.P,J1,2,VCC/NC*%
X133350000Y-66620000D03*
%TO.P,J1,3,~{TRST}*%
%TO.N,/JNTRST*%
X135890000Y-69160000D03*
%TO.P,J1,4,GND*%
%TO.N,/GND*%
X135890000Y-66620000D03*
%TO.P,J1,5,TDI*%
%TO.N,/JTDI*%
X138430000Y-69160000D03*
%TO.P,J1,6,GND*%
%TO.N,/GND*%
X138430000Y-66620000D03*
%TO.P,J1,7,TMS/SWDIO*%
%TO.N,/JTMS{slash}SWDIO*%
X140970000Y-69160000D03*
%TO.P,J1,8,GND*%
%TO.N,/GND*%
X140970000Y-66620000D03*
%TO.P,J1,9,TCK/SWDCLK*%
%TO.N,/JTCK{slash}SWCLK*%
X143510000Y-69160000D03*
%TO.P,J1,10,GND*%
%TO.N,/GND*%
X143510000Y-66620000D03*
%TO.P,J1,11,RTCK*%
%TO.N,Net-(J1-RTCK)*%
X146050000Y-69160000D03*
%TO.P,J1,12,GND*%
%TO.N,/GND*%
X146050000Y-66620000D03*
%TO.P,J1,13,TDO/SWO*%
%TO.N,/JTDO*%
X148590000Y-69160000D03*
%TO.P,J1,14,GND*%
%TO.N,/GND*%
X148590000Y-66620000D03*
%TO.P,J1,15,~{SRST}*%
%TO.N,/RESET*%
X151130000Y-69160000D03*
%TO.P,J1,16,GND*%
%TO.N,/GND*%
X151130000Y-66620000D03*
%TO.P,J1,17,DBGRQ/NC*%
%TO.N,Net-(J1-DBGRQ{slash}NC)*%
X153670000Y-69160000D03*
%TO.P,J1,18,GND*%
%TO.N,/GND*%
X153670000Y-66620000D03*
%TO.P,J1,19,DBGACK/NC*%
%TO.N,Net-(J1-DBGACK{slash}NC)*%
X156210000Y-69160000D03*
%TO.P,J1,20,GND*%
%TO.N,/GND*%
X156210000Y-66620000D03*
%TD*%
D15*
%TO.P,C6,1*%
%TO.N,/GND*%
X153040000Y-121230000D03*
%TO.P,C6,2*%
%TO.N,/RESET*%
X152400000Y-121230000D03*
%TD*%
%TO.P,C2,1*%
%TO.N,/GND*%
X149860000Y-84400000D03*
%TO.P,C2,2*%
%TO.N,/OSC_IN*%
X149220000Y-84400000D03*
%TD*%
D16*
%TO.P,R10,1*%
%TO.N,Net-(J1-RTCK)*%
X151130000Y-78075000D03*
%TO.P,R10,2*%
%TO.N,/GND*%
X151130000Y-78715000D03*
%TD*%
D20*
%TO.P,J3,1,Pin_1*%
%TO.N,/RESET*%
X161290000Y-80590000D03*
D21*
%TO.P,J3,2,Pin_2*%
%TO.N,/GND*%
X161290000Y-83130000D03*
%TO.P,J3,3,Pin_3*%
%TO.N,/5V*%
X161290000Y-85670000D03*
%TO.P,J3,4,Pin_4*%
%TO.N,/PC12*%
X161290000Y-88210000D03*
%TO.P,J3,5,Pin_5*%
%TO.N,/PC11*%
X161290000Y-90750000D03*
%TO.P,J3,6,Pin_6*%
%TO.N,/PC10*%
X161290000Y-93290000D03*
%TO.P,J3,7,Pin_7*%
%TO.N,/PA10{slash}USART1_RX*%
X161290000Y-95830000D03*
%TO.P,J3,8,Pin_8*%
%TO.N,/PA9{slash}USART1_TX*%
X161290000Y-98370000D03*
%TO.P,J3,9,Pin_9*%
%TO.N,/PA8*%
X161290000Y-100910000D03*
%TO.P,J3,10,Pin_10*%
%TO.N,/PC9*%
X161290000Y-103450000D03*
%TO.P,J3,11,Pin_11*%
%TO.N,/PC8*%
X161290000Y-105990000D03*
%TO.P,J3,12,Pin_12*%
%TO.N,/PC7*%
X161290000Y-108530000D03*
%TO.P,J3,13,Pin_13*%
%TO.N,/PC6*%
X161290000Y-111070000D03*
%TO.P,J3,14,Pin_14*%
%TO.N,/PB15*%
X161290000Y-113610000D03*
%TO.P,J3,15,Pin_15*%
%TO.N,/PB14*%
X161290000Y-116150000D03*
%TO.P,J3,16,Pin_16*%
%TO.N,/PB13*%
X161290000Y-118690000D03*
%TO.P,J3,17,Pin_17*%
%TO.N,/PB12*%
X161290000Y-121230000D03*
%TO.P,J3,18,Pin_18*%
%TO.N,/PB11*%
X161290000Y-123770000D03*
%TO.P,J3,19,Pin_19*%
%TO.N,/PB10*%
X161290000Y-126310000D03*
%TO.P,J3,20,Pin_20*%
%TO.N,/PB1*%
X161290000Y-128850000D03*
%TD*%
D19*
%TO.P,REF\u002A\u002A,1*%
%TO.N,/GND*%
X162560000Y-139010000D03*
%TD*%
D16*
%TO.P,R9,1*%
%TO.N,Net-(J1-DBGACK{slash}NC)*%
X156210000Y-78075000D03*
%TO.P,R9,2*%
%TO.N,/GND*%
X156210000Y-78715000D03*
%TD*%
D18*
%TO.P,R3,1*%
%TO.N,Net-(J5-CC1)*%
X149195000Y-127580000D03*
%TO.P,R3,2*%
%TO.N,/GND*%
X149835000Y-127580000D03*
%TD*%
D16*
%TO.P,R11,1*%
%TO.N,Net-(J1-DBGRQ{slash}NC)*%
X153670000Y-78075000D03*
%TO.P,R11,2*%
%TO.N,/GND*%
X153670000Y-78715000D03*
%TD*%
D26*
%TO.P,Y1,1,1*%
%TO.N,/OSC_OUT*%
X148550000Y-89480000D03*
%TO.P,Y1,2,2*%
%TO.N,/OSC_IN*%
X143670000Y-89480000D03*
%TD*%
D20*
%TO.P,J2,1,Pin_1*%
%TO.N,/VBAT*%
X129540000Y-80590000D03*
D21*
%TO.P,J2,2,Pin_2*%
%TO.N,/PB6*%
X129540000Y-83130000D03*
%TO.P,J2,3,Pin_3*%
%TO.N,/PB7*%
X129540000Y-85670000D03*
%TO.P,J2,4,Pin_4*%
%TO.N,/PB8*%
X129540000Y-88210000D03*
%TO.P,J2,5,Pin_5*%
%TO.N,/PB9*%
X129540000Y-90750000D03*
%TO.P,J2,6,Pin_6*%
%TO.N,/PC13*%
X129540000Y-93290000D03*
%TO.P,J2,7,Pin_7*%
%TO.N,/PA5*%
X129540000Y-95830000D03*
%TO.P,J2,8,Pin_8*%
%TO.N,/PA6*%
X129540000Y-98370000D03*
%TO.P,J2,9,Pin_9*%
%TO.N,/PC0*%
X129540000Y-100910000D03*
%TO.P,J2,10,Pin_10*%
%TO.N,/PC1*%
X129540000Y-103450000D03*
%TO.P,J2,11,Pin_11*%
%TO.N,/PC2*%
X129540000Y-105990000D03*
%TO.P,J2,12,Pin_12*%
%TO.N,/PC3*%
X129540000Y-108530000D03*
%TO.P,J2,13,Pin_13*%
%TO.N,/PA0*%
X129540000Y-111070000D03*
%TO.P,J2,14,Pin_14*%
%TO.N,/PA1*%
X129540000Y-113610000D03*
%TO.P,J2,15,Pin_15*%
%TO.N,/PA2*%
X129540000Y-116150000D03*
%TO.P,J2,16,Pin_16*%
%TO.N,/PA3*%
X129540000Y-118690000D03*
%TO.P,J2,17,Pin_17*%
%TO.N,/RESET*%
X129540000Y-121230000D03*
%TO.P,J2,18,Pin_18*%
X129540000Y-123770000D03*
%TO.P,J2,19,Pin_19*%
%TO.N,/GND*%
X129540000Y-126310000D03*
%TO.P,J2,20,Pin_20*%
X129540000Y-128850000D03*
%TD*%
D27*
%TO.N,Net-(J5-D--PadA7)*%
X146050000Y-132461000D03*
X145034000Y-134620000D03*
D28*
%TO.N,Net-(J5-CC2)*%
X146939000Y-131953000D03*
D27*
X146304000Y-134620000D03*
D28*
%TO.N,/GND*%
X150241000Y-132080000D03*
X142240000Y-131445000D03*
%TO.N,/5V*%
X148590000Y-131699000D03*
X143510000Y-131953000D03*
%TO.N,/GND*%
X142240000Y-116150000D03*
X147320000Y-111070000D03*
X142218369Y-113562009D03*
X154940000Y-118690000D03*
X153670000Y-132080000D03*
X152400000Y-109220000D03*
X135722701Y-97957299D03*
X138430000Y-83820000D03*
%TO.N,/OSC_IN*%
X139700000Y-105990000D03*
X140970000Y-100910000D03*
%TO.N,/OSC_OUT*%
X142240000Y-102180000D03*
X142240000Y-111070000D03*
%TO.N,/5V*%
X151130000Y-119380000D03*
X156210000Y-118690000D03*
X156210000Y-125040000D03*
X147320000Y-113030000D03*
X157480000Y-130810000D03*
X154808701Y-129916701D03*
%TO.N,/RESET*%
X148590000Y-116150000D03*
X143510000Y-111070000D03*
X147320000Y-117420000D03*
X132080000Y-79320000D03*
%TO.N,/JNTRST*%
X144780000Y-103450000D03*
%TO.N,/JTDI*%
X139700000Y-76780000D03*
X149860000Y-105990000D03*
%TO.N,/JTMS{slash}SWDIO*%
X148590000Y-93980000D03*
X152400000Y-105990000D03*
X152400000Y-94560000D03*
%TO.N,/JTCK{slash}SWCLK*%
X151130000Y-105990000D03*
%TO.N,/JTDO*%
X143510000Y-84400000D03*
X146050000Y-79320000D03*
X146050000Y-103450000D03*
X147320000Y-81860000D03*
%TO.N,/VBAT*%
X137160000Y-86940000D03*
X138430000Y-107260000D03*
%TO.N,/PB10*%
X148590000Y-125040000D03*
%TO.N,/PB11*%
X148590000Y-123770000D03*
%TO.N,/RESET*%
X143510000Y-103450000D03*
X144780000Y-115570000D03*
X134620000Y-119380000D03*
X137160000Y-112340000D03*
X144824341Y-111791705D03*
X154940000Y-85670000D03*
%TO.N,/PA4*%
X142240000Y-123190000D03*
X146050000Y-123190000D03*
%TO.N,/PA5*%
X143510000Y-121920000D03*
%TO.N,/PA6*%
X144780000Y-121920000D03*
%TO.N,/PA10{slash}USART1_RX*%
X148590000Y-113030000D03*
%TO.N,/PB1*%
X146050000Y-121230000D03*
%TO.N,Net-(J5-CC1)*%
X144780000Y-128850000D03*
X147320000Y-128850000D03*
%TO.N,/BOOT0*%
X143510000Y-109800000D03*
X132080000Y-126310000D03*
%TO.N,/USBDM*%
X146050000Y-125730000D03*
%TO.N,/USBDP*%
X144780000Y-125730000D03*
%TO.N,/OSC32_IN*%
X147320000Y-95250000D03*
X142240000Y-82550000D03*
X139700000Y-83820000D03*
X152400000Y-92710000D03*
X134345500Y-102870000D03*
%TO.N,/OSC32_OUT*%
X149860000Y-101600000D03*
X139700000Y-91440000D03*
X142240000Y-97790000D03*
X133350000Y-101600000D03*
X144780000Y-100330000D03*
%TO.N,/PA9{slash}USART1_TX*%
X148590000Y-114300000D03*
%TO.N,/PA11*%
X157480000Y-97790000D03*
%TO.N,/PA12*%
X157480000Y-96520000D03*
%TD*%
D29*
%TO.N,Net-(J5-D--PadA7)*%
X145034000Y-134557396D02*
X145128802Y-134652198D01*
X145034000Y-134620000D02*
X145034000Y-134557396D01*
X145096604Y-134620000D02*
X145034000Y-134620000D01*
X145292000Y-134815396D02*
X145096604Y-134620000D01*
X145292000Y-135229000D02*
X145292000Y-134815396D01*
%TO.N,/5V*%
X144292000Y-134904000D02*
X144292000Y-135229000D01*
X144042000Y-134654000D02*
X144292000Y-134904000D01*
X144042000Y-133929000D02*
X144042000Y-134654000D01*
%TO.N,Net-(J5-CC2)*%
X147925000Y-130967000D02*
X146939000Y-131953000D01*
X147925000Y-130120000D02*
X147925000Y-130967000D01*
X146292000Y-134632000D02*
X146304000Y-134620000D01*
X146292000Y-135229000D02*
X146292000Y-134632000D01*
%TO.N,/5V*%
X146792000Y-134779000D02*
X146792000Y-135229000D01*
X147042000Y-134529000D02*
X146792000Y-134779000D01*
X147042000Y-133929000D02*
X147042000Y-134529000D01*
%TO.N,/GND*%
X150241000Y-132080000D02*
X153670000Y-132080000D01*
X142240000Y-131410000D02*
X139695000Y-128865000D01*
X142240000Y-131445000D02*
X142240000Y-131410000D01*
X142275000Y-131445000D02*
X142240000Y-131445000D01*
%TO.N,/5V*%
X144042000Y-132485000D02*
X143510000Y-131953000D01*
X144042000Y-133929000D02*
X144042000Y-132485000D01*
%TO.N,/RESET*%
X152405000Y-122520000D02*
X152425000Y-122500000D01*
X152405000Y-124841000D02*
X152405000Y-122520000D01*
X152146000Y-125100000D02*
X151130000Y-125100000D01*
X152405000Y-124841000D02*
X152146000Y-125100000D01*
%TO.N,Net-(J5-D+-PadA6)*%
X145792000Y-134679000D02*
X145042000Y-133929000D01*
X145792000Y-135229000D02*
X145792000Y-134679000D01*
%TO.N,Net-(J5-CC1)*%
X144542000Y-129088000D02*
X144780000Y-128850000D01*
X144542000Y-133929000D02*
X144542000Y-129088000D01*
%TO.N,/GND*%
X148972000Y-135229000D02*
X149862000Y-134339000D01*
X148642000Y-135229000D02*
X148972000Y-135229000D01*
X142112000Y-135229000D02*
X141222000Y-134339000D01*
X142442000Y-135229000D02*
X142112000Y-135229000D01*
X142542000Y-131978000D02*
X142675000Y-131845000D01*
X142542000Y-133929000D02*
X142542000Y-131978000D01*
X142132000Y-134339000D02*
X142542000Y-133929000D01*
X141222000Y-134339000D02*
X142132000Y-134339000D01*
X148952000Y-134339000D02*
X148542000Y-133929000D01*
X149862000Y-134339000D02*
X148952000Y-134339000D01*
X148542000Y-133258000D02*
X149720000Y-132080000D01*
X148542000Y-133929000D02*
X148542000Y-133258000D01*
%TO.N,/5V*%
X147042000Y-133279000D02*
X147042000Y-133929000D01*
X152400000Y-130120000D02*
X150201000Y-130120000D01*
X150201000Y-130120000D02*
X147042000Y-133279000D01*
%TO.N,Net-(J5-D--PadA7)*%
X146042000Y-128833000D02*
X146042000Y-133929000D01*
X147320000Y-127555000D02*
X146042000Y-128833000D01*
%TO.N,Net-(J5-D+-PadA6)*%
X145415000Y-128459695D02*
X145415000Y-128190000D01*
X145505000Y-128549695D02*
X145415000Y-128459695D01*
X145415000Y-128190000D02*
X146050000Y-127555000D01*
X145415000Y-129240305D02*
X145505000Y-129150305D01*
X145505000Y-129150305D02*
X145505000Y-128549695D01*
X145042000Y-133929000D02*
X145415000Y-133556000D01*
X145415000Y-133556000D02*
X145415000Y-129240305D01*
%TO.N,/5V*%
X154808701Y-129916701D02*
X154570176Y-129916701D01*
X154570176Y-129916701D02*
X154300000Y-130186877D01*
%TO.N,/GND*%
X151770000Y-85478959D02*
X150691041Y-84400000D01*
X142205000Y-119345000D02*
X142205000Y-118110000D01*
X156210000Y-78715000D02*
X161860000Y-78715000D01*
X162465000Y-81955000D02*
X162465000Y-79320000D01*
X142675000Y-131845000D02*
X142275000Y-131445000D01*
X142218369Y-113562009D02*
X142218369Y-114509930D01*
X142205000Y-107154315D02*
X142205000Y-107995000D01*
X156790000Y-126310000D02*
X153350000Y-126310000D01*
X150691041Y-84400000D02*
X149860000Y-84400000D01*
X142218369Y-114509930D02*
X141308299Y-115420000D01*
X153350000Y-126310000D02*
X153350000Y-127315000D01*
X149922065Y-121920000D02*
X149908867Y-121933198D01*
X142205000Y-116185000D02*
X142240000Y-116150000D01*
X151970685Y-110420000D02*
X152400000Y-109990685D01*
X153670000Y-132080000D02*
X158750000Y-132080000D01*
X153670000Y-78715000D02*
X156210000Y-78715000D01*
X161290000Y-83130000D02*
X162465000Y-81955000D01*
X129540000Y-128850000D02*
X129540000Y-126310000D01*
X151130000Y-121920000D02*
X149922065Y-121920000D01*
X158750000Y-132080000D02*
X158750000Y-128270000D01*
X161860000Y-78715000D02*
X162465000Y-79320000D01*
X151130000Y-110420000D02*
X151970685Y-110420000D01*
X138405000Y-119380000D02*
X139675000Y-118110000D01*
X153350000Y-126310000D02*
X151105000Y-126310000D01*
X149908867Y-121933198D02*
X148705000Y-120729331D01*
X139675000Y-118110000D02*
X142205000Y-118110000D01*
X138430000Y-83820000D02*
X141115000Y-81135000D01*
X153040000Y-127625000D02*
X153350000Y-127315000D01*
X134620000Y-131400000D02*
X137155000Y-128865000D01*
X137160000Y-128870000D02*
X137155000Y-128865000D01*
X151770000Y-85670000D02*
X151770000Y-85478959D01*
X139695000Y-128865000D02*
X137155000Y-128865000D01*
X154310000Y-83130000D02*
X151770000Y-85670000D01*
X148705000Y-117384658D02*
X146595000Y-115274658D01*
X153040000Y-128850000D02*
X153040000Y-127625000D01*
X135722701Y-100672016D02*
X142205000Y-107154315D01*
X156210000Y-66620000D02*
X162465000Y-72875000D01*
X148705000Y-120729331D02*
X148705000Y-119345000D01*
X161290000Y-83130000D02*
X154310000Y-83130000D01*
X135722701Y-97957299D02*
X135722701Y-100672016D01*
X146595000Y-111795000D02*
X147320000Y-111070000D01*
X152315000Y-81135000D02*
X154310000Y-83130000D01*
X153040000Y-122475000D02*
X153065000Y-122500000D01*
X148705000Y-119345000D02*
X148705000Y-117384658D01*
X153350000Y-122785000D02*
X153350000Y-126310000D01*
X146595000Y-115274658D02*
X146595000Y-111795000D01*
X141308299Y-115420000D02*
X139780000Y-115420000D01*
X153040000Y-128850000D02*
X153040000Y-130120000D01*
X153040000Y-121230000D02*
X153040000Y-122475000D01*
D30*
X128270000Y-60270000D02*
X129540000Y-60270000D01*
D29*
X135890000Y-66620000D02*
X156210000Y-66620000D01*
X162465000Y-72875000D02*
X162465000Y-79320000D01*
X137155000Y-128865000D02*
X129555000Y-128865000D01*
X151130000Y-78715000D02*
X153670000Y-78715000D01*
X147970000Y-110420000D02*
X147320000Y-111070000D01*
X141115000Y-81135000D02*
X152315000Y-81135000D01*
X149720000Y-132080000D02*
X150241000Y-132080000D01*
X151105000Y-126310000D02*
X149835000Y-127580000D01*
X154360000Y-121230000D02*
X153040000Y-121230000D01*
X151130000Y-110420000D02*
X147970000Y-110420000D01*
X154940000Y-118690000D02*
X154940000Y-120650000D01*
X153065000Y-122500000D02*
X153350000Y-122785000D01*
X158750000Y-128270000D02*
X156790000Y-126310000D01*
X134620000Y-132920000D02*
X134620000Y-131400000D01*
X152400000Y-109990685D02*
X152400000Y-109220000D01*
X149835000Y-127580000D02*
X149835000Y-128850000D01*
X142205000Y-118110000D02*
X142205000Y-116185000D01*
X129555000Y-128865000D02*
X129540000Y-128850000D01*
X154940000Y-120650000D02*
X154360000Y-121230000D01*
%TO.N,/OSC_IN*%
X143510000Y-91735000D02*
X143510000Y-98370000D01*
X139700000Y-108530000D02*
X139700000Y-105990000D01*
X148630000Y-84400000D02*
X148630000Y-84520000D01*
X140970000Y-111570685D02*
X140970000Y-109769315D01*
X139730685Y-108530000D02*
X139700000Y-108530000D01*
X143670000Y-91575000D02*
X143510000Y-91735000D01*
X139780000Y-111920000D02*
X140620685Y-111920000D01*
X140970000Y-109769315D02*
X139730685Y-108530000D01*
X143670000Y-89480000D02*
X143670000Y-91575000D01*
X140620685Y-111920000D02*
X140970000Y-111570685D01*
X143510000Y-98370000D02*
X140970000Y-100910000D01*
X148630000Y-84520000D02*
X143670000Y-89480000D01*
X149220000Y-84400000D02*
X148630000Y-84400000D01*
%TO.N,/OSC_OUT*%
X140890000Y-112420000D02*
X139780000Y-112420000D01*
X144780000Y-93250000D02*
X148550000Y-89480000D01*
X148550000Y-88250000D02*
X151130000Y-85670000D01*
X142240000Y-102180000D02*
X142240000Y-100910000D01*
X148550000Y-89480000D02*
X148550000Y-88250000D01*
X144780000Y-98370000D02*
X144780000Y-93250000D01*
X142240000Y-100910000D02*
X144780000Y-98370000D01*
X142240000Y-111070000D02*
X140890000Y-112420000D01*
%TO.N,/5V*%
X147320000Y-113030000D02*
X147320000Y-114300000D01*
X152545000Y-117965000D02*
X155485000Y-117965000D01*
X152400000Y-130311041D02*
X152400000Y-130120000D01*
X148445000Y-115425000D02*
X149265305Y-115425000D01*
X157480000Y-130810000D02*
X157480000Y-129540000D01*
X157480000Y-129540000D02*
X155255000Y-127315000D01*
X150030000Y-116189695D02*
X150030000Y-118280000D01*
X147320000Y-114300000D02*
X148445000Y-115425000D01*
X154300000Y-130186877D02*
X153841877Y-130645000D01*
X150030000Y-118280000D02*
X151130000Y-119380000D01*
X156210000Y-118690000D02*
X156210000Y-125040000D01*
X152400000Y-127315000D02*
X152400000Y-128850000D01*
X153841877Y-130645000D02*
X152733959Y-130645000D01*
X155485000Y-117965000D02*
X156210000Y-118690000D01*
X155255000Y-127315000D02*
X154300000Y-127315000D01*
X149265305Y-115425000D02*
X150030000Y-116189695D01*
X152733959Y-130645000D02*
X152400000Y-130311041D01*
X154300000Y-130186877D02*
X154300000Y-127315000D01*
X152400000Y-128850000D02*
X152400000Y-130120000D01*
X151130000Y-119380000D02*
X152545000Y-117965000D01*
%TO.N,/RESET*%
X133350000Y-78050000D02*
X132080000Y-79320000D01*
X133350000Y-69160000D02*
X133350000Y-66620000D01*
X145360000Y-109220000D02*
X150430000Y-109220000D01*
X149205000Y-119995000D02*
X149205000Y-119345000D01*
X129555000Y-123785000D02*
X129540000Y-123770000D01*
X142095000Y-110345000D02*
X142540305Y-110345000D01*
X141705000Y-107995000D02*
X141705000Y-109955000D01*
X152425000Y-121255000D02*
X152400000Y-121230000D01*
X135890000Y-80590000D02*
X133350000Y-78050000D01*
X141444695Y-115920000D02*
X139780000Y-115920000D01*
X152400000Y-121230000D02*
X150440000Y-121230000D01*
X142540305Y-110345000D02*
X142965000Y-110769695D01*
X150430000Y-109220000D02*
X151130000Y-109920000D01*
X143510000Y-111070000D02*
X143510000Y-113030685D01*
X147320000Y-117420000D02*
X143510000Y-117420000D01*
X150440000Y-121230000D02*
X149205000Y-119995000D01*
X143510000Y-117420000D02*
X143510000Y-113030685D01*
X142705000Y-120775000D02*
X139695000Y-123785000D01*
X142705000Y-118225000D02*
X143510000Y-117420000D01*
X142965000Y-111070000D02*
X143510000Y-111070000D01*
X142965000Y-110769695D02*
X142965000Y-111070000D01*
X141705000Y-109955000D02*
X142095000Y-110345000D01*
X143510000Y-114880000D02*
X142484695Y-114880000D01*
X139695000Y-123785000D02*
X137155000Y-123785000D01*
X143510000Y-111070000D02*
X145360000Y-109220000D01*
X142705000Y-119345000D02*
X142705000Y-120775000D01*
X149205000Y-119345000D02*
X149205000Y-116765000D01*
X143510000Y-113030685D02*
X143510000Y-114880000D01*
X142484695Y-114880000D02*
X141444695Y-115920000D01*
X152340000Y-125100000D02*
X152400000Y-125040000D01*
X152425000Y-122500000D02*
X152425000Y-121255000D01*
X149205000Y-116765000D02*
X148590000Y-116150000D01*
X137155000Y-123785000D02*
X129555000Y-123785000D01*
X133350000Y-78050000D02*
X133350000Y-69160000D01*
X161290000Y-80590000D02*
X135890000Y-80590000D01*
X142705000Y-119345000D02*
X142705000Y-118225000D01*
%TO.N,Net-(D1-K)*%
X151130000Y-122560000D02*
X151130000Y-124460000D01*
%TO.N,/JNTRST*%
X145705000Y-104375000D02*
X144780000Y-103450000D01*
X145705000Y-107995000D02*
X145705000Y-104375000D01*
%TO.N,/JTDI*%
X148705000Y-107145000D02*
X148705000Y-107995000D01*
X139700000Y-70430000D02*
X138430000Y-69160000D01*
X149860000Y-105990000D02*
X148705000Y-107145000D01*
X139700000Y-76780000D02*
X139700000Y-70430000D01*
%TO.N,/JTMS{slash}SWDIO*%
X153670000Y-109845228D02*
X153670000Y-107260000D01*
X153670000Y-107260000D02*
X152400000Y-105990000D01*
X148590000Y-93980000D02*
X151820000Y-93980000D01*
X152595228Y-110920000D02*
X153670000Y-109845228D01*
X151130000Y-110920000D02*
X152595228Y-110920000D01*
X151820000Y-93980000D02*
X152400000Y-94560000D01*
%TO.N,/JTCK{slash}SWCLK*%
X149205000Y-107915000D02*
X151130000Y-105990000D01*
X149205000Y-107995000D02*
X149205000Y-107915000D01*
%TO.N,Net-(J1-RTCK)*%
X145749695Y-80045000D02*
X145325000Y-79620305D01*
X148320305Y-78075000D02*
X146350305Y-80045000D01*
X146350305Y-80045000D02*
X145749695Y-80045000D01*
X145325000Y-79620305D02*
X145325000Y-79019695D01*
X151130000Y-78075000D02*
X148320305Y-78075000D01*
X146050000Y-78294695D02*
X146050000Y-69160000D01*
X145325000Y-79019695D02*
X146050000Y-78294695D01*
%TO.N,/JTDO*%
X146050000Y-103450000D02*
X146205000Y-103605000D01*
X144780000Y-84400000D02*
X143510000Y-84400000D01*
X148590000Y-76780000D02*
X146050000Y-79320000D01*
X148590000Y-76780000D02*
X148590000Y-69160000D01*
X147320000Y-81860000D02*
X144780000Y-84400000D01*
X146205000Y-103605000D02*
X146205000Y-107995000D01*
%TO.N,Net-(J1-DBGRQ{slash}NC)*%
X153670000Y-78075000D02*
X153670000Y-69160000D01*
%TO.N,Net-(J1-DBGACK{slash}NC)*%
X156210000Y-78075000D02*
X156210000Y-69160000D01*
%TO.N,/VBAT*%
X130810000Y-80590000D02*
X129540000Y-80590000D01*
X138430000Y-107260000D02*
X138430000Y-108570000D01*
X138430000Y-108570000D02*
X139780000Y-109920000D01*
X137160000Y-86940000D02*
X130810000Y-80590000D01*
%TO.N,/PB9*%
X142705000Y-107017919D02*
X142705000Y-107995000D01*
X129540000Y-90750000D02*
X136447701Y-97657701D01*
X136447701Y-97657701D02*
X136447701Y-100760620D01*
X136447701Y-100760620D02*
X142705000Y-107017919D01*
%TO.N,/PB10*%
X147705000Y-123385000D02*
X147705000Y-124155000D01*
X147705000Y-119345000D02*
X147705000Y-123385000D01*
X147705000Y-124155000D02*
X148590000Y-125040000D01*
%TO.N,/PB11*%
X148205000Y-119345000D02*
X148205000Y-123385000D01*
X148205000Y-123385000D02*
X148590000Y-123770000D01*
%TO.N,/PB12*%
X157480000Y-117420000D02*
X161290000Y-121230000D01*
X151130000Y-117420000D02*
X157480000Y-117420000D01*
%TO.N,/PB13*%
X161290000Y-118690000D02*
X159520000Y-116920000D01*
X159520000Y-116920000D02*
X151130000Y-116920000D01*
%TO.N,/PB14*%
X151130000Y-116420000D02*
X161020000Y-116420000D01*
X161020000Y-116420000D02*
X161290000Y-116150000D01*
%TO.N,/PC0*%
X134250000Y-109427208D02*
X133350000Y-108527208D01*
X136339188Y-113420000D02*
X134250000Y-111330812D01*
X133350000Y-108527208D02*
X133350000Y-104720000D01*
X139780000Y-113420000D02*
X136339188Y-113420000D01*
X134250000Y-111330812D02*
X134250000Y-109427208D01*
X133350000Y-104720000D02*
X129540000Y-100910000D01*
%TO.N,/PC1*%
X133800000Y-111517208D02*
X136227792Y-113945000D01*
X132080000Y-105995584D02*
X132080000Y-107893604D01*
X129540000Y-103450000D02*
X129540000Y-103455584D01*
X136227792Y-113945000D02*
X139755000Y-113945000D01*
X129540000Y-103455584D02*
X132080000Y-105995584D01*
X139755000Y-113945000D02*
X139780000Y-113920000D01*
X133800000Y-109613604D02*
X133800000Y-111517208D01*
X132080000Y-107893604D02*
X133800000Y-109613604D01*
%TO.N,/PC2*%
X133350000Y-109800000D02*
X129540000Y-105990000D01*
X133350000Y-111703604D02*
X133350000Y-109800000D01*
X139780000Y-114420000D02*
X136066396Y-114420000D01*
X136066396Y-114420000D02*
X133350000Y-111703604D01*
%TO.N,/PC3*%
X129540000Y-108530000D02*
X135930000Y-114920000D01*
X135930000Y-114920000D02*
X139780000Y-114920000D01*
%TO.N,/PC10*%
X148205000Y-105107792D02*
X148205000Y-107995000D01*
X152032792Y-104350000D02*
X148962792Y-104350000D01*
X148962792Y-104350000D02*
X148205000Y-105107792D01*
X161290000Y-93290000D02*
X158750000Y-93290000D01*
X158750000Y-93290000D02*
X154120000Y-97920000D01*
X154120000Y-97920000D02*
X154120000Y-102262792D01*
X154120000Y-102262792D02*
X152032792Y-104350000D01*
%TO.N,/PC11*%
X160020000Y-90750000D02*
X161290000Y-90750000D01*
X148776396Y-103900000D02*
X151846396Y-103900000D01*
X153670000Y-97100000D02*
X160020000Y-90750000D01*
X153670000Y-102076396D02*
X153670000Y-97100000D01*
X147705000Y-107995000D02*
X147705000Y-104971396D01*
X147705000Y-104971396D02*
X148776396Y-103900000D01*
X151846396Y-103900000D02*
X153670000Y-102076396D01*
%TO.N,/PC12*%
X152875000Y-102235000D02*
X151660000Y-103450000D01*
X161290000Y-88210000D02*
X152875000Y-96625000D01*
X151660000Y-103450000D02*
X148590000Y-103450000D01*
X148590000Y-103450000D02*
X147205000Y-104835000D01*
X152875000Y-96625000D02*
X152875000Y-102235000D01*
X147205000Y-104835000D02*
X147205000Y-107995000D01*
%TO.N,/RESET*%
X144824341Y-111791705D02*
X146050000Y-113017364D01*
X128035000Y-129735000D02*
X134620000Y-136320000D01*
X147900000Y-100330000D02*
X147175000Y-99605000D01*
X146050000Y-114300000D02*
X144780000Y-115570000D01*
X146050000Y-113017364D02*
X146050000Y-114300000D01*
X134620000Y-119380000D02*
X137765000Y-119380000D01*
X139780000Y-112920000D02*
X137740000Y-112920000D01*
X144235000Y-99605000D02*
X143510000Y-100330000D01*
X154940000Y-85670000D02*
X154940000Y-93290000D01*
X128035000Y-122735000D02*
X129540000Y-121230000D01*
X154940000Y-93290000D02*
X147900000Y-100330000D01*
X128035000Y-122735000D02*
X128035000Y-129735000D01*
X137740000Y-112920000D02*
X137160000Y-112340000D01*
X147175000Y-99605000D02*
X144235000Y-99605000D01*
X143510000Y-100330000D02*
X143510000Y-103450000D01*
%TO.N,/PA0*%
X139780000Y-116420000D02*
X134890000Y-116420000D01*
X134890000Y-116420000D02*
X129540000Y-111070000D01*
%TO.N,/PA1*%
X132850000Y-116920000D02*
X139780000Y-116920000D01*
X129540000Y-113610000D02*
X132850000Y-116920000D01*
%TO.N,/PA2*%
X130810000Y-117420000D02*
X129540000Y-116150000D01*
X139780000Y-117420000D02*
X130810000Y-117420000D01*
%TO.N,/PA3*%
X141705000Y-121138604D02*
X141291802Y-121551802D01*
X141291802Y-121551802D02*
X132401802Y-121551802D01*
X132401802Y-121551802D02*
X129540000Y-118690000D01*
X141705000Y-119345000D02*
X141705000Y-121138604D01*
%TO.N,/PA4*%
X146050000Y-124460000D02*
X146050000Y-123190000D01*
X149253506Y-125765000D02*
X147355000Y-125765000D01*
X147355000Y-125765000D02*
X146050000Y-124460000D01*
X143205000Y-120955000D02*
X143205000Y-119345000D01*
X142240000Y-123190000D02*
X142240000Y-121920000D01*
X149908845Y-125109661D02*
X149253506Y-125765000D01*
X142240000Y-121920000D02*
X143205000Y-120955000D01*
%TO.N,/PA5*%
X143705000Y-119345000D02*
X143705000Y-121725000D01*
X143705000Y-121725000D02*
X143510000Y-121920000D01*
%TO.N,/PA6*%
X144205000Y-119345000D02*
X144205000Y-121345000D01*
X144205000Y-121345000D02*
X144780000Y-121920000D01*
%TO.N,/PA8*%
X158300000Y-103900000D02*
X161290000Y-100910000D01*
X151130000Y-113420000D02*
X153277208Y-113420000D01*
X153277208Y-113420000D02*
X158300000Y-108397208D01*
X158300000Y-108397208D02*
X158300000Y-103900000D01*
%TO.N,/PA10{slash}USART1_RX*%
X153029416Y-112395000D02*
X151130000Y-112395000D01*
X161290000Y-95830000D02*
X157345406Y-99774594D01*
X149200000Y-112420000D02*
X148590000Y-113030000D01*
X151130000Y-112420000D02*
X149200000Y-112420000D01*
X157345406Y-108079010D02*
X153029416Y-112395000D01*
X157345406Y-99774594D02*
X157345406Y-108079010D01*
X151130000Y-112395000D02*
X151130000Y-112420000D01*
%TO.N,/PB1*%
X146705000Y-120575000D02*
X146050000Y-121230000D01*
X146705000Y-119345000D02*
X146705000Y-120575000D01*
%TO.N,/PB6*%
X144705000Y-107995000D02*
X144705000Y-105335000D01*
X142858604Y-104175000D02*
X140150000Y-101466396D01*
X143545000Y-104175000D02*
X142858604Y-104175000D01*
X144705000Y-105335000D02*
X143545000Y-104175000D01*
X140150000Y-101466396D02*
X140150000Y-93740000D01*
X140150000Y-93740000D02*
X129540000Y-83130000D01*
%TO.N,/PB7*%
X144205000Y-107995000D02*
X144205000Y-106105000D01*
X142725000Y-104625000D02*
X142672208Y-104625000D01*
X139700000Y-95830000D02*
X129540000Y-85670000D01*
X144205000Y-106105000D02*
X142725000Y-104625000D01*
X139700000Y-101652792D02*
X139700000Y-95830000D01*
X142672208Y-104625000D02*
X139700000Y-101652792D01*
%TO.N,/PB8*%
X129540000Y-88210000D02*
X138430000Y-97100000D01*
X143205000Y-105794188D02*
X143205000Y-107995000D01*
X138430000Y-97100000D02*
X138430000Y-101019188D01*
X138430000Y-101019188D02*
X143205000Y-105794188D01*
%TO.N,Net-(J4-Pin_3)*%
X134015000Y-126310000D02*
X134030000Y-126325000D01*
X134030000Y-126325000D02*
X137155000Y-126325000D01*
%TO.N,Net-(J4-Pin_4)*%
X139695000Y-126325000D02*
X142260000Y-126325000D01*
X142260000Y-126325000D02*
X142275000Y-126310000D01*
%TO.N,Net-(J5-CC1)*%
X149195000Y-127580000D02*
X148590000Y-127580000D01*
X148590000Y-127580000D02*
X147320000Y-128850000D01*
%TO.N,Net-(J5-D--PadA7)*%
X147320000Y-127580000D02*
X147320000Y-127555000D01*
%TO.N,Net-(J5-CC2)*%
X147925000Y-130120000D02*
X149195000Y-128850000D01*
%TO.N,/BOOT0*%
X143705000Y-109605000D02*
X143510000Y-109800000D01*
X132080000Y-126310000D02*
X133375000Y-126310000D01*
X143705000Y-107995000D02*
X143705000Y-109605000D01*
%TO.N,/BOOT1*%
X146007500Y-121955000D02*
X142915000Y-125047500D01*
X146350305Y-121955000D02*
X146007500Y-121955000D01*
X147205000Y-119345000D02*
X147205000Y-121100305D01*
X142915000Y-125047500D02*
X142915000Y-126310000D01*
X147205000Y-121100305D02*
X146350305Y-121955000D01*
%TO.N,/USBDM*%
X146050000Y-125730000D02*
X146135000Y-125730000D01*
X146135000Y-125730000D02*
X147320000Y-126915000D01*
%TO.N,/USBDP*%
X146050000Y-126915000D02*
X145965000Y-126915000D01*
X145965000Y-126915000D02*
X144780000Y-125730000D01*
%TO.N,/PC13*%
X138416396Y-110420000D02*
X139780000Y-110420000D01*
X135070000Y-107073604D02*
X138416396Y-110420000D01*
X129540000Y-93290000D02*
X135070000Y-98820000D01*
X135070000Y-98820000D02*
X135070000Y-107073604D01*
%TO.N,/OSC32_IN*%
X134345500Y-106985500D02*
X138280000Y-110920000D01*
X152400000Y-92710000D02*
X148834695Y-92710000D01*
X140970000Y-83820000D02*
X139700000Y-83820000D01*
X134345500Y-102870000D02*
X134345500Y-106985500D01*
X138280000Y-110920000D02*
X139780000Y-110920000D01*
X148834695Y-92710000D02*
X147320000Y-94224695D01*
X147320000Y-94224695D02*
X147320000Y-95250000D01*
X142240000Y-82550000D02*
X140970000Y-83820000D01*
%TO.N,/OSC32_OUT*%
X146050000Y-101600000D02*
X144780000Y-100330000D01*
X139700000Y-91440000D02*
X142240000Y-93980000D01*
X135890000Y-110490000D02*
X135890000Y-110430812D01*
X139780000Y-111420000D02*
X136820000Y-111420000D01*
X136820000Y-111420000D02*
X135890000Y-110490000D01*
X133800000Y-104533604D02*
X133350000Y-104083604D01*
X135890000Y-110430812D02*
X133800000Y-108340812D01*
X133800000Y-108340812D02*
X133800000Y-104533604D01*
X142240000Y-93980000D02*
X142240000Y-97790000D01*
X133350000Y-104083604D02*
X133350000Y-101600000D01*
X149860000Y-101600000D02*
X146050000Y-101600000D01*
%TO.N,/PB15*%
X158980000Y-115920000D02*
X151130000Y-115920000D01*
X161290000Y-113610000D02*
X158980000Y-115920000D01*
%TO.N,/PC6*%
X151130000Y-115420000D02*
X156940000Y-115420000D01*
X156940000Y-115420000D02*
X161290000Y-111070000D01*
%TO.N,/PC7*%
X161290000Y-108530000D02*
X154900000Y-114920000D01*
X154900000Y-114920000D02*
X151130000Y-114920000D01*
%TO.N,/PC8*%
X161290000Y-106680000D02*
X161290000Y-105990000D01*
X151130000Y-114420000D02*
X153550000Y-114420000D01*
X153550000Y-114420000D02*
X161290000Y-106680000D01*
%TO.N,/PC9*%
X161290000Y-103450000D02*
X158750000Y-105990000D01*
X158750000Y-108583604D02*
X153413604Y-113920000D01*
X153413604Y-113920000D02*
X151130000Y-113920000D01*
X158750000Y-105990000D02*
X158750000Y-108583604D01*
%TO.N,Net-(D2-K)*%
X149908867Y-124469639D02*
X149908845Y-124469661D01*
X149908867Y-122573198D02*
X149908867Y-124469639D01*
%TO.N,/PA9{slash}USART1_TX*%
X151130000Y-112920000D02*
X149970000Y-112920000D01*
X149970000Y-112920000D02*
X148590000Y-114300000D01*
X157795406Y-101864594D02*
X161290000Y-98370000D01*
X157795406Y-108265406D02*
X157795406Y-101864594D01*
X153140812Y-112920000D02*
X157795406Y-108265406D01*
X151130000Y-112920000D02*
X153140812Y-112920000D01*
%TO.N,/PA11*%
X157480000Y-97790000D02*
X156895406Y-98374594D01*
X156895406Y-98374594D02*
X156895406Y-107892614D01*
X156895406Y-107892614D02*
X152868020Y-111920000D01*
X152868020Y-111920000D02*
X151130000Y-111920000D01*
%TO.N,/PA12*%
X157480000Y-96520000D02*
X154570000Y-99430000D01*
X154570000Y-99430000D02*
X154570000Y-109581624D01*
X152731624Y-111420000D02*
X151130000Y-111420000D01*
X154570000Y-109581624D02*
X152731624Y-111420000D01*
%TD*%
M02*
